G04 MADE WITH FRITZING*
G04 WWW.FRITZING.ORG*
G04 DOUBLE SIDED*
G04 HOLES PLATED*
G04 CONTOUR ON CENTER OF CONTOUR VECTOR*
%ASAXBY*%
%FSLAX23Y23*%
%MOIN*%
%OFA0B0*%
%SFA1.0B1.0*%
%ADD10C,0.136614*%
%ADD11C,0.080000*%
%ADD12C,0.090000*%
%ADD13C,0.103000*%
%ADD14C,0.136000*%
%ADD15C,0.148425*%
%ADD16C,0.105000*%
%ADD17C,0.061496*%
%ADD18C,0.072000*%
%ADD19C,0.076555*%
%ADD20C,0.059194*%
%ADD21C,0.175354*%
%ADD22R,0.090000X0.090000*%
%ADD23R,0.105000X0.105000*%
%ADD24R,0.001000X0.001000*%
%LNMASK1*%
G90*
G70*
G54D10*
X800Y4427D03*
G54D11*
X250Y3977D03*
X350Y3977D03*
X450Y3977D03*
X550Y3977D03*
X650Y3977D03*
X750Y3977D03*
X850Y3977D03*
G54D10*
X300Y4427D03*
G54D12*
X650Y1215D03*
X650Y1077D03*
X650Y1215D03*
X650Y1077D03*
X350Y1577D03*
X350Y1439D03*
X350Y1577D03*
X350Y1439D03*
X350Y3177D03*
X350Y3039D03*
X350Y3177D03*
X350Y3039D03*
X1387Y2477D03*
X1250Y2477D03*
X1387Y2477D03*
X1250Y2477D03*
X1487Y877D03*
X1350Y877D03*
X1487Y877D03*
X1350Y877D03*
X1487Y1177D03*
X1350Y1177D03*
X1487Y1177D03*
X1350Y1177D03*
X1150Y2915D03*
X1150Y2777D03*
X1150Y2915D03*
X1150Y2777D03*
X1150Y3315D03*
X1150Y3177D03*
X1150Y3315D03*
X1150Y3177D03*
X1150Y3715D03*
X1150Y3577D03*
X1150Y3715D03*
X1150Y3577D03*
X350Y1977D03*
X350Y1839D03*
X350Y1977D03*
X350Y1839D03*
X350Y3577D03*
X350Y3439D03*
X350Y3577D03*
X350Y3439D03*
G54D13*
X1581Y4176D03*
G54D14*
X1922Y4177D03*
G54D13*
X4450Y4177D03*
G54D14*
X4112Y4177D03*
G54D13*
X1581Y4176D03*
G54D14*
X1922Y4177D03*
G54D13*
X4450Y4177D03*
G54D14*
X4112Y4177D03*
G54D13*
X1581Y3376D03*
G54D14*
X1922Y3377D03*
G54D13*
X4450Y3377D03*
G54D14*
X4112Y3377D03*
G54D13*
X1581Y3376D03*
G54D14*
X1922Y3377D03*
G54D13*
X4450Y3377D03*
G54D14*
X4112Y3377D03*
G54D13*
X1581Y2576D03*
G54D14*
X1922Y2577D03*
G54D13*
X4450Y2577D03*
G54D14*
X4112Y2577D03*
G54D13*
X1581Y2576D03*
G54D14*
X1922Y2577D03*
G54D13*
X4450Y2577D03*
G54D14*
X4112Y2577D03*
G54D15*
X4000Y727D03*
G54D16*
X3999Y1219D03*
G54D17*
X3889Y1207D03*
G54D18*
X2350Y677D03*
X2450Y677D03*
X2550Y677D03*
X2650Y677D03*
X2750Y677D03*
X2850Y677D03*
X2950Y677D03*
X3050Y677D03*
X3150Y677D03*
G54D15*
X4000Y1427D03*
G54D18*
X3250Y677D03*
X3350Y677D03*
X3450Y677D03*
X3550Y677D03*
X3650Y677D03*
X3750Y677D03*
X3850Y677D03*
X3450Y1477D03*
X3350Y1477D03*
X3250Y1477D03*
X3150Y1477D03*
X3050Y1477D03*
X2950Y1477D03*
X2850Y1477D03*
X2750Y1477D03*
X2650Y1477D03*
X2550Y1477D03*
X2450Y1477D03*
X2350Y1477D03*
G54D17*
X3889Y947D03*
G54D16*
X3999Y935D03*
G54D15*
X4000Y727D03*
G54D16*
X3999Y1219D03*
G54D17*
X3889Y1207D03*
G54D18*
X2350Y677D03*
X2450Y677D03*
X2550Y677D03*
X2650Y677D03*
X2750Y677D03*
X2850Y677D03*
X2950Y677D03*
X3050Y677D03*
X3150Y677D03*
G54D15*
X4000Y1427D03*
G54D18*
X3250Y677D03*
X3350Y677D03*
X3450Y677D03*
X3550Y677D03*
X3650Y677D03*
X3750Y677D03*
X3850Y677D03*
X3450Y1477D03*
X3350Y1477D03*
X3250Y1477D03*
X3150Y1477D03*
X3050Y1477D03*
X2950Y1477D03*
X2850Y1477D03*
X2750Y1477D03*
X2650Y1477D03*
X2550Y1477D03*
X2450Y1477D03*
X2350Y1477D03*
G54D17*
X3889Y947D03*
G54D16*
X3999Y935D03*
G54D19*
X537Y1880D03*
X537Y1780D03*
X537Y1680D03*
X537Y1580D03*
X537Y1480D03*
X537Y1980D03*
X1550Y1777D03*
X1550Y1677D03*
G54D20*
X1550Y1877D03*
G54D19*
X1550Y1577D03*
G54D21*
X4550Y277D03*
X850Y1777D03*
X550Y4377D03*
X250Y277D03*
G54D12*
X1487Y577D03*
X1350Y577D03*
X1487Y577D03*
X1350Y577D03*
G54D22*
X650Y1215D03*
X650Y1215D03*
X350Y1577D03*
X350Y1577D03*
X350Y3177D03*
X350Y3177D03*
X1387Y2477D03*
X1387Y2477D03*
X1487Y877D03*
X1487Y877D03*
X1487Y1177D03*
X1487Y1177D03*
X1150Y2915D03*
X1150Y2915D03*
X1150Y3315D03*
X1150Y3315D03*
X1150Y3715D03*
X1150Y3715D03*
X350Y1977D03*
X350Y1977D03*
X350Y3577D03*
X350Y3577D03*
G54D23*
X3999Y1219D03*
X3999Y935D03*
X3999Y1219D03*
X3999Y935D03*
G54D22*
X1487Y577D03*
X1487Y577D03*
G54D24*
X503Y2015D02*
X570Y2015D01*
X502Y2014D02*
X571Y2014D01*
X502Y2013D02*
X571Y2013D01*
X502Y2012D02*
X571Y2012D01*
X502Y2011D02*
X571Y2011D01*
X502Y2010D02*
X571Y2010D01*
X502Y2009D02*
X571Y2009D01*
X502Y2008D02*
X571Y2008D01*
X502Y2007D02*
X571Y2007D01*
X502Y2006D02*
X571Y2006D01*
X502Y2005D02*
X571Y2005D01*
X502Y2004D02*
X571Y2004D01*
X502Y2003D02*
X571Y2003D01*
X502Y2002D02*
X571Y2002D01*
X502Y2001D02*
X571Y2001D01*
X502Y2000D02*
X571Y2000D01*
X502Y1999D02*
X571Y1999D01*
X502Y1998D02*
X571Y1998D01*
X502Y1997D02*
X571Y1997D01*
X502Y1996D02*
X571Y1996D01*
X502Y1995D02*
X571Y1995D01*
X502Y1994D02*
X571Y1994D01*
X502Y1993D02*
X532Y1993D01*
X541Y1993D02*
X571Y1993D01*
X502Y1992D02*
X529Y1992D01*
X544Y1992D02*
X571Y1992D01*
X502Y1991D02*
X528Y1991D01*
X545Y1991D02*
X571Y1991D01*
X502Y1990D02*
X527Y1990D01*
X546Y1990D02*
X571Y1990D01*
X502Y1989D02*
X526Y1989D01*
X547Y1989D02*
X571Y1989D01*
X502Y1988D02*
X525Y1988D01*
X548Y1988D02*
X571Y1988D01*
X502Y1987D02*
X524Y1987D01*
X549Y1987D02*
X571Y1987D01*
X502Y1986D02*
X524Y1986D01*
X549Y1986D02*
X571Y1986D01*
X502Y1985D02*
X523Y1985D01*
X550Y1985D02*
X571Y1985D01*
X502Y1984D02*
X523Y1984D01*
X550Y1984D02*
X571Y1984D01*
X502Y1983D02*
X523Y1983D01*
X550Y1983D02*
X571Y1983D01*
X502Y1982D02*
X523Y1982D01*
X550Y1982D02*
X571Y1982D01*
X502Y1981D02*
X523Y1981D01*
X550Y1981D02*
X571Y1981D01*
X502Y1980D02*
X522Y1980D01*
X550Y1980D02*
X571Y1980D01*
X502Y1979D02*
X523Y1979D01*
X550Y1979D02*
X571Y1979D01*
X502Y1978D02*
X523Y1978D01*
X550Y1978D02*
X571Y1978D01*
X502Y1977D02*
X523Y1977D01*
X550Y1977D02*
X571Y1977D01*
X502Y1976D02*
X523Y1976D01*
X550Y1976D02*
X571Y1976D01*
X502Y1975D02*
X523Y1975D01*
X550Y1975D02*
X571Y1975D01*
X502Y1974D02*
X524Y1974D01*
X549Y1974D02*
X571Y1974D01*
X502Y1973D02*
X525Y1973D01*
X548Y1973D02*
X571Y1973D01*
X502Y1972D02*
X525Y1972D01*
X548Y1972D02*
X571Y1972D01*
X502Y1971D02*
X526Y1971D01*
X547Y1971D02*
X571Y1971D01*
X502Y1970D02*
X527Y1970D01*
X546Y1970D02*
X571Y1970D01*
X502Y1969D02*
X528Y1969D01*
X545Y1969D02*
X571Y1969D01*
X502Y1968D02*
X530Y1968D01*
X543Y1968D02*
X571Y1968D01*
X502Y1967D02*
X533Y1967D01*
X540Y1967D02*
X571Y1967D01*
X502Y1966D02*
X571Y1966D01*
X502Y1965D02*
X571Y1965D01*
X502Y1964D02*
X571Y1964D01*
X502Y1963D02*
X571Y1963D01*
X502Y1962D02*
X571Y1962D01*
X502Y1961D02*
X571Y1961D01*
X502Y1960D02*
X571Y1960D01*
X502Y1959D02*
X571Y1959D01*
X502Y1958D02*
X571Y1958D01*
X502Y1957D02*
X571Y1957D01*
X502Y1956D02*
X571Y1956D01*
X502Y1955D02*
X571Y1955D01*
X502Y1954D02*
X571Y1954D01*
X502Y1953D02*
X571Y1953D01*
X502Y1952D02*
X571Y1952D01*
X502Y1951D02*
X571Y1951D01*
X502Y1950D02*
X571Y1950D01*
X502Y1949D02*
X571Y1949D01*
X502Y1948D02*
X571Y1948D01*
X502Y1947D02*
X571Y1947D01*
X502Y1946D02*
X571Y1946D01*
X1515Y1912D02*
X1583Y1912D01*
X1515Y1911D02*
X1583Y1911D01*
X1515Y1910D02*
X1583Y1910D01*
X1515Y1909D02*
X1583Y1909D01*
X1515Y1908D02*
X1583Y1908D01*
X1515Y1907D02*
X1583Y1907D01*
X1515Y1906D02*
X1583Y1906D01*
X1515Y1905D02*
X1583Y1905D01*
X1515Y1904D02*
X1583Y1904D01*
X1515Y1903D02*
X1583Y1903D01*
X1515Y1902D02*
X1583Y1902D01*
X1515Y1901D02*
X1583Y1901D01*
X1515Y1900D02*
X1583Y1900D01*
X1515Y1899D02*
X1583Y1899D01*
X1515Y1898D02*
X1583Y1898D01*
X1515Y1897D02*
X1583Y1897D01*
X1515Y1896D02*
X1583Y1896D01*
X1515Y1895D02*
X1583Y1895D01*
X1515Y1894D02*
X1583Y1894D01*
X1515Y1893D02*
X1583Y1893D01*
X1515Y1892D02*
X1583Y1892D01*
X1515Y1891D02*
X1583Y1891D01*
X1515Y1890D02*
X1543Y1890D01*
X1555Y1890D02*
X1583Y1890D01*
X1515Y1889D02*
X1541Y1889D01*
X1556Y1889D02*
X1583Y1889D01*
X1515Y1888D02*
X1540Y1888D01*
X1558Y1888D02*
X1583Y1888D01*
X1515Y1887D02*
X1539Y1887D01*
X1559Y1887D02*
X1583Y1887D01*
X1515Y1886D02*
X1538Y1886D01*
X1560Y1886D02*
X1583Y1886D01*
X1515Y1885D02*
X1537Y1885D01*
X1561Y1885D02*
X1583Y1885D01*
X1515Y1884D02*
X1537Y1884D01*
X1561Y1884D02*
X1583Y1884D01*
X1515Y1883D02*
X1536Y1883D01*
X1562Y1883D02*
X1583Y1883D01*
X1515Y1882D02*
X1536Y1882D01*
X1562Y1882D02*
X1583Y1882D01*
X1515Y1881D02*
X1535Y1881D01*
X1562Y1881D02*
X1583Y1881D01*
X1515Y1880D02*
X1535Y1880D01*
X1563Y1880D02*
X1583Y1880D01*
X1515Y1879D02*
X1535Y1879D01*
X1563Y1879D02*
X1583Y1879D01*
X1515Y1878D02*
X1535Y1878D01*
X1563Y1878D02*
X1583Y1878D01*
X1515Y1877D02*
X1535Y1877D01*
X1563Y1877D02*
X1583Y1877D01*
X1515Y1876D02*
X1535Y1876D01*
X1563Y1876D02*
X1583Y1876D01*
X1515Y1875D02*
X1535Y1875D01*
X1563Y1875D02*
X1583Y1875D01*
X1515Y1874D02*
X1535Y1874D01*
X1562Y1874D02*
X1583Y1874D01*
X1515Y1873D02*
X1536Y1873D01*
X1562Y1873D02*
X1583Y1873D01*
X1515Y1872D02*
X1536Y1872D01*
X1562Y1872D02*
X1583Y1872D01*
X1515Y1871D02*
X1537Y1871D01*
X1561Y1871D02*
X1583Y1871D01*
X1515Y1870D02*
X1537Y1870D01*
X1561Y1870D02*
X1583Y1870D01*
X1515Y1869D02*
X1538Y1869D01*
X1560Y1869D02*
X1583Y1869D01*
X1515Y1868D02*
X1539Y1868D01*
X1559Y1868D02*
X1583Y1868D01*
X1515Y1867D02*
X1540Y1867D01*
X1558Y1867D02*
X1583Y1867D01*
X1515Y1866D02*
X1541Y1866D01*
X1557Y1866D02*
X1583Y1866D01*
X1515Y1865D02*
X1543Y1865D01*
X1555Y1865D02*
X1583Y1865D01*
X1515Y1864D02*
X1548Y1864D01*
X1550Y1864D02*
X1583Y1864D01*
X1515Y1863D02*
X1583Y1863D01*
X1515Y1862D02*
X1583Y1862D01*
X1515Y1861D02*
X1583Y1861D01*
X1515Y1860D02*
X1583Y1860D01*
X1515Y1859D02*
X1583Y1859D01*
X1515Y1858D02*
X1583Y1858D01*
X1515Y1857D02*
X1583Y1857D01*
X1515Y1856D02*
X1583Y1856D01*
X1515Y1855D02*
X1583Y1855D01*
X1515Y1854D02*
X1583Y1854D01*
X1515Y1853D02*
X1583Y1853D01*
X1515Y1852D02*
X1583Y1852D01*
X1515Y1851D02*
X1583Y1851D01*
X1515Y1850D02*
X1583Y1850D01*
X1515Y1849D02*
X1583Y1849D01*
X1515Y1848D02*
X1583Y1848D01*
X1515Y1847D02*
X1583Y1847D01*
X1515Y1846D02*
X1583Y1846D01*
X1515Y1845D02*
X1583Y1845D01*
X1515Y1844D02*
X1583Y1844D01*
X1515Y1843D02*
X1583Y1843D01*
X3863Y1253D02*
X3914Y1253D01*
X3863Y1252D02*
X3914Y1252D01*
X3863Y1251D02*
X3914Y1251D01*
X3863Y1250D02*
X3914Y1250D01*
X3863Y1249D02*
X3914Y1249D01*
X3863Y1248D02*
X3914Y1248D01*
X3863Y1247D02*
X3914Y1247D01*
X3863Y1246D02*
X3914Y1246D01*
X3863Y1245D02*
X3914Y1245D01*
X3863Y1244D02*
X3914Y1244D01*
X3863Y1243D02*
X3914Y1243D01*
X3863Y1242D02*
X3914Y1242D01*
X3863Y1241D02*
X3914Y1241D01*
X3863Y1240D02*
X3914Y1240D01*
X3863Y1239D02*
X3914Y1239D01*
X3863Y1238D02*
X3914Y1238D01*
X3863Y1237D02*
X3914Y1237D01*
X3863Y1236D02*
X3914Y1236D01*
X3863Y1235D02*
X3914Y1235D01*
X3863Y1234D02*
X3914Y1234D01*
X3863Y1233D02*
X3914Y1233D01*
X3863Y1232D02*
X3914Y1232D01*
X3863Y1231D02*
X3914Y1231D01*
X3863Y1230D02*
X3914Y1230D01*
X3863Y1229D02*
X3914Y1229D01*
X3863Y1228D02*
X3914Y1228D01*
X3863Y1227D02*
X3914Y1227D01*
X3863Y1226D02*
X3914Y1226D01*
X3863Y1225D02*
X3914Y1225D01*
X3863Y1224D02*
X3914Y1224D01*
X3863Y1223D02*
X3886Y1223D01*
X3891Y1223D02*
X3914Y1223D01*
X3863Y1222D02*
X3882Y1222D01*
X3895Y1222D02*
X3914Y1222D01*
X3863Y1221D02*
X3880Y1221D01*
X3897Y1221D02*
X3914Y1221D01*
X3863Y1220D02*
X3878Y1220D01*
X3898Y1220D02*
X3914Y1220D01*
X3863Y1219D02*
X3877Y1219D01*
X3899Y1219D02*
X3914Y1219D01*
X3863Y1218D02*
X3876Y1218D01*
X3900Y1218D02*
X3914Y1218D01*
X3863Y1217D02*
X3875Y1217D01*
X3901Y1217D02*
X3914Y1217D01*
X3863Y1216D02*
X3875Y1216D01*
X3902Y1216D02*
X3914Y1216D01*
X3863Y1215D02*
X3874Y1215D01*
X3903Y1215D02*
X3914Y1215D01*
X3863Y1214D02*
X3873Y1214D01*
X3903Y1214D02*
X3914Y1214D01*
X3863Y1213D02*
X3873Y1213D01*
X3904Y1213D02*
X3914Y1213D01*
X3863Y1212D02*
X3873Y1212D01*
X3904Y1212D02*
X3914Y1212D01*
X3863Y1211D02*
X3872Y1211D01*
X3904Y1211D02*
X3914Y1211D01*
X3863Y1210D02*
X3872Y1210D01*
X3904Y1210D02*
X3914Y1210D01*
X3863Y1209D02*
X3872Y1209D01*
X3904Y1209D02*
X3914Y1209D01*
X3863Y1208D02*
X3872Y1208D01*
X3904Y1208D02*
X3914Y1208D01*
X3863Y1207D02*
X3872Y1207D01*
X3904Y1207D02*
X3914Y1207D01*
X3863Y1206D02*
X3872Y1206D01*
X3904Y1206D02*
X3914Y1206D01*
X3863Y1205D02*
X3872Y1205D01*
X3904Y1205D02*
X3914Y1205D01*
X3863Y1204D02*
X3872Y1204D01*
X3904Y1204D02*
X3914Y1204D01*
X3863Y1203D02*
X3873Y1203D01*
X3904Y1203D02*
X3914Y1203D01*
X3863Y1202D02*
X3873Y1202D01*
X3904Y1202D02*
X3914Y1202D01*
X3863Y1201D02*
X3873Y1201D01*
X3903Y1201D02*
X3914Y1201D01*
X3863Y1200D02*
X3874Y1200D01*
X3903Y1200D02*
X3914Y1200D01*
X3863Y1199D02*
X3874Y1199D01*
X3902Y1199D02*
X3914Y1199D01*
X3863Y1198D02*
X3875Y1198D01*
X3901Y1198D02*
X3914Y1198D01*
X3863Y1197D02*
X3876Y1197D01*
X3900Y1197D02*
X3914Y1197D01*
X3863Y1196D02*
X3877Y1196D01*
X3900Y1196D02*
X3914Y1196D01*
X3863Y1195D02*
X3878Y1195D01*
X3898Y1195D02*
X3914Y1195D01*
X3863Y1194D02*
X3879Y1194D01*
X3897Y1194D02*
X3914Y1194D01*
X3863Y1193D02*
X3881Y1193D01*
X3895Y1193D02*
X3914Y1193D01*
X3863Y1192D02*
X3886Y1192D01*
X3891Y1192D02*
X3914Y1192D01*
X3863Y1191D02*
X3914Y1191D01*
X3863Y1190D02*
X3914Y1190D01*
X3863Y1189D02*
X3914Y1189D01*
X3863Y1188D02*
X3914Y1188D01*
X3863Y1187D02*
X3914Y1187D01*
X3863Y1186D02*
X3914Y1186D01*
X3863Y1185D02*
X3914Y1185D01*
X3863Y1184D02*
X3914Y1184D01*
X3863Y1183D02*
X3914Y1183D01*
X3863Y1182D02*
X3913Y1182D01*
X3863Y973D02*
X3913Y973D01*
X3863Y972D02*
X3914Y972D01*
X3863Y971D02*
X3914Y971D01*
X3863Y970D02*
X3914Y970D01*
X3863Y969D02*
X3914Y969D01*
X3863Y968D02*
X3914Y968D01*
X3863Y967D02*
X3914Y967D01*
X3863Y966D02*
X3914Y966D01*
X3863Y965D02*
X3914Y965D01*
X3863Y964D02*
X3914Y964D01*
X3863Y963D02*
X3886Y963D01*
X3891Y963D02*
X3914Y963D01*
X3863Y962D02*
X3881Y962D01*
X3895Y962D02*
X3914Y962D01*
X3863Y961D02*
X3879Y961D01*
X3897Y961D02*
X3914Y961D01*
X3863Y960D02*
X3878Y960D01*
X3898Y960D02*
X3914Y960D01*
X3863Y959D02*
X3877Y959D01*
X3900Y959D02*
X3914Y959D01*
X3863Y958D02*
X3876Y958D01*
X3901Y958D02*
X3914Y958D01*
X3863Y957D02*
X3875Y957D01*
X3901Y957D02*
X3914Y957D01*
X3863Y956D02*
X3874Y956D01*
X3902Y956D02*
X3914Y956D01*
X3863Y955D02*
X3874Y955D01*
X3903Y955D02*
X3914Y955D01*
X3863Y954D02*
X3873Y954D01*
X3903Y954D02*
X3914Y954D01*
X3863Y953D02*
X3873Y953D01*
X3904Y953D02*
X3914Y953D01*
X3863Y952D02*
X3873Y952D01*
X3904Y952D02*
X3914Y952D01*
X3863Y951D02*
X3872Y951D01*
X3904Y951D02*
X3914Y951D01*
X3863Y950D02*
X3872Y950D01*
X3904Y950D02*
X3914Y950D01*
X3863Y949D02*
X3872Y949D01*
X3904Y949D02*
X3914Y949D01*
X3863Y948D02*
X3872Y948D01*
X3904Y948D02*
X3914Y948D01*
X3863Y947D02*
X3872Y947D01*
X3904Y947D02*
X3914Y947D01*
X3863Y946D02*
X3872Y946D01*
X3904Y946D02*
X3914Y946D01*
X3863Y945D02*
X3872Y945D01*
X3904Y945D02*
X3914Y945D01*
X3863Y944D02*
X3872Y944D01*
X3904Y944D02*
X3914Y944D01*
X3863Y943D02*
X3873Y943D01*
X3904Y943D02*
X3914Y943D01*
X3863Y942D02*
X3873Y942D01*
X3904Y942D02*
X3914Y942D01*
X3863Y941D02*
X3873Y941D01*
X3903Y941D02*
X3914Y941D01*
X3863Y940D02*
X3874Y940D01*
X3903Y940D02*
X3914Y940D01*
X3863Y939D02*
X3875Y939D01*
X3902Y939D02*
X3914Y939D01*
X3863Y938D02*
X3875Y938D01*
X3901Y938D02*
X3914Y938D01*
X3863Y937D02*
X3876Y937D01*
X3900Y937D02*
X3914Y937D01*
X3863Y936D02*
X3877Y936D01*
X3899Y936D02*
X3914Y936D01*
X3863Y935D02*
X3878Y935D01*
X3898Y935D02*
X3914Y935D01*
X3863Y934D02*
X3880Y934D01*
X3897Y934D02*
X3914Y934D01*
X3863Y933D02*
X3882Y933D01*
X3895Y933D02*
X3914Y933D01*
X3863Y932D02*
X3886Y932D01*
X3890Y932D02*
X3914Y932D01*
X3863Y931D02*
X3914Y931D01*
X3863Y930D02*
X3914Y930D01*
X3863Y929D02*
X3914Y929D01*
X3863Y928D02*
X3914Y928D01*
X3863Y927D02*
X3914Y927D01*
X3863Y926D02*
X3914Y926D01*
X3863Y925D02*
X3914Y925D01*
X3863Y924D02*
X3914Y924D01*
X3863Y923D02*
X3914Y923D01*
X3863Y922D02*
X3914Y922D01*
X3863Y921D02*
X3914Y921D01*
X3863Y920D02*
X3914Y920D01*
X3863Y919D02*
X3914Y919D01*
X3863Y918D02*
X3914Y918D01*
X3863Y917D02*
X3914Y917D01*
X3863Y916D02*
X3914Y916D01*
X3863Y915D02*
X3914Y915D01*
X3863Y914D02*
X3914Y914D01*
X3863Y913D02*
X3914Y913D01*
X3863Y912D02*
X3914Y912D01*
X3863Y911D02*
X3914Y911D01*
X3863Y910D02*
X3914Y910D01*
X3863Y909D02*
X3914Y909D01*
X3863Y908D02*
X3914Y908D01*
X3863Y907D02*
X3914Y907D01*
X3863Y906D02*
X3914Y906D01*
X3863Y905D02*
X3914Y905D01*
X3863Y904D02*
X3914Y904D01*
X3863Y903D02*
X3914Y903D01*
X3863Y902D02*
X3914Y902D01*
D02*
G04 End of Mask1*
M02*