; NON-PLATED HOLES START AT T1
; THROUGH (PLATED) HOLES START AT T100
M48
INCH
T1C0.049194
T2C0.165354
T3C0.126000
T100C0.031496
T101C0.040000
T102C0.086614
T103C0.039370
T104C0.035433
T105C0.073000
T106C0.031833
T107C0.098425
%
T1
X015495Y018771
T2
X005495Y043771
X008495Y017771
X045495Y002770
X002495Y002770
T3
X041120Y041769
X019222Y041769
X041120Y033769
X019222Y025769
X041120Y025769
X019222Y033769
T100
X038890Y009471
X038890Y012070
T101
X014873Y011771
X011495Y035771
X011495Y027771
X013495Y005770
X003495Y018393
X013495Y011771
X013873Y024771
X003495Y015771
X003495Y031771
X003495Y014393
X003495Y019771
X006495Y012148
X011495Y031771
X006495Y010771
X014873Y005770
X003495Y034393
X011495Y037149
X013495Y008771
X003495Y030393
X003495Y035771
X011495Y033148
X014873Y008771
X011495Y029148
X012495Y024771
T102
X002995Y044271
X007995Y044271
T103
X003495Y039771
X008495Y039771
X007495Y039771
X006495Y039771
X002495Y039771
X005495Y039771
X004495Y039771
T104
X038495Y006770
X028495Y006770
X034495Y006770
X024495Y006770
X024495Y014771
X032495Y006770
X033495Y014771
X030495Y006770
X033495Y006770
X031495Y006770
X032495Y014771
X036495Y006770
X029495Y006770
X025495Y006770
X039993Y012188
X030495Y014771
X027495Y014771
X031495Y014771
X023495Y006770
X023495Y014771
X027495Y006770
X035495Y006770
X037495Y006770
X026495Y006770
X039993Y009353
X028495Y014771
X034495Y014771
X026495Y014771
X029495Y014771
X025495Y014771
T105
X015805Y025764
X015805Y041764
X044495Y041771
X044495Y025771
X044495Y033771
X015805Y033764
T106
X015495Y015771
X005370Y019798
X005370Y016798
X005370Y017798
X005370Y015798
X015495Y016771
X005370Y018798
X015495Y017771
X005370Y014798
T107
X039995Y014271
X039995Y007270
T00
M30
