G04 MADE WITH FRITZING*
G04 WWW.FRITZING.ORG*
G04 DOUBLE SIDED*
G04 HOLES PLATED*
G04 CONTOUR ON CENTER OF CONTOUR VECTOR*
%ASAXBY*%
%FSLAX23Y23*%
%MOIN*%
%OFA0B0*%
%SFA1.0B1.0*%
%ADD10C,0.126614*%
%ADD11C,0.070000*%
%ADD12C,0.080000*%
%ADD13C,0.093000*%
%ADD14C,0.138425*%
%ADD15C,0.095000*%
%ADD16C,0.051496*%
%ADD17C,0.062000*%
%ADD18C,0.066555*%
%ADD19C,0.049194*%
%ADD20R,0.080000X0.080000*%
%ADD21R,0.095000X0.095000*%
%ADD22C,0.024000*%
%ADD23R,0.001000X0.001000*%
%LNCOPPER0*%
G90*
G70*
G54D10*
X800Y4427D03*
G54D11*
X250Y3977D03*
X350Y3977D03*
X450Y3977D03*
X550Y3977D03*
X650Y3977D03*
X750Y3977D03*
X850Y3977D03*
G54D10*
X300Y4427D03*
G54D12*
X650Y1215D03*
X650Y1077D03*
X650Y1215D03*
X650Y1077D03*
X350Y1577D03*
X350Y1439D03*
X350Y1577D03*
X350Y1439D03*
X350Y3177D03*
X350Y3039D03*
X350Y3177D03*
X350Y3039D03*
X1387Y2477D03*
X1250Y2477D03*
X1387Y2477D03*
X1250Y2477D03*
X1487Y877D03*
X1350Y877D03*
X1487Y877D03*
X1350Y877D03*
X1487Y577D03*
X1350Y577D03*
X1487Y577D03*
X1350Y577D03*
X1487Y1177D03*
X1350Y1177D03*
X1487Y1177D03*
X1350Y1177D03*
X1150Y2915D03*
X1150Y2777D03*
X1150Y2915D03*
X1150Y2777D03*
X1150Y3315D03*
X1150Y3177D03*
X1150Y3315D03*
X1150Y3177D03*
X1150Y3715D03*
X1150Y3577D03*
X1150Y3715D03*
X1150Y3577D03*
X350Y1977D03*
X350Y1839D03*
X350Y1977D03*
X350Y1839D03*
X350Y3577D03*
X350Y3439D03*
X350Y3577D03*
X350Y3439D03*
G54D13*
X1581Y4176D03*
X4450Y4177D03*
X1581Y4176D03*
X4450Y4177D03*
X1581Y3376D03*
X4450Y3377D03*
X1581Y3376D03*
X4450Y3377D03*
X1581Y2576D03*
X4450Y2577D03*
X1581Y2576D03*
X4450Y2577D03*
G54D14*
X4000Y727D03*
G54D15*
X3999Y1219D03*
G54D16*
X3889Y1207D03*
G54D17*
X2350Y677D03*
X2450Y677D03*
X2550Y677D03*
X2650Y677D03*
X2750Y677D03*
X2850Y677D03*
X2950Y677D03*
X3050Y677D03*
X3150Y677D03*
G54D14*
X4000Y1427D03*
G54D17*
X3250Y677D03*
X3350Y677D03*
X3450Y677D03*
X3550Y677D03*
X3650Y677D03*
X3750Y677D03*
X3850Y677D03*
X3450Y1477D03*
X3350Y1477D03*
X3250Y1477D03*
X3150Y1477D03*
X3050Y1477D03*
X2950Y1477D03*
X2850Y1477D03*
X2750Y1477D03*
X2650Y1477D03*
X2550Y1477D03*
X2450Y1477D03*
X2350Y1477D03*
G54D16*
X3889Y947D03*
G54D15*
X3999Y935D03*
G54D14*
X4000Y727D03*
G54D15*
X3999Y1219D03*
G54D16*
X3889Y1207D03*
G54D17*
X2350Y677D03*
X2450Y677D03*
X2550Y677D03*
X2650Y677D03*
X2750Y677D03*
X2850Y677D03*
X2950Y677D03*
X3050Y677D03*
X3150Y677D03*
G54D14*
X4000Y1427D03*
G54D17*
X3250Y677D03*
X3350Y677D03*
X3450Y677D03*
X3550Y677D03*
X3650Y677D03*
X3750Y677D03*
X3850Y677D03*
X3450Y1477D03*
X3350Y1477D03*
X3250Y1477D03*
X3150Y1477D03*
X3050Y1477D03*
X2950Y1477D03*
X2850Y1477D03*
X2750Y1477D03*
X2650Y1477D03*
X2550Y1477D03*
X2450Y1477D03*
X2350Y1477D03*
G54D16*
X3889Y947D03*
G54D15*
X3999Y935D03*
G54D18*
X537Y1880D03*
X537Y1780D03*
X537Y1680D03*
X537Y1580D03*
X537Y1480D03*
X537Y1980D03*
X1550Y1777D03*
X1550Y1677D03*
G54D19*
X1550Y1877D03*
G54D18*
X1550Y1577D03*
G54D20*
X650Y1215D03*
X650Y1215D03*
X350Y1577D03*
X350Y1577D03*
X350Y3177D03*
X350Y3177D03*
X1387Y2477D03*
X1387Y2477D03*
X1487Y877D03*
X1487Y877D03*
X1487Y577D03*
X1487Y577D03*
X1487Y1177D03*
X1487Y1177D03*
X1150Y2915D03*
X1150Y2915D03*
X1150Y3315D03*
X1150Y3315D03*
X1150Y3715D03*
X1150Y3715D03*
X350Y1977D03*
X350Y1977D03*
X350Y3577D03*
X350Y3577D03*
G54D21*
X3999Y1219D03*
X3999Y935D03*
X3999Y1219D03*
X3999Y935D03*
G54D22*
X450Y3476D02*
X651Y3476D01*
D02*
X651Y3476D02*
X650Y3946D01*
D02*
X379Y3450D02*
X450Y3476D01*
D02*
X651Y3078D02*
X450Y3078D01*
D02*
X450Y3078D02*
X379Y3051D01*
D02*
X650Y3946D02*
X651Y3078D01*
D02*
X3147Y777D02*
X3229Y697D01*
D02*
X3147Y976D02*
X3147Y777D01*
D02*
X1650Y976D02*
X3147Y976D01*
D02*
X1507Y1153D02*
X1650Y976D01*
D02*
X2948Y879D02*
X1518Y877D01*
D02*
X2949Y706D02*
X2948Y879D01*
D02*
X1551Y2379D02*
X1573Y2529D01*
D02*
X1551Y2078D02*
X1551Y2379D01*
D02*
X1550Y1906D02*
X1551Y2078D01*
D02*
X1581Y3424D02*
X1581Y4129D01*
D02*
X1150Y4176D02*
X1150Y3975D01*
D02*
X1150Y3975D02*
X880Y3977D01*
D02*
X1533Y4176D02*
X1150Y4176D01*
D02*
X1150Y3975D02*
X1150Y3746D01*
D02*
X1124Y3697D02*
X947Y3577D01*
D02*
X947Y3577D02*
X947Y3380D01*
D02*
X947Y3380D02*
X1120Y3324D01*
D02*
X947Y3177D02*
X1124Y3297D01*
D02*
X947Y2974D02*
X947Y3177D01*
D02*
X1120Y2924D02*
X947Y2974D01*
D02*
X947Y2777D02*
X1124Y2897D01*
D02*
X947Y2575D02*
X947Y2777D01*
D02*
X1220Y2487D02*
X947Y2575D01*
D02*
X1348Y2377D02*
X1348Y1679D01*
D02*
X1376Y2448D02*
X1348Y2377D01*
D02*
X1348Y1679D02*
X1525Y1589D01*
D02*
X1581Y2624D02*
X1581Y3329D01*
D02*
X249Y3179D02*
X249Y3576D01*
D02*
X249Y3576D02*
X318Y3577D01*
D02*
X318Y3178D02*
X249Y3179D01*
D02*
X450Y3576D02*
X381Y3577D01*
D02*
X550Y3677D02*
X450Y3576D01*
D02*
X550Y3946D02*
X550Y3677D01*
G54D23*
X508Y2010D02*
X565Y2010D01*
X507Y2009D02*
X566Y2009D01*
X507Y2008D02*
X566Y2008D01*
X507Y2007D02*
X566Y2007D01*
X507Y2006D02*
X566Y2006D01*
X507Y2005D02*
X566Y2005D01*
X507Y2004D02*
X566Y2004D01*
X507Y2003D02*
X566Y2003D01*
X507Y2002D02*
X566Y2002D01*
X507Y2001D02*
X566Y2001D01*
X507Y2000D02*
X566Y2000D01*
X507Y1999D02*
X566Y1999D01*
X507Y1998D02*
X531Y1998D01*
X542Y1998D02*
X566Y1998D01*
X507Y1997D02*
X528Y1997D01*
X545Y1997D02*
X566Y1997D01*
X507Y1996D02*
X526Y1996D01*
X547Y1996D02*
X566Y1996D01*
X507Y1995D02*
X525Y1995D01*
X548Y1995D02*
X566Y1995D01*
X507Y1994D02*
X524Y1994D01*
X549Y1994D02*
X566Y1994D01*
X507Y1993D02*
X523Y1993D01*
X550Y1993D02*
X566Y1993D01*
X507Y1992D02*
X522Y1992D01*
X551Y1992D02*
X566Y1992D01*
X507Y1991D02*
X521Y1991D01*
X552Y1991D02*
X566Y1991D01*
X507Y1990D02*
X520Y1990D01*
X553Y1990D02*
X566Y1990D01*
X507Y1989D02*
X520Y1989D01*
X553Y1989D02*
X566Y1989D01*
X507Y1988D02*
X519Y1988D01*
X554Y1988D02*
X566Y1988D01*
X507Y1987D02*
X519Y1987D01*
X554Y1987D02*
X566Y1987D01*
X507Y1986D02*
X518Y1986D01*
X554Y1986D02*
X566Y1986D01*
X507Y1985D02*
X518Y1985D01*
X555Y1985D02*
X566Y1985D01*
X507Y1984D02*
X518Y1984D01*
X555Y1984D02*
X566Y1984D01*
X507Y1983D02*
X518Y1983D01*
X555Y1983D02*
X566Y1983D01*
X507Y1982D02*
X518Y1982D01*
X555Y1982D02*
X566Y1982D01*
X507Y1981D02*
X518Y1981D01*
X555Y1981D02*
X566Y1981D01*
X507Y1980D02*
X517Y1980D01*
X555Y1980D02*
X566Y1980D01*
X507Y1979D02*
X518Y1979D01*
X555Y1979D02*
X566Y1979D01*
X507Y1978D02*
X518Y1978D01*
X555Y1978D02*
X566Y1978D01*
X507Y1977D02*
X518Y1977D01*
X555Y1977D02*
X566Y1977D01*
X507Y1976D02*
X518Y1976D01*
X555Y1976D02*
X566Y1976D01*
X507Y1975D02*
X518Y1975D01*
X555Y1975D02*
X566Y1975D01*
X507Y1974D02*
X519Y1974D01*
X554Y1974D02*
X566Y1974D01*
X507Y1973D02*
X519Y1973D01*
X554Y1973D02*
X566Y1973D01*
X507Y1972D02*
X519Y1972D01*
X554Y1972D02*
X566Y1972D01*
X507Y1971D02*
X520Y1971D01*
X553Y1971D02*
X566Y1971D01*
X507Y1970D02*
X521Y1970D01*
X552Y1970D02*
X566Y1970D01*
X507Y1969D02*
X521Y1969D01*
X552Y1969D02*
X566Y1969D01*
X507Y1968D02*
X522Y1968D01*
X551Y1968D02*
X566Y1968D01*
X507Y1967D02*
X523Y1967D01*
X550Y1967D02*
X566Y1967D01*
X507Y1966D02*
X524Y1966D01*
X549Y1966D02*
X566Y1966D01*
X507Y1965D02*
X525Y1965D01*
X547Y1965D02*
X566Y1965D01*
X507Y1964D02*
X527Y1964D01*
X546Y1964D02*
X566Y1964D01*
X507Y1963D02*
X529Y1963D01*
X544Y1963D02*
X566Y1963D01*
X507Y1962D02*
X533Y1962D01*
X540Y1962D02*
X566Y1962D01*
X507Y1961D02*
X566Y1961D01*
X507Y1960D02*
X566Y1960D01*
X507Y1959D02*
X566Y1959D01*
X507Y1958D02*
X566Y1958D01*
X507Y1957D02*
X566Y1957D01*
X507Y1956D02*
X566Y1956D01*
X507Y1955D02*
X566Y1955D01*
X507Y1954D02*
X566Y1954D01*
X507Y1953D02*
X566Y1953D01*
X507Y1952D02*
X566Y1952D01*
X507Y1951D02*
X566Y1951D01*
X1520Y1907D02*
X1578Y1907D01*
X1520Y1906D02*
X1578Y1906D01*
X1520Y1905D02*
X1578Y1905D01*
X1520Y1904D02*
X1578Y1904D01*
X1520Y1903D02*
X1578Y1903D01*
X1520Y1902D02*
X1578Y1902D01*
X1520Y1901D02*
X1578Y1901D01*
X1520Y1900D02*
X1578Y1900D01*
X1520Y1899D02*
X1578Y1899D01*
X1520Y1898D02*
X1578Y1898D01*
X1520Y1897D02*
X1578Y1897D01*
X1520Y1896D02*
X1578Y1896D01*
X1520Y1895D02*
X1543Y1895D01*
X1555Y1895D02*
X1578Y1895D01*
X1520Y1894D02*
X1540Y1894D01*
X1558Y1894D02*
X1578Y1894D01*
X1520Y1893D02*
X1538Y1893D01*
X1559Y1893D02*
X1578Y1893D01*
X1520Y1892D02*
X1537Y1892D01*
X1561Y1892D02*
X1578Y1892D01*
X1520Y1891D02*
X1536Y1891D01*
X1562Y1891D02*
X1578Y1891D01*
X1520Y1890D02*
X1535Y1890D01*
X1563Y1890D02*
X1578Y1890D01*
X1520Y1889D02*
X1534Y1889D01*
X1564Y1889D02*
X1578Y1889D01*
X1520Y1888D02*
X1533Y1888D01*
X1565Y1888D02*
X1578Y1888D01*
X1520Y1887D02*
X1533Y1887D01*
X1565Y1887D02*
X1578Y1887D01*
X1520Y1886D02*
X1532Y1886D01*
X1566Y1886D02*
X1578Y1886D01*
X1520Y1885D02*
X1532Y1885D01*
X1566Y1885D02*
X1578Y1885D01*
X1520Y1884D02*
X1531Y1884D01*
X1567Y1884D02*
X1578Y1884D01*
X1520Y1883D02*
X1531Y1883D01*
X1567Y1883D02*
X1578Y1883D01*
X1520Y1882D02*
X1531Y1882D01*
X1567Y1882D02*
X1578Y1882D01*
X1520Y1881D02*
X1530Y1881D01*
X1568Y1881D02*
X1578Y1881D01*
X1520Y1880D02*
X1530Y1880D01*
X1568Y1880D02*
X1578Y1880D01*
X1520Y1879D02*
X1530Y1879D01*
X1568Y1879D02*
X1578Y1879D01*
X1520Y1878D02*
X1530Y1878D01*
X1568Y1878D02*
X1578Y1878D01*
X1520Y1877D02*
X1530Y1877D01*
X1568Y1877D02*
X1578Y1877D01*
X1520Y1876D02*
X1530Y1876D01*
X1568Y1876D02*
X1578Y1876D01*
X1520Y1875D02*
X1530Y1875D01*
X1568Y1875D02*
X1578Y1875D01*
X1520Y1874D02*
X1530Y1874D01*
X1568Y1874D02*
X1578Y1874D01*
X1520Y1873D02*
X1531Y1873D01*
X1567Y1873D02*
X1578Y1873D01*
X1520Y1872D02*
X1531Y1872D01*
X1567Y1872D02*
X1578Y1872D01*
X1520Y1871D02*
X1531Y1871D01*
X1567Y1871D02*
X1578Y1871D01*
X1520Y1870D02*
X1531Y1870D01*
X1566Y1870D02*
X1578Y1870D01*
X1520Y1869D02*
X1532Y1869D01*
X1566Y1869D02*
X1578Y1869D01*
X1520Y1868D02*
X1533Y1868D01*
X1565Y1868D02*
X1578Y1868D01*
X1520Y1867D02*
X1533Y1867D01*
X1565Y1867D02*
X1578Y1867D01*
X1520Y1866D02*
X1534Y1866D01*
X1564Y1866D02*
X1578Y1866D01*
X1520Y1865D02*
X1535Y1865D01*
X1563Y1865D02*
X1578Y1865D01*
X1520Y1864D02*
X1536Y1864D01*
X1562Y1864D02*
X1578Y1864D01*
X1520Y1863D02*
X1537Y1863D01*
X1561Y1863D02*
X1578Y1863D01*
X1520Y1862D02*
X1538Y1862D01*
X1560Y1862D02*
X1578Y1862D01*
X1520Y1861D02*
X1540Y1861D01*
X1558Y1861D02*
X1578Y1861D01*
X1520Y1860D02*
X1542Y1860D01*
X1555Y1860D02*
X1578Y1860D01*
X1520Y1859D02*
X1548Y1859D01*
X1550Y1859D02*
X1578Y1859D01*
X1520Y1858D02*
X1578Y1858D01*
X1520Y1857D02*
X1578Y1857D01*
X1520Y1856D02*
X1578Y1856D01*
X1520Y1855D02*
X1578Y1855D01*
X1520Y1854D02*
X1578Y1854D01*
X1520Y1853D02*
X1578Y1853D01*
X1520Y1852D02*
X1578Y1852D01*
X1520Y1851D02*
X1578Y1851D01*
X1520Y1850D02*
X1578Y1850D01*
X1520Y1849D02*
X1578Y1849D01*
X1520Y1848D02*
X1578Y1848D01*
X3868Y1248D02*
X3909Y1248D01*
X3868Y1247D02*
X3909Y1247D01*
X3868Y1246D02*
X3909Y1246D01*
X3868Y1245D02*
X3909Y1245D01*
X3868Y1244D02*
X3909Y1244D01*
X3868Y1243D02*
X3909Y1243D01*
X3868Y1242D02*
X3909Y1242D01*
X3868Y1241D02*
X3909Y1241D01*
X3868Y1240D02*
X3909Y1240D01*
X3868Y1239D02*
X3909Y1239D01*
X3868Y1238D02*
X3909Y1238D01*
X3868Y1237D02*
X3909Y1237D01*
X3868Y1236D02*
X3909Y1236D01*
X3868Y1235D02*
X3909Y1235D01*
X3868Y1234D02*
X3909Y1234D01*
X3868Y1233D02*
X3909Y1233D01*
X3868Y1232D02*
X3909Y1232D01*
X3868Y1231D02*
X3909Y1231D01*
X3868Y1230D02*
X3909Y1230D01*
X3868Y1229D02*
X3909Y1229D01*
X3868Y1228D02*
X3885Y1228D01*
X3891Y1228D02*
X3909Y1228D01*
X3868Y1227D02*
X3881Y1227D01*
X3895Y1227D02*
X3909Y1227D01*
X3868Y1226D02*
X3879Y1226D01*
X3898Y1226D02*
X3909Y1226D01*
X3868Y1225D02*
X3877Y1225D01*
X3900Y1225D02*
X3909Y1225D01*
X3868Y1224D02*
X3875Y1224D01*
X3901Y1224D02*
X3909Y1224D01*
X3868Y1223D02*
X3874Y1223D01*
X3902Y1223D02*
X3909Y1223D01*
X3868Y1222D02*
X3873Y1222D01*
X3903Y1222D02*
X3909Y1222D01*
X3868Y1221D02*
X3872Y1221D01*
X3904Y1221D02*
X3909Y1221D01*
X3868Y1220D02*
X3871Y1220D01*
X3905Y1220D02*
X3909Y1220D01*
X3868Y1219D02*
X3871Y1219D01*
X3906Y1219D02*
X3909Y1219D01*
X3868Y1218D02*
X3870Y1218D01*
X3907Y1218D02*
X3909Y1218D01*
X3868Y1217D02*
X3869Y1217D01*
X3907Y1217D02*
X3909Y1217D01*
X3868Y1216D02*
X3869Y1216D01*
X3908Y1216D02*
X3909Y1216D01*
X3868Y1215D02*
X3868Y1215D01*
X3908Y1215D02*
X3909Y1215D01*
X3868Y1214D02*
X3868Y1214D01*
X3908Y1214D02*
X3909Y1214D01*
X3868Y1213D02*
X3868Y1213D01*
X3909Y1213D02*
X3909Y1213D01*
X3868Y1212D02*
X3868Y1212D01*
X3868Y1202D02*
X3868Y1202D01*
X3909Y1202D02*
X3909Y1202D01*
X3868Y1201D02*
X3868Y1201D01*
X3908Y1201D02*
X3909Y1201D01*
X3868Y1200D02*
X3868Y1200D01*
X3908Y1200D02*
X3909Y1200D01*
X3868Y1199D02*
X3869Y1199D01*
X3908Y1199D02*
X3909Y1199D01*
X3868Y1198D02*
X3869Y1198D01*
X3907Y1198D02*
X3909Y1198D01*
X3868Y1197D02*
X3870Y1197D01*
X3907Y1197D02*
X3909Y1197D01*
X3868Y1196D02*
X3870Y1196D01*
X3906Y1196D02*
X3909Y1196D01*
X3868Y1195D02*
X3871Y1195D01*
X3905Y1195D02*
X3909Y1195D01*
X3868Y1194D02*
X3872Y1194D01*
X3904Y1194D02*
X3909Y1194D01*
X3868Y1193D02*
X3873Y1193D01*
X3904Y1193D02*
X3909Y1193D01*
X3868Y1192D02*
X3874Y1192D01*
X3903Y1192D02*
X3909Y1192D01*
X3868Y1191D02*
X3875Y1191D01*
X3901Y1191D02*
X3909Y1191D01*
X3868Y1190D02*
X3877Y1190D01*
X3900Y1190D02*
X3909Y1190D01*
X3868Y1189D02*
X3878Y1189D01*
X3898Y1189D02*
X3909Y1189D01*
X3868Y1188D02*
X3881Y1188D01*
X3896Y1188D02*
X3909Y1188D01*
X3868Y1187D02*
X3883Y1187D01*
X3893Y1187D02*
X3908Y1187D01*
X3868Y968D02*
X3883Y968D01*
X3893Y968D02*
X3908Y968D01*
X3868Y967D02*
X3881Y967D01*
X3896Y967D02*
X3909Y967D01*
X3868Y966D02*
X3878Y966D01*
X3898Y966D02*
X3909Y966D01*
X3868Y965D02*
X3877Y965D01*
X3900Y965D02*
X3909Y965D01*
X3868Y964D02*
X3875Y964D01*
X3901Y964D02*
X3909Y964D01*
X3868Y963D02*
X3874Y963D01*
X3903Y963D02*
X3909Y963D01*
X3868Y962D02*
X3873Y962D01*
X3904Y962D02*
X3909Y962D01*
X3868Y961D02*
X3872Y961D01*
X3904Y961D02*
X3909Y961D01*
X3868Y960D02*
X3871Y960D01*
X3905Y960D02*
X3909Y960D01*
X3868Y959D02*
X3870Y959D01*
X3906Y959D02*
X3909Y959D01*
X3868Y958D02*
X3870Y958D01*
X3907Y958D02*
X3909Y958D01*
X3868Y957D02*
X3869Y957D01*
X3907Y957D02*
X3909Y957D01*
X3868Y956D02*
X3869Y956D01*
X3908Y956D02*
X3909Y956D01*
X3868Y955D02*
X3868Y955D01*
X3908Y955D02*
X3909Y955D01*
X3868Y954D02*
X3868Y954D01*
X3908Y954D02*
X3909Y954D01*
X3868Y953D02*
X3868Y953D01*
X3909Y953D02*
X3909Y953D01*
X3868Y943D02*
X3868Y943D01*
X3868Y942D02*
X3868Y942D01*
X3909Y942D02*
X3909Y942D01*
X3868Y941D02*
X3868Y941D01*
X3908Y941D02*
X3909Y941D01*
X3868Y940D02*
X3868Y940D01*
X3908Y940D02*
X3909Y940D01*
X3868Y939D02*
X3869Y939D01*
X3908Y939D02*
X3909Y939D01*
X3868Y938D02*
X3869Y938D01*
X3907Y938D02*
X3909Y938D01*
X3868Y937D02*
X3870Y937D01*
X3906Y937D02*
X3909Y937D01*
X3868Y936D02*
X3871Y936D01*
X3906Y936D02*
X3909Y936D01*
X3868Y935D02*
X3871Y935D01*
X3905Y935D02*
X3909Y935D01*
X3868Y934D02*
X3872Y934D01*
X3904Y934D02*
X3909Y934D01*
X3868Y933D02*
X3873Y933D01*
X3903Y933D02*
X3909Y933D01*
X3868Y932D02*
X3874Y932D01*
X3902Y932D02*
X3909Y932D01*
X3868Y931D02*
X3875Y931D01*
X3901Y931D02*
X3909Y931D01*
X3868Y930D02*
X3877Y930D01*
X3900Y930D02*
X3909Y930D01*
X3868Y929D02*
X3879Y929D01*
X3898Y929D02*
X3909Y929D01*
X3868Y928D02*
X3881Y928D01*
X3895Y928D02*
X3909Y928D01*
X3868Y927D02*
X3885Y927D01*
X3891Y927D02*
X3909Y927D01*
X3868Y926D02*
X3909Y926D01*
X3868Y925D02*
X3909Y925D01*
X3868Y924D02*
X3909Y924D01*
X3868Y923D02*
X3909Y923D01*
X3868Y922D02*
X3909Y922D01*
X3868Y921D02*
X3909Y921D01*
X3868Y920D02*
X3909Y920D01*
X3868Y919D02*
X3909Y919D01*
X3868Y918D02*
X3909Y918D01*
X3868Y917D02*
X3909Y917D01*
X3868Y916D02*
X3909Y916D01*
X3868Y915D02*
X3909Y915D01*
X3868Y914D02*
X3909Y914D01*
X3868Y913D02*
X3909Y913D01*
X3868Y912D02*
X3909Y912D01*
X3868Y911D02*
X3909Y911D01*
X3868Y910D02*
X3909Y910D01*
X3868Y909D02*
X3909Y909D01*
X3868Y908D02*
X3909Y908D01*
X3868Y907D02*
X3909Y907D01*
D02*
G04 End of Copper0*
M02*