G04 MADE WITH FRITZING*
G04 WWW.FRITZING.ORG*
G04 DOUBLE SIDED*
G04 HOLES PLATED*
G04 CONTOUR ON CENTER OF CONTOUR VECTOR*
%ASAXBY*%
%FSLAX23Y23*%
%MOIN*%
%OFA0B0*%
%SFA1.0B1.0*%
%ADD10R,4.724420X4.724420X4.708420X4.708420*%
%ADD11C,0.008000*%
%ADD12R,0.001000X0.001000*%
%LNSILK1*%
G90*
G70*
G54D11*
X4Y4720D02*
X4720Y4720D01*
X4720Y4D01*
X4Y4D01*
X4Y4720D01*
D02*
G54D12*
X293Y4527D02*
X805Y4527D01*
X284Y4526D02*
X814Y4526D01*
X279Y4525D02*
X819Y4525D01*
X275Y4524D02*
X823Y4524D01*
X271Y4523D02*
X827Y4523D01*
X268Y4522D02*
X830Y4522D01*
X265Y4521D02*
X833Y4521D01*
X262Y4520D02*
X836Y4520D01*
X260Y4519D02*
X291Y4519D01*
X807Y4519D02*
X838Y4519D01*
X258Y4518D02*
X283Y4518D01*
X815Y4518D02*
X840Y4518D01*
X256Y4517D02*
X278Y4517D01*
X820Y4517D02*
X842Y4517D01*
X254Y4516D02*
X274Y4516D01*
X824Y4516D02*
X844Y4516D01*
X252Y4515D02*
X271Y4515D01*
X827Y4515D02*
X846Y4515D01*
X250Y4514D02*
X268Y4514D01*
X830Y4514D02*
X848Y4514D01*
X248Y4513D02*
X265Y4513D01*
X833Y4513D02*
X850Y4513D01*
X247Y4512D02*
X263Y4512D01*
X835Y4512D02*
X851Y4512D01*
X245Y4511D02*
X260Y4511D01*
X837Y4511D02*
X853Y4511D01*
X243Y4510D02*
X258Y4510D01*
X840Y4510D02*
X854Y4510D01*
X242Y4509D02*
X256Y4509D01*
X842Y4509D02*
X856Y4509D01*
X241Y4508D02*
X254Y4508D01*
X844Y4508D02*
X857Y4508D01*
X239Y4507D02*
X253Y4507D01*
X845Y4507D02*
X859Y4507D01*
X238Y4506D02*
X251Y4506D01*
X847Y4506D02*
X860Y4506D01*
X237Y4505D02*
X249Y4505D01*
X849Y4505D02*
X861Y4505D01*
X235Y4504D02*
X248Y4504D01*
X850Y4504D02*
X863Y4504D01*
X234Y4503D02*
X246Y4503D01*
X852Y4503D02*
X864Y4503D01*
X233Y4502D02*
X245Y4502D01*
X853Y4502D02*
X865Y4502D01*
X232Y4501D02*
X244Y4501D01*
X854Y4501D02*
X866Y4501D01*
X231Y4500D02*
X242Y4500D01*
X856Y4500D02*
X867Y4500D01*
X230Y4499D02*
X241Y4499D01*
X857Y4499D02*
X868Y4499D01*
X229Y4498D02*
X240Y4498D01*
X858Y4498D02*
X869Y4498D01*
X228Y4497D02*
X239Y4497D01*
X859Y4497D02*
X870Y4497D01*
X227Y4496D02*
X237Y4496D01*
X860Y4496D02*
X871Y4496D01*
X226Y4495D02*
X236Y4495D01*
X862Y4495D02*
X872Y4495D01*
X225Y4494D02*
X235Y4494D01*
X863Y4494D02*
X873Y4494D01*
X224Y4493D02*
X234Y4493D01*
X864Y4493D02*
X874Y4493D01*
X223Y4492D02*
X233Y4492D01*
X865Y4492D02*
X875Y4492D01*
X222Y4491D02*
X232Y4491D01*
X866Y4491D02*
X876Y4491D01*
X222Y4490D02*
X231Y4490D01*
X867Y4490D02*
X876Y4490D01*
X221Y4489D02*
X230Y4489D01*
X868Y4489D02*
X877Y4489D01*
X220Y4488D02*
X230Y4488D01*
X868Y4488D02*
X878Y4488D01*
X219Y4487D02*
X229Y4487D01*
X869Y4487D02*
X879Y4487D01*
X219Y4486D02*
X228Y4486D01*
X870Y4486D02*
X879Y4486D01*
X218Y4485D02*
X227Y4485D01*
X871Y4485D02*
X880Y4485D01*
X217Y4484D02*
X226Y4484D01*
X872Y4484D02*
X881Y4484D01*
X217Y4483D02*
X225Y4483D01*
X873Y4483D02*
X881Y4483D01*
X216Y4482D02*
X225Y4482D01*
X873Y4482D02*
X882Y4482D01*
X215Y4481D02*
X224Y4481D01*
X874Y4481D02*
X883Y4481D01*
X215Y4480D02*
X223Y4480D01*
X875Y4480D02*
X883Y4480D01*
X214Y4479D02*
X222Y4479D01*
X876Y4479D02*
X884Y4479D01*
X214Y4478D02*
X222Y4478D01*
X876Y4478D02*
X884Y4478D01*
X213Y4477D02*
X221Y4477D01*
X877Y4477D02*
X885Y4477D01*
X212Y4476D02*
X220Y4476D01*
X877Y4476D02*
X886Y4476D01*
X212Y4475D02*
X220Y4475D01*
X878Y4475D02*
X886Y4475D01*
X211Y4474D02*
X219Y4474D01*
X879Y4474D02*
X887Y4474D01*
X211Y4473D02*
X219Y4473D01*
X879Y4473D02*
X887Y4473D01*
X210Y4472D02*
X218Y4472D01*
X880Y4472D02*
X888Y4472D01*
X210Y4471D02*
X218Y4471D01*
X880Y4471D02*
X888Y4471D01*
X209Y4470D02*
X217Y4470D01*
X881Y4470D02*
X889Y4470D01*
X209Y4469D02*
X216Y4469D01*
X882Y4469D02*
X889Y4469D01*
X208Y4468D02*
X216Y4468D01*
X882Y4468D02*
X890Y4468D01*
X208Y4467D02*
X216Y4467D01*
X882Y4467D02*
X890Y4467D01*
X207Y4466D02*
X215Y4466D01*
X883Y4466D02*
X891Y4466D01*
X207Y4465D02*
X215Y4465D01*
X883Y4465D02*
X891Y4465D01*
X207Y4464D02*
X214Y4464D01*
X884Y4464D02*
X891Y4464D01*
X206Y4463D02*
X214Y4463D01*
X884Y4463D02*
X892Y4463D01*
X206Y4462D02*
X213Y4462D01*
X885Y4462D02*
X892Y4462D01*
X205Y4461D02*
X213Y4461D01*
X885Y4461D02*
X893Y4461D01*
X205Y4460D02*
X212Y4460D01*
X886Y4460D02*
X893Y4460D01*
X205Y4459D02*
X212Y4459D01*
X886Y4459D02*
X893Y4459D01*
X204Y4458D02*
X212Y4458D01*
X886Y4458D02*
X894Y4458D01*
X204Y4457D02*
X211Y4457D01*
X887Y4457D02*
X894Y4457D01*
X204Y4456D02*
X211Y4456D01*
X887Y4456D02*
X894Y4456D01*
X203Y4455D02*
X211Y4455D01*
X887Y4455D02*
X894Y4455D01*
X203Y4454D02*
X210Y4454D01*
X888Y4454D02*
X895Y4454D01*
X203Y4453D02*
X210Y4453D01*
X888Y4453D02*
X895Y4453D01*
X203Y4452D02*
X210Y4452D01*
X888Y4452D02*
X895Y4452D01*
X202Y4451D02*
X210Y4451D01*
X888Y4451D02*
X896Y4451D01*
X202Y4450D02*
X209Y4450D01*
X889Y4450D02*
X896Y4450D01*
X202Y4449D02*
X209Y4449D01*
X889Y4449D02*
X896Y4449D01*
X202Y4448D02*
X209Y4448D01*
X889Y4448D02*
X896Y4448D01*
X202Y4447D02*
X209Y4447D01*
X889Y4447D02*
X896Y4447D01*
X201Y4446D02*
X208Y4446D01*
X890Y4446D02*
X897Y4446D01*
X201Y4445D02*
X208Y4445D01*
X890Y4445D02*
X897Y4445D01*
X201Y4444D02*
X208Y4444D01*
X890Y4444D02*
X897Y4444D01*
X201Y4443D02*
X208Y4443D01*
X890Y4443D02*
X897Y4443D01*
X201Y4442D02*
X208Y4442D01*
X890Y4442D02*
X897Y4442D01*
X200Y4441D02*
X208Y4441D01*
X890Y4441D02*
X897Y4441D01*
X200Y4440D02*
X207Y4440D01*
X891Y4440D02*
X898Y4440D01*
X200Y4439D02*
X207Y4439D01*
X891Y4439D02*
X898Y4439D01*
X200Y4438D02*
X207Y4438D01*
X891Y4438D02*
X898Y4438D01*
X200Y4437D02*
X207Y4437D01*
X891Y4437D02*
X898Y4437D01*
X200Y4436D02*
X207Y4436D01*
X891Y4436D02*
X898Y4436D01*
X200Y4435D02*
X207Y4435D01*
X891Y4435D02*
X898Y4435D01*
X200Y4434D02*
X207Y4434D01*
X891Y4434D02*
X898Y4434D01*
X200Y4433D02*
X207Y4433D01*
X891Y4433D02*
X898Y4433D01*
X200Y4432D02*
X207Y4432D01*
X891Y4432D02*
X898Y4432D01*
X200Y4431D02*
X207Y4431D01*
X891Y4431D02*
X898Y4431D01*
X200Y4430D02*
X207Y4430D01*
X891Y4430D02*
X898Y4430D01*
X199Y4429D02*
X207Y4429D01*
X891Y4429D02*
X898Y4429D01*
X199Y4428D02*
X207Y4428D01*
X891Y4428D02*
X898Y4428D01*
X200Y4427D02*
X207Y4427D01*
X891Y4427D02*
X898Y4427D01*
X200Y4426D02*
X207Y4426D01*
X891Y4426D02*
X898Y4426D01*
X200Y4425D02*
X207Y4425D01*
X891Y4425D02*
X898Y4425D01*
X199Y4424D02*
X207Y4424D01*
X891Y4424D02*
X899Y4424D01*
X200Y4423D02*
X207Y4423D01*
X891Y4423D02*
X898Y4423D01*
X200Y4422D02*
X207Y4422D01*
X891Y4422D02*
X898Y4422D01*
X200Y4421D02*
X207Y4421D01*
X891Y4421D02*
X898Y4421D01*
X200Y4420D02*
X207Y4420D01*
X891Y4420D02*
X898Y4420D01*
X200Y4419D02*
X207Y4419D01*
X891Y4419D02*
X898Y4419D01*
X200Y4418D02*
X207Y4418D01*
X891Y4418D02*
X898Y4418D01*
X200Y4417D02*
X207Y4417D01*
X891Y4417D02*
X898Y4417D01*
X200Y4416D02*
X207Y4416D01*
X891Y4416D02*
X898Y4416D01*
X200Y4415D02*
X207Y4415D01*
X891Y4415D02*
X898Y4415D01*
X200Y4414D02*
X207Y4414D01*
X891Y4414D02*
X898Y4414D01*
X200Y4413D02*
X207Y4413D01*
X891Y4413D02*
X898Y4413D01*
X200Y4412D02*
X207Y4412D01*
X891Y4412D02*
X898Y4412D01*
X200Y4411D02*
X207Y4411D01*
X891Y4411D02*
X898Y4411D01*
X200Y4410D02*
X207Y4410D01*
X891Y4410D02*
X898Y4410D01*
X200Y4409D02*
X207Y4409D01*
X891Y4409D02*
X898Y4409D01*
X200Y4408D02*
X207Y4408D01*
X891Y4408D02*
X898Y4408D01*
X200Y4407D02*
X207Y4407D01*
X891Y4407D02*
X898Y4407D01*
X200Y4406D02*
X207Y4406D01*
X891Y4406D02*
X898Y4406D01*
X200Y4405D02*
X207Y4405D01*
X891Y4405D02*
X898Y4405D01*
X200Y4404D02*
X207Y4404D01*
X891Y4404D02*
X898Y4404D01*
X200Y4403D02*
X207Y4403D01*
X891Y4403D02*
X898Y4403D01*
X200Y4402D02*
X207Y4402D01*
X891Y4402D02*
X898Y4402D01*
X200Y4401D02*
X207Y4401D01*
X891Y4401D02*
X898Y4401D01*
X200Y4400D02*
X207Y4400D01*
X891Y4400D02*
X898Y4400D01*
X200Y4399D02*
X207Y4399D01*
X891Y4399D02*
X898Y4399D01*
X200Y4398D02*
X207Y4398D01*
X891Y4398D02*
X898Y4398D01*
X200Y4397D02*
X207Y4397D01*
X891Y4397D02*
X898Y4397D01*
X200Y4396D02*
X207Y4396D01*
X891Y4396D02*
X898Y4396D01*
X200Y4395D02*
X207Y4395D01*
X891Y4395D02*
X898Y4395D01*
X200Y4394D02*
X207Y4394D01*
X891Y4394D02*
X898Y4394D01*
X200Y4393D02*
X207Y4393D01*
X891Y4393D02*
X898Y4393D01*
X200Y4392D02*
X207Y4392D01*
X891Y4392D02*
X898Y4392D01*
X200Y4391D02*
X207Y4391D01*
X891Y4391D02*
X898Y4391D01*
X200Y4390D02*
X207Y4390D01*
X891Y4390D02*
X898Y4390D01*
X200Y4389D02*
X207Y4389D01*
X891Y4389D02*
X898Y4389D01*
X200Y4388D02*
X207Y4388D01*
X891Y4388D02*
X898Y4388D01*
X200Y4387D02*
X207Y4387D01*
X891Y4387D02*
X898Y4387D01*
X200Y4386D02*
X207Y4386D01*
X891Y4386D02*
X898Y4386D01*
X200Y4385D02*
X207Y4385D01*
X891Y4385D02*
X898Y4385D01*
X200Y4384D02*
X207Y4384D01*
X891Y4384D02*
X898Y4384D01*
X200Y4383D02*
X207Y4383D01*
X891Y4383D02*
X898Y4383D01*
X200Y4382D02*
X207Y4382D01*
X891Y4382D02*
X898Y4382D01*
X200Y4381D02*
X207Y4381D01*
X891Y4381D02*
X898Y4381D01*
X200Y4380D02*
X207Y4380D01*
X891Y4380D02*
X898Y4380D01*
X200Y4379D02*
X207Y4379D01*
X891Y4379D02*
X898Y4379D01*
X200Y4378D02*
X207Y4378D01*
X891Y4378D02*
X898Y4378D01*
X200Y4377D02*
X207Y4377D01*
X891Y4377D02*
X898Y4377D01*
X200Y4376D02*
X207Y4376D01*
X891Y4376D02*
X898Y4376D01*
X200Y4375D02*
X207Y4375D01*
X891Y4375D02*
X898Y4375D01*
X200Y4374D02*
X207Y4374D01*
X891Y4374D02*
X898Y4374D01*
X200Y4373D02*
X207Y4373D01*
X891Y4373D02*
X898Y4373D01*
X200Y4372D02*
X207Y4372D01*
X891Y4372D02*
X898Y4372D01*
X200Y4371D02*
X207Y4371D01*
X891Y4371D02*
X898Y4371D01*
X200Y4370D02*
X207Y4370D01*
X891Y4370D02*
X898Y4370D01*
X200Y4369D02*
X207Y4369D01*
X891Y4369D02*
X898Y4369D01*
X200Y4368D02*
X207Y4368D01*
X891Y4368D02*
X898Y4368D01*
X200Y4367D02*
X207Y4367D01*
X891Y4367D02*
X898Y4367D01*
X200Y4366D02*
X207Y4366D01*
X891Y4366D02*
X898Y4366D01*
X200Y4365D02*
X207Y4365D01*
X891Y4365D02*
X898Y4365D01*
X200Y4364D02*
X207Y4364D01*
X891Y4364D02*
X898Y4364D01*
X200Y4363D02*
X207Y4363D01*
X891Y4363D02*
X898Y4363D01*
X200Y4362D02*
X207Y4362D01*
X891Y4362D02*
X898Y4362D01*
X200Y4361D02*
X207Y4361D01*
X891Y4361D02*
X898Y4361D01*
X200Y4360D02*
X207Y4360D01*
X891Y4360D02*
X898Y4360D01*
X200Y4359D02*
X207Y4359D01*
X891Y4359D02*
X898Y4359D01*
X200Y4358D02*
X207Y4358D01*
X891Y4358D02*
X898Y4358D01*
X200Y4357D02*
X207Y4357D01*
X891Y4357D02*
X898Y4357D01*
X200Y4356D02*
X207Y4356D01*
X891Y4356D02*
X898Y4356D01*
X200Y4355D02*
X207Y4355D01*
X891Y4355D02*
X898Y4355D01*
X200Y4354D02*
X207Y4354D01*
X891Y4354D02*
X898Y4354D01*
X200Y4353D02*
X207Y4353D01*
X891Y4353D02*
X898Y4353D01*
X200Y4352D02*
X207Y4352D01*
X891Y4352D02*
X898Y4352D01*
X200Y4351D02*
X207Y4351D01*
X891Y4351D02*
X898Y4351D01*
X200Y4350D02*
X207Y4350D01*
X891Y4350D02*
X898Y4350D01*
X200Y4349D02*
X207Y4349D01*
X891Y4349D02*
X898Y4349D01*
X200Y4348D02*
X207Y4348D01*
X891Y4348D02*
X898Y4348D01*
X200Y4347D02*
X207Y4347D01*
X891Y4347D02*
X898Y4347D01*
X200Y4346D02*
X207Y4346D01*
X891Y4346D02*
X898Y4346D01*
X200Y4345D02*
X207Y4345D01*
X891Y4345D02*
X898Y4345D01*
X200Y4344D02*
X207Y4344D01*
X891Y4344D02*
X898Y4344D01*
X200Y4343D02*
X207Y4343D01*
X891Y4343D02*
X898Y4343D01*
X200Y4342D02*
X207Y4342D01*
X891Y4342D02*
X898Y4342D01*
X200Y4341D02*
X207Y4341D01*
X891Y4341D02*
X898Y4341D01*
X200Y4340D02*
X207Y4340D01*
X891Y4340D02*
X898Y4340D01*
X200Y4339D02*
X207Y4339D01*
X891Y4339D02*
X898Y4339D01*
X200Y4338D02*
X207Y4338D01*
X891Y4338D02*
X898Y4338D01*
X200Y4337D02*
X207Y4337D01*
X891Y4337D02*
X898Y4337D01*
X200Y4336D02*
X207Y4336D01*
X891Y4336D02*
X898Y4336D01*
X200Y4335D02*
X207Y4335D01*
X891Y4335D02*
X898Y4335D01*
X200Y4334D02*
X207Y4334D01*
X891Y4334D02*
X898Y4334D01*
X200Y4333D02*
X207Y4333D01*
X891Y4333D02*
X898Y4333D01*
X200Y4332D02*
X207Y4332D01*
X891Y4332D02*
X898Y4332D01*
X200Y4331D02*
X207Y4331D01*
X891Y4331D02*
X898Y4331D01*
X200Y4330D02*
X207Y4330D01*
X891Y4330D02*
X898Y4330D01*
X200Y4329D02*
X207Y4329D01*
X891Y4329D02*
X898Y4329D01*
X200Y4328D02*
X207Y4328D01*
X891Y4328D02*
X898Y4328D01*
X200Y4327D02*
X207Y4327D01*
X891Y4327D02*
X898Y4327D01*
X200Y4326D02*
X207Y4326D01*
X891Y4326D02*
X898Y4326D01*
X200Y4325D02*
X207Y4325D01*
X891Y4325D02*
X898Y4325D01*
X200Y4324D02*
X207Y4324D01*
X891Y4324D02*
X898Y4324D01*
X200Y4323D02*
X207Y4323D01*
X891Y4323D02*
X898Y4323D01*
X200Y4322D02*
X207Y4322D01*
X891Y4322D02*
X898Y4322D01*
X200Y4321D02*
X207Y4321D01*
X891Y4321D02*
X898Y4321D01*
X200Y4320D02*
X207Y4320D01*
X891Y4320D02*
X898Y4320D01*
X200Y4319D02*
X207Y4319D01*
X891Y4319D02*
X898Y4319D01*
X200Y4318D02*
X207Y4318D01*
X891Y4318D02*
X898Y4318D01*
X200Y4317D02*
X207Y4317D01*
X891Y4317D02*
X898Y4317D01*
X200Y4316D02*
X207Y4316D01*
X891Y4316D02*
X898Y4316D01*
X200Y4315D02*
X207Y4315D01*
X891Y4315D02*
X898Y4315D01*
X200Y4314D02*
X207Y4314D01*
X891Y4314D02*
X898Y4314D01*
X200Y4313D02*
X207Y4313D01*
X891Y4313D02*
X898Y4313D01*
X200Y4312D02*
X207Y4312D01*
X891Y4312D02*
X898Y4312D01*
X200Y4311D02*
X207Y4311D01*
X891Y4311D02*
X898Y4311D01*
X200Y4310D02*
X207Y4310D01*
X891Y4310D02*
X898Y4310D01*
X200Y4309D02*
X207Y4309D01*
X891Y4309D02*
X898Y4309D01*
X200Y4308D02*
X207Y4308D01*
X891Y4308D02*
X898Y4308D01*
X200Y4307D02*
X207Y4307D01*
X891Y4307D02*
X898Y4307D01*
X200Y4306D02*
X207Y4306D01*
X891Y4306D02*
X898Y4306D01*
X200Y4305D02*
X207Y4305D01*
X891Y4305D02*
X898Y4305D01*
X200Y4304D02*
X207Y4304D01*
X891Y4304D02*
X898Y4304D01*
X200Y4303D02*
X207Y4303D01*
X891Y4303D02*
X898Y4303D01*
X200Y4302D02*
X207Y4302D01*
X891Y4302D02*
X898Y4302D01*
X200Y4301D02*
X207Y4301D01*
X891Y4301D02*
X898Y4301D01*
X200Y4300D02*
X207Y4300D01*
X891Y4300D02*
X898Y4300D01*
X200Y4299D02*
X207Y4299D01*
X891Y4299D02*
X898Y4299D01*
X200Y4298D02*
X207Y4298D01*
X891Y4298D02*
X898Y4298D01*
X200Y4297D02*
X207Y4297D01*
X891Y4297D02*
X898Y4297D01*
X200Y4296D02*
X207Y4296D01*
X891Y4296D02*
X898Y4296D01*
X200Y4295D02*
X207Y4295D01*
X891Y4295D02*
X898Y4295D01*
X200Y4294D02*
X207Y4294D01*
X891Y4294D02*
X898Y4294D01*
X200Y4293D02*
X207Y4293D01*
X891Y4293D02*
X898Y4293D01*
X200Y4292D02*
X207Y4292D01*
X891Y4292D02*
X898Y4292D01*
X200Y4291D02*
X207Y4291D01*
X891Y4291D02*
X898Y4291D01*
X200Y4290D02*
X207Y4290D01*
X891Y4290D02*
X898Y4290D01*
X200Y4289D02*
X207Y4289D01*
X891Y4289D02*
X898Y4289D01*
X200Y4288D02*
X207Y4288D01*
X891Y4288D02*
X898Y4288D01*
X200Y4287D02*
X207Y4287D01*
X891Y4287D02*
X898Y4287D01*
X200Y4286D02*
X207Y4286D01*
X891Y4286D02*
X898Y4286D01*
X200Y4285D02*
X207Y4285D01*
X891Y4285D02*
X898Y4285D01*
X200Y4284D02*
X207Y4284D01*
X891Y4284D02*
X898Y4284D01*
X200Y4283D02*
X207Y4283D01*
X891Y4283D02*
X898Y4283D01*
X200Y4282D02*
X207Y4282D01*
X891Y4282D02*
X898Y4282D01*
X200Y4281D02*
X207Y4281D01*
X891Y4281D02*
X898Y4281D01*
X200Y4280D02*
X207Y4280D01*
X891Y4280D02*
X898Y4280D01*
X200Y4279D02*
X207Y4279D01*
X891Y4279D02*
X898Y4279D01*
X200Y4278D02*
X207Y4278D01*
X891Y4278D02*
X898Y4278D01*
X200Y4277D02*
X207Y4277D01*
X891Y4277D02*
X898Y4277D01*
X200Y4276D02*
X207Y4276D01*
X891Y4276D02*
X898Y4276D01*
X200Y4275D02*
X207Y4275D01*
X891Y4275D02*
X898Y4275D01*
X200Y4274D02*
X207Y4274D01*
X891Y4274D02*
X898Y4274D01*
X200Y4273D02*
X207Y4273D01*
X891Y4273D02*
X898Y4273D01*
X200Y4272D02*
X207Y4272D01*
X891Y4272D02*
X898Y4272D01*
X200Y4271D02*
X207Y4271D01*
X891Y4271D02*
X898Y4271D01*
X200Y4270D02*
X207Y4270D01*
X891Y4270D02*
X898Y4270D01*
X200Y4269D02*
X207Y4269D01*
X891Y4269D02*
X898Y4269D01*
X200Y4268D02*
X207Y4268D01*
X891Y4268D02*
X898Y4268D01*
X200Y4267D02*
X207Y4267D01*
X891Y4267D02*
X898Y4267D01*
X200Y4266D02*
X207Y4266D01*
X891Y4266D02*
X898Y4266D01*
X200Y4265D02*
X207Y4265D01*
X891Y4265D02*
X898Y4265D01*
X200Y4264D02*
X207Y4264D01*
X891Y4264D02*
X898Y4264D01*
X200Y4263D02*
X207Y4263D01*
X891Y4263D02*
X898Y4263D01*
X200Y4262D02*
X207Y4262D01*
X891Y4262D02*
X898Y4262D01*
X200Y4261D02*
X207Y4261D01*
X891Y4261D02*
X898Y4261D01*
X200Y4260D02*
X207Y4260D01*
X891Y4260D02*
X898Y4260D01*
X200Y4259D02*
X207Y4259D01*
X891Y4259D02*
X898Y4259D01*
X200Y4258D02*
X207Y4258D01*
X891Y4258D02*
X898Y4258D01*
X200Y4257D02*
X207Y4257D01*
X891Y4257D02*
X898Y4257D01*
X200Y4256D02*
X207Y4256D01*
X891Y4256D02*
X898Y4256D01*
X200Y4255D02*
X207Y4255D01*
X891Y4255D02*
X898Y4255D01*
X200Y4254D02*
X207Y4254D01*
X891Y4254D02*
X898Y4254D01*
X200Y4253D02*
X207Y4253D01*
X891Y4253D02*
X898Y4253D01*
X200Y4252D02*
X207Y4252D01*
X891Y4252D02*
X898Y4252D01*
X200Y4251D02*
X207Y4251D01*
X891Y4251D02*
X898Y4251D01*
X200Y4250D02*
X207Y4250D01*
X891Y4250D02*
X898Y4250D01*
X200Y4249D02*
X207Y4249D01*
X891Y4249D02*
X898Y4249D01*
X200Y4248D02*
X207Y4248D01*
X891Y4248D02*
X898Y4248D01*
X200Y4247D02*
X207Y4247D01*
X891Y4247D02*
X898Y4247D01*
X200Y4246D02*
X207Y4246D01*
X891Y4246D02*
X898Y4246D01*
X200Y4245D02*
X207Y4245D01*
X891Y4245D02*
X898Y4245D01*
X200Y4244D02*
X207Y4244D01*
X891Y4244D02*
X898Y4244D01*
X200Y4243D02*
X207Y4243D01*
X891Y4243D02*
X898Y4243D01*
X200Y4242D02*
X207Y4242D01*
X891Y4242D02*
X898Y4242D01*
X200Y4241D02*
X207Y4241D01*
X891Y4241D02*
X898Y4241D01*
X200Y4240D02*
X207Y4240D01*
X891Y4240D02*
X898Y4240D01*
X200Y4239D02*
X207Y4239D01*
X891Y4239D02*
X898Y4239D01*
X200Y4238D02*
X207Y4238D01*
X891Y4238D02*
X898Y4238D01*
X200Y4237D02*
X207Y4237D01*
X891Y4237D02*
X898Y4237D01*
X200Y4236D02*
X207Y4236D01*
X891Y4236D02*
X898Y4236D01*
X200Y4235D02*
X207Y4235D01*
X891Y4235D02*
X898Y4235D01*
X200Y4234D02*
X207Y4234D01*
X891Y4234D02*
X898Y4234D01*
X200Y4233D02*
X207Y4233D01*
X891Y4233D02*
X898Y4233D01*
X200Y4232D02*
X207Y4232D01*
X891Y4232D02*
X898Y4232D01*
X200Y4231D02*
X207Y4231D01*
X891Y4231D02*
X898Y4231D01*
X200Y4230D02*
X207Y4230D01*
X891Y4230D02*
X898Y4230D01*
X200Y4229D02*
X207Y4229D01*
X891Y4229D02*
X898Y4229D01*
X200Y4228D02*
X207Y4228D01*
X891Y4228D02*
X898Y4228D01*
X200Y4227D02*
X207Y4227D01*
X891Y4227D02*
X898Y4227D01*
X200Y4226D02*
X207Y4226D01*
X891Y4226D02*
X898Y4226D01*
X200Y4225D02*
X207Y4225D01*
X891Y4225D02*
X898Y4225D01*
X200Y4224D02*
X207Y4224D01*
X891Y4224D02*
X898Y4224D01*
X200Y4223D02*
X207Y4223D01*
X891Y4223D02*
X898Y4223D01*
X200Y4222D02*
X207Y4222D01*
X891Y4222D02*
X898Y4222D01*
X200Y4221D02*
X207Y4221D01*
X891Y4221D02*
X898Y4221D01*
X200Y4220D02*
X207Y4220D01*
X891Y4220D02*
X898Y4220D01*
X200Y4219D02*
X207Y4219D01*
X891Y4219D02*
X898Y4219D01*
X200Y4218D02*
X207Y4218D01*
X891Y4218D02*
X898Y4218D01*
X200Y4217D02*
X207Y4217D01*
X891Y4217D02*
X898Y4217D01*
X200Y4216D02*
X207Y4216D01*
X891Y4216D02*
X898Y4216D01*
X200Y4215D02*
X207Y4215D01*
X891Y4215D02*
X898Y4215D01*
X200Y4214D02*
X207Y4214D01*
X891Y4214D02*
X898Y4214D01*
X200Y4213D02*
X207Y4213D01*
X891Y4213D02*
X898Y4213D01*
X200Y4212D02*
X207Y4212D01*
X891Y4212D02*
X898Y4212D01*
X200Y4211D02*
X207Y4211D01*
X891Y4211D02*
X898Y4211D01*
X200Y4210D02*
X207Y4210D01*
X891Y4210D02*
X898Y4210D01*
X200Y4209D02*
X207Y4209D01*
X891Y4209D02*
X898Y4209D01*
X200Y4208D02*
X207Y4208D01*
X891Y4208D02*
X898Y4208D01*
X200Y4207D02*
X207Y4207D01*
X891Y4207D02*
X898Y4207D01*
X200Y4206D02*
X207Y4206D01*
X891Y4206D02*
X898Y4206D01*
X200Y4205D02*
X207Y4205D01*
X891Y4205D02*
X898Y4205D01*
X200Y4204D02*
X207Y4204D01*
X891Y4204D02*
X898Y4204D01*
X200Y4203D02*
X207Y4203D01*
X891Y4203D02*
X898Y4203D01*
X200Y4202D02*
X207Y4202D01*
X891Y4202D02*
X898Y4202D01*
X200Y4201D02*
X207Y4201D01*
X891Y4201D02*
X898Y4201D01*
X200Y4200D02*
X207Y4200D01*
X891Y4200D02*
X898Y4200D01*
X200Y4199D02*
X207Y4199D01*
X891Y4199D02*
X898Y4199D01*
X200Y4198D02*
X207Y4198D01*
X891Y4198D02*
X898Y4198D01*
X200Y4197D02*
X207Y4197D01*
X891Y4197D02*
X898Y4197D01*
X200Y4196D02*
X207Y4196D01*
X891Y4196D02*
X898Y4196D01*
X200Y4195D02*
X207Y4195D01*
X891Y4195D02*
X898Y4195D01*
X200Y4194D02*
X207Y4194D01*
X891Y4194D02*
X898Y4194D01*
X200Y4193D02*
X207Y4193D01*
X891Y4193D02*
X898Y4193D01*
X200Y4192D02*
X207Y4192D01*
X891Y4192D02*
X898Y4192D01*
X200Y4191D02*
X207Y4191D01*
X891Y4191D02*
X898Y4191D01*
X200Y4190D02*
X207Y4190D01*
X891Y4190D02*
X898Y4190D01*
X200Y4189D02*
X207Y4189D01*
X891Y4189D02*
X898Y4189D01*
X200Y4188D02*
X207Y4188D01*
X891Y4188D02*
X898Y4188D01*
X200Y4187D02*
X207Y4187D01*
X891Y4187D02*
X898Y4187D01*
X200Y4186D02*
X207Y4186D01*
X891Y4186D02*
X898Y4186D01*
X200Y4185D02*
X207Y4185D01*
X891Y4185D02*
X898Y4185D01*
X200Y4184D02*
X207Y4184D01*
X891Y4184D02*
X898Y4184D01*
X200Y4183D02*
X207Y4183D01*
X891Y4183D02*
X898Y4183D01*
X200Y4182D02*
X207Y4182D01*
X891Y4182D02*
X898Y4182D01*
X200Y4181D02*
X207Y4181D01*
X891Y4181D02*
X898Y4181D01*
X200Y4180D02*
X207Y4180D01*
X891Y4180D02*
X898Y4180D01*
X200Y4179D02*
X207Y4179D01*
X891Y4179D02*
X898Y4179D01*
X200Y4178D02*
X207Y4178D01*
X891Y4178D02*
X898Y4178D01*
X200Y4177D02*
X207Y4177D01*
X891Y4177D02*
X898Y4177D01*
X200Y4176D02*
X207Y4176D01*
X891Y4176D02*
X898Y4176D01*
X200Y4175D02*
X207Y4175D01*
X891Y4175D02*
X898Y4175D01*
X200Y4174D02*
X207Y4174D01*
X891Y4174D02*
X898Y4174D01*
X200Y4173D02*
X207Y4173D01*
X891Y4173D02*
X898Y4173D01*
X200Y4172D02*
X207Y4172D01*
X891Y4172D02*
X898Y4172D01*
X200Y4171D02*
X207Y4171D01*
X891Y4171D02*
X898Y4171D01*
X200Y4170D02*
X207Y4170D01*
X891Y4170D02*
X898Y4170D01*
X200Y4169D02*
X207Y4169D01*
X891Y4169D02*
X898Y4169D01*
X200Y4168D02*
X207Y4168D01*
X891Y4168D02*
X898Y4168D01*
X200Y4167D02*
X207Y4167D01*
X891Y4167D02*
X898Y4167D01*
X200Y4166D02*
X207Y4166D01*
X891Y4166D02*
X898Y4166D01*
X200Y4165D02*
X207Y4165D01*
X891Y4165D02*
X898Y4165D01*
X200Y4164D02*
X207Y4164D01*
X891Y4164D02*
X898Y4164D01*
X200Y4163D02*
X207Y4163D01*
X891Y4163D02*
X898Y4163D01*
X200Y4162D02*
X207Y4162D01*
X891Y4162D02*
X898Y4162D01*
X200Y4161D02*
X207Y4161D01*
X891Y4161D02*
X898Y4161D01*
X200Y4160D02*
X207Y4160D01*
X891Y4160D02*
X898Y4160D01*
X200Y4159D02*
X207Y4159D01*
X891Y4159D02*
X898Y4159D01*
X200Y4158D02*
X207Y4158D01*
X891Y4158D02*
X898Y4158D01*
X200Y4157D02*
X207Y4157D01*
X891Y4157D02*
X898Y4157D01*
X200Y4156D02*
X207Y4156D01*
X891Y4156D02*
X898Y4156D01*
X200Y4155D02*
X207Y4155D01*
X891Y4155D02*
X898Y4155D01*
X200Y4154D02*
X207Y4154D01*
X891Y4154D02*
X898Y4154D01*
X200Y4153D02*
X207Y4153D01*
X891Y4153D02*
X898Y4153D01*
X200Y4152D02*
X207Y4152D01*
X891Y4152D02*
X898Y4152D01*
X200Y4151D02*
X207Y4151D01*
X891Y4151D02*
X898Y4151D01*
X200Y4150D02*
X207Y4150D01*
X891Y4150D02*
X898Y4150D01*
X200Y4149D02*
X207Y4149D01*
X891Y4149D02*
X898Y4149D01*
X200Y4148D02*
X207Y4148D01*
X891Y4148D02*
X898Y4148D01*
X200Y4147D02*
X207Y4147D01*
X891Y4147D02*
X898Y4147D01*
X200Y4146D02*
X207Y4146D01*
X891Y4146D02*
X898Y4146D01*
X200Y4145D02*
X207Y4145D01*
X891Y4145D02*
X898Y4145D01*
X200Y4144D02*
X207Y4144D01*
X891Y4144D02*
X898Y4144D01*
X200Y4143D02*
X207Y4143D01*
X891Y4143D02*
X898Y4143D01*
X200Y4142D02*
X207Y4142D01*
X891Y4142D02*
X898Y4142D01*
X200Y4141D02*
X207Y4141D01*
X891Y4141D02*
X898Y4141D01*
X200Y4140D02*
X207Y4140D01*
X891Y4140D02*
X898Y4140D01*
X200Y4139D02*
X207Y4139D01*
X891Y4139D02*
X898Y4139D01*
X200Y4138D02*
X207Y4138D01*
X891Y4138D02*
X898Y4138D01*
X200Y4137D02*
X207Y4137D01*
X891Y4137D02*
X898Y4137D01*
X200Y4136D02*
X207Y4136D01*
X891Y4136D02*
X898Y4136D01*
X200Y4135D02*
X207Y4135D01*
X891Y4135D02*
X898Y4135D01*
X200Y4134D02*
X207Y4134D01*
X891Y4134D02*
X898Y4134D01*
X200Y4133D02*
X207Y4133D01*
X891Y4133D02*
X898Y4133D01*
X200Y4132D02*
X207Y4132D01*
X891Y4132D02*
X898Y4132D01*
X200Y4131D02*
X207Y4131D01*
X891Y4131D02*
X898Y4131D01*
X200Y4130D02*
X207Y4130D01*
X891Y4130D02*
X898Y4130D01*
X200Y4129D02*
X207Y4129D01*
X891Y4129D02*
X898Y4129D01*
X200Y4128D02*
X207Y4128D01*
X891Y4128D02*
X898Y4128D01*
X200Y4127D02*
X207Y4127D01*
X891Y4127D02*
X898Y4127D01*
X200Y4126D02*
X207Y4126D01*
X891Y4126D02*
X898Y4126D01*
X200Y4125D02*
X207Y4125D01*
X891Y4125D02*
X898Y4125D01*
X200Y4124D02*
X207Y4124D01*
X891Y4124D02*
X898Y4124D01*
X200Y4123D02*
X207Y4123D01*
X891Y4123D02*
X898Y4123D01*
X200Y4122D02*
X207Y4122D01*
X891Y4122D02*
X898Y4122D01*
X200Y4121D02*
X207Y4121D01*
X891Y4121D02*
X898Y4121D01*
X200Y4120D02*
X207Y4120D01*
X891Y4120D02*
X898Y4120D01*
X200Y4119D02*
X207Y4119D01*
X891Y4119D02*
X898Y4119D01*
X200Y4118D02*
X207Y4118D01*
X891Y4118D02*
X898Y4118D01*
X200Y4117D02*
X207Y4117D01*
X891Y4117D02*
X898Y4117D01*
X200Y4116D02*
X207Y4116D01*
X891Y4116D02*
X898Y4116D01*
X200Y4115D02*
X207Y4115D01*
X891Y4115D02*
X898Y4115D01*
X200Y4114D02*
X207Y4114D01*
X891Y4114D02*
X898Y4114D01*
X200Y4113D02*
X207Y4113D01*
X891Y4113D02*
X898Y4113D01*
X200Y4112D02*
X207Y4112D01*
X891Y4112D02*
X898Y4112D01*
X200Y4111D02*
X207Y4111D01*
X891Y4111D02*
X898Y4111D01*
X200Y4110D02*
X207Y4110D01*
X891Y4110D02*
X898Y4110D01*
X200Y4109D02*
X207Y4109D01*
X891Y4109D02*
X898Y4109D01*
X200Y4108D02*
X207Y4108D01*
X891Y4108D02*
X898Y4108D01*
X200Y4107D02*
X207Y4107D01*
X891Y4107D02*
X898Y4107D01*
X200Y4106D02*
X207Y4106D01*
X891Y4106D02*
X898Y4106D01*
X200Y4105D02*
X207Y4105D01*
X891Y4105D02*
X898Y4105D01*
X200Y4104D02*
X207Y4104D01*
X891Y4104D02*
X898Y4104D01*
X200Y4103D02*
X207Y4103D01*
X891Y4103D02*
X898Y4103D01*
X200Y4102D02*
X207Y4102D01*
X891Y4102D02*
X898Y4102D01*
X200Y4101D02*
X207Y4101D01*
X891Y4101D02*
X898Y4101D01*
X200Y4100D02*
X207Y4100D01*
X891Y4100D02*
X898Y4100D01*
X200Y4099D02*
X207Y4099D01*
X891Y4099D02*
X898Y4099D01*
X200Y4098D02*
X207Y4098D01*
X891Y4098D02*
X898Y4098D01*
X200Y4097D02*
X207Y4097D01*
X891Y4097D02*
X898Y4097D01*
X200Y4096D02*
X207Y4096D01*
X891Y4096D02*
X898Y4096D01*
X200Y4095D02*
X207Y4095D01*
X891Y4095D02*
X898Y4095D01*
X200Y4094D02*
X207Y4094D01*
X891Y4094D02*
X898Y4094D01*
X200Y4093D02*
X207Y4093D01*
X891Y4093D02*
X898Y4093D01*
X200Y4092D02*
X207Y4092D01*
X891Y4092D02*
X898Y4092D01*
X200Y4091D02*
X207Y4091D01*
X891Y4091D02*
X898Y4091D01*
X200Y4090D02*
X207Y4090D01*
X891Y4090D02*
X898Y4090D01*
X200Y4089D02*
X207Y4089D01*
X891Y4089D02*
X898Y4089D01*
X200Y4088D02*
X207Y4088D01*
X891Y4088D02*
X898Y4088D01*
X200Y4087D02*
X207Y4087D01*
X891Y4087D02*
X898Y4087D01*
X200Y4086D02*
X207Y4086D01*
X891Y4086D02*
X898Y4086D01*
X200Y4085D02*
X207Y4085D01*
X891Y4085D02*
X898Y4085D01*
X200Y4084D02*
X207Y4084D01*
X891Y4084D02*
X898Y4084D01*
X200Y4083D02*
X207Y4083D01*
X891Y4083D02*
X898Y4083D01*
X200Y4082D02*
X207Y4082D01*
X891Y4082D02*
X898Y4082D01*
X200Y4081D02*
X207Y4081D01*
X891Y4081D02*
X898Y4081D01*
X200Y4080D02*
X207Y4080D01*
X891Y4080D02*
X898Y4080D01*
X200Y4079D02*
X207Y4079D01*
X891Y4079D02*
X898Y4079D01*
X200Y4078D02*
X207Y4078D01*
X891Y4078D02*
X898Y4078D01*
X200Y4077D02*
X207Y4077D01*
X891Y4077D02*
X898Y4077D01*
X200Y4076D02*
X207Y4076D01*
X891Y4076D02*
X898Y4076D01*
X200Y4075D02*
X207Y4075D01*
X891Y4075D02*
X898Y4075D01*
X200Y4074D02*
X207Y4074D01*
X891Y4074D02*
X898Y4074D01*
X200Y4073D02*
X207Y4073D01*
X891Y4073D02*
X898Y4073D01*
X200Y4072D02*
X207Y4072D01*
X891Y4072D02*
X898Y4072D01*
X200Y4071D02*
X207Y4071D01*
X891Y4071D02*
X898Y4071D01*
X200Y4070D02*
X207Y4070D01*
X891Y4070D02*
X898Y4070D01*
X200Y4069D02*
X207Y4069D01*
X891Y4069D02*
X898Y4069D01*
X200Y4068D02*
X207Y4068D01*
X891Y4068D02*
X898Y4068D01*
X200Y4067D02*
X207Y4067D01*
X891Y4067D02*
X898Y4067D01*
X200Y4066D02*
X207Y4066D01*
X891Y4066D02*
X898Y4066D01*
X200Y4065D02*
X207Y4065D01*
X891Y4065D02*
X898Y4065D01*
X200Y4064D02*
X207Y4064D01*
X891Y4064D02*
X898Y4064D01*
X200Y4063D02*
X207Y4063D01*
X891Y4063D02*
X898Y4063D01*
X200Y4062D02*
X207Y4062D01*
X891Y4062D02*
X898Y4062D01*
X200Y4061D02*
X207Y4061D01*
X891Y4061D02*
X898Y4061D01*
X200Y4060D02*
X207Y4060D01*
X891Y4060D02*
X898Y4060D01*
X200Y4059D02*
X207Y4059D01*
X891Y4059D02*
X898Y4059D01*
X200Y4058D02*
X207Y4058D01*
X891Y4058D02*
X898Y4058D01*
X200Y4057D02*
X207Y4057D01*
X891Y4057D02*
X898Y4057D01*
X200Y4056D02*
X207Y4056D01*
X891Y4056D02*
X898Y4056D01*
X200Y4055D02*
X207Y4055D01*
X891Y4055D02*
X898Y4055D01*
X200Y4054D02*
X207Y4054D01*
X891Y4054D02*
X898Y4054D01*
X200Y4053D02*
X207Y4053D01*
X891Y4053D02*
X898Y4053D01*
X200Y4052D02*
X207Y4052D01*
X891Y4052D02*
X898Y4052D01*
X200Y4051D02*
X207Y4051D01*
X891Y4051D02*
X898Y4051D01*
X200Y4050D02*
X207Y4050D01*
X891Y4050D02*
X898Y4050D01*
X200Y4049D02*
X207Y4049D01*
X891Y4049D02*
X898Y4049D01*
X200Y4048D02*
X207Y4048D01*
X891Y4048D02*
X898Y4048D01*
X200Y4047D02*
X207Y4047D01*
X891Y4047D02*
X898Y4047D01*
X200Y4046D02*
X207Y4046D01*
X891Y4046D02*
X898Y4046D01*
X200Y4045D02*
X207Y4045D01*
X891Y4045D02*
X898Y4045D01*
X200Y4044D02*
X207Y4044D01*
X891Y4044D02*
X898Y4044D01*
X200Y4043D02*
X207Y4043D01*
X891Y4043D02*
X898Y4043D01*
X200Y4042D02*
X207Y4042D01*
X891Y4042D02*
X898Y4042D01*
X200Y4041D02*
X207Y4041D01*
X891Y4041D02*
X898Y4041D01*
X200Y4040D02*
X207Y4040D01*
X891Y4040D02*
X898Y4040D01*
X200Y4039D02*
X207Y4039D01*
X891Y4039D02*
X898Y4039D01*
X200Y4038D02*
X207Y4038D01*
X891Y4038D02*
X898Y4038D01*
X200Y4037D02*
X207Y4037D01*
X891Y4037D02*
X898Y4037D01*
X200Y4036D02*
X207Y4036D01*
X891Y4036D02*
X898Y4036D01*
X200Y4035D02*
X207Y4035D01*
X891Y4035D02*
X898Y4035D01*
X200Y4034D02*
X207Y4034D01*
X891Y4034D02*
X898Y4034D01*
X200Y4033D02*
X207Y4033D01*
X891Y4033D02*
X898Y4033D01*
X200Y4032D02*
X207Y4032D01*
X891Y4032D02*
X898Y4032D01*
X200Y4031D02*
X207Y4031D01*
X891Y4031D02*
X898Y4031D01*
X200Y4030D02*
X207Y4030D01*
X891Y4030D02*
X898Y4030D01*
X200Y4029D02*
X207Y4029D01*
X891Y4029D02*
X898Y4029D01*
X200Y4028D02*
X207Y4028D01*
X891Y4028D02*
X898Y4028D01*
X200Y4027D02*
X207Y4027D01*
X891Y4027D02*
X898Y4027D01*
X200Y4026D02*
X207Y4026D01*
X891Y4026D02*
X898Y4026D01*
X200Y4025D02*
X207Y4025D01*
X891Y4025D02*
X898Y4025D01*
X200Y4024D02*
X207Y4024D01*
X891Y4024D02*
X898Y4024D01*
X200Y4023D02*
X207Y4023D01*
X891Y4023D02*
X898Y4023D01*
X200Y4022D02*
X207Y4022D01*
X891Y4022D02*
X898Y4022D01*
X200Y4021D02*
X207Y4021D01*
X891Y4021D02*
X898Y4021D01*
X200Y4020D02*
X207Y4020D01*
X891Y4020D02*
X898Y4020D01*
X200Y4019D02*
X207Y4019D01*
X891Y4019D02*
X898Y4019D01*
X200Y4018D02*
X207Y4018D01*
X891Y4018D02*
X898Y4018D01*
X200Y4017D02*
X207Y4017D01*
X891Y4017D02*
X898Y4017D01*
X200Y4016D02*
X207Y4016D01*
X891Y4016D02*
X898Y4016D01*
X200Y4015D02*
X207Y4015D01*
X891Y4015D02*
X898Y4015D01*
X200Y4014D02*
X207Y4014D01*
X891Y4014D02*
X898Y4014D01*
X200Y4013D02*
X207Y4013D01*
X891Y4013D02*
X898Y4013D01*
X200Y4012D02*
X207Y4012D01*
X891Y4012D02*
X898Y4012D01*
X200Y4011D02*
X207Y4011D01*
X891Y4011D02*
X898Y4011D01*
X200Y4010D02*
X207Y4010D01*
X891Y4010D02*
X898Y4010D01*
X200Y4009D02*
X207Y4009D01*
X891Y4009D02*
X898Y4009D01*
X200Y4008D02*
X207Y4008D01*
X891Y4008D02*
X898Y4008D01*
X200Y4007D02*
X207Y4007D01*
X891Y4007D02*
X898Y4007D01*
X200Y4006D02*
X207Y4006D01*
X891Y4006D02*
X898Y4006D01*
X200Y4005D02*
X207Y4005D01*
X891Y4005D02*
X898Y4005D01*
X200Y4004D02*
X207Y4004D01*
X891Y4004D02*
X898Y4004D01*
X200Y4003D02*
X207Y4003D01*
X891Y4003D02*
X898Y4003D01*
X200Y4002D02*
X207Y4002D01*
X891Y4002D02*
X898Y4002D01*
X200Y4001D02*
X207Y4001D01*
X891Y4001D02*
X898Y4001D01*
X200Y4000D02*
X207Y4000D01*
X891Y4000D02*
X898Y4000D01*
X200Y3999D02*
X207Y3999D01*
X891Y3999D02*
X898Y3999D01*
X200Y3998D02*
X207Y3998D01*
X891Y3998D02*
X898Y3998D01*
X200Y3997D02*
X207Y3997D01*
X891Y3997D02*
X898Y3997D01*
X200Y3996D02*
X207Y3996D01*
X891Y3996D02*
X898Y3996D01*
X200Y3995D02*
X207Y3995D01*
X891Y3995D02*
X898Y3995D01*
X200Y3994D02*
X207Y3994D01*
X891Y3994D02*
X898Y3994D01*
X200Y3993D02*
X207Y3993D01*
X891Y3993D02*
X898Y3993D01*
X200Y3992D02*
X207Y3992D01*
X891Y3992D02*
X898Y3992D01*
X200Y3991D02*
X207Y3991D01*
X891Y3991D02*
X898Y3991D01*
X200Y3990D02*
X207Y3990D01*
X891Y3990D02*
X898Y3990D01*
X200Y3989D02*
X207Y3989D01*
X891Y3989D02*
X898Y3989D01*
X200Y3988D02*
X207Y3988D01*
X891Y3988D02*
X898Y3988D01*
X200Y3987D02*
X207Y3987D01*
X891Y3987D02*
X898Y3987D01*
X200Y3986D02*
X207Y3986D01*
X891Y3986D02*
X898Y3986D01*
X200Y3985D02*
X207Y3985D01*
X891Y3985D02*
X898Y3985D01*
X200Y3984D02*
X207Y3984D01*
X891Y3984D02*
X898Y3984D01*
X200Y3983D02*
X207Y3983D01*
X891Y3983D02*
X898Y3983D01*
X200Y3982D02*
X207Y3982D01*
X891Y3982D02*
X898Y3982D01*
X200Y3981D02*
X207Y3981D01*
X891Y3981D02*
X898Y3981D01*
X199Y3980D02*
X207Y3980D01*
X891Y3980D02*
X899Y3980D01*
X200Y3979D02*
X207Y3979D01*
X891Y3979D02*
X898Y3979D01*
X200Y3978D02*
X207Y3978D01*
X891Y3978D02*
X898Y3978D01*
X200Y3977D02*
X207Y3977D01*
X891Y3977D02*
X898Y3977D01*
X199Y3976D02*
X207Y3976D01*
X891Y3976D02*
X898Y3976D01*
X200Y3975D02*
X207Y3975D01*
X891Y3975D02*
X898Y3975D01*
X200Y3974D02*
X207Y3974D01*
X891Y3974D02*
X898Y3974D01*
X200Y3973D02*
X207Y3973D01*
X891Y3973D02*
X898Y3973D01*
X200Y3972D02*
X207Y3972D01*
X891Y3972D02*
X898Y3972D01*
X200Y3971D02*
X207Y3971D01*
X891Y3971D02*
X898Y3971D01*
X200Y3970D02*
X207Y3970D01*
X891Y3970D02*
X898Y3970D01*
X200Y3969D02*
X207Y3969D01*
X891Y3969D02*
X898Y3969D01*
X200Y3968D02*
X207Y3968D01*
X891Y3968D02*
X898Y3968D01*
X200Y3967D02*
X207Y3967D01*
X891Y3967D02*
X898Y3967D01*
X200Y3966D02*
X207Y3966D01*
X891Y3966D02*
X898Y3966D01*
X200Y3965D02*
X207Y3965D01*
X891Y3965D02*
X898Y3965D01*
X200Y3964D02*
X207Y3964D01*
X891Y3964D02*
X898Y3964D01*
X201Y3963D02*
X208Y3963D01*
X890Y3963D02*
X897Y3963D01*
X201Y3962D02*
X208Y3962D01*
X890Y3962D02*
X897Y3962D01*
X201Y3961D02*
X208Y3961D01*
X890Y3961D02*
X897Y3961D01*
X201Y3960D02*
X208Y3960D01*
X890Y3960D02*
X897Y3960D01*
X201Y3959D02*
X208Y3959D01*
X890Y3959D02*
X897Y3959D01*
X201Y3958D02*
X208Y3958D01*
X889Y3958D02*
X897Y3958D01*
X202Y3957D02*
X209Y3957D01*
X889Y3957D02*
X896Y3957D01*
X202Y3956D02*
X209Y3956D01*
X889Y3956D02*
X896Y3956D01*
X202Y3955D02*
X209Y3955D01*
X889Y3955D02*
X896Y3955D01*
X202Y3954D02*
X209Y3954D01*
X889Y3954D02*
X896Y3954D01*
X203Y3953D02*
X210Y3953D01*
X888Y3953D02*
X895Y3953D01*
X203Y3952D02*
X210Y3952D01*
X888Y3952D02*
X895Y3952D01*
X203Y3951D02*
X210Y3951D01*
X888Y3951D02*
X895Y3951D01*
X203Y3950D02*
X211Y3950D01*
X887Y3950D02*
X895Y3950D01*
X204Y3949D02*
X211Y3949D01*
X887Y3949D02*
X894Y3949D01*
X204Y3948D02*
X211Y3948D01*
X887Y3948D02*
X894Y3948D01*
X204Y3947D02*
X212Y3947D01*
X886Y3947D02*
X894Y3947D01*
X205Y3946D02*
X212Y3946D01*
X886Y3946D02*
X893Y3946D01*
X205Y3945D02*
X212Y3945D01*
X886Y3945D02*
X893Y3945D01*
X205Y3944D02*
X213Y3944D01*
X885Y3944D02*
X893Y3944D01*
X206Y3943D02*
X213Y3943D01*
X885Y3943D02*
X892Y3943D01*
X206Y3942D02*
X213Y3942D01*
X884Y3942D02*
X892Y3942D01*
X206Y3941D02*
X214Y3941D01*
X884Y3941D02*
X892Y3941D01*
X207Y3940D02*
X214Y3940D01*
X884Y3940D02*
X891Y3940D01*
X207Y3939D02*
X215Y3939D01*
X883Y3939D02*
X891Y3939D01*
X208Y3938D02*
X215Y3938D01*
X883Y3938D02*
X890Y3938D01*
X208Y3937D02*
X216Y3937D01*
X882Y3937D02*
X890Y3937D01*
X208Y3936D02*
X216Y3936D01*
X882Y3936D02*
X890Y3936D01*
X209Y3935D02*
X217Y3935D01*
X881Y3935D02*
X889Y3935D01*
X209Y3934D02*
X217Y3934D01*
X881Y3934D02*
X889Y3934D01*
X210Y3933D02*
X218Y3933D01*
X880Y3933D02*
X888Y3933D01*
X210Y3932D02*
X218Y3932D01*
X880Y3932D02*
X888Y3932D01*
X211Y3931D02*
X219Y3931D01*
X879Y3931D02*
X887Y3931D01*
X211Y3930D02*
X220Y3930D01*
X878Y3930D02*
X886Y3930D01*
X212Y3929D02*
X220Y3929D01*
X878Y3929D02*
X886Y3929D01*
X213Y3928D02*
X221Y3928D01*
X877Y3928D02*
X885Y3928D01*
X213Y3927D02*
X221Y3927D01*
X877Y3927D02*
X885Y3927D01*
X214Y3926D02*
X222Y3926D01*
X876Y3926D02*
X884Y3926D01*
X214Y3925D02*
X223Y3925D01*
X875Y3925D02*
X884Y3925D01*
X215Y3924D02*
X224Y3924D01*
X874Y3924D02*
X883Y3924D01*
X216Y3923D02*
X224Y3923D01*
X874Y3923D02*
X882Y3923D01*
X216Y3922D02*
X225Y3922D01*
X873Y3922D02*
X882Y3922D01*
X217Y3921D02*
X226Y3921D01*
X872Y3921D02*
X881Y3921D01*
X218Y3920D02*
X226Y3920D01*
X872Y3920D02*
X880Y3920D01*
X218Y3919D02*
X227Y3919D01*
X871Y3919D02*
X880Y3919D01*
X219Y3918D02*
X228Y3918D01*
X870Y3918D02*
X879Y3918D01*
X220Y3917D02*
X229Y3917D01*
X869Y3917D02*
X878Y3917D01*
X221Y3916D02*
X230Y3916D01*
X868Y3916D02*
X877Y3916D01*
X221Y3915D02*
X231Y3915D01*
X867Y3915D02*
X877Y3915D01*
X222Y3914D02*
X232Y3914D01*
X866Y3914D02*
X876Y3914D01*
X223Y3913D02*
X233Y3913D01*
X865Y3913D02*
X875Y3913D01*
X224Y3912D02*
X234Y3912D01*
X864Y3912D02*
X874Y3912D01*
X225Y3911D02*
X235Y3911D01*
X863Y3911D02*
X873Y3911D01*
X225Y3910D02*
X236Y3910D01*
X862Y3910D02*
X873Y3910D01*
X226Y3909D02*
X237Y3909D01*
X861Y3909D02*
X872Y3909D01*
X227Y3908D02*
X238Y3908D01*
X860Y3908D02*
X871Y3908D01*
X228Y3907D02*
X239Y3907D01*
X859Y3907D02*
X870Y3907D01*
X229Y3906D02*
X240Y3906D01*
X858Y3906D02*
X869Y3906D01*
X230Y3905D02*
X242Y3905D01*
X856Y3905D02*
X868Y3905D01*
X231Y3904D02*
X243Y3904D01*
X855Y3904D02*
X867Y3904D01*
X232Y3903D02*
X244Y3903D01*
X854Y3903D02*
X865Y3903D01*
X234Y3902D02*
X246Y3902D01*
X852Y3902D02*
X864Y3902D01*
X235Y3901D02*
X247Y3901D01*
X851Y3901D02*
X863Y3901D01*
X236Y3900D02*
X248Y3900D01*
X850Y3900D02*
X862Y3900D01*
X237Y3899D02*
X250Y3899D01*
X848Y3899D02*
X861Y3899D01*
X239Y3898D02*
X252Y3898D01*
X846Y3898D02*
X859Y3898D01*
X240Y3897D02*
X254Y3897D01*
X844Y3897D02*
X858Y3897D01*
X241Y3896D02*
X255Y3896D01*
X843Y3896D02*
X857Y3896D01*
X243Y3895D02*
X257Y3895D01*
X841Y3895D02*
X855Y3895D01*
X244Y3894D02*
X259Y3894D01*
X839Y3894D02*
X854Y3894D01*
X246Y3893D02*
X262Y3893D01*
X836Y3893D02*
X852Y3893D01*
X247Y3892D02*
X264Y3892D01*
X834Y3892D02*
X850Y3892D01*
X249Y3891D02*
X266Y3891D01*
X832Y3891D02*
X849Y3891D01*
X251Y3890D02*
X269Y3890D01*
X829Y3890D02*
X847Y3890D01*
X253Y3889D02*
X272Y3889D01*
X826Y3889D02*
X845Y3889D01*
X255Y3888D02*
X276Y3888D01*
X822Y3888D02*
X843Y3888D01*
X257Y3887D02*
X280Y3887D01*
X818Y3887D02*
X841Y3887D01*
X259Y3886D02*
X286Y3886D01*
X812Y3886D02*
X839Y3886D01*
X261Y3885D02*
X837Y3885D01*
X264Y3884D02*
X834Y3884D01*
X266Y3883D02*
X832Y3883D01*
X269Y3882D02*
X829Y3882D01*
X273Y3881D02*
X825Y3881D01*
X276Y3880D02*
X822Y3880D01*
X281Y3879D02*
X817Y3879D01*
X287Y3878D02*
X811Y3878D01*
X615Y2034D02*
X651Y2034D01*
X722Y2034D02*
X1200Y2034D01*
X1272Y2034D02*
X1471Y2034D01*
X609Y2033D02*
X651Y2033D01*
X722Y2033D02*
X1200Y2033D01*
X1272Y2033D02*
X1476Y2033D01*
X607Y2032D02*
X651Y2032D01*
X723Y2032D02*
X1200Y2032D01*
X1273Y2032D02*
X1479Y2032D01*
X605Y2031D02*
X650Y2031D01*
X724Y2031D02*
X1199Y2031D01*
X1273Y2031D02*
X1481Y2031D01*
X604Y2030D02*
X649Y2030D01*
X724Y2030D02*
X1198Y2030D01*
X1274Y2030D02*
X1482Y2030D01*
X603Y2029D02*
X649Y2029D01*
X725Y2029D02*
X1198Y2029D01*
X1275Y2029D02*
X1483Y2029D01*
X602Y2028D02*
X648Y2028D01*
X725Y2028D02*
X1197Y2028D01*
X1275Y2028D02*
X1484Y2028D01*
X601Y2027D02*
X647Y2027D01*
X726Y2027D02*
X1197Y2027D01*
X1276Y2027D02*
X1485Y2027D01*
X600Y2026D02*
X647Y2026D01*
X726Y2026D02*
X1196Y2026D01*
X1276Y2026D02*
X1486Y2026D01*
X599Y2025D02*
X646Y2025D01*
X727Y2025D02*
X1196Y2025D01*
X1277Y2025D02*
X1487Y2025D01*
X599Y2024D02*
X646Y2024D01*
X727Y2024D02*
X1195Y2024D01*
X1277Y2024D02*
X1487Y2024D01*
X598Y2023D02*
X646Y2023D01*
X728Y2023D02*
X1195Y2023D01*
X1278Y2023D02*
X1488Y2023D01*
X598Y2022D02*
X645Y2022D01*
X728Y2022D02*
X1194Y2022D01*
X1278Y2022D02*
X1488Y2022D01*
X597Y2021D02*
X645Y2021D01*
X729Y2021D02*
X1194Y2021D01*
X1278Y2021D02*
X1488Y2021D01*
X597Y2020D02*
X645Y2020D01*
X729Y2020D02*
X1194Y2020D01*
X1279Y2020D02*
X1489Y2020D01*
X597Y2019D02*
X644Y2019D01*
X729Y2019D02*
X1193Y2019D01*
X1279Y2019D02*
X1489Y2019D01*
X597Y2018D02*
X644Y2018D01*
X729Y2018D02*
X1193Y2018D01*
X1279Y2018D02*
X1489Y2018D01*
X597Y2017D02*
X644Y2017D01*
X730Y2017D02*
X1193Y2017D01*
X1279Y2017D02*
X1489Y2017D01*
X596Y2016D02*
X643Y2016D01*
X730Y2016D02*
X1193Y2016D01*
X1280Y2016D02*
X1489Y2016D01*
X596Y2015D02*
X643Y2015D01*
X730Y2015D02*
X1192Y2015D01*
X1280Y2015D02*
X1489Y2015D01*
X596Y2014D02*
X643Y2014D01*
X730Y2014D02*
X1192Y2014D01*
X1280Y2014D02*
X1489Y2014D01*
X596Y2013D02*
X643Y2013D01*
X730Y2013D02*
X1192Y2013D01*
X1280Y2013D02*
X1489Y2013D01*
X596Y2012D02*
X643Y2012D01*
X731Y2012D02*
X1192Y2012D01*
X1280Y2012D02*
X1489Y2012D01*
X596Y2011D02*
X643Y2011D01*
X731Y2011D02*
X1192Y2011D01*
X1280Y2011D02*
X1489Y2011D01*
X596Y2010D02*
X643Y2010D01*
X731Y2010D02*
X1192Y2010D01*
X1281Y2010D02*
X1489Y2010D01*
X596Y2009D02*
X643Y2009D01*
X731Y2009D02*
X1192Y2009D01*
X1281Y2009D02*
X1489Y2009D01*
X596Y2008D02*
X643Y2008D01*
X731Y2008D02*
X1192Y2008D01*
X1281Y2008D02*
X1489Y2008D01*
X596Y2007D02*
X643Y2007D01*
X731Y2007D02*
X1192Y2007D01*
X1281Y2007D02*
X1489Y2007D01*
X596Y2006D02*
X643Y2006D01*
X731Y2006D02*
X1192Y2006D01*
X1281Y2006D02*
X1489Y2006D01*
X596Y2005D02*
X643Y2005D01*
X731Y2005D02*
X1192Y2005D01*
X1280Y2005D02*
X1489Y2005D01*
X596Y2004D02*
X643Y2004D01*
X731Y2004D02*
X1192Y2004D01*
X1280Y2004D02*
X1489Y2004D01*
X596Y2003D02*
X643Y2003D01*
X731Y2003D02*
X1192Y2003D01*
X1280Y2003D02*
X1489Y2003D01*
X596Y2002D02*
X643Y2002D01*
X731Y2002D02*
X1192Y2002D01*
X1280Y2002D02*
X1489Y2002D01*
X596Y2001D02*
X643Y2001D01*
X730Y2001D02*
X1192Y2001D01*
X1280Y2001D02*
X1489Y2001D01*
X596Y2000D02*
X643Y2000D01*
X730Y2000D02*
X1192Y2000D01*
X1280Y2000D02*
X1489Y2000D01*
X596Y1999D02*
X643Y1999D01*
X730Y1999D02*
X1193Y1999D01*
X1280Y1999D02*
X1489Y1999D01*
X596Y1998D02*
X644Y1998D01*
X730Y1998D02*
X1193Y1998D01*
X1279Y1998D02*
X1489Y1998D01*
X596Y1997D02*
X644Y1997D01*
X730Y1997D02*
X1193Y1997D01*
X1279Y1997D02*
X1489Y1997D01*
X596Y1996D02*
X633Y1996D01*
X1453Y1996D02*
X1489Y1996D01*
X596Y1995D02*
X633Y1995D01*
X1453Y1995D02*
X1489Y1995D01*
X596Y1994D02*
X633Y1994D01*
X1453Y1994D02*
X1489Y1994D01*
X596Y1993D02*
X633Y1993D01*
X1453Y1993D02*
X1489Y1993D01*
X596Y1992D02*
X633Y1992D01*
X1453Y1992D02*
X1489Y1992D01*
X596Y1991D02*
X633Y1991D01*
X1453Y1991D02*
X1489Y1991D01*
X596Y1990D02*
X633Y1990D01*
X1453Y1990D02*
X1489Y1990D01*
X596Y1989D02*
X633Y1989D01*
X1453Y1989D02*
X1489Y1989D01*
X596Y1988D02*
X633Y1988D01*
X1453Y1988D02*
X1489Y1988D01*
X596Y1987D02*
X633Y1987D01*
X1453Y1987D02*
X1489Y1987D01*
X596Y1986D02*
X633Y1986D01*
X1453Y1986D02*
X1489Y1986D01*
X596Y1985D02*
X633Y1985D01*
X1453Y1985D02*
X1489Y1985D01*
X596Y1984D02*
X633Y1984D01*
X1453Y1984D02*
X1489Y1984D01*
X596Y1983D02*
X633Y1983D01*
X1453Y1983D02*
X1489Y1983D01*
X596Y1982D02*
X633Y1982D01*
X1453Y1982D02*
X1489Y1982D01*
X596Y1981D02*
X633Y1981D01*
X1453Y1981D02*
X1489Y1981D01*
X596Y1980D02*
X633Y1980D01*
X1453Y1980D02*
X1489Y1980D01*
X596Y1979D02*
X633Y1979D01*
X1453Y1979D02*
X1489Y1979D01*
X596Y1978D02*
X633Y1978D01*
X1453Y1978D02*
X1489Y1978D01*
X596Y1977D02*
X633Y1977D01*
X1453Y1977D02*
X1489Y1977D01*
X596Y1976D02*
X633Y1976D01*
X1453Y1976D02*
X1489Y1976D01*
X596Y1975D02*
X633Y1975D01*
X1453Y1975D02*
X1489Y1975D01*
X596Y1974D02*
X633Y1974D01*
X1453Y1974D02*
X1489Y1974D01*
X596Y1973D02*
X633Y1973D01*
X1453Y1973D02*
X1489Y1973D01*
X596Y1972D02*
X633Y1972D01*
X1453Y1972D02*
X1489Y1972D01*
X596Y1971D02*
X633Y1971D01*
X1453Y1971D02*
X1489Y1971D01*
X596Y1970D02*
X633Y1970D01*
X1453Y1970D02*
X1489Y1970D01*
X596Y1969D02*
X633Y1969D01*
X1453Y1969D02*
X1489Y1969D01*
X596Y1968D02*
X633Y1968D01*
X1453Y1968D02*
X1489Y1968D01*
X596Y1967D02*
X633Y1967D01*
X1453Y1967D02*
X1489Y1967D01*
X596Y1966D02*
X633Y1966D01*
X1453Y1966D02*
X1489Y1966D01*
X596Y1965D02*
X633Y1965D01*
X1453Y1965D02*
X1489Y1965D01*
X596Y1964D02*
X633Y1964D01*
X1453Y1964D02*
X1489Y1964D01*
X596Y1963D02*
X633Y1963D01*
X1453Y1963D02*
X1489Y1963D01*
X596Y1962D02*
X633Y1962D01*
X1453Y1962D02*
X1489Y1962D01*
X596Y1961D02*
X633Y1961D01*
X1453Y1961D02*
X1489Y1961D01*
X596Y1960D02*
X633Y1960D01*
X1453Y1960D02*
X1489Y1960D01*
X596Y1959D02*
X633Y1959D01*
X1453Y1959D02*
X1489Y1959D01*
X596Y1958D02*
X633Y1958D01*
X1453Y1958D02*
X1489Y1958D01*
X596Y1957D02*
X633Y1957D01*
X1453Y1957D02*
X1489Y1957D01*
X596Y1956D02*
X633Y1956D01*
X1453Y1956D02*
X1489Y1956D01*
X596Y1955D02*
X633Y1955D01*
X1453Y1955D02*
X1489Y1955D01*
X596Y1954D02*
X633Y1954D01*
X1453Y1954D02*
X1489Y1954D01*
X596Y1953D02*
X633Y1953D01*
X1453Y1953D02*
X1489Y1953D01*
X596Y1952D02*
X633Y1952D01*
X1453Y1952D02*
X1489Y1952D01*
X596Y1951D02*
X633Y1951D01*
X1453Y1951D02*
X1489Y1951D01*
X596Y1950D02*
X633Y1950D01*
X1453Y1950D02*
X1489Y1950D01*
X596Y1949D02*
X633Y1949D01*
X1453Y1949D02*
X1489Y1949D01*
X596Y1948D02*
X633Y1948D01*
X1453Y1948D02*
X1489Y1948D01*
X596Y1947D02*
X633Y1947D01*
X1453Y1947D02*
X1489Y1947D01*
X596Y1946D02*
X633Y1946D01*
X1453Y1946D02*
X1489Y1946D01*
X596Y1945D02*
X633Y1945D01*
X1453Y1945D02*
X1489Y1945D01*
X596Y1944D02*
X633Y1944D01*
X1453Y1944D02*
X1489Y1944D01*
X596Y1943D02*
X633Y1943D01*
X1453Y1943D02*
X1489Y1943D01*
X596Y1942D02*
X633Y1942D01*
X1453Y1942D02*
X1489Y1942D01*
X596Y1941D02*
X633Y1941D01*
X1453Y1941D02*
X1489Y1941D01*
X596Y1940D02*
X633Y1940D01*
X1453Y1940D02*
X1489Y1940D01*
X596Y1939D02*
X633Y1939D01*
X1453Y1939D02*
X1489Y1939D01*
X596Y1938D02*
X633Y1938D01*
X1453Y1938D02*
X1489Y1938D01*
X596Y1937D02*
X633Y1937D01*
X1453Y1937D02*
X1489Y1937D01*
X596Y1936D02*
X633Y1936D01*
X1453Y1936D02*
X1489Y1936D01*
X596Y1935D02*
X633Y1935D01*
X1453Y1935D02*
X1489Y1935D01*
X596Y1934D02*
X633Y1934D01*
X1453Y1934D02*
X1489Y1934D01*
X596Y1933D02*
X633Y1933D01*
X1453Y1933D02*
X1489Y1933D01*
X596Y1932D02*
X633Y1932D01*
X1453Y1932D02*
X1489Y1932D01*
X596Y1931D02*
X633Y1931D01*
X1453Y1931D02*
X1489Y1931D01*
X596Y1930D02*
X633Y1930D01*
X1453Y1930D02*
X1489Y1930D01*
X596Y1929D02*
X633Y1929D01*
X1453Y1929D02*
X1489Y1929D01*
X596Y1928D02*
X633Y1928D01*
X1453Y1928D02*
X1489Y1928D01*
X596Y1927D02*
X633Y1927D01*
X1453Y1927D02*
X1489Y1927D01*
X596Y1926D02*
X633Y1926D01*
X1453Y1926D02*
X1489Y1926D01*
X596Y1925D02*
X633Y1925D01*
X1453Y1925D02*
X1489Y1925D01*
X596Y1924D02*
X633Y1924D01*
X1453Y1924D02*
X1489Y1924D01*
X596Y1923D02*
X633Y1923D01*
X1453Y1923D02*
X1489Y1923D01*
X596Y1922D02*
X633Y1922D01*
X1453Y1922D02*
X1489Y1922D01*
X596Y1921D02*
X633Y1921D01*
X1453Y1921D02*
X1489Y1921D01*
X596Y1920D02*
X633Y1920D01*
X1453Y1920D02*
X1489Y1920D01*
X596Y1919D02*
X633Y1919D01*
X1453Y1919D02*
X1489Y1919D01*
X596Y1918D02*
X633Y1918D01*
X1453Y1918D02*
X1489Y1918D01*
X596Y1917D02*
X633Y1917D01*
X1453Y1917D02*
X1489Y1917D01*
X596Y1916D02*
X633Y1916D01*
X1453Y1916D02*
X1489Y1916D01*
X596Y1915D02*
X633Y1915D01*
X1453Y1915D02*
X1489Y1915D01*
X596Y1914D02*
X633Y1914D01*
X1453Y1914D02*
X1489Y1914D01*
X596Y1913D02*
X633Y1913D01*
X1453Y1913D02*
X1489Y1913D01*
X596Y1912D02*
X633Y1912D01*
X1453Y1912D02*
X1489Y1912D01*
X596Y1911D02*
X633Y1911D01*
X1453Y1911D02*
X1489Y1911D01*
X596Y1910D02*
X633Y1910D01*
X1453Y1910D02*
X1489Y1910D01*
X596Y1909D02*
X633Y1909D01*
X1453Y1909D02*
X1489Y1909D01*
X596Y1908D02*
X633Y1908D01*
X1453Y1908D02*
X1489Y1908D01*
X596Y1907D02*
X633Y1907D01*
X1453Y1907D02*
X1489Y1907D01*
X596Y1906D02*
X633Y1906D01*
X1453Y1906D02*
X1489Y1906D01*
X596Y1905D02*
X633Y1905D01*
X1453Y1905D02*
X1489Y1905D01*
X596Y1904D02*
X633Y1904D01*
X1453Y1904D02*
X1489Y1904D01*
X596Y1903D02*
X633Y1903D01*
X1453Y1903D02*
X1489Y1903D01*
X596Y1902D02*
X633Y1902D01*
X1453Y1902D02*
X1489Y1902D01*
X596Y1901D02*
X633Y1901D01*
X1453Y1901D02*
X1489Y1901D01*
X596Y1900D02*
X633Y1900D01*
X1453Y1900D02*
X1489Y1900D01*
X596Y1899D02*
X633Y1899D01*
X1453Y1899D02*
X1489Y1899D01*
X596Y1898D02*
X633Y1898D01*
X1453Y1898D02*
X1489Y1898D01*
X596Y1897D02*
X633Y1897D01*
X1453Y1897D02*
X1489Y1897D01*
X596Y1896D02*
X633Y1896D01*
X1453Y1896D02*
X1489Y1896D01*
X596Y1895D02*
X633Y1895D01*
X1453Y1895D02*
X1489Y1895D01*
X596Y1894D02*
X633Y1894D01*
X1453Y1894D02*
X1489Y1894D01*
X596Y1893D02*
X633Y1893D01*
X1453Y1893D02*
X1489Y1893D01*
X596Y1892D02*
X633Y1892D01*
X1453Y1892D02*
X1489Y1892D01*
X596Y1891D02*
X633Y1891D01*
X1453Y1891D02*
X1489Y1891D01*
X596Y1890D02*
X633Y1890D01*
X1453Y1890D02*
X1489Y1890D01*
X596Y1889D02*
X633Y1889D01*
X1453Y1889D02*
X1489Y1889D01*
X596Y1888D02*
X633Y1888D01*
X1453Y1888D02*
X1489Y1888D01*
X596Y1887D02*
X633Y1887D01*
X1453Y1887D02*
X1489Y1887D01*
X596Y1886D02*
X633Y1886D01*
X1453Y1886D02*
X1489Y1886D01*
X596Y1885D02*
X633Y1885D01*
X1453Y1885D02*
X1489Y1885D01*
X596Y1884D02*
X633Y1884D01*
X1453Y1884D02*
X1489Y1884D01*
X596Y1883D02*
X633Y1883D01*
X1453Y1883D02*
X1489Y1883D01*
X596Y1882D02*
X633Y1882D01*
X1453Y1882D02*
X1489Y1882D01*
X596Y1881D02*
X633Y1881D01*
X1453Y1881D02*
X1489Y1881D01*
X596Y1880D02*
X633Y1880D01*
X1453Y1880D02*
X1489Y1880D01*
X596Y1879D02*
X633Y1879D01*
X1453Y1879D02*
X1489Y1879D01*
X596Y1878D02*
X633Y1878D01*
X1453Y1878D02*
X1489Y1878D01*
X596Y1877D02*
X633Y1877D01*
X1453Y1877D02*
X1489Y1877D01*
X596Y1876D02*
X633Y1876D01*
X1453Y1876D02*
X1489Y1876D01*
X596Y1875D02*
X633Y1875D01*
X1453Y1875D02*
X1489Y1875D01*
X596Y1874D02*
X633Y1874D01*
X1453Y1874D02*
X1489Y1874D01*
X596Y1873D02*
X633Y1873D01*
X1453Y1873D02*
X1489Y1873D01*
X596Y1872D02*
X633Y1872D01*
X1453Y1872D02*
X1489Y1872D01*
X596Y1871D02*
X633Y1871D01*
X1453Y1871D02*
X1489Y1871D01*
X596Y1870D02*
X633Y1870D01*
X1453Y1870D02*
X1489Y1870D01*
X596Y1869D02*
X633Y1869D01*
X1453Y1869D02*
X1489Y1869D01*
X596Y1868D02*
X633Y1868D01*
X1453Y1868D02*
X1489Y1868D01*
X596Y1867D02*
X633Y1867D01*
X1453Y1867D02*
X1489Y1867D01*
X596Y1866D02*
X633Y1866D01*
X1453Y1866D02*
X1489Y1866D01*
X596Y1865D02*
X633Y1865D01*
X1453Y1865D02*
X1489Y1865D01*
X596Y1864D02*
X633Y1864D01*
X1453Y1864D02*
X1489Y1864D01*
X596Y1863D02*
X633Y1863D01*
X1453Y1863D02*
X1489Y1863D01*
X596Y1862D02*
X633Y1862D01*
X1453Y1862D02*
X1489Y1862D01*
X596Y1861D02*
X633Y1861D01*
X1453Y1861D02*
X1489Y1861D01*
X596Y1860D02*
X633Y1860D01*
X1453Y1860D02*
X1489Y1860D01*
X596Y1859D02*
X633Y1859D01*
X1453Y1859D02*
X1489Y1859D01*
X596Y1858D02*
X633Y1858D01*
X1453Y1858D02*
X1489Y1858D01*
X596Y1857D02*
X633Y1857D01*
X1453Y1857D02*
X1489Y1857D01*
X596Y1856D02*
X633Y1856D01*
X1453Y1856D02*
X1489Y1856D01*
X596Y1855D02*
X633Y1855D01*
X1453Y1855D02*
X1489Y1855D01*
X596Y1854D02*
X633Y1854D01*
X1453Y1854D02*
X1489Y1854D01*
X596Y1853D02*
X633Y1853D01*
X1453Y1853D02*
X1489Y1853D01*
X596Y1852D02*
X633Y1852D01*
X1453Y1852D02*
X1489Y1852D01*
X596Y1851D02*
X633Y1851D01*
X1453Y1851D02*
X1489Y1851D01*
X596Y1850D02*
X633Y1850D01*
X1453Y1850D02*
X1489Y1850D01*
X596Y1849D02*
X633Y1849D01*
X1453Y1849D02*
X1489Y1849D01*
X596Y1848D02*
X633Y1848D01*
X1453Y1848D02*
X1489Y1848D01*
X596Y1847D02*
X633Y1847D01*
X1453Y1847D02*
X1489Y1847D01*
X596Y1846D02*
X633Y1846D01*
X1453Y1846D02*
X1489Y1846D01*
X596Y1845D02*
X633Y1845D01*
X1453Y1845D02*
X1489Y1845D01*
X596Y1844D02*
X633Y1844D01*
X1453Y1844D02*
X1489Y1844D01*
X596Y1843D02*
X633Y1843D01*
X1453Y1843D02*
X1489Y1843D01*
X596Y1842D02*
X633Y1842D01*
X1453Y1842D02*
X1489Y1842D01*
X596Y1841D02*
X633Y1841D01*
X1453Y1841D02*
X1489Y1841D01*
X596Y1840D02*
X633Y1840D01*
X1453Y1840D02*
X1489Y1840D01*
X596Y1839D02*
X633Y1839D01*
X1453Y1839D02*
X1489Y1839D01*
X596Y1838D02*
X633Y1838D01*
X1453Y1838D02*
X1489Y1838D01*
X596Y1837D02*
X633Y1837D01*
X1453Y1837D02*
X1489Y1837D01*
X596Y1836D02*
X633Y1836D01*
X1453Y1836D02*
X1489Y1836D01*
X596Y1835D02*
X633Y1835D01*
X1453Y1835D02*
X1489Y1835D01*
X596Y1834D02*
X633Y1834D01*
X1453Y1834D02*
X1489Y1834D01*
X596Y1833D02*
X633Y1833D01*
X1453Y1833D02*
X1489Y1833D01*
X596Y1832D02*
X633Y1832D01*
X1453Y1832D02*
X1489Y1832D01*
X596Y1831D02*
X633Y1831D01*
X1453Y1831D02*
X1489Y1831D01*
X596Y1830D02*
X633Y1830D01*
X1453Y1830D02*
X1489Y1830D01*
X596Y1829D02*
X633Y1829D01*
X1453Y1829D02*
X1489Y1829D01*
X596Y1828D02*
X633Y1828D01*
X1453Y1828D02*
X1489Y1828D01*
X596Y1827D02*
X633Y1827D01*
X1453Y1827D02*
X1489Y1827D01*
X596Y1826D02*
X633Y1826D01*
X1453Y1826D02*
X1489Y1826D01*
X596Y1825D02*
X633Y1825D01*
X1453Y1825D02*
X1489Y1825D01*
X596Y1824D02*
X633Y1824D01*
X1453Y1824D02*
X1489Y1824D01*
X596Y1823D02*
X633Y1823D01*
X1453Y1823D02*
X1489Y1823D01*
X596Y1822D02*
X633Y1822D01*
X1453Y1822D02*
X1489Y1822D01*
X596Y1821D02*
X633Y1821D01*
X1453Y1821D02*
X1489Y1821D01*
X596Y1820D02*
X633Y1820D01*
X1453Y1820D02*
X1489Y1820D01*
X596Y1819D02*
X633Y1819D01*
X1453Y1819D02*
X1489Y1819D01*
X596Y1818D02*
X633Y1818D01*
X1453Y1818D02*
X1489Y1818D01*
X596Y1817D02*
X633Y1817D01*
X1453Y1817D02*
X1489Y1817D01*
X596Y1816D02*
X633Y1816D01*
X1453Y1816D02*
X1489Y1816D01*
X596Y1815D02*
X633Y1815D01*
X1453Y1815D02*
X1489Y1815D01*
X596Y1814D02*
X633Y1814D01*
X1453Y1814D02*
X1489Y1814D01*
X596Y1813D02*
X633Y1813D01*
X1453Y1813D02*
X1489Y1813D01*
X596Y1812D02*
X633Y1812D01*
X1453Y1812D02*
X1489Y1812D01*
X596Y1811D02*
X633Y1811D01*
X1453Y1811D02*
X1489Y1811D01*
X596Y1810D02*
X633Y1810D01*
X1453Y1810D02*
X1489Y1810D01*
X596Y1809D02*
X633Y1809D01*
X1453Y1809D02*
X1489Y1809D01*
X596Y1808D02*
X633Y1808D01*
X1453Y1808D02*
X1489Y1808D01*
X596Y1807D02*
X633Y1807D01*
X1453Y1807D02*
X1489Y1807D01*
X596Y1806D02*
X633Y1806D01*
X1453Y1806D02*
X1489Y1806D01*
X596Y1805D02*
X633Y1805D01*
X1453Y1805D02*
X1489Y1805D01*
X596Y1804D02*
X633Y1804D01*
X1453Y1804D02*
X1489Y1804D01*
X596Y1803D02*
X633Y1803D01*
X1453Y1803D02*
X1489Y1803D01*
X596Y1802D02*
X633Y1802D01*
X1453Y1802D02*
X1489Y1802D01*
X596Y1801D02*
X633Y1801D01*
X1453Y1801D02*
X1489Y1801D01*
X596Y1800D02*
X633Y1800D01*
X1453Y1800D02*
X1489Y1800D01*
X596Y1799D02*
X633Y1799D01*
X1453Y1799D02*
X1489Y1799D01*
X596Y1798D02*
X633Y1798D01*
X1453Y1798D02*
X1489Y1798D01*
X596Y1797D02*
X633Y1797D01*
X1453Y1797D02*
X1489Y1797D01*
X596Y1796D02*
X633Y1796D01*
X1453Y1796D02*
X1489Y1796D01*
X596Y1795D02*
X633Y1795D01*
X1453Y1795D02*
X1489Y1795D01*
X596Y1794D02*
X633Y1794D01*
X1453Y1794D02*
X1489Y1794D01*
X596Y1793D02*
X633Y1793D01*
X1453Y1793D02*
X1489Y1793D01*
X596Y1792D02*
X633Y1792D01*
X1453Y1792D02*
X1489Y1792D01*
X596Y1791D02*
X633Y1791D01*
X1453Y1791D02*
X1489Y1791D01*
X596Y1790D02*
X633Y1790D01*
X1453Y1790D02*
X1489Y1790D01*
X596Y1789D02*
X633Y1789D01*
X1453Y1789D02*
X1489Y1789D01*
X596Y1788D02*
X633Y1788D01*
X1453Y1788D02*
X1489Y1788D01*
X596Y1787D02*
X633Y1787D01*
X1453Y1787D02*
X1489Y1787D01*
X596Y1786D02*
X633Y1786D01*
X1453Y1786D02*
X1489Y1786D01*
X596Y1785D02*
X633Y1785D01*
X1453Y1785D02*
X1489Y1785D01*
X596Y1784D02*
X633Y1784D01*
X1453Y1784D02*
X1489Y1784D01*
X596Y1783D02*
X633Y1783D01*
X1453Y1783D02*
X1489Y1783D01*
X596Y1782D02*
X633Y1782D01*
X1453Y1782D02*
X1489Y1782D01*
X596Y1781D02*
X633Y1781D01*
X1453Y1781D02*
X1489Y1781D01*
X596Y1780D02*
X633Y1780D01*
X1453Y1780D02*
X1489Y1780D01*
X596Y1779D02*
X633Y1779D01*
X1453Y1779D02*
X1489Y1779D01*
X596Y1778D02*
X633Y1778D01*
X1453Y1778D02*
X1489Y1778D01*
X596Y1777D02*
X633Y1777D01*
X1453Y1777D02*
X1489Y1777D01*
X596Y1776D02*
X633Y1776D01*
X1453Y1776D02*
X1489Y1776D01*
X596Y1775D02*
X633Y1775D01*
X1453Y1775D02*
X1489Y1775D01*
X596Y1774D02*
X633Y1774D01*
X1453Y1774D02*
X1489Y1774D01*
X596Y1773D02*
X633Y1773D01*
X1453Y1773D02*
X1489Y1773D01*
X596Y1772D02*
X633Y1772D01*
X1453Y1772D02*
X1489Y1772D01*
X596Y1771D02*
X633Y1771D01*
X1453Y1771D02*
X1489Y1771D01*
X596Y1770D02*
X633Y1770D01*
X1453Y1770D02*
X1489Y1770D01*
X596Y1769D02*
X633Y1769D01*
X1453Y1769D02*
X1489Y1769D01*
X596Y1768D02*
X633Y1768D01*
X1453Y1768D02*
X1460Y1768D01*
X1477Y1768D02*
X1489Y1768D01*
X596Y1767D02*
X633Y1767D01*
X1453Y1767D02*
X1456Y1767D01*
X1482Y1767D02*
X1489Y1767D01*
X596Y1766D02*
X633Y1766D01*
X1453Y1766D02*
X1453Y1766D01*
X1485Y1766D02*
X1489Y1766D01*
X596Y1765D02*
X633Y1765D01*
X1487Y1765D02*
X1489Y1765D01*
X596Y1764D02*
X633Y1764D01*
X596Y1763D02*
X633Y1763D01*
X596Y1762D02*
X633Y1762D01*
X596Y1761D02*
X633Y1761D01*
X596Y1760D02*
X633Y1760D01*
X596Y1759D02*
X633Y1759D01*
X596Y1758D02*
X633Y1758D01*
X596Y1757D02*
X633Y1757D01*
X596Y1756D02*
X633Y1756D01*
X596Y1755D02*
X633Y1755D01*
X596Y1754D02*
X633Y1754D01*
X596Y1753D02*
X633Y1753D01*
X596Y1752D02*
X633Y1752D01*
X596Y1751D02*
X633Y1751D01*
X596Y1750D02*
X633Y1750D01*
X596Y1749D02*
X633Y1749D01*
X596Y1748D02*
X633Y1748D01*
X596Y1747D02*
X633Y1747D01*
X596Y1746D02*
X633Y1746D01*
X596Y1745D02*
X633Y1745D01*
X596Y1744D02*
X633Y1744D01*
X596Y1743D02*
X633Y1743D01*
X596Y1742D02*
X633Y1742D01*
X596Y1741D02*
X633Y1741D01*
X596Y1740D02*
X633Y1740D01*
X596Y1739D02*
X633Y1739D01*
X596Y1738D02*
X633Y1738D01*
X596Y1737D02*
X633Y1737D01*
X596Y1736D02*
X633Y1736D01*
X596Y1735D02*
X633Y1735D01*
X596Y1734D02*
X633Y1734D01*
X596Y1733D02*
X633Y1733D01*
X596Y1732D02*
X633Y1732D01*
X596Y1731D02*
X633Y1731D01*
X596Y1730D02*
X633Y1730D01*
X596Y1729D02*
X633Y1729D01*
X596Y1728D02*
X633Y1728D01*
X596Y1727D02*
X633Y1727D01*
X596Y1726D02*
X633Y1726D01*
X596Y1725D02*
X633Y1725D01*
X596Y1724D02*
X633Y1724D01*
X596Y1723D02*
X633Y1723D01*
X596Y1722D02*
X633Y1722D01*
X596Y1721D02*
X633Y1721D01*
X596Y1720D02*
X633Y1720D01*
X596Y1719D02*
X633Y1719D01*
X596Y1718D02*
X633Y1718D01*
X596Y1717D02*
X633Y1717D01*
X596Y1716D02*
X633Y1716D01*
X596Y1715D02*
X633Y1715D01*
X596Y1714D02*
X633Y1714D01*
X596Y1713D02*
X633Y1713D01*
X596Y1712D02*
X633Y1712D01*
X596Y1711D02*
X633Y1711D01*
X596Y1710D02*
X633Y1710D01*
X596Y1709D02*
X633Y1709D01*
X596Y1708D02*
X633Y1708D01*
X596Y1707D02*
X633Y1707D01*
X596Y1706D02*
X633Y1706D01*
X596Y1705D02*
X633Y1705D01*
X596Y1704D02*
X633Y1704D01*
X596Y1703D02*
X633Y1703D01*
X596Y1702D02*
X633Y1702D01*
X596Y1701D02*
X633Y1701D01*
X596Y1700D02*
X633Y1700D01*
X596Y1699D02*
X633Y1699D01*
X596Y1698D02*
X633Y1698D01*
X596Y1697D02*
X633Y1697D01*
X596Y1696D02*
X633Y1696D01*
X596Y1695D02*
X633Y1695D01*
X596Y1694D02*
X633Y1694D01*
X596Y1693D02*
X633Y1693D01*
X596Y1692D02*
X633Y1692D01*
X596Y1691D02*
X633Y1691D01*
X596Y1690D02*
X633Y1690D01*
X596Y1689D02*
X633Y1689D01*
X596Y1688D02*
X633Y1688D01*
X596Y1687D02*
X633Y1687D01*
X596Y1686D02*
X633Y1686D01*
X596Y1685D02*
X633Y1685D01*
X596Y1684D02*
X633Y1684D01*
X596Y1683D02*
X633Y1683D01*
X596Y1682D02*
X633Y1682D01*
X596Y1681D02*
X633Y1681D01*
X596Y1680D02*
X633Y1680D01*
X596Y1679D02*
X633Y1679D01*
X596Y1678D02*
X633Y1678D01*
X1488Y1678D02*
X1489Y1678D01*
X596Y1677D02*
X633Y1677D01*
X1486Y1677D02*
X1489Y1677D01*
X596Y1676D02*
X633Y1676D01*
X1453Y1676D02*
X1455Y1676D01*
X1483Y1676D02*
X1489Y1676D01*
X596Y1675D02*
X633Y1675D01*
X1453Y1675D02*
X1459Y1675D01*
X1479Y1675D02*
X1489Y1675D01*
X596Y1674D02*
X633Y1674D01*
X1453Y1674D02*
X1466Y1674D01*
X1471Y1674D02*
X1489Y1674D01*
X596Y1673D02*
X633Y1673D01*
X1453Y1673D02*
X1489Y1673D01*
X596Y1672D02*
X633Y1672D01*
X1453Y1672D02*
X1489Y1672D01*
X596Y1671D02*
X633Y1671D01*
X1453Y1671D02*
X1489Y1671D01*
X596Y1670D02*
X633Y1670D01*
X1453Y1670D02*
X1489Y1670D01*
X596Y1669D02*
X633Y1669D01*
X1453Y1669D02*
X1489Y1669D01*
X596Y1668D02*
X633Y1668D01*
X1453Y1668D02*
X1489Y1668D01*
X596Y1667D02*
X633Y1667D01*
X1453Y1667D02*
X1489Y1667D01*
X596Y1666D02*
X633Y1666D01*
X1453Y1666D02*
X1489Y1666D01*
X596Y1665D02*
X633Y1665D01*
X1453Y1665D02*
X1489Y1665D01*
X596Y1664D02*
X633Y1664D01*
X1453Y1664D02*
X1489Y1664D01*
X596Y1663D02*
X633Y1663D01*
X1453Y1663D02*
X1489Y1663D01*
X596Y1662D02*
X633Y1662D01*
X1453Y1662D02*
X1489Y1662D01*
X596Y1661D02*
X633Y1661D01*
X1453Y1661D02*
X1489Y1661D01*
X596Y1660D02*
X633Y1660D01*
X1453Y1660D02*
X1489Y1660D01*
X596Y1659D02*
X633Y1659D01*
X1453Y1659D02*
X1489Y1659D01*
X596Y1658D02*
X633Y1658D01*
X1453Y1658D02*
X1489Y1658D01*
X596Y1657D02*
X633Y1657D01*
X1453Y1657D02*
X1489Y1657D01*
X596Y1656D02*
X633Y1656D01*
X1453Y1656D02*
X1489Y1656D01*
X596Y1655D02*
X633Y1655D01*
X1453Y1655D02*
X1489Y1655D01*
X596Y1654D02*
X633Y1654D01*
X1453Y1654D02*
X1489Y1654D01*
X596Y1653D02*
X633Y1653D01*
X1453Y1653D02*
X1489Y1653D01*
X596Y1652D02*
X633Y1652D01*
X1453Y1652D02*
X1489Y1652D01*
X596Y1651D02*
X633Y1651D01*
X1453Y1651D02*
X1489Y1651D01*
X596Y1650D02*
X633Y1650D01*
X1453Y1650D02*
X1489Y1650D01*
X596Y1649D02*
X633Y1649D01*
X1453Y1649D02*
X1489Y1649D01*
X596Y1648D02*
X633Y1648D01*
X1453Y1648D02*
X1489Y1648D01*
X596Y1647D02*
X633Y1647D01*
X1453Y1647D02*
X1489Y1647D01*
X596Y1646D02*
X633Y1646D01*
X1453Y1646D02*
X1489Y1646D01*
X596Y1645D02*
X633Y1645D01*
X1453Y1645D02*
X1489Y1645D01*
X596Y1644D02*
X633Y1644D01*
X1453Y1644D02*
X1489Y1644D01*
X596Y1643D02*
X633Y1643D01*
X1453Y1643D02*
X1489Y1643D01*
X596Y1642D02*
X633Y1642D01*
X1453Y1642D02*
X1489Y1642D01*
X596Y1641D02*
X633Y1641D01*
X1453Y1641D02*
X1489Y1641D01*
X596Y1640D02*
X633Y1640D01*
X1453Y1640D02*
X1489Y1640D01*
X596Y1639D02*
X633Y1639D01*
X1453Y1639D02*
X1489Y1639D01*
X596Y1638D02*
X633Y1638D01*
X1453Y1638D02*
X1489Y1638D01*
X596Y1637D02*
X633Y1637D01*
X1453Y1637D02*
X1489Y1637D01*
X596Y1636D02*
X633Y1636D01*
X1453Y1636D02*
X1489Y1636D01*
X596Y1635D02*
X633Y1635D01*
X1453Y1635D02*
X1489Y1635D01*
X596Y1634D02*
X633Y1634D01*
X1453Y1634D02*
X1489Y1634D01*
X596Y1633D02*
X633Y1633D01*
X1453Y1633D02*
X1489Y1633D01*
X596Y1632D02*
X633Y1632D01*
X1453Y1632D02*
X1489Y1632D01*
X596Y1631D02*
X633Y1631D01*
X1453Y1631D02*
X1489Y1631D01*
X596Y1630D02*
X633Y1630D01*
X1453Y1630D02*
X1489Y1630D01*
X596Y1629D02*
X633Y1629D01*
X1453Y1629D02*
X1489Y1629D01*
X596Y1628D02*
X633Y1628D01*
X1453Y1628D02*
X1489Y1628D01*
X596Y1627D02*
X633Y1627D01*
X1453Y1627D02*
X1489Y1627D01*
X596Y1626D02*
X633Y1626D01*
X1453Y1626D02*
X1489Y1626D01*
X596Y1625D02*
X633Y1625D01*
X1453Y1625D02*
X1489Y1625D01*
X596Y1624D02*
X633Y1624D01*
X1453Y1624D02*
X1489Y1624D01*
X596Y1623D02*
X633Y1623D01*
X1453Y1623D02*
X1489Y1623D01*
X596Y1622D02*
X633Y1622D01*
X1453Y1622D02*
X1489Y1622D01*
X596Y1621D02*
X633Y1621D01*
X1453Y1621D02*
X1489Y1621D01*
X596Y1620D02*
X633Y1620D01*
X1453Y1620D02*
X1489Y1620D01*
X596Y1619D02*
X633Y1619D01*
X1453Y1619D02*
X1489Y1619D01*
X596Y1618D02*
X633Y1618D01*
X1453Y1618D02*
X1489Y1618D01*
X596Y1617D02*
X633Y1617D01*
X1453Y1617D02*
X1489Y1617D01*
X596Y1616D02*
X633Y1616D01*
X1453Y1616D02*
X1489Y1616D01*
X596Y1615D02*
X633Y1615D01*
X1453Y1615D02*
X1489Y1615D01*
X596Y1614D02*
X633Y1614D01*
X1453Y1614D02*
X1489Y1614D01*
X596Y1613D02*
X633Y1613D01*
X1453Y1613D02*
X1489Y1613D01*
X596Y1612D02*
X633Y1612D01*
X1453Y1612D02*
X1489Y1612D01*
X596Y1611D02*
X633Y1611D01*
X1453Y1611D02*
X1489Y1611D01*
X596Y1610D02*
X633Y1610D01*
X1453Y1610D02*
X1489Y1610D01*
X596Y1609D02*
X633Y1609D01*
X1453Y1609D02*
X1489Y1609D01*
X596Y1608D02*
X633Y1608D01*
X1453Y1608D02*
X1489Y1608D01*
X596Y1607D02*
X633Y1607D01*
X1453Y1607D02*
X1489Y1607D01*
X596Y1606D02*
X633Y1606D01*
X1453Y1606D02*
X1489Y1606D01*
X596Y1605D02*
X633Y1605D01*
X1453Y1605D02*
X1489Y1605D01*
X596Y1604D02*
X633Y1604D01*
X1453Y1604D02*
X1489Y1604D01*
X596Y1603D02*
X633Y1603D01*
X1453Y1603D02*
X1489Y1603D01*
X596Y1602D02*
X633Y1602D01*
X1453Y1602D02*
X1489Y1602D01*
X596Y1601D02*
X633Y1601D01*
X1453Y1601D02*
X1489Y1601D01*
X596Y1600D02*
X633Y1600D01*
X1453Y1600D02*
X1489Y1600D01*
X596Y1599D02*
X633Y1599D01*
X1453Y1599D02*
X1489Y1599D01*
X596Y1598D02*
X633Y1598D01*
X1453Y1598D02*
X1489Y1598D01*
X596Y1597D02*
X633Y1597D01*
X1453Y1597D02*
X1489Y1597D01*
X596Y1596D02*
X633Y1596D01*
X1453Y1596D02*
X1489Y1596D01*
X596Y1595D02*
X633Y1595D01*
X1453Y1595D02*
X1489Y1595D01*
X596Y1594D02*
X633Y1594D01*
X1453Y1594D02*
X1489Y1594D01*
X596Y1593D02*
X633Y1593D01*
X1453Y1593D02*
X1489Y1593D01*
X596Y1592D02*
X633Y1592D01*
X1453Y1592D02*
X1489Y1592D01*
X596Y1591D02*
X633Y1591D01*
X1453Y1591D02*
X1489Y1591D01*
X596Y1590D02*
X633Y1590D01*
X1453Y1590D02*
X1489Y1590D01*
X596Y1589D02*
X633Y1589D01*
X1453Y1589D02*
X1489Y1589D01*
X596Y1588D02*
X633Y1588D01*
X1453Y1588D02*
X1489Y1588D01*
X596Y1587D02*
X633Y1587D01*
X1453Y1587D02*
X1489Y1587D01*
X596Y1586D02*
X633Y1586D01*
X1453Y1586D02*
X1489Y1586D01*
X596Y1585D02*
X633Y1585D01*
X1453Y1585D02*
X1489Y1585D01*
X596Y1584D02*
X633Y1584D01*
X1453Y1584D02*
X1489Y1584D01*
X596Y1583D02*
X633Y1583D01*
X1453Y1583D02*
X1489Y1583D01*
X596Y1582D02*
X633Y1582D01*
X1453Y1582D02*
X1489Y1582D01*
X596Y1581D02*
X633Y1581D01*
X1453Y1581D02*
X1489Y1581D01*
X596Y1580D02*
X633Y1580D01*
X1453Y1580D02*
X1489Y1580D01*
X596Y1579D02*
X633Y1579D01*
X1453Y1579D02*
X1489Y1579D01*
X596Y1578D02*
X633Y1578D01*
X1453Y1578D02*
X1489Y1578D01*
X596Y1577D02*
X633Y1577D01*
X1453Y1577D02*
X1489Y1577D01*
X596Y1576D02*
X633Y1576D01*
X1453Y1576D02*
X1489Y1576D01*
X596Y1575D02*
X633Y1575D01*
X1453Y1575D02*
X1489Y1575D01*
X596Y1574D02*
X633Y1574D01*
X1453Y1574D02*
X1489Y1574D01*
X596Y1573D02*
X633Y1573D01*
X1453Y1573D02*
X1489Y1573D01*
X596Y1572D02*
X633Y1572D01*
X1453Y1572D02*
X1489Y1572D01*
X596Y1571D02*
X633Y1571D01*
X1453Y1571D02*
X1489Y1571D01*
X596Y1570D02*
X633Y1570D01*
X1453Y1570D02*
X1489Y1570D01*
X596Y1569D02*
X633Y1569D01*
X1453Y1569D02*
X1489Y1569D01*
X596Y1568D02*
X633Y1568D01*
X1453Y1568D02*
X1489Y1568D01*
X596Y1567D02*
X633Y1567D01*
X1453Y1567D02*
X1489Y1567D01*
X596Y1566D02*
X633Y1566D01*
X1453Y1566D02*
X1489Y1566D01*
X596Y1565D02*
X633Y1565D01*
X1453Y1565D02*
X1489Y1565D01*
X596Y1564D02*
X633Y1564D01*
X1453Y1564D02*
X1489Y1564D01*
X596Y1563D02*
X633Y1563D01*
X1453Y1563D02*
X1489Y1563D01*
X596Y1562D02*
X633Y1562D01*
X1453Y1562D02*
X1489Y1562D01*
X596Y1561D02*
X633Y1561D01*
X1453Y1561D02*
X1489Y1561D01*
X596Y1560D02*
X633Y1560D01*
X1453Y1560D02*
X1489Y1560D01*
X596Y1559D02*
X633Y1559D01*
X1453Y1559D02*
X1489Y1559D01*
X596Y1558D02*
X633Y1558D01*
X1453Y1558D02*
X1489Y1558D01*
X596Y1557D02*
X633Y1557D01*
X1453Y1557D02*
X1489Y1557D01*
X596Y1556D02*
X633Y1556D01*
X1453Y1556D02*
X1489Y1556D01*
X596Y1555D02*
X633Y1555D01*
X1453Y1555D02*
X1489Y1555D01*
X596Y1554D02*
X633Y1554D01*
X1453Y1554D02*
X1489Y1554D01*
X596Y1553D02*
X633Y1553D01*
X1453Y1553D02*
X1489Y1553D01*
X596Y1552D02*
X633Y1552D01*
X1453Y1552D02*
X1489Y1552D01*
X596Y1551D02*
X633Y1551D01*
X1453Y1551D02*
X1489Y1551D01*
X596Y1550D02*
X633Y1550D01*
X1453Y1550D02*
X1489Y1550D01*
X596Y1549D02*
X633Y1549D01*
X1453Y1549D02*
X1489Y1549D01*
X596Y1548D02*
X633Y1548D01*
X1453Y1548D02*
X1489Y1548D01*
X596Y1547D02*
X633Y1547D01*
X1453Y1547D02*
X1489Y1547D01*
X596Y1546D02*
X633Y1546D01*
X1453Y1546D02*
X1489Y1546D01*
X596Y1545D02*
X633Y1545D01*
X1453Y1545D02*
X1489Y1545D01*
X596Y1544D02*
X633Y1544D01*
X1453Y1544D02*
X1489Y1544D01*
X596Y1543D02*
X633Y1543D01*
X1453Y1543D02*
X1489Y1543D01*
X596Y1542D02*
X633Y1542D01*
X1453Y1542D02*
X1489Y1542D01*
X596Y1541D02*
X633Y1541D01*
X1453Y1541D02*
X1489Y1541D01*
X596Y1540D02*
X633Y1540D01*
X1453Y1540D02*
X1489Y1540D01*
X596Y1539D02*
X633Y1539D01*
X1453Y1539D02*
X1489Y1539D01*
X596Y1538D02*
X633Y1538D01*
X1453Y1538D02*
X1489Y1538D01*
X596Y1537D02*
X633Y1537D01*
X1453Y1537D02*
X1489Y1537D01*
X596Y1536D02*
X633Y1536D01*
X1453Y1536D02*
X1489Y1536D01*
X596Y1535D02*
X633Y1535D01*
X1453Y1535D02*
X1489Y1535D01*
X596Y1534D02*
X633Y1534D01*
X1453Y1534D02*
X1489Y1534D01*
X596Y1533D02*
X633Y1533D01*
X1453Y1533D02*
X1489Y1533D01*
X596Y1532D02*
X633Y1532D01*
X1453Y1532D02*
X1489Y1532D01*
X596Y1531D02*
X633Y1531D01*
X1453Y1531D02*
X1489Y1531D01*
X596Y1530D02*
X633Y1530D01*
X1453Y1530D02*
X1489Y1530D01*
X596Y1529D02*
X633Y1529D01*
X1453Y1529D02*
X1489Y1529D01*
X596Y1528D02*
X633Y1528D01*
X1453Y1528D02*
X1489Y1528D01*
X596Y1527D02*
X633Y1527D01*
X1453Y1527D02*
X1489Y1527D01*
X596Y1526D02*
X633Y1526D01*
X1453Y1526D02*
X1489Y1526D01*
X596Y1525D02*
X633Y1525D01*
X1453Y1525D02*
X1489Y1525D01*
X596Y1524D02*
X633Y1524D01*
X1453Y1524D02*
X1489Y1524D01*
X596Y1523D02*
X633Y1523D01*
X1453Y1523D02*
X1489Y1523D01*
X596Y1522D02*
X633Y1522D01*
X1453Y1522D02*
X1489Y1522D01*
X596Y1521D02*
X633Y1521D01*
X1453Y1521D02*
X1489Y1521D01*
X596Y1520D02*
X633Y1520D01*
X1453Y1520D02*
X1489Y1520D01*
X596Y1519D02*
X633Y1519D01*
X1453Y1519D02*
X1489Y1519D01*
X596Y1518D02*
X633Y1518D01*
X1453Y1518D02*
X1489Y1518D01*
X596Y1517D02*
X633Y1517D01*
X1453Y1517D02*
X1489Y1517D01*
X596Y1516D02*
X633Y1516D01*
X1453Y1516D02*
X1489Y1516D01*
X596Y1515D02*
X633Y1515D01*
X1453Y1515D02*
X1489Y1515D01*
X596Y1514D02*
X633Y1514D01*
X1453Y1514D02*
X1489Y1514D01*
X596Y1513D02*
X633Y1513D01*
X1453Y1513D02*
X1489Y1513D01*
X596Y1512D02*
X633Y1512D01*
X1453Y1512D02*
X1489Y1512D01*
X596Y1511D02*
X633Y1511D01*
X1453Y1511D02*
X1489Y1511D01*
X596Y1510D02*
X633Y1510D01*
X1453Y1510D02*
X1489Y1510D01*
X596Y1509D02*
X633Y1509D01*
X1453Y1509D02*
X1489Y1509D01*
X596Y1508D02*
X633Y1508D01*
X1453Y1508D02*
X1489Y1508D01*
X596Y1507D02*
X633Y1507D01*
X1453Y1507D02*
X1489Y1507D01*
X596Y1506D02*
X633Y1506D01*
X1453Y1506D02*
X1489Y1506D01*
X596Y1505D02*
X633Y1505D01*
X1453Y1505D02*
X1489Y1505D01*
X596Y1504D02*
X633Y1504D01*
X1453Y1504D02*
X1489Y1504D01*
X596Y1503D02*
X633Y1503D01*
X1453Y1503D02*
X1489Y1503D01*
X596Y1502D02*
X633Y1502D01*
X1453Y1502D02*
X1489Y1502D01*
X596Y1501D02*
X633Y1501D01*
X1453Y1501D02*
X1489Y1501D01*
X596Y1500D02*
X633Y1500D01*
X1453Y1500D02*
X1489Y1500D01*
X596Y1499D02*
X633Y1499D01*
X1453Y1499D02*
X1489Y1499D01*
X596Y1498D02*
X633Y1498D01*
X1453Y1498D02*
X1489Y1498D01*
X596Y1497D02*
X633Y1497D01*
X1453Y1497D02*
X1489Y1497D01*
X596Y1496D02*
X633Y1496D01*
X1453Y1496D02*
X1489Y1496D01*
X596Y1495D02*
X633Y1495D01*
X1453Y1495D02*
X1489Y1495D01*
X596Y1494D02*
X633Y1494D01*
X1453Y1494D02*
X1489Y1494D01*
X596Y1493D02*
X633Y1493D01*
X1453Y1493D02*
X1489Y1493D01*
X596Y1492D02*
X633Y1492D01*
X1453Y1492D02*
X1489Y1492D01*
X596Y1491D02*
X633Y1491D01*
X1453Y1491D02*
X1489Y1491D01*
X596Y1490D02*
X633Y1490D01*
X1453Y1490D02*
X1489Y1490D01*
X596Y1489D02*
X633Y1489D01*
X1453Y1489D02*
X1489Y1489D01*
X596Y1488D02*
X633Y1488D01*
X1453Y1488D02*
X1489Y1488D01*
X596Y1487D02*
X633Y1487D01*
X1453Y1487D02*
X1489Y1487D01*
X596Y1486D02*
X633Y1486D01*
X1453Y1486D02*
X1489Y1486D01*
X596Y1485D02*
X633Y1485D01*
X1453Y1485D02*
X1489Y1485D01*
X596Y1484D02*
X633Y1484D01*
X1453Y1484D02*
X1489Y1484D01*
X596Y1483D02*
X633Y1483D01*
X1453Y1483D02*
X1489Y1483D01*
X596Y1482D02*
X633Y1482D01*
X1453Y1482D02*
X1489Y1482D01*
X596Y1481D02*
X633Y1481D01*
X1453Y1481D02*
X1489Y1481D01*
X596Y1480D02*
X633Y1480D01*
X1453Y1480D02*
X1489Y1480D01*
X596Y1479D02*
X633Y1479D01*
X1453Y1479D02*
X1489Y1479D01*
X596Y1478D02*
X633Y1478D01*
X1453Y1478D02*
X1489Y1478D01*
X596Y1477D02*
X633Y1477D01*
X1453Y1477D02*
X1489Y1477D01*
X596Y1476D02*
X633Y1476D01*
X1453Y1476D02*
X1489Y1476D01*
X596Y1475D02*
X633Y1475D01*
X1453Y1475D02*
X1489Y1475D01*
X596Y1474D02*
X633Y1474D01*
X1453Y1474D02*
X1489Y1474D01*
X596Y1473D02*
X633Y1473D01*
X1453Y1473D02*
X1489Y1473D01*
X596Y1472D02*
X633Y1472D01*
X1453Y1472D02*
X1489Y1472D01*
X596Y1471D02*
X633Y1471D01*
X1453Y1471D02*
X1489Y1471D01*
X596Y1470D02*
X633Y1470D01*
X1453Y1470D02*
X1489Y1470D01*
X596Y1469D02*
X633Y1469D01*
X1453Y1469D02*
X1489Y1469D01*
X596Y1468D02*
X633Y1468D01*
X1453Y1468D02*
X1489Y1468D01*
X596Y1467D02*
X633Y1467D01*
X1453Y1467D02*
X1489Y1467D01*
X596Y1466D02*
X633Y1466D01*
X1453Y1466D02*
X1489Y1466D01*
X596Y1465D02*
X633Y1465D01*
X1453Y1465D02*
X1489Y1465D01*
X596Y1464D02*
X633Y1464D01*
X1453Y1464D02*
X1489Y1464D01*
X596Y1463D02*
X633Y1463D01*
X1453Y1463D02*
X1489Y1463D01*
X596Y1462D02*
X633Y1462D01*
X1453Y1462D02*
X1489Y1462D01*
X596Y1461D02*
X633Y1461D01*
X1453Y1461D02*
X1489Y1461D01*
X596Y1460D02*
X633Y1460D01*
X1453Y1460D02*
X1489Y1460D01*
X596Y1459D02*
X633Y1459D01*
X1453Y1459D02*
X1489Y1459D01*
X596Y1458D02*
X648Y1458D01*
X725Y1458D02*
X1197Y1458D01*
X1276Y1458D02*
X1489Y1458D01*
X596Y1457D02*
X648Y1457D01*
X726Y1457D02*
X1196Y1457D01*
X1276Y1457D02*
X1489Y1457D01*
X596Y1456D02*
X647Y1456D01*
X726Y1456D02*
X1196Y1456D01*
X1276Y1456D02*
X1489Y1456D01*
X596Y1455D02*
X647Y1455D01*
X727Y1455D02*
X1195Y1455D01*
X1277Y1455D02*
X1489Y1455D01*
X596Y1454D02*
X646Y1454D01*
X727Y1454D02*
X1195Y1454D01*
X1277Y1454D02*
X1489Y1454D01*
X596Y1453D02*
X646Y1453D01*
X728Y1453D02*
X1195Y1453D01*
X1278Y1453D02*
X1489Y1453D01*
X596Y1452D02*
X646Y1452D01*
X728Y1452D02*
X1194Y1452D01*
X1278Y1452D02*
X1489Y1452D01*
X596Y1451D02*
X645Y1451D01*
X728Y1451D02*
X1194Y1451D01*
X1278Y1451D02*
X1489Y1451D01*
X596Y1450D02*
X645Y1450D01*
X729Y1450D02*
X1194Y1450D01*
X1279Y1450D02*
X1489Y1450D01*
X596Y1449D02*
X645Y1449D01*
X729Y1449D02*
X1193Y1449D01*
X1279Y1449D02*
X1489Y1449D01*
X596Y1448D02*
X644Y1448D01*
X729Y1448D02*
X1193Y1448D01*
X1279Y1448D02*
X1489Y1448D01*
X596Y1447D02*
X644Y1447D01*
X730Y1447D02*
X1193Y1447D01*
X1280Y1447D02*
X1489Y1447D01*
X596Y1446D02*
X644Y1446D01*
X730Y1446D02*
X1193Y1446D01*
X1280Y1446D02*
X1489Y1446D01*
X596Y1445D02*
X644Y1445D01*
X730Y1445D02*
X1192Y1445D01*
X1280Y1445D02*
X1489Y1445D01*
X596Y1444D02*
X643Y1444D01*
X730Y1444D02*
X1192Y1444D01*
X1280Y1444D02*
X1489Y1444D01*
X596Y1443D02*
X643Y1443D01*
X730Y1443D02*
X1192Y1443D01*
X1280Y1443D02*
X1489Y1443D01*
X596Y1442D02*
X643Y1442D01*
X731Y1442D02*
X1192Y1442D01*
X1280Y1442D02*
X1489Y1442D01*
X596Y1441D02*
X643Y1441D01*
X731Y1441D02*
X1192Y1441D01*
X1280Y1441D02*
X1489Y1441D01*
X596Y1440D02*
X643Y1440D01*
X731Y1440D02*
X1192Y1440D01*
X1280Y1440D02*
X1489Y1440D01*
X596Y1439D02*
X643Y1439D01*
X731Y1439D02*
X1192Y1439D01*
X1281Y1439D02*
X1489Y1439D01*
X597Y1438D02*
X643Y1438D01*
X731Y1438D02*
X1192Y1438D01*
X1281Y1438D02*
X1489Y1438D01*
X597Y1437D02*
X643Y1437D01*
X731Y1437D02*
X1192Y1437D01*
X1281Y1437D02*
X1489Y1437D01*
X597Y1436D02*
X643Y1436D01*
X731Y1436D02*
X1192Y1436D01*
X1281Y1436D02*
X1489Y1436D01*
X597Y1435D02*
X643Y1435D01*
X731Y1435D02*
X1192Y1435D01*
X1280Y1435D02*
X1489Y1435D01*
X597Y1434D02*
X643Y1434D01*
X731Y1434D02*
X1192Y1434D01*
X1280Y1434D02*
X1488Y1434D01*
X598Y1433D02*
X643Y1433D01*
X731Y1433D02*
X1192Y1433D01*
X1280Y1433D02*
X1488Y1433D01*
X598Y1432D02*
X643Y1432D01*
X731Y1432D02*
X1192Y1432D01*
X1280Y1432D02*
X1488Y1432D01*
X599Y1431D02*
X643Y1431D01*
X730Y1431D02*
X1192Y1431D01*
X1280Y1431D02*
X1487Y1431D01*
X599Y1430D02*
X643Y1430D01*
X730Y1430D02*
X1192Y1430D01*
X1280Y1430D02*
X1487Y1430D01*
X600Y1429D02*
X643Y1429D01*
X730Y1429D02*
X1193Y1429D01*
X1280Y1429D02*
X1486Y1429D01*
X601Y1428D02*
X643Y1428D01*
X730Y1428D02*
X1193Y1428D01*
X1279Y1428D02*
X1485Y1428D01*
X601Y1427D02*
X644Y1427D01*
X730Y1427D02*
X1193Y1427D01*
X1279Y1427D02*
X1484Y1427D01*
X602Y1426D02*
X644Y1426D01*
X729Y1426D02*
X1193Y1426D01*
X1279Y1426D02*
X1484Y1426D01*
X604Y1425D02*
X644Y1425D01*
X729Y1425D02*
X1194Y1425D01*
X1279Y1425D02*
X1482Y1425D01*
X605Y1424D02*
X644Y1424D01*
X729Y1424D02*
X1194Y1424D01*
X1278Y1424D02*
X1481Y1424D01*
X607Y1423D02*
X645Y1423D01*
X729Y1423D02*
X1194Y1423D01*
X1278Y1423D02*
X1479Y1423D01*
X609Y1422D02*
X645Y1422D01*
X728Y1422D02*
X1195Y1422D01*
X1278Y1422D02*
X1477Y1422D01*
X613Y1421D02*
X645Y1421D01*
X728Y1421D02*
X1195Y1421D01*
X1278Y1421D02*
X1473Y1421D01*
D02*
G04 End of Silk1*
M02*