G04 MADE WITH FRITZING*
G04 WWW.FRITZING.ORG*
G04 DOUBLE SIDED*
G04 HOLES PLATED*
G04 CONTOUR ON CENTER OF CONTOUR VECTOR*
%ASAXBY*%
%FSLAX23Y23*%
%MOIN*%
%OFA0B0*%
%SFA1.0B1.0*%
%ADD10C,0.126614*%
%ADD11C,0.070000*%
%ADD12C,0.080000*%
%ADD13C,0.093000*%
%ADD14C,0.138425*%
%ADD15C,0.095000*%
%ADD16C,0.051496*%
%ADD17C,0.062000*%
%ADD18R,0.080000X0.080000*%
%ADD19R,0.095000X0.095000*%
%ADD20R,0.001000X0.001000*%
%LNCOPPER0*%
G90*
G70*
G54D10*
X2800Y1249D03*
G54D11*
X2250Y799D03*
X2350Y799D03*
X2450Y799D03*
X2550Y799D03*
X2650Y799D03*
X2750Y799D03*
X2850Y799D03*
G54D10*
X2300Y1249D03*
G54D12*
X712Y299D03*
X850Y299D03*
X712Y299D03*
X850Y299D03*
G54D13*
X250Y2799D03*
X3119Y2800D03*
X250Y2799D03*
X3119Y2800D03*
X250Y1899D03*
X3119Y1900D03*
X250Y1899D03*
X3119Y1900D03*
G54D14*
X203Y551D03*
G54D15*
X204Y1042D03*
G54D16*
X314Y1031D03*
G54D17*
X1853Y501D03*
X1753Y501D03*
X1653Y501D03*
X1553Y501D03*
X1453Y501D03*
X1353Y501D03*
X1253Y501D03*
X1153Y501D03*
X1053Y501D03*
G54D14*
X203Y1251D03*
G54D17*
X953Y501D03*
X853Y501D03*
X753Y501D03*
X653Y501D03*
X553Y501D03*
X453Y501D03*
X353Y501D03*
X753Y1301D03*
X853Y1301D03*
X953Y1301D03*
X1053Y1301D03*
X1153Y1301D03*
X1253Y1301D03*
X1353Y1301D03*
X1453Y1301D03*
X1553Y1301D03*
X1653Y1301D03*
X1753Y1301D03*
X1853Y1301D03*
G54D16*
X314Y771D03*
G54D15*
X204Y759D03*
G54D18*
X712Y299D03*
X712Y299D03*
G54D19*
X204Y1042D03*
X204Y759D03*
G54D11*
X250Y1969D02*
X250Y2729D01*
D02*
X352Y2601D02*
X748Y2601D01*
D02*
X2850Y900D02*
X2850Y841D01*
D02*
X748Y1599D02*
X2550Y1599D01*
D02*
X748Y2601D02*
X748Y1599D01*
D02*
X2550Y1098D02*
X2850Y900D01*
D02*
X2550Y1599D02*
X2550Y1098D01*
D02*
X282Y2737D02*
X352Y2601D01*
D02*
X450Y1697D02*
X299Y1850D01*
D02*
X461Y688D02*
X450Y1697D01*
D02*
X651Y498D02*
X461Y688D01*
D02*
X461Y688D02*
X617Y536D01*
D02*
X696Y350D02*
X651Y498D01*
G54D20*
X293Y1072D02*
X333Y1072D01*
X293Y1071D02*
X334Y1071D01*
X293Y1070D02*
X334Y1070D01*
X293Y1069D02*
X334Y1069D01*
X293Y1068D02*
X334Y1068D01*
X293Y1067D02*
X334Y1067D01*
X293Y1066D02*
X334Y1066D01*
X293Y1065D02*
X334Y1065D01*
X293Y1064D02*
X334Y1064D01*
X293Y1063D02*
X334Y1063D01*
X293Y1062D02*
X334Y1062D01*
X293Y1061D02*
X334Y1061D01*
X293Y1060D02*
X334Y1060D01*
X293Y1059D02*
X334Y1059D01*
X293Y1058D02*
X334Y1058D01*
X293Y1057D02*
X334Y1057D01*
X293Y1056D02*
X334Y1056D01*
X293Y1055D02*
X334Y1055D01*
X293Y1054D02*
X334Y1054D01*
X293Y1053D02*
X334Y1053D01*
X293Y1052D02*
X334Y1052D01*
X293Y1051D02*
X308Y1051D01*
X319Y1051D02*
X334Y1051D01*
X293Y1050D02*
X305Y1050D01*
X322Y1050D02*
X334Y1050D01*
X293Y1049D02*
X303Y1049D01*
X324Y1049D02*
X334Y1049D01*
X293Y1048D02*
X301Y1048D01*
X326Y1048D02*
X334Y1048D01*
X293Y1047D02*
X300Y1047D01*
X327Y1047D02*
X334Y1047D01*
X293Y1046D02*
X298Y1046D01*
X328Y1046D02*
X334Y1046D01*
X293Y1045D02*
X298Y1045D01*
X329Y1045D02*
X334Y1045D01*
X293Y1044D02*
X297Y1044D01*
X330Y1044D02*
X334Y1044D01*
X293Y1043D02*
X296Y1043D01*
X331Y1043D02*
X334Y1043D01*
X293Y1042D02*
X295Y1042D01*
X331Y1042D02*
X334Y1042D01*
X293Y1041D02*
X295Y1041D01*
X332Y1041D02*
X334Y1041D01*
X293Y1040D02*
X294Y1040D01*
X332Y1040D02*
X334Y1040D01*
X293Y1039D02*
X294Y1039D01*
X333Y1039D02*
X334Y1039D01*
X293Y1038D02*
X293Y1038D01*
X333Y1038D02*
X334Y1038D01*
X293Y1037D02*
X293Y1037D01*
X334Y1037D02*
X334Y1037D01*
X293Y1036D02*
X293Y1036D01*
X334Y1036D02*
X334Y1036D01*
X293Y1026D02*
X293Y1026D01*
X334Y1026D02*
X334Y1026D01*
X293Y1025D02*
X293Y1025D01*
X334Y1025D02*
X334Y1025D01*
X293Y1024D02*
X293Y1024D01*
X333Y1024D02*
X334Y1024D01*
X293Y1023D02*
X294Y1023D01*
X333Y1023D02*
X334Y1023D01*
X293Y1022D02*
X294Y1022D01*
X332Y1022D02*
X334Y1022D01*
X293Y1021D02*
X295Y1021D01*
X332Y1021D02*
X334Y1021D01*
X293Y1020D02*
X295Y1020D01*
X331Y1020D02*
X334Y1020D01*
X293Y1019D02*
X296Y1019D01*
X331Y1019D02*
X334Y1019D01*
X293Y1018D02*
X297Y1018D01*
X330Y1018D02*
X334Y1018D01*
X293Y1017D02*
X298Y1017D01*
X329Y1017D02*
X334Y1017D01*
X293Y1016D02*
X298Y1016D01*
X328Y1016D02*
X334Y1016D01*
X293Y1015D02*
X300Y1015D01*
X327Y1015D02*
X334Y1015D01*
X293Y1014D02*
X301Y1014D01*
X326Y1014D02*
X334Y1014D01*
X293Y1013D02*
X303Y1013D01*
X324Y1013D02*
X334Y1013D01*
X293Y1012D02*
X305Y1012D01*
X322Y1012D02*
X334Y1012D01*
X293Y1011D02*
X308Y1011D01*
X319Y1011D02*
X334Y1011D01*
X293Y791D02*
X307Y791D01*
X320Y791D02*
X334Y791D01*
X293Y790D02*
X304Y790D01*
X322Y790D02*
X334Y790D01*
X293Y789D02*
X302Y789D01*
X324Y789D02*
X334Y789D01*
X293Y788D02*
X301Y788D01*
X326Y788D02*
X334Y788D01*
X293Y787D02*
X299Y787D01*
X327Y787D02*
X334Y787D01*
X293Y786D02*
X298Y786D01*
X328Y786D02*
X334Y786D01*
X293Y785D02*
X297Y785D01*
X329Y785D02*
X334Y785D01*
X293Y784D02*
X297Y784D01*
X330Y784D02*
X334Y784D01*
X293Y783D02*
X296Y783D01*
X331Y783D02*
X334Y783D01*
X293Y782D02*
X295Y782D01*
X331Y782D02*
X334Y782D01*
X293Y781D02*
X295Y781D01*
X332Y781D02*
X334Y781D01*
X293Y780D02*
X294Y780D01*
X332Y780D02*
X334Y780D01*
X293Y779D02*
X294Y779D01*
X333Y779D02*
X334Y779D01*
X293Y778D02*
X293Y778D01*
X333Y778D02*
X334Y778D01*
X293Y777D02*
X293Y777D01*
X334Y777D02*
X334Y777D01*
X293Y776D02*
X293Y776D01*
X334Y776D02*
X334Y776D01*
X293Y766D02*
X293Y766D01*
X334Y766D02*
X334Y766D01*
X293Y765D02*
X293Y765D01*
X333Y765D02*
X334Y765D01*
X293Y764D02*
X293Y764D01*
X333Y764D02*
X334Y764D01*
X293Y763D02*
X294Y763D01*
X333Y763D02*
X334Y763D01*
X293Y762D02*
X294Y762D01*
X332Y762D02*
X334Y762D01*
X293Y761D02*
X295Y761D01*
X332Y761D02*
X334Y761D01*
X293Y760D02*
X295Y760D01*
X331Y760D02*
X334Y760D01*
X293Y759D02*
X296Y759D01*
X330Y759D02*
X334Y759D01*
X293Y758D02*
X297Y758D01*
X330Y758D02*
X334Y758D01*
X293Y757D02*
X298Y757D01*
X329Y757D02*
X334Y757D01*
X293Y756D02*
X299Y756D01*
X328Y756D02*
X334Y756D01*
X293Y755D02*
X300Y755D01*
X327Y755D02*
X334Y755D01*
X293Y754D02*
X301Y754D01*
X325Y754D02*
X334Y754D01*
X293Y753D02*
X303Y753D01*
X324Y753D02*
X334Y753D01*
X293Y752D02*
X305Y752D01*
X322Y752D02*
X334Y752D01*
X293Y751D02*
X308Y751D01*
X318Y751D02*
X334Y751D01*
X293Y750D02*
X334Y750D01*
X293Y749D02*
X334Y749D01*
X293Y748D02*
X334Y748D01*
X293Y747D02*
X334Y747D01*
X293Y746D02*
X334Y746D01*
X293Y745D02*
X334Y745D01*
X293Y744D02*
X334Y744D01*
X293Y743D02*
X334Y743D01*
X293Y742D02*
X334Y742D01*
X293Y741D02*
X334Y741D01*
X293Y740D02*
X334Y740D01*
X293Y739D02*
X334Y739D01*
X293Y738D02*
X334Y738D01*
X293Y737D02*
X334Y737D01*
X293Y736D02*
X334Y736D01*
X293Y735D02*
X334Y735D01*
X293Y734D02*
X334Y734D01*
X293Y733D02*
X334Y733D01*
X293Y732D02*
X334Y732D01*
X293Y731D02*
X334Y731D01*
X293Y730D02*
X333Y730D01*
D02*
G04 End of Copper0*
M02*