G04 MADE WITH FRITZING*
G04 WWW.FRITZING.ORG*
G04 DOUBLE SIDED*
G04 HOLES PLATED*
G04 CONTOUR ON CENTER OF CONTOUR VECTOR*
%ASAXBY*%
%FSLAX23Y23*%
%MOIN*%
%OFA0B0*%
%SFA1.0B1.0*%
%ADD10R,3.346460X3.346460X3.330460X3.330460*%
%ADD11C,0.008000*%
%ADD12C,0.010000*%
%ADD13C,0.005000*%
%ADD14R,0.001000X0.001000*%
%LNSILK0*%
G90*
G70*
G54D11*
X4Y3342D02*
X3342Y3342D01*
X3342Y4D01*
X4Y4D01*
X4Y3342D01*
D02*
G54D12*
X638Y387D02*
X923Y387D01*
D02*
X923Y387D02*
X923Y171D01*
D02*
X923Y171D02*
X638Y171D01*
D02*
X638Y171D02*
X638Y387D01*
G54D13*
D02*
X923Y211D02*
X638Y211D01*
G54D12*
D02*
X2538Y2911D02*
X2538Y2625D01*
D02*
X2538Y2625D02*
X2322Y2625D01*
D02*
X2322Y2625D02*
X2322Y2911D01*
D02*
X2322Y2911D02*
X2538Y2911D01*
G54D13*
D02*
X2362Y2625D02*
X2362Y2911D01*
G54D12*
D02*
X2538Y2511D02*
X2538Y2225D01*
D02*
X2538Y2225D02*
X2322Y2225D01*
D02*
X2322Y2225D02*
X2322Y2511D01*
D02*
X2322Y2511D02*
X2538Y2511D01*
G54D13*
D02*
X2362Y2225D02*
X2362Y2511D01*
G54D12*
D02*
X2538Y2111D02*
X2538Y1825D01*
D02*
X2538Y1825D02*
X2322Y1825D01*
D02*
X2322Y1825D02*
X2322Y2111D01*
D02*
X2322Y2111D02*
X2538Y2111D01*
G54D13*
D02*
X2362Y1825D02*
X2362Y2111D01*
G54D14*
X1213Y2653D02*
X1413Y2653D01*
X1485Y2653D02*
X1963Y2653D01*
X2034Y2653D02*
X2071Y2653D01*
X1209Y2652D02*
X1413Y2652D01*
X1485Y2652D02*
X1963Y2652D01*
X2034Y2652D02*
X2076Y2652D01*
X1206Y2651D02*
X1412Y2651D01*
X1486Y2651D02*
X1962Y2651D01*
X2035Y2651D02*
X2078Y2651D01*
X1204Y2650D02*
X1412Y2650D01*
X1486Y2650D02*
X1962Y2650D01*
X2035Y2650D02*
X2080Y2650D01*
X1203Y2649D02*
X1411Y2649D01*
X1487Y2649D02*
X1961Y2649D01*
X2036Y2649D02*
X2082Y2649D01*
X1202Y2648D02*
X1411Y2648D01*
X1488Y2648D02*
X1960Y2648D01*
X2037Y2648D02*
X2083Y2648D01*
X1201Y2647D02*
X1410Y2647D01*
X1488Y2647D02*
X1960Y2647D01*
X2037Y2647D02*
X2084Y2647D01*
X1200Y2646D02*
X1409Y2646D01*
X1489Y2646D02*
X1959Y2646D01*
X2038Y2646D02*
X2085Y2646D01*
X1199Y2645D02*
X1409Y2645D01*
X1489Y2645D02*
X1959Y2645D01*
X2038Y2645D02*
X2085Y2645D01*
X1199Y2644D02*
X1409Y2644D01*
X1490Y2644D02*
X1958Y2644D01*
X2039Y2644D02*
X2086Y2644D01*
X1198Y2643D02*
X1408Y2643D01*
X1490Y2643D02*
X1958Y2643D01*
X2039Y2643D02*
X2087Y2643D01*
X1198Y2642D02*
X1408Y2642D01*
X1491Y2642D02*
X1957Y2642D01*
X2040Y2642D02*
X2087Y2642D01*
X1197Y2641D02*
X1407Y2641D01*
X1491Y2641D02*
X1957Y2641D01*
X2040Y2641D02*
X2088Y2641D01*
X1197Y2640D02*
X1407Y2640D01*
X1491Y2640D02*
X1957Y2640D01*
X2040Y2640D02*
X2088Y2640D01*
X1197Y2639D02*
X1407Y2639D01*
X1492Y2639D02*
X1956Y2639D01*
X2041Y2639D02*
X2088Y2639D01*
X1196Y2638D02*
X1406Y2638D01*
X1492Y2638D02*
X1956Y2638D01*
X2041Y2638D02*
X2088Y2638D01*
X1196Y2637D02*
X1406Y2637D01*
X1492Y2637D02*
X1956Y2637D01*
X2041Y2637D02*
X2089Y2637D01*
X1196Y2636D02*
X1406Y2636D01*
X1492Y2636D02*
X1955Y2636D01*
X2042Y2636D02*
X2089Y2636D01*
X1196Y2635D02*
X1406Y2635D01*
X1493Y2635D02*
X1955Y2635D01*
X2042Y2635D02*
X2089Y2635D01*
X1196Y2634D02*
X1405Y2634D01*
X1493Y2634D02*
X1955Y2634D01*
X2042Y2634D02*
X2089Y2634D01*
X1196Y2633D02*
X1405Y2633D01*
X1493Y2633D02*
X1955Y2633D01*
X2042Y2633D02*
X2089Y2633D01*
X1196Y2632D02*
X1405Y2632D01*
X1493Y2632D02*
X1955Y2632D01*
X2042Y2632D02*
X2089Y2632D01*
X1196Y2631D02*
X1405Y2631D01*
X1493Y2631D02*
X1955Y2631D01*
X2042Y2631D02*
X2089Y2631D01*
X1196Y2630D02*
X1405Y2630D01*
X1493Y2630D02*
X1954Y2630D01*
X2043Y2630D02*
X2089Y2630D01*
X1196Y2629D02*
X1405Y2629D01*
X1493Y2629D02*
X1954Y2629D01*
X2043Y2629D02*
X2089Y2629D01*
X1196Y2628D02*
X1405Y2628D01*
X1494Y2628D02*
X1954Y2628D01*
X2043Y2628D02*
X2089Y2628D01*
X1196Y2627D02*
X1405Y2627D01*
X1494Y2627D02*
X1954Y2627D01*
X2043Y2627D02*
X2089Y2627D01*
X1196Y2626D02*
X1405Y2626D01*
X1494Y2626D02*
X1954Y2626D01*
X2043Y2626D02*
X2089Y2626D01*
X1196Y2625D02*
X1405Y2625D01*
X1493Y2625D02*
X1954Y2625D01*
X2043Y2625D02*
X2089Y2625D01*
X1196Y2624D02*
X1405Y2624D01*
X1493Y2624D02*
X1954Y2624D01*
X2043Y2624D02*
X2089Y2624D01*
X1196Y2623D02*
X1405Y2623D01*
X1493Y2623D02*
X1955Y2623D01*
X2042Y2623D02*
X2089Y2623D01*
X1196Y2622D02*
X1405Y2622D01*
X1493Y2622D02*
X1955Y2622D01*
X2042Y2622D02*
X2089Y2622D01*
X1196Y2621D02*
X1405Y2621D01*
X1493Y2621D02*
X1955Y2621D01*
X2042Y2621D02*
X2089Y2621D01*
X1196Y2620D02*
X1405Y2620D01*
X1493Y2620D02*
X1955Y2620D01*
X2042Y2620D02*
X2089Y2620D01*
X1196Y2619D02*
X1405Y2619D01*
X1493Y2619D02*
X1955Y2619D01*
X2042Y2619D02*
X2089Y2619D01*
X1196Y2618D02*
X1406Y2618D01*
X1493Y2618D02*
X1955Y2618D01*
X2042Y2618D02*
X2089Y2618D01*
X1196Y2617D02*
X1406Y2617D01*
X1492Y2617D02*
X1956Y2617D01*
X2042Y2617D02*
X2089Y2617D01*
X1196Y2616D02*
X1406Y2616D01*
X1492Y2616D02*
X1956Y2616D01*
X2041Y2616D02*
X2089Y2616D01*
X1196Y2615D02*
X1232Y2615D01*
X2052Y2615D02*
X2089Y2615D01*
X1196Y2614D02*
X1232Y2614D01*
X2052Y2614D02*
X2089Y2614D01*
X1196Y2613D02*
X1232Y2613D01*
X2052Y2613D02*
X2089Y2613D01*
X1196Y2612D02*
X1232Y2612D01*
X2052Y2612D02*
X2089Y2612D01*
X1196Y2611D02*
X1232Y2611D01*
X2052Y2611D02*
X2089Y2611D01*
X1196Y2610D02*
X1232Y2610D01*
X2052Y2610D02*
X2089Y2610D01*
X1196Y2609D02*
X1232Y2609D01*
X2052Y2609D02*
X2089Y2609D01*
X1196Y2608D02*
X1232Y2608D01*
X2052Y2608D02*
X2089Y2608D01*
X1196Y2607D02*
X1232Y2607D01*
X2052Y2607D02*
X2089Y2607D01*
X1196Y2606D02*
X1232Y2606D01*
X2052Y2606D02*
X2089Y2606D01*
X1196Y2605D02*
X1232Y2605D01*
X2052Y2605D02*
X2089Y2605D01*
X1196Y2604D02*
X1232Y2604D01*
X2052Y2604D02*
X2089Y2604D01*
X1196Y2603D02*
X1232Y2603D01*
X2052Y2603D02*
X2089Y2603D01*
X1196Y2602D02*
X1232Y2602D01*
X2052Y2602D02*
X2089Y2602D01*
X1196Y2601D02*
X1232Y2601D01*
X2052Y2601D02*
X2089Y2601D01*
X1196Y2600D02*
X1232Y2600D01*
X2052Y2600D02*
X2089Y2600D01*
X1196Y2599D02*
X1232Y2599D01*
X2052Y2599D02*
X2089Y2599D01*
X1196Y2598D02*
X1232Y2598D01*
X2052Y2598D02*
X2089Y2598D01*
X1196Y2597D02*
X1232Y2597D01*
X2052Y2597D02*
X2089Y2597D01*
X1196Y2596D02*
X1232Y2596D01*
X2052Y2596D02*
X2089Y2596D01*
X1196Y2595D02*
X1232Y2595D01*
X2052Y2595D02*
X2089Y2595D01*
X1196Y2594D02*
X1232Y2594D01*
X2052Y2594D02*
X2089Y2594D01*
X1196Y2593D02*
X1232Y2593D01*
X2052Y2593D02*
X2089Y2593D01*
X1196Y2592D02*
X1232Y2592D01*
X2052Y2592D02*
X2089Y2592D01*
X1196Y2591D02*
X1232Y2591D01*
X2052Y2591D02*
X2089Y2591D01*
X1196Y2590D02*
X1232Y2590D01*
X2052Y2590D02*
X2089Y2590D01*
X1196Y2589D02*
X1232Y2589D01*
X2052Y2589D02*
X2089Y2589D01*
X1196Y2588D02*
X1232Y2588D01*
X2052Y2588D02*
X2089Y2588D01*
X1196Y2587D02*
X1232Y2587D01*
X2052Y2587D02*
X2089Y2587D01*
X1196Y2586D02*
X1232Y2586D01*
X2052Y2586D02*
X2089Y2586D01*
X1196Y2585D02*
X1232Y2585D01*
X2052Y2585D02*
X2089Y2585D01*
X1196Y2584D02*
X1232Y2584D01*
X2052Y2584D02*
X2089Y2584D01*
X1196Y2583D02*
X1232Y2583D01*
X2052Y2583D02*
X2089Y2583D01*
X1196Y2582D02*
X1232Y2582D01*
X2052Y2582D02*
X2089Y2582D01*
X1196Y2581D02*
X1232Y2581D01*
X2052Y2581D02*
X2089Y2581D01*
X1196Y2580D02*
X1232Y2580D01*
X2052Y2580D02*
X2089Y2580D01*
X1196Y2579D02*
X1232Y2579D01*
X2052Y2579D02*
X2089Y2579D01*
X1196Y2578D02*
X1232Y2578D01*
X2052Y2578D02*
X2089Y2578D01*
X1196Y2577D02*
X1232Y2577D01*
X2052Y2577D02*
X2089Y2577D01*
X1196Y2576D02*
X1232Y2576D01*
X2052Y2576D02*
X2089Y2576D01*
X1196Y2575D02*
X1232Y2575D01*
X2052Y2575D02*
X2089Y2575D01*
X1196Y2574D02*
X1232Y2574D01*
X2052Y2574D02*
X2089Y2574D01*
X1196Y2573D02*
X1232Y2573D01*
X2052Y2573D02*
X2089Y2573D01*
X1196Y2572D02*
X1232Y2572D01*
X2052Y2572D02*
X2089Y2572D01*
X1196Y2571D02*
X1232Y2571D01*
X2052Y2571D02*
X2089Y2571D01*
X1196Y2570D02*
X1232Y2570D01*
X2052Y2570D02*
X2089Y2570D01*
X1196Y2569D02*
X1232Y2569D01*
X2052Y2569D02*
X2089Y2569D01*
X1196Y2568D02*
X1232Y2568D01*
X2052Y2568D02*
X2089Y2568D01*
X1196Y2567D02*
X1232Y2567D01*
X2052Y2567D02*
X2089Y2567D01*
X1196Y2566D02*
X1232Y2566D01*
X2052Y2566D02*
X2089Y2566D01*
X1196Y2565D02*
X1232Y2565D01*
X2052Y2565D02*
X2089Y2565D01*
X1196Y2564D02*
X1232Y2564D01*
X2052Y2564D02*
X2089Y2564D01*
X1196Y2563D02*
X1232Y2563D01*
X2052Y2563D02*
X2089Y2563D01*
X1196Y2562D02*
X1232Y2562D01*
X2052Y2562D02*
X2089Y2562D01*
X1196Y2561D02*
X1232Y2561D01*
X2052Y2561D02*
X2089Y2561D01*
X1196Y2560D02*
X1232Y2560D01*
X2052Y2560D02*
X2089Y2560D01*
X1196Y2559D02*
X1232Y2559D01*
X2052Y2559D02*
X2089Y2559D01*
X1196Y2558D02*
X1232Y2558D01*
X2052Y2558D02*
X2089Y2558D01*
X1196Y2557D02*
X1232Y2557D01*
X2052Y2557D02*
X2089Y2557D01*
X1196Y2556D02*
X1232Y2556D01*
X2052Y2556D02*
X2089Y2556D01*
X1196Y2555D02*
X1232Y2555D01*
X2052Y2555D02*
X2089Y2555D01*
X1196Y2554D02*
X1232Y2554D01*
X2052Y2554D02*
X2089Y2554D01*
X1196Y2553D02*
X1232Y2553D01*
X2052Y2553D02*
X2089Y2553D01*
X1196Y2552D02*
X1232Y2552D01*
X2052Y2552D02*
X2089Y2552D01*
X1196Y2551D02*
X1232Y2551D01*
X2052Y2551D02*
X2089Y2551D01*
X1196Y2550D02*
X1232Y2550D01*
X2052Y2550D02*
X2089Y2550D01*
X1196Y2549D02*
X1232Y2549D01*
X2052Y2549D02*
X2089Y2549D01*
X1196Y2548D02*
X1232Y2548D01*
X2052Y2548D02*
X2089Y2548D01*
X1196Y2547D02*
X1232Y2547D01*
X2052Y2547D02*
X2089Y2547D01*
X1196Y2546D02*
X1232Y2546D01*
X2052Y2546D02*
X2089Y2546D01*
X1196Y2545D02*
X1232Y2545D01*
X2052Y2545D02*
X2089Y2545D01*
X1196Y2544D02*
X1232Y2544D01*
X2052Y2544D02*
X2089Y2544D01*
X1196Y2543D02*
X1232Y2543D01*
X2052Y2543D02*
X2089Y2543D01*
X1196Y2542D02*
X1232Y2542D01*
X2052Y2542D02*
X2089Y2542D01*
X1196Y2541D02*
X1232Y2541D01*
X2052Y2541D02*
X2089Y2541D01*
X1196Y2540D02*
X1232Y2540D01*
X2052Y2540D02*
X2089Y2540D01*
X1196Y2539D02*
X1232Y2539D01*
X2052Y2539D02*
X2089Y2539D01*
X1196Y2538D02*
X1232Y2538D01*
X2052Y2538D02*
X2089Y2538D01*
X1196Y2537D02*
X1232Y2537D01*
X2052Y2537D02*
X2089Y2537D01*
X1196Y2536D02*
X1232Y2536D01*
X2052Y2536D02*
X2089Y2536D01*
X1196Y2535D02*
X1232Y2535D01*
X2052Y2535D02*
X2089Y2535D01*
X1196Y2534D02*
X1232Y2534D01*
X2052Y2534D02*
X2089Y2534D01*
X1196Y2533D02*
X1232Y2533D01*
X2052Y2533D02*
X2089Y2533D01*
X1196Y2532D02*
X1232Y2532D01*
X2052Y2532D02*
X2089Y2532D01*
X1196Y2531D02*
X1232Y2531D01*
X2052Y2531D02*
X2089Y2531D01*
X1196Y2530D02*
X1232Y2530D01*
X2052Y2530D02*
X2089Y2530D01*
X1196Y2529D02*
X1232Y2529D01*
X2052Y2529D02*
X2089Y2529D01*
X1196Y2528D02*
X1232Y2528D01*
X2052Y2528D02*
X2089Y2528D01*
X1196Y2527D02*
X1232Y2527D01*
X2052Y2527D02*
X2089Y2527D01*
X1196Y2526D02*
X1232Y2526D01*
X2052Y2526D02*
X2089Y2526D01*
X1196Y2525D02*
X1232Y2525D01*
X2052Y2525D02*
X2089Y2525D01*
X1196Y2524D02*
X1232Y2524D01*
X2052Y2524D02*
X2089Y2524D01*
X1196Y2523D02*
X1232Y2523D01*
X2052Y2523D02*
X2089Y2523D01*
X1196Y2522D02*
X1232Y2522D01*
X2052Y2522D02*
X2089Y2522D01*
X1196Y2521D02*
X1232Y2521D01*
X2052Y2521D02*
X2089Y2521D01*
X1196Y2520D02*
X1232Y2520D01*
X2052Y2520D02*
X2089Y2520D01*
X1196Y2519D02*
X1232Y2519D01*
X2052Y2519D02*
X2089Y2519D01*
X1196Y2518D02*
X1232Y2518D01*
X2052Y2518D02*
X2089Y2518D01*
X1196Y2517D02*
X1232Y2517D01*
X2052Y2517D02*
X2089Y2517D01*
X1196Y2516D02*
X1232Y2516D01*
X2052Y2516D02*
X2089Y2516D01*
X1196Y2515D02*
X1232Y2515D01*
X2052Y2515D02*
X2089Y2515D01*
X1196Y2514D02*
X1232Y2514D01*
X2052Y2514D02*
X2089Y2514D01*
X1196Y2513D02*
X1232Y2513D01*
X2052Y2513D02*
X2089Y2513D01*
X1196Y2512D02*
X1232Y2512D01*
X2052Y2512D02*
X2089Y2512D01*
X1196Y2511D02*
X1232Y2511D01*
X2052Y2511D02*
X2089Y2511D01*
X1196Y2510D02*
X1232Y2510D01*
X2052Y2510D02*
X2089Y2510D01*
X1196Y2509D02*
X1232Y2509D01*
X2052Y2509D02*
X2089Y2509D01*
X1196Y2508D02*
X1232Y2508D01*
X2052Y2508D02*
X2089Y2508D01*
X1196Y2507D02*
X1232Y2507D01*
X2052Y2507D02*
X2089Y2507D01*
X1196Y2506D02*
X1232Y2506D01*
X2052Y2506D02*
X2089Y2506D01*
X1196Y2505D02*
X1232Y2505D01*
X2052Y2505D02*
X2089Y2505D01*
X1196Y2504D02*
X1232Y2504D01*
X2052Y2504D02*
X2089Y2504D01*
X1196Y2503D02*
X1232Y2503D01*
X2052Y2503D02*
X2089Y2503D01*
X1196Y2502D02*
X1232Y2502D01*
X2052Y2502D02*
X2089Y2502D01*
X1196Y2501D02*
X1232Y2501D01*
X2052Y2501D02*
X2089Y2501D01*
X1196Y2500D02*
X1232Y2500D01*
X2052Y2500D02*
X2089Y2500D01*
X1196Y2499D02*
X1232Y2499D01*
X2052Y2499D02*
X2089Y2499D01*
X1196Y2498D02*
X1232Y2498D01*
X2052Y2498D02*
X2089Y2498D01*
X1196Y2497D02*
X1232Y2497D01*
X2052Y2497D02*
X2089Y2497D01*
X1196Y2496D02*
X1232Y2496D01*
X2052Y2496D02*
X2089Y2496D01*
X1196Y2495D02*
X1232Y2495D01*
X2052Y2495D02*
X2089Y2495D01*
X1196Y2494D02*
X1232Y2494D01*
X2052Y2494D02*
X2089Y2494D01*
X1196Y2493D02*
X1232Y2493D01*
X2052Y2493D02*
X2089Y2493D01*
X1196Y2492D02*
X1232Y2492D01*
X2052Y2492D02*
X2089Y2492D01*
X1196Y2491D02*
X1232Y2491D01*
X2052Y2491D02*
X2089Y2491D01*
X1196Y2490D02*
X1232Y2490D01*
X2052Y2490D02*
X2089Y2490D01*
X1196Y2489D02*
X1232Y2489D01*
X2052Y2489D02*
X2089Y2489D01*
X1196Y2488D02*
X1232Y2488D01*
X2052Y2488D02*
X2089Y2488D01*
X1196Y2487D02*
X1232Y2487D01*
X2052Y2487D02*
X2089Y2487D01*
X1196Y2486D02*
X1232Y2486D01*
X2052Y2486D02*
X2089Y2486D01*
X1196Y2485D02*
X1232Y2485D01*
X2052Y2485D02*
X2089Y2485D01*
X1196Y2484D02*
X1232Y2484D01*
X2052Y2484D02*
X2089Y2484D01*
X1196Y2483D02*
X1232Y2483D01*
X2052Y2483D02*
X2089Y2483D01*
X1196Y2482D02*
X1232Y2482D01*
X2052Y2482D02*
X2089Y2482D01*
X1196Y2481D02*
X1232Y2481D01*
X2052Y2481D02*
X2089Y2481D01*
X1196Y2480D02*
X1232Y2480D01*
X2052Y2480D02*
X2089Y2480D01*
X1196Y2479D02*
X1232Y2479D01*
X2052Y2479D02*
X2089Y2479D01*
X1196Y2478D02*
X1232Y2478D01*
X2052Y2478D02*
X2089Y2478D01*
X1196Y2477D02*
X1232Y2477D01*
X2052Y2477D02*
X2089Y2477D01*
X1196Y2476D02*
X1232Y2476D01*
X2052Y2476D02*
X2089Y2476D01*
X1196Y2475D02*
X1232Y2475D01*
X2052Y2475D02*
X2089Y2475D01*
X1196Y2474D02*
X1232Y2474D01*
X2052Y2474D02*
X2089Y2474D01*
X1196Y2473D02*
X1232Y2473D01*
X2052Y2473D02*
X2089Y2473D01*
X1196Y2472D02*
X1232Y2472D01*
X2052Y2472D02*
X2089Y2472D01*
X1196Y2471D02*
X1232Y2471D01*
X2052Y2471D02*
X2089Y2471D01*
X1196Y2470D02*
X1232Y2470D01*
X2052Y2470D02*
X2089Y2470D01*
X1196Y2469D02*
X1232Y2469D01*
X2052Y2469D02*
X2089Y2469D01*
X1196Y2468D02*
X1232Y2468D01*
X2052Y2468D02*
X2089Y2468D01*
X1196Y2467D02*
X1232Y2467D01*
X2052Y2467D02*
X2089Y2467D01*
X1196Y2466D02*
X1232Y2466D01*
X2052Y2466D02*
X2089Y2466D01*
X1196Y2465D02*
X1232Y2465D01*
X2052Y2465D02*
X2089Y2465D01*
X1196Y2464D02*
X1232Y2464D01*
X2052Y2464D02*
X2089Y2464D01*
X1196Y2463D02*
X1232Y2463D01*
X2052Y2463D02*
X2089Y2463D01*
X1196Y2462D02*
X1232Y2462D01*
X2052Y2462D02*
X2089Y2462D01*
X1196Y2461D02*
X1232Y2461D01*
X2052Y2461D02*
X2089Y2461D01*
X1196Y2460D02*
X1232Y2460D01*
X2052Y2460D02*
X2089Y2460D01*
X1196Y2459D02*
X1232Y2459D01*
X2052Y2459D02*
X2089Y2459D01*
X1196Y2458D02*
X1232Y2458D01*
X2052Y2458D02*
X2089Y2458D01*
X1196Y2457D02*
X1232Y2457D01*
X2052Y2457D02*
X2089Y2457D01*
X1196Y2456D02*
X1232Y2456D01*
X2052Y2456D02*
X2089Y2456D01*
X1196Y2455D02*
X1232Y2455D01*
X2052Y2455D02*
X2089Y2455D01*
X1196Y2454D02*
X1232Y2454D01*
X2052Y2454D02*
X2089Y2454D01*
X1196Y2453D02*
X1232Y2453D01*
X2052Y2453D02*
X2089Y2453D01*
X1196Y2452D02*
X1232Y2452D01*
X2052Y2452D02*
X2089Y2452D01*
X1196Y2451D02*
X1232Y2451D01*
X2052Y2451D02*
X2089Y2451D01*
X1196Y2450D02*
X1232Y2450D01*
X2052Y2450D02*
X2089Y2450D01*
X1196Y2449D02*
X1232Y2449D01*
X2052Y2449D02*
X2089Y2449D01*
X1196Y2448D02*
X1232Y2448D01*
X2052Y2448D02*
X2089Y2448D01*
X1196Y2447D02*
X1232Y2447D01*
X2052Y2447D02*
X2089Y2447D01*
X1196Y2446D02*
X1232Y2446D01*
X2052Y2446D02*
X2089Y2446D01*
X1196Y2445D02*
X1232Y2445D01*
X2052Y2445D02*
X2089Y2445D01*
X1196Y2444D02*
X1232Y2444D01*
X2052Y2444D02*
X2089Y2444D01*
X1196Y2443D02*
X1232Y2443D01*
X2052Y2443D02*
X2089Y2443D01*
X1196Y2442D02*
X1232Y2442D01*
X2052Y2442D02*
X2089Y2442D01*
X1196Y2441D02*
X1232Y2441D01*
X2052Y2441D02*
X2089Y2441D01*
X1196Y2440D02*
X1232Y2440D01*
X2052Y2440D02*
X2089Y2440D01*
X1196Y2439D02*
X1232Y2439D01*
X2052Y2439D02*
X2089Y2439D01*
X1196Y2438D02*
X1232Y2438D01*
X2052Y2438D02*
X2089Y2438D01*
X1196Y2437D02*
X1232Y2437D01*
X2052Y2437D02*
X2089Y2437D01*
X1196Y2436D02*
X1232Y2436D01*
X2052Y2436D02*
X2089Y2436D01*
X1196Y2435D02*
X1232Y2435D01*
X2052Y2435D02*
X2089Y2435D01*
X1196Y2434D02*
X1232Y2434D01*
X2052Y2434D02*
X2089Y2434D01*
X1196Y2433D02*
X1232Y2433D01*
X2052Y2433D02*
X2089Y2433D01*
X1196Y2432D02*
X1232Y2432D01*
X2052Y2432D02*
X2089Y2432D01*
X1196Y2431D02*
X1232Y2431D01*
X2052Y2431D02*
X2089Y2431D01*
X1196Y2430D02*
X1232Y2430D01*
X2052Y2430D02*
X2089Y2430D01*
X1196Y2429D02*
X1232Y2429D01*
X2052Y2429D02*
X2089Y2429D01*
X1196Y2428D02*
X1232Y2428D01*
X2052Y2428D02*
X2089Y2428D01*
X1196Y2427D02*
X1232Y2427D01*
X2052Y2427D02*
X2089Y2427D01*
X1196Y2426D02*
X1232Y2426D01*
X2052Y2426D02*
X2089Y2426D01*
X1196Y2425D02*
X1232Y2425D01*
X2052Y2425D02*
X2089Y2425D01*
X1196Y2424D02*
X1232Y2424D01*
X2052Y2424D02*
X2089Y2424D01*
X1196Y2423D02*
X1232Y2423D01*
X2052Y2423D02*
X2089Y2423D01*
X1196Y2422D02*
X1232Y2422D01*
X2052Y2422D02*
X2089Y2422D01*
X1196Y2421D02*
X1232Y2421D01*
X2052Y2421D02*
X2089Y2421D01*
X1196Y2420D02*
X1232Y2420D01*
X2052Y2420D02*
X2089Y2420D01*
X1196Y2419D02*
X1232Y2419D01*
X2052Y2419D02*
X2089Y2419D01*
X1196Y2418D02*
X1232Y2418D01*
X2052Y2418D02*
X2089Y2418D01*
X1196Y2417D02*
X1232Y2417D01*
X2052Y2417D02*
X2089Y2417D01*
X1196Y2416D02*
X1232Y2416D01*
X2052Y2416D02*
X2089Y2416D01*
X1196Y2415D02*
X1232Y2415D01*
X2052Y2415D02*
X2089Y2415D01*
X1196Y2414D02*
X1232Y2414D01*
X2052Y2414D02*
X2089Y2414D01*
X1196Y2413D02*
X1232Y2413D01*
X2052Y2413D02*
X2089Y2413D01*
X1196Y2412D02*
X1232Y2412D01*
X2052Y2412D02*
X2089Y2412D01*
X1196Y2411D02*
X1232Y2411D01*
X2052Y2411D02*
X2089Y2411D01*
X1196Y2410D02*
X1232Y2410D01*
X2052Y2410D02*
X2089Y2410D01*
X1196Y2409D02*
X1232Y2409D01*
X2052Y2409D02*
X2089Y2409D01*
X1196Y2408D02*
X1232Y2408D01*
X2052Y2408D02*
X2089Y2408D01*
X1196Y2407D02*
X1232Y2407D01*
X2052Y2407D02*
X2089Y2407D01*
X1196Y2406D02*
X1232Y2406D01*
X2052Y2406D02*
X2089Y2406D01*
X1196Y2405D02*
X1232Y2405D01*
X2052Y2405D02*
X2089Y2405D01*
X1196Y2404D02*
X1232Y2404D01*
X2052Y2404D02*
X2089Y2404D01*
X1196Y2403D02*
X1232Y2403D01*
X2052Y2403D02*
X2089Y2403D01*
X1196Y2402D02*
X1232Y2402D01*
X2052Y2402D02*
X2089Y2402D01*
X1196Y2401D02*
X1232Y2401D01*
X2052Y2401D02*
X2089Y2401D01*
X1196Y2400D02*
X1232Y2400D01*
X2052Y2400D02*
X2089Y2400D01*
X1196Y2399D02*
X1232Y2399D01*
X2052Y2399D02*
X2089Y2399D01*
X1196Y2398D02*
X1232Y2398D01*
X2052Y2398D02*
X2089Y2398D01*
X1196Y2397D02*
X1232Y2397D01*
X2052Y2397D02*
X2089Y2397D01*
X1196Y2396D02*
X1232Y2396D01*
X2052Y2396D02*
X2089Y2396D01*
X1196Y2395D02*
X1232Y2395D01*
X2052Y2395D02*
X2089Y2395D01*
X1196Y2394D02*
X1232Y2394D01*
X2052Y2394D02*
X2089Y2394D01*
X1196Y2393D02*
X1232Y2393D01*
X2052Y2393D02*
X2089Y2393D01*
X1196Y2392D02*
X1232Y2392D01*
X2052Y2392D02*
X2089Y2392D01*
X1196Y2391D02*
X1232Y2391D01*
X2052Y2391D02*
X2089Y2391D01*
X1196Y2390D02*
X1232Y2390D01*
X2052Y2390D02*
X2089Y2390D01*
X1196Y2389D02*
X1232Y2389D01*
X2052Y2389D02*
X2089Y2389D01*
X1196Y2388D02*
X1232Y2388D01*
X2052Y2388D02*
X2089Y2388D01*
X1196Y2387D02*
X1208Y2387D01*
X1226Y2387D02*
X1232Y2387D01*
X2052Y2387D02*
X2089Y2387D01*
X1196Y2386D02*
X1203Y2386D01*
X1230Y2386D02*
X1232Y2386D01*
X2052Y2386D02*
X2089Y2386D01*
X1196Y2385D02*
X1200Y2385D01*
X2052Y2385D02*
X2089Y2385D01*
X1196Y2384D02*
X1198Y2384D01*
X2052Y2384D02*
X2089Y2384D01*
X1196Y2383D02*
X1196Y2383D01*
X2052Y2383D02*
X2089Y2383D01*
X2052Y2382D02*
X2089Y2382D01*
X2052Y2381D02*
X2089Y2381D01*
X2052Y2380D02*
X2089Y2380D01*
X2052Y2379D02*
X2089Y2379D01*
X2052Y2378D02*
X2089Y2378D01*
X2052Y2377D02*
X2089Y2377D01*
X2052Y2376D02*
X2089Y2376D01*
X2052Y2375D02*
X2089Y2375D01*
X2052Y2374D02*
X2089Y2374D01*
X2052Y2373D02*
X2089Y2373D01*
X2052Y2372D02*
X2089Y2372D01*
X2052Y2371D02*
X2089Y2371D01*
X2052Y2370D02*
X2089Y2370D01*
X2052Y2369D02*
X2089Y2369D01*
X2052Y2368D02*
X2089Y2368D01*
X2052Y2367D02*
X2089Y2367D01*
X2052Y2366D02*
X2089Y2366D01*
X2052Y2365D02*
X2089Y2365D01*
X2052Y2364D02*
X2089Y2364D01*
X2052Y2363D02*
X2089Y2363D01*
X2052Y2362D02*
X2089Y2362D01*
X2052Y2361D02*
X2089Y2361D01*
X2052Y2360D02*
X2089Y2360D01*
X2052Y2359D02*
X2089Y2359D01*
X2052Y2358D02*
X2089Y2358D01*
X2052Y2357D02*
X2089Y2357D01*
X2052Y2356D02*
X2089Y2356D01*
X2052Y2355D02*
X2089Y2355D01*
X2052Y2354D02*
X2089Y2354D01*
X2052Y2353D02*
X2089Y2353D01*
X2052Y2352D02*
X2089Y2352D01*
X2052Y2351D02*
X2089Y2351D01*
X2052Y2350D02*
X2089Y2350D01*
X2052Y2349D02*
X2089Y2349D01*
X2052Y2348D02*
X2089Y2348D01*
X2052Y2347D02*
X2089Y2347D01*
X2052Y2346D02*
X2089Y2346D01*
X2052Y2345D02*
X2089Y2345D01*
X2052Y2344D02*
X2089Y2344D01*
X2052Y2343D02*
X2089Y2343D01*
X2052Y2342D02*
X2089Y2342D01*
X2052Y2341D02*
X2089Y2341D01*
X2052Y2340D02*
X2089Y2340D01*
X2052Y2339D02*
X2089Y2339D01*
X2052Y2338D02*
X2089Y2338D01*
X2052Y2337D02*
X2089Y2337D01*
X2052Y2336D02*
X2089Y2336D01*
X2052Y2335D02*
X2089Y2335D01*
X2052Y2334D02*
X2089Y2334D01*
X2052Y2333D02*
X2089Y2333D01*
X2052Y2332D02*
X2089Y2332D01*
X2052Y2331D02*
X2089Y2331D01*
X2052Y2330D02*
X2089Y2330D01*
X2052Y2329D02*
X2089Y2329D01*
X2052Y2328D02*
X2089Y2328D01*
X2052Y2327D02*
X2089Y2327D01*
X2052Y2326D02*
X2089Y2326D01*
X2052Y2325D02*
X2089Y2325D01*
X2052Y2324D02*
X2089Y2324D01*
X2052Y2323D02*
X2089Y2323D01*
X2052Y2322D02*
X2089Y2322D01*
X2052Y2321D02*
X2089Y2321D01*
X2052Y2320D02*
X2089Y2320D01*
X2052Y2319D02*
X2089Y2319D01*
X2052Y2318D02*
X2089Y2318D01*
X2052Y2317D02*
X2089Y2317D01*
X2052Y2316D02*
X2089Y2316D01*
X2052Y2315D02*
X2089Y2315D01*
X2052Y2314D02*
X2089Y2314D01*
X2052Y2313D02*
X2089Y2313D01*
X2052Y2312D02*
X2089Y2312D01*
X2052Y2311D02*
X2089Y2311D01*
X2052Y2310D02*
X2089Y2310D01*
X2052Y2309D02*
X2089Y2309D01*
X2052Y2308D02*
X2089Y2308D01*
X2052Y2307D02*
X2089Y2307D01*
X2052Y2306D02*
X2089Y2306D01*
X2052Y2305D02*
X2089Y2305D01*
X2052Y2304D02*
X2089Y2304D01*
X2052Y2303D02*
X2089Y2303D01*
X2052Y2302D02*
X2089Y2302D01*
X2052Y2301D02*
X2089Y2301D01*
X2052Y2300D02*
X2089Y2300D01*
X2052Y2299D02*
X2089Y2299D01*
X2052Y2298D02*
X2089Y2298D01*
X1196Y2297D02*
X1198Y2297D01*
X2052Y2297D02*
X2089Y2297D01*
X1196Y2296D02*
X1200Y2296D01*
X2052Y2296D02*
X2089Y2296D01*
X1196Y2295D02*
X1203Y2295D01*
X1230Y2295D02*
X1232Y2295D01*
X2052Y2295D02*
X2089Y2295D01*
X1196Y2294D02*
X1207Y2294D01*
X1226Y2294D02*
X1232Y2294D01*
X2052Y2294D02*
X2089Y2294D01*
X1196Y2293D02*
X1232Y2293D01*
X2052Y2293D02*
X2089Y2293D01*
X1196Y2292D02*
X1232Y2292D01*
X2052Y2292D02*
X2089Y2292D01*
X1196Y2291D02*
X1232Y2291D01*
X2052Y2291D02*
X2089Y2291D01*
X1196Y2290D02*
X1232Y2290D01*
X2052Y2290D02*
X2089Y2290D01*
X1196Y2289D02*
X1232Y2289D01*
X2052Y2289D02*
X2089Y2289D01*
X1196Y2288D02*
X1232Y2288D01*
X2052Y2288D02*
X2089Y2288D01*
X1196Y2287D02*
X1232Y2287D01*
X2052Y2287D02*
X2089Y2287D01*
X1196Y2286D02*
X1232Y2286D01*
X2052Y2286D02*
X2089Y2286D01*
X1196Y2285D02*
X1232Y2285D01*
X2052Y2285D02*
X2089Y2285D01*
X1196Y2284D02*
X1232Y2284D01*
X2052Y2284D02*
X2089Y2284D01*
X1196Y2283D02*
X1232Y2283D01*
X2052Y2283D02*
X2089Y2283D01*
X1196Y2282D02*
X1232Y2282D01*
X2052Y2282D02*
X2089Y2282D01*
X1196Y2281D02*
X1232Y2281D01*
X2052Y2281D02*
X2089Y2281D01*
X1196Y2280D02*
X1232Y2280D01*
X2052Y2280D02*
X2089Y2280D01*
X1196Y2279D02*
X1232Y2279D01*
X2052Y2279D02*
X2089Y2279D01*
X1196Y2278D02*
X1232Y2278D01*
X2052Y2278D02*
X2089Y2278D01*
X1196Y2277D02*
X1232Y2277D01*
X2052Y2277D02*
X2089Y2277D01*
X1196Y2276D02*
X1232Y2276D01*
X2052Y2276D02*
X2089Y2276D01*
X1196Y2275D02*
X1232Y2275D01*
X2052Y2275D02*
X2089Y2275D01*
X1196Y2274D02*
X1232Y2274D01*
X2052Y2274D02*
X2089Y2274D01*
X1196Y2273D02*
X1232Y2273D01*
X2052Y2273D02*
X2089Y2273D01*
X1196Y2272D02*
X1232Y2272D01*
X2052Y2272D02*
X2089Y2272D01*
X1196Y2271D02*
X1232Y2271D01*
X2052Y2271D02*
X2089Y2271D01*
X1196Y2270D02*
X1232Y2270D01*
X2052Y2270D02*
X2089Y2270D01*
X1196Y2269D02*
X1232Y2269D01*
X2052Y2269D02*
X2089Y2269D01*
X1196Y2268D02*
X1232Y2268D01*
X2052Y2268D02*
X2089Y2268D01*
X1196Y2267D02*
X1232Y2267D01*
X2052Y2267D02*
X2089Y2267D01*
X1196Y2266D02*
X1232Y2266D01*
X2052Y2266D02*
X2089Y2266D01*
X1196Y2265D02*
X1232Y2265D01*
X2052Y2265D02*
X2089Y2265D01*
X1196Y2264D02*
X1232Y2264D01*
X2052Y2264D02*
X2089Y2264D01*
X1196Y2263D02*
X1232Y2263D01*
X2052Y2263D02*
X2089Y2263D01*
X1196Y2262D02*
X1232Y2262D01*
X2052Y2262D02*
X2089Y2262D01*
X1196Y2261D02*
X1232Y2261D01*
X2052Y2261D02*
X2089Y2261D01*
X1196Y2260D02*
X1232Y2260D01*
X2052Y2260D02*
X2089Y2260D01*
X1196Y2259D02*
X1232Y2259D01*
X2052Y2259D02*
X2089Y2259D01*
X1196Y2258D02*
X1232Y2258D01*
X2052Y2258D02*
X2089Y2258D01*
X1196Y2257D02*
X1232Y2257D01*
X2052Y2257D02*
X2089Y2257D01*
X1196Y2256D02*
X1232Y2256D01*
X2052Y2256D02*
X2089Y2256D01*
X1196Y2255D02*
X1232Y2255D01*
X2052Y2255D02*
X2089Y2255D01*
X1196Y2254D02*
X1232Y2254D01*
X2052Y2254D02*
X2089Y2254D01*
X1196Y2253D02*
X1232Y2253D01*
X2052Y2253D02*
X2089Y2253D01*
X1196Y2252D02*
X1232Y2252D01*
X2052Y2252D02*
X2089Y2252D01*
X1196Y2251D02*
X1232Y2251D01*
X2052Y2251D02*
X2089Y2251D01*
X1196Y2250D02*
X1232Y2250D01*
X2052Y2250D02*
X2089Y2250D01*
X1196Y2249D02*
X1232Y2249D01*
X2052Y2249D02*
X2089Y2249D01*
X1196Y2248D02*
X1232Y2248D01*
X2052Y2248D02*
X2089Y2248D01*
X1196Y2247D02*
X1232Y2247D01*
X2052Y2247D02*
X2089Y2247D01*
X1196Y2246D02*
X1232Y2246D01*
X2052Y2246D02*
X2089Y2246D01*
X1196Y2245D02*
X1232Y2245D01*
X2052Y2245D02*
X2089Y2245D01*
X1196Y2244D02*
X1232Y2244D01*
X2052Y2244D02*
X2089Y2244D01*
X1196Y2243D02*
X1232Y2243D01*
X2052Y2243D02*
X2089Y2243D01*
X1196Y2242D02*
X1232Y2242D01*
X2052Y2242D02*
X2089Y2242D01*
X1196Y2241D02*
X1232Y2241D01*
X2052Y2241D02*
X2089Y2241D01*
X1196Y2240D02*
X1232Y2240D01*
X2052Y2240D02*
X2089Y2240D01*
X1196Y2239D02*
X1232Y2239D01*
X2052Y2239D02*
X2089Y2239D01*
X1196Y2238D02*
X1232Y2238D01*
X2052Y2238D02*
X2089Y2238D01*
X1196Y2237D02*
X1232Y2237D01*
X2052Y2237D02*
X2089Y2237D01*
X1196Y2236D02*
X1232Y2236D01*
X2052Y2236D02*
X2089Y2236D01*
X1196Y2235D02*
X1232Y2235D01*
X2052Y2235D02*
X2089Y2235D01*
X1196Y2234D02*
X1232Y2234D01*
X2052Y2234D02*
X2089Y2234D01*
X1196Y2233D02*
X1232Y2233D01*
X2052Y2233D02*
X2089Y2233D01*
X1196Y2232D02*
X1232Y2232D01*
X2052Y2232D02*
X2089Y2232D01*
X1196Y2231D02*
X1232Y2231D01*
X2052Y2231D02*
X2089Y2231D01*
X1196Y2230D02*
X1232Y2230D01*
X2052Y2230D02*
X2089Y2230D01*
X1196Y2229D02*
X1232Y2229D01*
X2052Y2229D02*
X2089Y2229D01*
X1196Y2228D02*
X1232Y2228D01*
X2052Y2228D02*
X2089Y2228D01*
X1196Y2227D02*
X1232Y2227D01*
X2052Y2227D02*
X2089Y2227D01*
X1196Y2226D02*
X1232Y2226D01*
X2052Y2226D02*
X2089Y2226D01*
X1196Y2225D02*
X1232Y2225D01*
X2052Y2225D02*
X2089Y2225D01*
X1196Y2224D02*
X1232Y2224D01*
X2052Y2224D02*
X2089Y2224D01*
X1196Y2223D02*
X1232Y2223D01*
X2052Y2223D02*
X2089Y2223D01*
X1196Y2222D02*
X1232Y2222D01*
X2052Y2222D02*
X2089Y2222D01*
X1196Y2221D02*
X1232Y2221D01*
X2052Y2221D02*
X2089Y2221D01*
X1196Y2220D02*
X1232Y2220D01*
X2052Y2220D02*
X2089Y2220D01*
X1196Y2219D02*
X1232Y2219D01*
X2052Y2219D02*
X2089Y2219D01*
X1196Y2218D02*
X1232Y2218D01*
X2052Y2218D02*
X2089Y2218D01*
X1196Y2217D02*
X1232Y2217D01*
X2052Y2217D02*
X2089Y2217D01*
X1196Y2216D02*
X1232Y2216D01*
X2052Y2216D02*
X2089Y2216D01*
X1196Y2215D02*
X1232Y2215D01*
X2052Y2215D02*
X2089Y2215D01*
X1196Y2214D02*
X1232Y2214D01*
X2052Y2214D02*
X2089Y2214D01*
X1196Y2213D02*
X1232Y2213D01*
X2052Y2213D02*
X2089Y2213D01*
X1196Y2212D02*
X1232Y2212D01*
X2052Y2212D02*
X2089Y2212D01*
X1196Y2211D02*
X1232Y2211D01*
X2052Y2211D02*
X2089Y2211D01*
X1196Y2210D02*
X1232Y2210D01*
X2052Y2210D02*
X2089Y2210D01*
X1196Y2209D02*
X1232Y2209D01*
X2052Y2209D02*
X2089Y2209D01*
X1196Y2208D02*
X1232Y2208D01*
X2052Y2208D02*
X2089Y2208D01*
X1196Y2207D02*
X1232Y2207D01*
X2052Y2207D02*
X2089Y2207D01*
X1196Y2206D02*
X1232Y2206D01*
X2052Y2206D02*
X2089Y2206D01*
X1196Y2205D02*
X1232Y2205D01*
X2052Y2205D02*
X2089Y2205D01*
X1196Y2204D02*
X1232Y2204D01*
X2052Y2204D02*
X2089Y2204D01*
X1196Y2203D02*
X1232Y2203D01*
X2052Y2203D02*
X2089Y2203D01*
X1196Y2202D02*
X1232Y2202D01*
X2052Y2202D02*
X2089Y2202D01*
X1196Y2201D02*
X1232Y2201D01*
X2052Y2201D02*
X2089Y2201D01*
X1196Y2200D02*
X1232Y2200D01*
X2052Y2200D02*
X2089Y2200D01*
X1196Y2199D02*
X1232Y2199D01*
X2052Y2199D02*
X2089Y2199D01*
X1196Y2198D02*
X1232Y2198D01*
X2052Y2198D02*
X2089Y2198D01*
X1196Y2197D02*
X1232Y2197D01*
X2052Y2197D02*
X2089Y2197D01*
X1196Y2196D02*
X1232Y2196D01*
X2052Y2196D02*
X2089Y2196D01*
X1196Y2195D02*
X1232Y2195D01*
X2052Y2195D02*
X2089Y2195D01*
X1196Y2194D02*
X1232Y2194D01*
X2052Y2194D02*
X2089Y2194D01*
X1196Y2193D02*
X1232Y2193D01*
X2052Y2193D02*
X2089Y2193D01*
X1196Y2192D02*
X1232Y2192D01*
X2052Y2192D02*
X2089Y2192D01*
X1196Y2191D02*
X1232Y2191D01*
X2052Y2191D02*
X2089Y2191D01*
X1196Y2190D02*
X1232Y2190D01*
X2052Y2190D02*
X2089Y2190D01*
X1196Y2189D02*
X1232Y2189D01*
X2052Y2189D02*
X2089Y2189D01*
X1196Y2188D02*
X1232Y2188D01*
X2052Y2188D02*
X2089Y2188D01*
X1196Y2187D02*
X1232Y2187D01*
X2052Y2187D02*
X2089Y2187D01*
X1196Y2186D02*
X1232Y2186D01*
X2052Y2186D02*
X2089Y2186D01*
X1196Y2185D02*
X1232Y2185D01*
X2052Y2185D02*
X2089Y2185D01*
X1196Y2184D02*
X1232Y2184D01*
X2052Y2184D02*
X2089Y2184D01*
X1196Y2183D02*
X1232Y2183D01*
X2052Y2183D02*
X2089Y2183D01*
X1196Y2182D02*
X1232Y2182D01*
X2052Y2182D02*
X2089Y2182D01*
X1196Y2181D02*
X1232Y2181D01*
X2052Y2181D02*
X2089Y2181D01*
X1196Y2180D02*
X1232Y2180D01*
X2052Y2180D02*
X2089Y2180D01*
X1196Y2179D02*
X1232Y2179D01*
X2052Y2179D02*
X2089Y2179D01*
X1196Y2178D02*
X1232Y2178D01*
X2052Y2178D02*
X2089Y2178D01*
X1196Y2177D02*
X1232Y2177D01*
X2052Y2177D02*
X2089Y2177D01*
X1196Y2176D02*
X1232Y2176D01*
X2052Y2176D02*
X2089Y2176D01*
X1196Y2175D02*
X1232Y2175D01*
X2052Y2175D02*
X2089Y2175D01*
X1196Y2174D02*
X1232Y2174D01*
X2052Y2174D02*
X2089Y2174D01*
X1196Y2173D02*
X1232Y2173D01*
X2052Y2173D02*
X2089Y2173D01*
X1196Y2172D02*
X1232Y2172D01*
X2052Y2172D02*
X2089Y2172D01*
X1196Y2171D02*
X1232Y2171D01*
X2052Y2171D02*
X2089Y2171D01*
X1196Y2170D02*
X1232Y2170D01*
X2052Y2170D02*
X2089Y2170D01*
X1196Y2169D02*
X1232Y2169D01*
X2052Y2169D02*
X2089Y2169D01*
X1196Y2168D02*
X1232Y2168D01*
X2052Y2168D02*
X2089Y2168D01*
X1196Y2167D02*
X1232Y2167D01*
X2052Y2167D02*
X2089Y2167D01*
X1196Y2166D02*
X1232Y2166D01*
X2052Y2166D02*
X2089Y2166D01*
X1196Y2165D02*
X1232Y2165D01*
X2052Y2165D02*
X2089Y2165D01*
X1196Y2164D02*
X1232Y2164D01*
X2052Y2164D02*
X2089Y2164D01*
X1196Y2163D02*
X1232Y2163D01*
X2052Y2163D02*
X2089Y2163D01*
X1196Y2162D02*
X1232Y2162D01*
X2052Y2162D02*
X2089Y2162D01*
X1196Y2161D02*
X1232Y2161D01*
X2052Y2161D02*
X2089Y2161D01*
X1196Y2160D02*
X1232Y2160D01*
X2052Y2160D02*
X2089Y2160D01*
X1196Y2159D02*
X1232Y2159D01*
X2052Y2159D02*
X2089Y2159D01*
X1196Y2158D02*
X1232Y2158D01*
X2052Y2158D02*
X2089Y2158D01*
X1196Y2157D02*
X1232Y2157D01*
X2052Y2157D02*
X2089Y2157D01*
X1196Y2156D02*
X1232Y2156D01*
X2052Y2156D02*
X2089Y2156D01*
X1196Y2155D02*
X1232Y2155D01*
X2052Y2155D02*
X2089Y2155D01*
X1196Y2154D02*
X1232Y2154D01*
X2052Y2154D02*
X2089Y2154D01*
X1196Y2153D02*
X1232Y2153D01*
X2052Y2153D02*
X2089Y2153D01*
X1196Y2152D02*
X1232Y2152D01*
X2052Y2152D02*
X2089Y2152D01*
X1196Y2151D02*
X1232Y2151D01*
X2052Y2151D02*
X2089Y2151D01*
X1196Y2150D02*
X1232Y2150D01*
X2052Y2150D02*
X2089Y2150D01*
X1196Y2149D02*
X1232Y2149D01*
X2052Y2149D02*
X2089Y2149D01*
X1196Y2148D02*
X1232Y2148D01*
X2052Y2148D02*
X2089Y2148D01*
X1196Y2147D02*
X1232Y2147D01*
X2052Y2147D02*
X2089Y2147D01*
X1196Y2146D02*
X1232Y2146D01*
X2052Y2146D02*
X2089Y2146D01*
X1196Y2145D02*
X1232Y2145D01*
X2052Y2145D02*
X2089Y2145D01*
X1196Y2144D02*
X1232Y2144D01*
X2052Y2144D02*
X2089Y2144D01*
X1196Y2143D02*
X1232Y2143D01*
X2052Y2143D02*
X2089Y2143D01*
X1196Y2142D02*
X1232Y2142D01*
X2052Y2142D02*
X2089Y2142D01*
X1196Y2141D02*
X1232Y2141D01*
X2052Y2141D02*
X2089Y2141D01*
X1196Y2140D02*
X1232Y2140D01*
X2052Y2140D02*
X2089Y2140D01*
X1196Y2139D02*
X1232Y2139D01*
X2052Y2139D02*
X2089Y2139D01*
X1196Y2138D02*
X1232Y2138D01*
X2052Y2138D02*
X2089Y2138D01*
X1196Y2137D02*
X1232Y2137D01*
X2052Y2137D02*
X2089Y2137D01*
X1196Y2136D02*
X1232Y2136D01*
X2052Y2136D02*
X2089Y2136D01*
X1196Y2135D02*
X1232Y2135D01*
X2052Y2135D02*
X2089Y2135D01*
X1196Y2134D02*
X1232Y2134D01*
X2052Y2134D02*
X2089Y2134D01*
X1196Y2133D02*
X1232Y2133D01*
X2052Y2133D02*
X2089Y2133D01*
X1196Y2132D02*
X1232Y2132D01*
X2052Y2132D02*
X2089Y2132D01*
X1196Y2131D02*
X1232Y2131D01*
X2052Y2131D02*
X2089Y2131D01*
X1196Y2130D02*
X1232Y2130D01*
X2052Y2130D02*
X2089Y2130D01*
X1196Y2129D02*
X1232Y2129D01*
X2052Y2129D02*
X2089Y2129D01*
X1196Y2128D02*
X1232Y2128D01*
X2052Y2128D02*
X2089Y2128D01*
X1196Y2127D02*
X1232Y2127D01*
X2052Y2127D02*
X2089Y2127D01*
X1196Y2126D02*
X1232Y2126D01*
X2052Y2126D02*
X2089Y2126D01*
X1196Y2125D02*
X1232Y2125D01*
X2052Y2125D02*
X2089Y2125D01*
X1196Y2124D02*
X1232Y2124D01*
X2052Y2124D02*
X2089Y2124D01*
X1196Y2123D02*
X1232Y2123D01*
X2052Y2123D02*
X2089Y2123D01*
X1196Y2122D02*
X1232Y2122D01*
X2052Y2122D02*
X2089Y2122D01*
X1196Y2121D02*
X1232Y2121D01*
X2052Y2121D02*
X2089Y2121D01*
X1196Y2120D02*
X1232Y2120D01*
X2052Y2120D02*
X2089Y2120D01*
X1196Y2119D02*
X1232Y2119D01*
X2052Y2119D02*
X2089Y2119D01*
X1196Y2118D02*
X1232Y2118D01*
X2052Y2118D02*
X2089Y2118D01*
X1196Y2117D02*
X1232Y2117D01*
X2052Y2117D02*
X2089Y2117D01*
X1196Y2116D02*
X1232Y2116D01*
X2052Y2116D02*
X2089Y2116D01*
X1196Y2115D02*
X1232Y2115D01*
X2052Y2115D02*
X2089Y2115D01*
X1196Y2114D02*
X1232Y2114D01*
X2052Y2114D02*
X2089Y2114D01*
X1196Y2113D02*
X1232Y2113D01*
X2052Y2113D02*
X2089Y2113D01*
X1196Y2112D02*
X1232Y2112D01*
X2052Y2112D02*
X2089Y2112D01*
X1196Y2111D02*
X1232Y2111D01*
X2052Y2111D02*
X2089Y2111D01*
X1196Y2110D02*
X1232Y2110D01*
X2052Y2110D02*
X2089Y2110D01*
X1196Y2109D02*
X1232Y2109D01*
X2052Y2109D02*
X2089Y2109D01*
X1196Y2108D02*
X1232Y2108D01*
X2052Y2108D02*
X2089Y2108D01*
X1196Y2107D02*
X1232Y2107D01*
X2052Y2107D02*
X2089Y2107D01*
X1196Y2106D02*
X1232Y2106D01*
X2052Y2106D02*
X2089Y2106D01*
X1196Y2105D02*
X1232Y2105D01*
X2052Y2105D02*
X2089Y2105D01*
X1196Y2104D02*
X1232Y2104D01*
X2052Y2104D02*
X2089Y2104D01*
X1196Y2103D02*
X1232Y2103D01*
X2052Y2103D02*
X2089Y2103D01*
X1196Y2102D02*
X1232Y2102D01*
X2052Y2102D02*
X2089Y2102D01*
X1196Y2101D02*
X1232Y2101D01*
X2052Y2101D02*
X2089Y2101D01*
X1196Y2100D02*
X1232Y2100D01*
X2052Y2100D02*
X2089Y2100D01*
X1196Y2099D02*
X1232Y2099D01*
X2052Y2099D02*
X2089Y2099D01*
X1196Y2098D02*
X1232Y2098D01*
X2052Y2098D02*
X2089Y2098D01*
X1196Y2097D02*
X1232Y2097D01*
X2052Y2097D02*
X2089Y2097D01*
X1196Y2096D02*
X1232Y2096D01*
X2052Y2096D02*
X2089Y2096D01*
X1196Y2095D02*
X1232Y2095D01*
X2052Y2095D02*
X2089Y2095D01*
X1196Y2094D02*
X1232Y2094D01*
X2052Y2094D02*
X2089Y2094D01*
X1196Y2093D02*
X1232Y2093D01*
X2052Y2093D02*
X2089Y2093D01*
X1196Y2092D02*
X1232Y2092D01*
X2052Y2092D02*
X2089Y2092D01*
X1196Y2091D02*
X1232Y2091D01*
X2052Y2091D02*
X2089Y2091D01*
X1196Y2090D02*
X1232Y2090D01*
X2052Y2090D02*
X2089Y2090D01*
X1196Y2089D02*
X1232Y2089D01*
X2052Y2089D02*
X2089Y2089D01*
X1196Y2088D02*
X1232Y2088D01*
X2052Y2088D02*
X2089Y2088D01*
X1196Y2087D02*
X1232Y2087D01*
X2052Y2087D02*
X2089Y2087D01*
X1196Y2086D02*
X1232Y2086D01*
X2052Y2086D02*
X2089Y2086D01*
X1196Y2085D02*
X1232Y2085D01*
X2052Y2085D02*
X2089Y2085D01*
X1196Y2084D02*
X1232Y2084D01*
X2052Y2084D02*
X2089Y2084D01*
X1196Y2083D02*
X1232Y2083D01*
X2052Y2083D02*
X2089Y2083D01*
X1196Y2082D02*
X1232Y2082D01*
X2052Y2082D02*
X2089Y2082D01*
X1196Y2081D02*
X1232Y2081D01*
X2052Y2081D02*
X2089Y2081D01*
X1196Y2080D02*
X1232Y2080D01*
X2052Y2080D02*
X2089Y2080D01*
X1196Y2079D02*
X1232Y2079D01*
X2052Y2079D02*
X2089Y2079D01*
X1196Y2078D02*
X1232Y2078D01*
X2052Y2078D02*
X2089Y2078D01*
X1196Y2077D02*
X1410Y2077D01*
X1489Y2077D02*
X1960Y2077D01*
X2037Y2077D02*
X2089Y2077D01*
X1196Y2076D02*
X1409Y2076D01*
X1489Y2076D02*
X1960Y2076D01*
X2037Y2076D02*
X2089Y2076D01*
X1196Y2075D02*
X1409Y2075D01*
X1489Y2075D02*
X1959Y2075D01*
X2038Y2075D02*
X2089Y2075D01*
X1196Y2074D02*
X1408Y2074D01*
X1490Y2074D02*
X1959Y2074D01*
X2038Y2074D02*
X2089Y2074D01*
X1196Y2073D02*
X1408Y2073D01*
X1490Y2073D02*
X1958Y2073D01*
X2039Y2073D02*
X2089Y2073D01*
X1196Y2072D02*
X1408Y2072D01*
X1491Y2072D02*
X1958Y2072D01*
X2039Y2072D02*
X2089Y2072D01*
X1196Y2071D02*
X1407Y2071D01*
X1491Y2071D02*
X1957Y2071D01*
X2040Y2071D02*
X2089Y2071D01*
X1196Y2070D02*
X1407Y2070D01*
X1491Y2070D02*
X1957Y2070D01*
X2040Y2070D02*
X2089Y2070D01*
X1196Y2069D02*
X1407Y2069D01*
X1492Y2069D02*
X1957Y2069D01*
X2040Y2069D02*
X2089Y2069D01*
X1196Y2068D02*
X1406Y2068D01*
X1492Y2068D02*
X1956Y2068D01*
X2041Y2068D02*
X2089Y2068D01*
X1196Y2067D02*
X1406Y2067D01*
X1492Y2067D02*
X1956Y2067D01*
X2041Y2067D02*
X2089Y2067D01*
X1196Y2066D02*
X1406Y2066D01*
X1493Y2066D02*
X1956Y2066D01*
X2041Y2066D02*
X2089Y2066D01*
X1196Y2065D02*
X1406Y2065D01*
X1493Y2065D02*
X1955Y2065D01*
X2042Y2065D02*
X2089Y2065D01*
X1196Y2064D02*
X1405Y2064D01*
X1493Y2064D02*
X1955Y2064D01*
X2042Y2064D02*
X2089Y2064D01*
X1196Y2063D02*
X1405Y2063D01*
X1493Y2063D02*
X1955Y2063D01*
X2042Y2063D02*
X2089Y2063D01*
X1196Y2062D02*
X1405Y2062D01*
X1493Y2062D02*
X1955Y2062D01*
X2042Y2062D02*
X2089Y2062D01*
X1196Y2061D02*
X1405Y2061D01*
X1493Y2061D02*
X1955Y2061D01*
X2042Y2061D02*
X2089Y2061D01*
X1196Y2060D02*
X1405Y2060D01*
X1493Y2060D02*
X1955Y2060D01*
X2042Y2060D02*
X2089Y2060D01*
X1196Y2059D02*
X1405Y2059D01*
X1493Y2059D02*
X1954Y2059D01*
X2043Y2059D02*
X2089Y2059D01*
X1196Y2058D02*
X1405Y2058D01*
X1494Y2058D02*
X1954Y2058D01*
X2043Y2058D02*
X2089Y2058D01*
X1196Y2057D02*
X1405Y2057D01*
X1494Y2057D02*
X1954Y2057D01*
X2043Y2057D02*
X2089Y2057D01*
X1196Y2056D02*
X1405Y2056D01*
X1494Y2056D02*
X1954Y2056D01*
X2043Y2056D02*
X2089Y2056D01*
X1196Y2055D02*
X1405Y2055D01*
X1494Y2055D02*
X1954Y2055D01*
X2043Y2055D02*
X2088Y2055D01*
X1197Y2054D02*
X1405Y2054D01*
X1493Y2054D02*
X1954Y2054D01*
X2043Y2054D02*
X2088Y2054D01*
X1197Y2053D02*
X1405Y2053D01*
X1493Y2053D02*
X1954Y2053D01*
X2043Y2053D02*
X2088Y2053D01*
X1197Y2052D02*
X1405Y2052D01*
X1493Y2052D02*
X1955Y2052D01*
X2043Y2052D02*
X2088Y2052D01*
X1198Y2051D02*
X1405Y2051D01*
X1493Y2051D02*
X1955Y2051D01*
X2042Y2051D02*
X2087Y2051D01*
X1198Y2050D02*
X1405Y2050D01*
X1493Y2050D02*
X1955Y2050D01*
X2042Y2050D02*
X2087Y2050D01*
X1199Y2049D02*
X1405Y2049D01*
X1493Y2049D02*
X1955Y2049D01*
X2042Y2049D02*
X2086Y2049D01*
X1199Y2048D02*
X1406Y2048D01*
X1493Y2048D02*
X1955Y2048D01*
X2042Y2048D02*
X2085Y2048D01*
X1200Y2047D02*
X1406Y2047D01*
X1492Y2047D02*
X1955Y2047D01*
X2042Y2047D02*
X2085Y2047D01*
X1201Y2046D02*
X1406Y2046D01*
X1492Y2046D02*
X1956Y2046D01*
X2042Y2046D02*
X2084Y2046D01*
X1202Y2045D02*
X1406Y2045D01*
X1492Y2045D02*
X1956Y2045D01*
X2041Y2045D02*
X2083Y2045D01*
X1203Y2044D02*
X1407Y2044D01*
X1492Y2044D02*
X1956Y2044D01*
X2041Y2044D02*
X2082Y2044D01*
X1204Y2043D02*
X1407Y2043D01*
X1491Y2043D02*
X1956Y2043D01*
X2041Y2043D02*
X2080Y2043D01*
X1206Y2042D02*
X1407Y2042D01*
X1491Y2042D02*
X1957Y2042D01*
X2040Y2042D02*
X2078Y2042D01*
X1208Y2041D02*
X1408Y2041D01*
X1491Y2041D02*
X1957Y2041D01*
X2040Y2041D02*
X2076Y2041D01*
X1214Y2040D02*
X1408Y2040D01*
X1491Y2040D02*
X1957Y2040D01*
X2040Y2040D02*
X2071Y2040D01*
D02*
G04 End of Silk0*
M02*