; NON-PLATED HOLES START AT T1
; THROUGH (PLATED) HOLES START AT T100
M48
INCH
T1C0.126000
T2C0.049194
T3C0.165354
T100C0.039370
T101C0.035433
T102C0.098425
T103C0.040000
T104C0.073000
T105C0.086614
T106C0.031496
T107C0.031833
%
T1
X027810Y028037
X005912Y019037
X005912Y028037
X027810Y019037
T2
X011370Y024963
T3
X031495Y001991
X002495Y001991
T100
X025495Y007991
X023495Y007991
X022495Y007991
X026495Y007991
X024495Y007991
X028495Y007991
X027495Y007991
T101
X011533Y013007
X004533Y005007
X015533Y005007
X012533Y013007
X014533Y005007
X010533Y005007
X007533Y005007
X002035Y010424
X006533Y005007
X011533Y005007
X012533Y005007
X016533Y013007
X008533Y005007
X018533Y005007
X017533Y005007
X014533Y013007
X007533Y013007
X013533Y005007
X009533Y013007
X015533Y013007
X017533Y013007
X013533Y013007
X018533Y013007
X003533Y005007
X010533Y013007
X005533Y005007
X016533Y005007
X002035Y007589
X008533Y013007
X009533Y005007
T102
X002033Y012507
X002033Y005507
T103
X008495Y002991
X015495Y008991
X024495Y018991
X016495Y008991
X007117Y002991
X024495Y026991
X014495Y008991
X024495Y028369
X024495Y020369
X012495Y008991
X011495Y008991
X024495Y022991
X013495Y008991
X024495Y024369
T104
X031185Y028036
X002495Y028042
X031185Y019036
X002495Y019042
T105
X027995Y012491
X022995Y012491
T106
X003138Y007708
X003138Y010306
T107
X021495Y024991
X021495Y023991
X021495Y021991
X011370Y023963
X021495Y025991
X021495Y022991
X011370Y022963
X011370Y021963
X021495Y020991
T00
M30
