; NON-PLATED HOLES START AT T1
; THROUGH (PLATED) HOLES START AT T100
M48
INCH
T1C0.165354
T2C0.126000
T100C0.031496
T101C0.073000
T102C0.098425
T103C0.086614
T104C0.035433
T105C0.039370
T106C0.040000
%
T1
X031495Y001991
X002495Y001991
T2
X027810Y027996
X005912Y027996
X027810Y018996
X005912Y018996
T100
X003138Y010306
X003138Y007708
T101
X002495Y018991
X031185Y027998
X002495Y027991
X031185Y018998
T102
X002033Y005507
X002033Y012507
T103
X022995Y012491
X027995Y012491
T104
X014533Y005007
X016533Y005007
X015533Y013007
X018533Y005007
X004533Y005007
X013533Y005007
X012533Y013007
X002035Y010424
X009533Y013007
X005533Y005007
X018533Y013007
X012533Y005007
X017533Y013007
X013533Y013007
X002035Y007589
X014533Y013007
X010533Y005007
X011533Y013007
X010533Y013007
X007533Y005007
X016533Y013007
X008533Y005007
X007533Y013007
X009533Y005007
X011533Y005007
X015533Y005007
X003533Y005007
X008533Y013007
X006533Y005007
X017533Y005007
T105
X028495Y007991
X027495Y007991
X026495Y007991
X025495Y007991
X023495Y007991
X024495Y007991
X022495Y007991
T106
X008495Y002991
X007117Y002991
T00
M30
