G04 MADE WITH FRITZING*
G04 WWW.FRITZING.ORG*
G04 DOUBLE SIDED*
G04 HOLES PLATED*
G04 CONTOUR ON CENTER OF CONTOUR VECTOR*
%ASAXBY*%
%FSLAX23Y23*%
%MOIN*%
%OFA0B0*%
%SFA1.0B1.0*%
%ADD10C,0.136614*%
%ADD11C,0.080000*%
%ADD12C,0.090000*%
%ADD13C,0.103000*%
%ADD14C,0.136000*%
%ADD15C,0.148425*%
%ADD16C,0.105000*%
%ADD17C,0.061496*%
%ADD18C,0.072000*%
%ADD19C,0.175354*%
%ADD20R,0.090000X0.090000*%
%ADD21R,0.105000X0.105000*%
%ADD22R,0.001000X0.001000*%
%LNMASK0*%
G90*
G70*
G54D10*
X2800Y1249D03*
G54D11*
X2250Y799D03*
X2350Y799D03*
X2450Y799D03*
X2550Y799D03*
X2650Y799D03*
X2750Y799D03*
X2850Y799D03*
G54D10*
X2300Y1249D03*
G54D12*
X712Y299D03*
X850Y299D03*
X712Y299D03*
X850Y299D03*
G54D13*
X250Y2799D03*
G54D14*
X591Y2800D03*
G54D13*
X3119Y2800D03*
G54D14*
X2781Y2800D03*
G54D13*
X250Y2799D03*
G54D14*
X591Y2800D03*
G54D13*
X3119Y2800D03*
G54D14*
X2781Y2800D03*
G54D13*
X250Y1899D03*
G54D14*
X591Y1900D03*
G54D13*
X3119Y1900D03*
G54D14*
X2781Y1900D03*
G54D13*
X250Y1899D03*
G54D14*
X591Y1900D03*
G54D13*
X3119Y1900D03*
G54D14*
X2781Y1900D03*
G54D15*
X203Y551D03*
G54D16*
X204Y1042D03*
G54D17*
X314Y1031D03*
G54D18*
X1853Y501D03*
X1753Y501D03*
X1653Y501D03*
X1553Y501D03*
X1453Y501D03*
X1353Y501D03*
X1253Y501D03*
X1153Y501D03*
X1053Y501D03*
G54D15*
X203Y1251D03*
G54D18*
X953Y501D03*
X853Y501D03*
X753Y501D03*
X653Y501D03*
X553Y501D03*
X453Y501D03*
X353Y501D03*
X753Y1301D03*
X853Y1301D03*
X953Y1301D03*
X1053Y1301D03*
X1153Y1301D03*
X1253Y1301D03*
X1353Y1301D03*
X1453Y1301D03*
X1553Y1301D03*
X1653Y1301D03*
X1753Y1301D03*
X1853Y1301D03*
G54D17*
X314Y771D03*
G54D16*
X204Y759D03*
G54D19*
X250Y199D03*
X3150Y199D03*
G54D20*
X712Y299D03*
X712Y299D03*
G54D21*
X204Y1042D03*
X204Y759D03*
G54D22*
X288Y1077D02*
X338Y1077D01*
X288Y1076D02*
X339Y1076D01*
X288Y1075D02*
X339Y1075D01*
X288Y1074D02*
X339Y1074D01*
X288Y1073D02*
X339Y1073D01*
X288Y1072D02*
X339Y1072D01*
X288Y1071D02*
X339Y1071D01*
X288Y1070D02*
X339Y1070D01*
X288Y1069D02*
X339Y1069D01*
X288Y1068D02*
X339Y1068D01*
X288Y1067D02*
X339Y1067D01*
X288Y1066D02*
X339Y1066D01*
X288Y1065D02*
X339Y1065D01*
X288Y1064D02*
X339Y1064D01*
X288Y1063D02*
X339Y1063D01*
X288Y1062D02*
X339Y1062D01*
X288Y1061D02*
X339Y1061D01*
X288Y1060D02*
X339Y1060D01*
X288Y1059D02*
X339Y1059D01*
X288Y1058D02*
X339Y1058D01*
X288Y1057D02*
X339Y1057D01*
X288Y1056D02*
X339Y1056D01*
X288Y1055D02*
X339Y1055D01*
X288Y1054D02*
X339Y1054D01*
X288Y1053D02*
X339Y1053D01*
X288Y1052D02*
X339Y1052D01*
X288Y1051D02*
X339Y1051D01*
X288Y1050D02*
X339Y1050D01*
X288Y1049D02*
X339Y1049D01*
X288Y1048D02*
X339Y1048D01*
X288Y1047D02*
X339Y1047D01*
X288Y1046D02*
X308Y1046D01*
X319Y1046D02*
X339Y1046D01*
X288Y1045D02*
X306Y1045D01*
X321Y1045D02*
X339Y1045D01*
X288Y1044D02*
X304Y1044D01*
X323Y1044D02*
X339Y1044D01*
X288Y1043D02*
X303Y1043D01*
X324Y1043D02*
X339Y1043D01*
X288Y1042D02*
X302Y1042D01*
X325Y1042D02*
X339Y1042D01*
X288Y1041D02*
X301Y1041D01*
X326Y1041D02*
X339Y1041D01*
X288Y1040D02*
X300Y1040D01*
X327Y1040D02*
X339Y1040D01*
X288Y1039D02*
X299Y1039D01*
X327Y1039D02*
X339Y1039D01*
X288Y1038D02*
X299Y1038D01*
X328Y1038D02*
X339Y1038D01*
X288Y1037D02*
X298Y1037D01*
X328Y1037D02*
X339Y1037D01*
X288Y1036D02*
X298Y1036D01*
X329Y1036D02*
X339Y1036D01*
X288Y1035D02*
X298Y1035D01*
X329Y1035D02*
X339Y1035D01*
X288Y1034D02*
X297Y1034D01*
X329Y1034D02*
X339Y1034D01*
X288Y1033D02*
X297Y1033D01*
X329Y1033D02*
X339Y1033D01*
X288Y1032D02*
X297Y1032D01*
X329Y1032D02*
X339Y1032D01*
X288Y1031D02*
X297Y1031D01*
X329Y1031D02*
X339Y1031D01*
X288Y1030D02*
X297Y1030D01*
X329Y1030D02*
X339Y1030D01*
X288Y1029D02*
X297Y1029D01*
X329Y1029D02*
X339Y1029D01*
X288Y1028D02*
X297Y1028D01*
X329Y1028D02*
X339Y1028D01*
X288Y1027D02*
X298Y1027D01*
X329Y1027D02*
X339Y1027D01*
X288Y1026D02*
X298Y1026D01*
X329Y1026D02*
X339Y1026D01*
X288Y1025D02*
X298Y1025D01*
X328Y1025D02*
X339Y1025D01*
X288Y1024D02*
X299Y1024D01*
X328Y1024D02*
X339Y1024D01*
X288Y1023D02*
X299Y1023D01*
X327Y1023D02*
X339Y1023D01*
X288Y1022D02*
X300Y1022D01*
X327Y1022D02*
X339Y1022D01*
X288Y1021D02*
X301Y1021D01*
X326Y1021D02*
X339Y1021D01*
X288Y1020D02*
X302Y1020D01*
X325Y1020D02*
X339Y1020D01*
X288Y1019D02*
X303Y1019D01*
X324Y1019D02*
X339Y1019D01*
X288Y1018D02*
X304Y1018D01*
X323Y1018D02*
X339Y1018D01*
X288Y1017D02*
X306Y1017D01*
X321Y1017D02*
X339Y1017D01*
X288Y1016D02*
X308Y1016D01*
X319Y1016D02*
X339Y1016D01*
X288Y1015D02*
X339Y1015D01*
X288Y1014D02*
X339Y1014D01*
X288Y1013D02*
X339Y1013D01*
X288Y1012D02*
X339Y1012D01*
X288Y1011D02*
X339Y1011D01*
X288Y1010D02*
X339Y1010D01*
X288Y1009D02*
X339Y1009D01*
X288Y1008D02*
X339Y1008D01*
X288Y1007D02*
X339Y1007D01*
X288Y1006D02*
X339Y1006D01*
X310Y797D02*
X317Y797D01*
X288Y796D02*
X339Y796D01*
X288Y795D02*
X339Y795D01*
X288Y794D02*
X339Y794D01*
X288Y793D02*
X339Y793D01*
X288Y792D02*
X339Y792D01*
X288Y791D02*
X339Y791D01*
X288Y790D02*
X339Y790D01*
X288Y789D02*
X339Y789D01*
X288Y788D02*
X339Y788D01*
X288Y787D02*
X339Y787D01*
X288Y786D02*
X307Y786D01*
X319Y786D02*
X339Y786D01*
X288Y785D02*
X305Y785D01*
X321Y785D02*
X339Y785D01*
X288Y784D02*
X304Y784D01*
X323Y784D02*
X339Y784D01*
X288Y783D02*
X302Y783D01*
X324Y783D02*
X339Y783D01*
X288Y782D02*
X301Y782D01*
X325Y782D02*
X339Y782D01*
X288Y781D02*
X300Y781D01*
X326Y781D02*
X339Y781D01*
X288Y780D02*
X300Y780D01*
X327Y780D02*
X339Y780D01*
X288Y779D02*
X299Y779D01*
X327Y779D02*
X339Y779D01*
X288Y778D02*
X299Y778D01*
X328Y778D02*
X339Y778D01*
X288Y777D02*
X298Y777D01*
X328Y777D02*
X339Y777D01*
X288Y776D02*
X298Y776D01*
X329Y776D02*
X339Y776D01*
X288Y775D02*
X297Y775D01*
X329Y775D02*
X339Y775D01*
X288Y774D02*
X297Y774D01*
X329Y774D02*
X339Y774D01*
X288Y773D02*
X297Y773D01*
X329Y773D02*
X339Y773D01*
X288Y772D02*
X297Y772D01*
X329Y772D02*
X339Y772D01*
X288Y771D02*
X297Y771D01*
X329Y771D02*
X339Y771D01*
X288Y770D02*
X297Y770D01*
X329Y770D02*
X339Y770D01*
X288Y769D02*
X297Y769D01*
X329Y769D02*
X339Y769D01*
X288Y768D02*
X297Y768D01*
X329Y768D02*
X339Y768D01*
X288Y767D02*
X298Y767D01*
X329Y767D02*
X339Y767D01*
X288Y766D02*
X298Y766D01*
X329Y766D02*
X339Y766D01*
X288Y765D02*
X298Y765D01*
X328Y765D02*
X339Y765D01*
X288Y764D02*
X299Y764D01*
X328Y764D02*
X339Y764D01*
X288Y763D02*
X299Y763D01*
X327Y763D02*
X339Y763D01*
X288Y762D02*
X300Y762D01*
X327Y762D02*
X339Y762D01*
X288Y761D02*
X301Y761D01*
X326Y761D02*
X339Y761D01*
X288Y760D02*
X302Y760D01*
X325Y760D02*
X339Y760D01*
X288Y759D02*
X303Y759D01*
X324Y759D02*
X339Y759D01*
X288Y758D02*
X304Y758D01*
X322Y758D02*
X339Y758D01*
X288Y757D02*
X306Y757D01*
X321Y757D02*
X339Y757D01*
X288Y756D02*
X309Y756D01*
X318Y756D02*
X339Y756D01*
X288Y755D02*
X339Y755D01*
X288Y754D02*
X339Y754D01*
X288Y753D02*
X339Y753D01*
X288Y752D02*
X339Y752D01*
X288Y751D02*
X339Y751D01*
X288Y750D02*
X339Y750D01*
X288Y749D02*
X339Y749D01*
X288Y748D02*
X339Y748D01*
X288Y747D02*
X339Y747D01*
X288Y746D02*
X339Y746D01*
X288Y745D02*
X339Y745D01*
X288Y744D02*
X339Y744D01*
X288Y743D02*
X339Y743D01*
X288Y742D02*
X339Y742D01*
X288Y741D02*
X339Y741D01*
X288Y740D02*
X339Y740D01*
X288Y739D02*
X339Y739D01*
X288Y738D02*
X339Y738D01*
X288Y737D02*
X339Y737D01*
X288Y736D02*
X339Y736D01*
X288Y735D02*
X339Y735D01*
X288Y734D02*
X339Y734D01*
X288Y733D02*
X339Y733D01*
X288Y732D02*
X339Y732D01*
X288Y731D02*
X339Y731D01*
X288Y730D02*
X339Y730D01*
X288Y729D02*
X339Y729D01*
X288Y728D02*
X339Y728D01*
X288Y727D02*
X339Y727D01*
X288Y726D02*
X339Y726D01*
X288Y725D02*
X338Y725D01*
D02*
G04 End of Mask0*
M02*