G04 MADE WITH FRITZING*
G04 WWW.FRITZING.ORG*
G04 DOUBLE SIDED*
G04 HOLES PLATED*
G04 CONTOUR ON CENTER OF CONTOUR VECTOR*
%ASAXBY*%
%FSLAX23Y23*%
%MOIN*%
%OFA0B0*%
%SFA1.0B1.0*%
%ADD10R,3.346460X3.346460X3.330460X3.330460*%
%ADD11C,0.008000*%
%ADD12C,0.015998*%
%ADD13C,0.009998*%
%ADD14C,0.010000*%
%ADD15C,0.005000*%
%LNSILK0*%
G90*
G70*
G54D11*
X4Y3342D02*
X3342Y3342D01*
X3342Y4D01*
X4Y4D01*
X4Y3342D01*
D02*
G54D12*
X1137Y2900D02*
X2187Y2900D01*
D02*
X2187Y2900D02*
X2187Y2823D01*
D02*
X2187Y2823D02*
X2187Y2773D01*
D02*
X2187Y2773D02*
X2187Y2700D01*
D02*
X2187Y2700D02*
X1137Y2700D01*
D02*
X1137Y2700D02*
X1137Y2900D01*
D02*
X2187Y2823D02*
X2237Y2823D01*
D02*
X2237Y2823D02*
X2237Y2773D01*
D02*
X2237Y2773D02*
X2187Y2773D01*
D02*
X1212Y2800D02*
X1262Y2800D01*
D02*
X2062Y2800D02*
X2112Y2800D01*
D02*
X2087Y2825D02*
X2087Y2775D01*
G54D13*
D02*
X161Y3205D02*
X536Y3205D01*
D02*
X536Y2404D02*
X161Y2404D01*
D02*
X158Y2405D02*
X158Y3204D01*
D02*
X2822Y2399D02*
X3197Y2399D01*
D02*
X3197Y2399D02*
X3197Y3201D01*
D02*
X3196Y3204D02*
X2821Y3204D01*
G54D12*
D02*
X1137Y2000D02*
X2187Y2000D01*
D02*
X2187Y2000D02*
X2187Y1923D01*
D02*
X2187Y1923D02*
X2187Y1873D01*
D02*
X2187Y1873D02*
X2187Y1800D01*
D02*
X2187Y1800D02*
X1137Y1800D01*
D02*
X1137Y1800D02*
X1137Y2000D01*
D02*
X2187Y1923D02*
X2237Y1923D01*
D02*
X2237Y1923D02*
X2237Y1873D01*
D02*
X2237Y1873D02*
X2187Y1873D01*
D02*
X1212Y1900D02*
X1262Y1900D01*
D02*
X2062Y1900D02*
X2112Y1900D01*
D02*
X2087Y1925D02*
X2087Y1875D01*
G54D13*
D02*
X161Y2305D02*
X536Y2305D01*
D02*
X536Y1504D02*
X161Y1504D01*
D02*
X158Y1505D02*
X158Y2304D01*
D02*
X2822Y1499D02*
X3197Y1499D01*
D02*
X3197Y1499D02*
X3197Y2301D01*
D02*
X3196Y2304D02*
X2821Y2304D01*
G54D14*
D02*
X638Y387D02*
X923Y387D01*
D02*
X923Y387D02*
X923Y171D01*
D02*
X923Y171D02*
X638Y171D01*
D02*
X638Y171D02*
X638Y387D01*
G54D15*
D02*
X923Y211D02*
X638Y211D01*
G04 End of Silk0*
M02*