G04 MADE WITH FRITZING*
G04 WWW.FRITZING.ORG*
G04 DOUBLE SIDED*
G04 HOLES PLATED*
G04 CONTOUR ON CENTER OF CONTOUR VECTOR*
%ASAXBY*%
%FSLAX23Y23*%
%MOIN*%
%OFA0B0*%
%SFA1.0B1.0*%
%ADD10C,0.074000*%
%ADD11C,0.126614*%
%ADD12C,0.070000*%
%ADD13C,0.080000*%
%ADD14C,0.093000*%
%ADD15C,0.138425*%
%ADD16C,0.095000*%
%ADD17C,0.051496*%
%ADD18C,0.062000*%
%ADD19C,0.066555*%
%ADD20C,0.049194*%
%ADD21R,0.080000X0.080000*%
%ADD22R,0.095000X0.095000*%
%ADD23C,0.024000*%
%ADD24C,0.060000*%
%ADD25C,0.045000*%
%ADD26C,0.035000*%
%ADD27R,0.001000X0.001000*%
%LNCOPPER1*%
G90*
G70*
G54D10*
X860Y1177D03*
X960Y1177D03*
X850Y1077D03*
X950Y1077D03*
X860Y977D03*
X960Y977D03*
X850Y877D03*
X950Y877D03*
X860Y777D03*
X960Y777D03*
X850Y677D03*
X950Y677D03*
X860Y577D03*
X960Y577D03*
X850Y477D03*
X950Y477D03*
X860Y377D03*
X960Y377D03*
X850Y277D03*
X950Y277D03*
X860Y1177D03*
X960Y1177D03*
X850Y1077D03*
X950Y1077D03*
X860Y977D03*
X960Y977D03*
X850Y877D03*
X950Y877D03*
X860Y777D03*
X960Y777D03*
X850Y677D03*
X950Y677D03*
X860Y577D03*
X960Y577D03*
X850Y477D03*
X950Y477D03*
X860Y377D03*
X960Y377D03*
X850Y277D03*
X950Y277D03*
G54D11*
X800Y4427D03*
G54D12*
X250Y3977D03*
X350Y3977D03*
X450Y3977D03*
X550Y3977D03*
X650Y3977D03*
X750Y3977D03*
X850Y3977D03*
G54D11*
X300Y4427D03*
G54D13*
X250Y1115D03*
X250Y977D03*
X250Y1115D03*
X250Y977D03*
X250Y1515D03*
X250Y1377D03*
X250Y1515D03*
X250Y1377D03*
X1150Y2515D03*
X1150Y2377D03*
X1150Y2515D03*
X1150Y2377D03*
X1150Y2915D03*
X1150Y2777D03*
X1150Y2915D03*
X1150Y2777D03*
X1150Y3315D03*
X1150Y3177D03*
X1150Y3315D03*
X1150Y3177D03*
X1150Y3715D03*
X1150Y3577D03*
X1150Y3715D03*
X1150Y3577D03*
X250Y1915D03*
X250Y1777D03*
X250Y1915D03*
X250Y1777D03*
G54D14*
X1650Y4177D03*
X4519Y4178D03*
X1650Y4177D03*
X4519Y4178D03*
X1650Y3377D03*
X4519Y3378D03*
X1650Y3377D03*
X4519Y3378D03*
X1650Y1777D03*
X4519Y1778D03*
X1650Y1777D03*
X4519Y1778D03*
X1650Y2577D03*
X4519Y2578D03*
X1650Y2577D03*
X4519Y2578D03*
G54D15*
X3900Y327D03*
G54D16*
X3899Y819D03*
G54D17*
X3789Y807D03*
G54D18*
X2250Y277D03*
X2350Y277D03*
X2450Y277D03*
X2550Y277D03*
X2650Y277D03*
X2750Y277D03*
X2850Y277D03*
X2950Y277D03*
X3050Y277D03*
G54D15*
X3900Y1027D03*
G54D18*
X3150Y277D03*
X3250Y277D03*
X3350Y277D03*
X3450Y277D03*
X3550Y277D03*
X3650Y277D03*
X3750Y277D03*
X3350Y1077D03*
X3250Y1077D03*
X3150Y1077D03*
X3050Y1077D03*
X2950Y1077D03*
X2850Y1077D03*
X2750Y1077D03*
X2650Y1077D03*
X2550Y1077D03*
X2450Y1077D03*
X2350Y1077D03*
X2250Y1077D03*
G54D17*
X3789Y547D03*
G54D16*
X3899Y535D03*
G54D15*
X3900Y327D03*
G54D16*
X3899Y819D03*
G54D17*
X3789Y807D03*
G54D18*
X2250Y277D03*
X2350Y277D03*
X2450Y277D03*
X2550Y277D03*
X2650Y277D03*
X2750Y277D03*
X2850Y277D03*
X2950Y277D03*
X3050Y277D03*
G54D15*
X3900Y1027D03*
G54D18*
X3150Y277D03*
X3250Y277D03*
X3350Y277D03*
X3450Y277D03*
X3550Y277D03*
X3650Y277D03*
X3750Y277D03*
X3350Y1077D03*
X3250Y1077D03*
X3150Y1077D03*
X3050Y1077D03*
X2950Y1077D03*
X2850Y1077D03*
X2750Y1077D03*
X2650Y1077D03*
X2550Y1077D03*
X2450Y1077D03*
X2350Y1077D03*
X2250Y1077D03*
G54D17*
X3789Y547D03*
G54D16*
X3899Y535D03*
G54D19*
X437Y1780D03*
X437Y1680D03*
X437Y1580D03*
X437Y1480D03*
X437Y1380D03*
X437Y1880D03*
X1450Y1677D03*
X1450Y1577D03*
G54D20*
X1450Y1777D03*
G54D19*
X1450Y1477D03*
G54D21*
X250Y1115D03*
X250Y1115D03*
X250Y1515D03*
X250Y1515D03*
X1150Y2515D03*
X1150Y2515D03*
X1150Y2915D03*
X1150Y2915D03*
X1150Y3315D03*
X1150Y3315D03*
X1150Y3715D03*
X1150Y3715D03*
X250Y1915D03*
X250Y1915D03*
G54D22*
X3899Y819D03*
X3899Y535D03*
X3899Y819D03*
X3899Y535D03*
G54D23*
X1650Y1476D02*
X1469Y1658D01*
D02*
X450Y978D02*
X351Y978D01*
D02*
X1650Y1276D02*
X1650Y1476D01*
D02*
X3350Y477D02*
X3049Y477D01*
D02*
X3350Y377D02*
X3350Y477D01*
D02*
X1751Y1177D02*
X1650Y1276D01*
D02*
X3049Y477D02*
X2949Y577D01*
D02*
X2949Y577D02*
X1752Y576D01*
D02*
X1752Y576D02*
X1752Y1177D01*
D02*
X1752Y1177D02*
X1751Y1177D01*
D02*
X3350Y306D02*
X3350Y377D01*
D02*
X448Y1077D02*
X450Y978D01*
D02*
X351Y978D02*
X281Y977D01*
D02*
X438Y1353D02*
X448Y1077D01*
G54D24*
D02*
X1650Y1678D02*
X1490Y1757D01*
D02*
X1650Y1577D02*
X1650Y1678D01*
D02*
X3549Y477D02*
X3549Y878D01*
D02*
X3549Y878D02*
X3248Y875D01*
D02*
X3248Y875D02*
X1952Y875D01*
D02*
X1952Y875D02*
X1950Y879D01*
G54D25*
D02*
X2152Y3179D02*
X1192Y3177D01*
D02*
X1150Y2678D02*
X1147Y2679D01*
D02*
X1147Y2679D02*
X1149Y2735D01*
D02*
X1150Y2575D02*
X1150Y2678D01*
D02*
X1150Y2557D02*
X1150Y2575D01*
D02*
X4247Y3975D02*
X4247Y3575D01*
D02*
X4247Y3575D02*
X1192Y3577D01*
D02*
X4471Y4143D02*
X4247Y3975D01*
D02*
X4350Y3176D02*
X2152Y3179D01*
D02*
X4481Y3333D02*
X4350Y3176D01*
D02*
X4247Y2776D02*
X1192Y2777D01*
D02*
X4471Y2612D02*
X4247Y2776D01*
G54D24*
D02*
X1950Y879D02*
X1949Y1476D01*
D02*
X1949Y1476D02*
X1650Y1577D01*
D02*
X3470Y318D02*
X3549Y477D01*
G54D12*
D02*
X4519Y2648D02*
X4519Y3308D01*
D02*
X4519Y3448D02*
X4519Y4108D01*
G54D26*
D02*
X1449Y1177D02*
X996Y1177D01*
D02*
X3448Y178D02*
X1450Y178D01*
D02*
X1450Y178D02*
X1450Y776D01*
D02*
X1450Y776D02*
X1449Y1177D01*
D02*
X3449Y243D02*
X3448Y178D01*
G54D12*
D02*
X4449Y1677D02*
X4449Y1176D01*
D02*
X3351Y1176D02*
X3350Y1128D01*
D02*
X4449Y1176D02*
X3351Y1176D01*
D02*
X4519Y2508D02*
X4519Y1848D01*
D02*
X4479Y1720D02*
X4449Y1677D01*
G54D23*
D02*
X948Y2876D02*
X750Y2876D01*
D02*
X750Y2876D02*
X750Y2378D01*
D02*
X750Y2378D02*
X1118Y2377D01*
D02*
X1119Y2909D02*
X948Y2876D01*
D02*
X1249Y3379D02*
X1602Y3377D01*
D02*
X1176Y3332D02*
X1249Y3379D01*
D02*
X2450Y2279D02*
X651Y2279D01*
D02*
X651Y2279D02*
X651Y3779D01*
D02*
X651Y3779D02*
X650Y3946D01*
D02*
X2450Y1277D02*
X2450Y1677D01*
D02*
X2450Y1677D02*
X2450Y2279D01*
D02*
X2362Y1103D02*
X2450Y1277D01*
D02*
X319Y3977D02*
X280Y3977D01*
D02*
X419Y3977D02*
X380Y3977D01*
G54D25*
D02*
X448Y4176D02*
X449Y4019D01*
D02*
X949Y4176D02*
X448Y4176D01*
D02*
X4452Y4376D02*
X949Y4376D01*
D02*
X949Y4376D02*
X949Y4176D01*
D02*
X4500Y4233D02*
X4452Y4376D01*
G54D23*
D02*
X2349Y2178D02*
X548Y2178D01*
D02*
X548Y2178D02*
X550Y3946D01*
D02*
X2349Y1277D02*
X2349Y1677D01*
D02*
X2349Y1677D02*
X2349Y2178D01*
D02*
X2262Y1103D02*
X2349Y1277D01*
D02*
X351Y1877D02*
X410Y1879D01*
D02*
X279Y1904D02*
X351Y1877D01*
D02*
X410Y1779D02*
X281Y1778D01*
D02*
X351Y1578D02*
X420Y1659D01*
D02*
X276Y1531D02*
X351Y1578D01*
D02*
X351Y1476D02*
X420Y1559D01*
D02*
X272Y1399D02*
X351Y1476D01*
D02*
X1548Y1476D02*
X1548Y1276D01*
D02*
X1548Y1276D02*
X1651Y1176D01*
D02*
X1651Y1176D02*
X1650Y477D01*
D02*
X1468Y1558D02*
X1548Y1476D01*
D02*
X3049Y377D02*
X3250Y377D01*
D02*
X3250Y377D02*
X3250Y306D01*
D02*
X2949Y477D02*
X3049Y377D01*
D02*
X1650Y477D02*
X2949Y477D01*
G54D27*
X408Y1910D02*
X465Y1910D01*
X407Y1909D02*
X466Y1909D01*
X407Y1908D02*
X466Y1908D01*
X407Y1907D02*
X466Y1907D01*
X407Y1906D02*
X466Y1906D01*
X407Y1905D02*
X466Y1905D01*
X407Y1904D02*
X466Y1904D01*
X407Y1903D02*
X466Y1903D01*
X407Y1902D02*
X466Y1902D01*
X407Y1901D02*
X466Y1901D01*
X407Y1900D02*
X466Y1900D01*
X407Y1899D02*
X466Y1899D01*
X407Y1898D02*
X431Y1898D01*
X442Y1898D02*
X466Y1898D01*
X407Y1897D02*
X428Y1897D01*
X445Y1897D02*
X466Y1897D01*
X407Y1896D02*
X426Y1896D01*
X447Y1896D02*
X466Y1896D01*
X407Y1895D02*
X425Y1895D01*
X448Y1895D02*
X466Y1895D01*
X407Y1894D02*
X424Y1894D01*
X449Y1894D02*
X466Y1894D01*
X407Y1893D02*
X423Y1893D01*
X450Y1893D02*
X466Y1893D01*
X407Y1892D02*
X422Y1892D01*
X451Y1892D02*
X466Y1892D01*
X407Y1891D02*
X421Y1891D01*
X452Y1891D02*
X466Y1891D01*
X407Y1890D02*
X420Y1890D01*
X453Y1890D02*
X466Y1890D01*
X407Y1889D02*
X420Y1889D01*
X453Y1889D02*
X466Y1889D01*
X407Y1888D02*
X419Y1888D01*
X454Y1888D02*
X466Y1888D01*
X407Y1887D02*
X419Y1887D01*
X454Y1887D02*
X466Y1887D01*
X407Y1886D02*
X418Y1886D01*
X454Y1886D02*
X466Y1886D01*
X407Y1885D02*
X418Y1885D01*
X455Y1885D02*
X466Y1885D01*
X407Y1884D02*
X418Y1884D01*
X455Y1884D02*
X466Y1884D01*
X407Y1883D02*
X418Y1883D01*
X455Y1883D02*
X466Y1883D01*
X407Y1882D02*
X418Y1882D01*
X455Y1882D02*
X466Y1882D01*
X407Y1881D02*
X418Y1881D01*
X455Y1881D02*
X466Y1881D01*
X407Y1880D02*
X418Y1880D01*
X455Y1880D02*
X466Y1880D01*
X407Y1879D02*
X418Y1879D01*
X455Y1879D02*
X466Y1879D01*
X407Y1878D02*
X418Y1878D01*
X455Y1878D02*
X466Y1878D01*
X407Y1877D02*
X418Y1877D01*
X455Y1877D02*
X466Y1877D01*
X407Y1876D02*
X418Y1876D01*
X455Y1876D02*
X466Y1876D01*
X407Y1875D02*
X418Y1875D01*
X455Y1875D02*
X466Y1875D01*
X407Y1874D02*
X419Y1874D01*
X454Y1874D02*
X466Y1874D01*
X407Y1873D02*
X419Y1873D01*
X454Y1873D02*
X466Y1873D01*
X407Y1872D02*
X419Y1872D01*
X453Y1872D02*
X466Y1872D01*
X407Y1871D02*
X420Y1871D01*
X453Y1871D02*
X466Y1871D01*
X407Y1870D02*
X421Y1870D01*
X452Y1870D02*
X466Y1870D01*
X407Y1869D02*
X421Y1869D01*
X452Y1869D02*
X466Y1869D01*
X407Y1868D02*
X422Y1868D01*
X451Y1868D02*
X466Y1868D01*
X407Y1867D02*
X423Y1867D01*
X450Y1867D02*
X466Y1867D01*
X407Y1866D02*
X424Y1866D01*
X449Y1866D02*
X466Y1866D01*
X407Y1865D02*
X425Y1865D01*
X447Y1865D02*
X466Y1865D01*
X407Y1864D02*
X427Y1864D01*
X446Y1864D02*
X466Y1864D01*
X407Y1863D02*
X429Y1863D01*
X444Y1863D02*
X466Y1863D01*
X407Y1862D02*
X433Y1862D01*
X440Y1862D02*
X466Y1862D01*
X407Y1861D02*
X466Y1861D01*
X407Y1860D02*
X466Y1860D01*
X407Y1859D02*
X466Y1859D01*
X407Y1858D02*
X466Y1858D01*
X407Y1857D02*
X466Y1857D01*
X407Y1856D02*
X466Y1856D01*
X407Y1855D02*
X466Y1855D01*
X407Y1854D02*
X466Y1854D01*
X407Y1853D02*
X466Y1853D01*
X407Y1852D02*
X466Y1852D01*
X407Y1851D02*
X466Y1851D01*
X1420Y1807D02*
X1478Y1807D01*
X1420Y1806D02*
X1478Y1806D01*
X1420Y1805D02*
X1478Y1805D01*
X1420Y1804D02*
X1478Y1804D01*
X1420Y1803D02*
X1478Y1803D01*
X1420Y1802D02*
X1478Y1802D01*
X1420Y1801D02*
X1478Y1801D01*
X1420Y1800D02*
X1478Y1800D01*
X1420Y1799D02*
X1478Y1799D01*
X1420Y1798D02*
X1478Y1798D01*
X1420Y1797D02*
X1478Y1797D01*
X1420Y1796D02*
X1478Y1796D01*
X1420Y1795D02*
X1443Y1795D01*
X1455Y1795D02*
X1478Y1795D01*
X1420Y1794D02*
X1440Y1794D01*
X1458Y1794D02*
X1478Y1794D01*
X1420Y1793D02*
X1438Y1793D01*
X1459Y1793D02*
X1478Y1793D01*
X1420Y1792D02*
X1437Y1792D01*
X1461Y1792D02*
X1478Y1792D01*
X1420Y1791D02*
X1436Y1791D01*
X1462Y1791D02*
X1478Y1791D01*
X1420Y1790D02*
X1435Y1790D01*
X1463Y1790D02*
X1478Y1790D01*
X1420Y1789D02*
X1434Y1789D01*
X1464Y1789D02*
X1478Y1789D01*
X1420Y1788D02*
X1433Y1788D01*
X1465Y1788D02*
X1478Y1788D01*
X1420Y1787D02*
X1433Y1787D01*
X1465Y1787D02*
X1478Y1787D01*
X1420Y1786D02*
X1432Y1786D01*
X1466Y1786D02*
X1478Y1786D01*
X1420Y1785D02*
X1432Y1785D01*
X1466Y1785D02*
X1478Y1785D01*
X1420Y1784D02*
X1431Y1784D01*
X1467Y1784D02*
X1478Y1784D01*
X1420Y1783D02*
X1431Y1783D01*
X1467Y1783D02*
X1478Y1783D01*
X1420Y1782D02*
X1431Y1782D01*
X1467Y1782D02*
X1478Y1782D01*
X1420Y1781D02*
X1430Y1781D01*
X1468Y1781D02*
X1478Y1781D01*
X1420Y1780D02*
X1430Y1780D01*
X1468Y1780D02*
X1478Y1780D01*
X1420Y1779D02*
X1430Y1779D01*
X1468Y1779D02*
X1478Y1779D01*
X1420Y1778D02*
X1430Y1778D01*
X1468Y1778D02*
X1478Y1778D01*
X1420Y1777D02*
X1430Y1777D01*
X1468Y1777D02*
X1478Y1777D01*
X1420Y1776D02*
X1430Y1776D01*
X1468Y1776D02*
X1478Y1776D01*
X1420Y1775D02*
X1430Y1775D01*
X1468Y1775D02*
X1478Y1775D01*
X1420Y1774D02*
X1430Y1774D01*
X1468Y1774D02*
X1478Y1774D01*
X1420Y1773D02*
X1431Y1773D01*
X1467Y1773D02*
X1478Y1773D01*
X1420Y1772D02*
X1431Y1772D01*
X1467Y1772D02*
X1478Y1772D01*
X1420Y1771D02*
X1431Y1771D01*
X1467Y1771D02*
X1478Y1771D01*
X1420Y1770D02*
X1432Y1770D01*
X1466Y1770D02*
X1478Y1770D01*
X1420Y1769D02*
X1432Y1769D01*
X1466Y1769D02*
X1478Y1769D01*
X1420Y1768D02*
X1433Y1768D01*
X1465Y1768D02*
X1478Y1768D01*
X1420Y1767D02*
X1433Y1767D01*
X1465Y1767D02*
X1478Y1767D01*
X1420Y1766D02*
X1434Y1766D01*
X1464Y1766D02*
X1478Y1766D01*
X1420Y1765D02*
X1435Y1765D01*
X1463Y1765D02*
X1478Y1765D01*
X1420Y1764D02*
X1436Y1764D01*
X1462Y1764D02*
X1478Y1764D01*
X1420Y1763D02*
X1437Y1763D01*
X1461Y1763D02*
X1478Y1763D01*
X1420Y1762D02*
X1438Y1762D01*
X1460Y1762D02*
X1478Y1762D01*
X1420Y1761D02*
X1440Y1761D01*
X1458Y1761D02*
X1478Y1761D01*
X1420Y1760D02*
X1442Y1760D01*
X1455Y1760D02*
X1478Y1760D01*
X1420Y1759D02*
X1448Y1759D01*
X1450Y1759D02*
X1478Y1759D01*
X1420Y1758D02*
X1478Y1758D01*
X1420Y1757D02*
X1478Y1757D01*
X1420Y1756D02*
X1478Y1756D01*
X1420Y1755D02*
X1478Y1755D01*
X1420Y1754D02*
X1478Y1754D01*
X1420Y1753D02*
X1478Y1753D01*
X1420Y1752D02*
X1478Y1752D01*
X1420Y1751D02*
X1478Y1751D01*
X1420Y1750D02*
X1478Y1750D01*
X1420Y1749D02*
X1478Y1749D01*
X1420Y1748D02*
X1478Y1748D01*
X3768Y848D02*
X3809Y848D01*
X3768Y847D02*
X3809Y847D01*
X3768Y846D02*
X3809Y846D01*
X3768Y845D02*
X3809Y845D01*
X3768Y844D02*
X3809Y844D01*
X3768Y843D02*
X3809Y843D01*
X3768Y842D02*
X3809Y842D01*
X3768Y841D02*
X3809Y841D01*
X3768Y840D02*
X3809Y840D01*
X3768Y839D02*
X3809Y839D01*
X3768Y838D02*
X3809Y838D01*
X3768Y837D02*
X3809Y837D01*
X3768Y836D02*
X3809Y836D01*
X3768Y835D02*
X3809Y835D01*
X3768Y834D02*
X3809Y834D01*
X3768Y833D02*
X3809Y833D01*
X3768Y832D02*
X3809Y832D01*
X3768Y831D02*
X3809Y831D01*
X3768Y830D02*
X3809Y830D01*
X3768Y829D02*
X3809Y829D01*
X3768Y828D02*
X3785Y828D01*
X3792Y828D02*
X3809Y828D01*
X3768Y827D02*
X3781Y827D01*
X3795Y827D02*
X3809Y827D01*
X3768Y826D02*
X3779Y826D01*
X3798Y826D02*
X3809Y826D01*
X3768Y825D02*
X3777Y825D01*
X3800Y825D02*
X3809Y825D01*
X3768Y824D02*
X3775Y824D01*
X3801Y824D02*
X3809Y824D01*
X3768Y823D02*
X3774Y823D01*
X3802Y823D02*
X3809Y823D01*
X3768Y822D02*
X3773Y822D01*
X3804Y822D02*
X3809Y822D01*
X3768Y821D02*
X3772Y821D01*
X3804Y821D02*
X3809Y821D01*
X3768Y820D02*
X3771Y820D01*
X3805Y820D02*
X3809Y820D01*
X3768Y819D02*
X3771Y819D01*
X3806Y819D02*
X3809Y819D01*
X3768Y818D02*
X3770Y818D01*
X3807Y818D02*
X3809Y818D01*
X3768Y817D02*
X3769Y817D01*
X3807Y817D02*
X3809Y817D01*
X3768Y816D02*
X3769Y816D01*
X3808Y816D02*
X3809Y816D01*
X3768Y815D02*
X3768Y815D01*
X3808Y815D02*
X3809Y815D01*
X3768Y814D02*
X3768Y814D01*
X3808Y814D02*
X3809Y814D01*
X3768Y813D02*
X3768Y813D01*
X3809Y813D02*
X3809Y813D01*
X3768Y812D02*
X3768Y812D01*
X3768Y803D02*
X3768Y803D01*
X3768Y802D02*
X3768Y802D01*
X3809Y802D02*
X3809Y802D01*
X3768Y801D02*
X3768Y801D01*
X3808Y801D02*
X3809Y801D01*
X3768Y800D02*
X3768Y800D01*
X3808Y800D02*
X3809Y800D01*
X3768Y799D02*
X3769Y799D01*
X3808Y799D02*
X3809Y799D01*
X3768Y798D02*
X3769Y798D01*
X3807Y798D02*
X3809Y798D01*
X3768Y797D02*
X3770Y797D01*
X3807Y797D02*
X3809Y797D01*
X3768Y796D02*
X3770Y796D01*
X3806Y796D02*
X3809Y796D01*
X3768Y795D02*
X3771Y795D01*
X3805Y795D02*
X3809Y795D01*
X3768Y794D02*
X3772Y794D01*
X3804Y794D02*
X3809Y794D01*
X3768Y793D02*
X3773Y793D01*
X3804Y793D02*
X3809Y793D01*
X3768Y792D02*
X3774Y792D01*
X3802Y792D02*
X3809Y792D01*
X3768Y791D02*
X3775Y791D01*
X3801Y791D02*
X3809Y791D01*
X3768Y790D02*
X3777Y790D01*
X3800Y790D02*
X3809Y790D01*
X3768Y789D02*
X3778Y789D01*
X3798Y789D02*
X3809Y789D01*
X3768Y788D02*
X3781Y788D01*
X3796Y788D02*
X3809Y788D01*
X3768Y787D02*
X3783Y787D01*
X3793Y787D02*
X3808Y787D01*
X3768Y568D02*
X3783Y568D01*
X3793Y568D02*
X3808Y568D01*
X3768Y567D02*
X3780Y567D01*
X3796Y567D02*
X3809Y567D01*
X3768Y566D02*
X3778Y566D01*
X3798Y566D02*
X3809Y566D01*
X3768Y565D02*
X3776Y565D01*
X3800Y565D02*
X3809Y565D01*
X3768Y564D02*
X3775Y564D01*
X3801Y564D02*
X3809Y564D01*
X3768Y563D02*
X3774Y563D01*
X3803Y563D02*
X3809Y563D01*
X3768Y562D02*
X3773Y562D01*
X3804Y562D02*
X3809Y562D01*
X3768Y561D02*
X3772Y561D01*
X3805Y561D02*
X3809Y561D01*
X3768Y560D02*
X3771Y560D01*
X3805Y560D02*
X3809Y560D01*
X3768Y559D02*
X3770Y559D01*
X3806Y559D02*
X3809Y559D01*
X3768Y558D02*
X3770Y558D01*
X3807Y558D02*
X3809Y558D01*
X3768Y557D02*
X3769Y557D01*
X3807Y557D02*
X3809Y557D01*
X3768Y556D02*
X3769Y556D01*
X3808Y556D02*
X3809Y556D01*
X3768Y555D02*
X3768Y555D01*
X3808Y555D02*
X3809Y555D01*
X3768Y554D02*
X3768Y554D01*
X3808Y554D02*
X3809Y554D01*
X3768Y553D02*
X3768Y553D01*
X3809Y553D02*
X3809Y553D01*
X3768Y543D02*
X3768Y543D01*
X3768Y542D02*
X3768Y542D01*
X3809Y542D02*
X3809Y542D01*
X3768Y541D02*
X3768Y541D01*
X3808Y541D02*
X3809Y541D01*
X3768Y540D02*
X3769Y540D01*
X3808Y540D02*
X3809Y540D01*
X3768Y539D02*
X3769Y539D01*
X3808Y539D02*
X3809Y539D01*
X3768Y538D02*
X3769Y538D01*
X3807Y538D02*
X3809Y538D01*
X3768Y537D02*
X3770Y537D01*
X3806Y537D02*
X3809Y537D01*
X3768Y536D02*
X3771Y536D01*
X3806Y536D02*
X3809Y536D01*
X3768Y535D02*
X3771Y535D01*
X3805Y535D02*
X3809Y535D01*
X3768Y534D02*
X3772Y534D01*
X3804Y534D02*
X3809Y534D01*
X3768Y533D02*
X3773Y533D01*
X3803Y533D02*
X3809Y533D01*
X3768Y532D02*
X3774Y532D01*
X3802Y532D02*
X3809Y532D01*
X3768Y531D02*
X3775Y531D01*
X3801Y531D02*
X3809Y531D01*
X3768Y530D02*
X3777Y530D01*
X3800Y530D02*
X3809Y530D01*
X3768Y529D02*
X3779Y529D01*
X3798Y529D02*
X3809Y529D01*
X3768Y528D02*
X3781Y528D01*
X3795Y528D02*
X3809Y528D01*
X3768Y527D02*
X3786Y527D01*
X3791Y527D02*
X3809Y527D01*
X3768Y526D02*
X3809Y526D01*
X3768Y525D02*
X3809Y525D01*
X3768Y524D02*
X3809Y524D01*
X3768Y523D02*
X3809Y523D01*
X3768Y522D02*
X3809Y522D01*
X3768Y521D02*
X3809Y521D01*
X3768Y520D02*
X3809Y520D01*
X3768Y519D02*
X3809Y519D01*
X3768Y518D02*
X3809Y518D01*
X3768Y517D02*
X3809Y517D01*
X3768Y516D02*
X3809Y516D01*
X3768Y515D02*
X3809Y515D01*
X3768Y514D02*
X3809Y514D01*
X3768Y513D02*
X3809Y513D01*
X3768Y512D02*
X3809Y512D01*
X3768Y511D02*
X3809Y511D01*
X3768Y510D02*
X3809Y510D01*
X3768Y509D02*
X3809Y509D01*
X3768Y508D02*
X3809Y508D01*
X3768Y507D02*
X3809Y507D01*
D02*
G04 End of Copper1*
M02*