G04 MADE WITH FRITZING*
G04 WWW.FRITZING.ORG*
G04 DOUBLE SIDED*
G04 HOLES PLATED*
G04 CONTOUR ON CENTER OF CONTOUR VECTOR*
%ASAXBY*%
%FSLAX23Y23*%
%MOIN*%
%OFA0B0*%
%SFA1.0B1.0*%
%ADD10R,4.724420X4.724420X4.708420X4.708420*%
%ADD11C,0.008000*%
%ADD12C,0.006000*%
%ADD13R,0.001000X0.001000*%
%LNSILK1*%
G90*
G70*
G54D11*
X4Y4720D02*
X4720Y4720D01*
X4720Y4D01*
X4Y4D01*
X4Y4720D01*
D02*
G54D12*
X830Y1227D02*
X805Y1202D01*
D02*
X805Y1152D02*
X830Y1127D01*
D02*
X830Y1127D02*
X805Y1102D01*
D02*
X805Y1052D02*
X830Y1027D01*
D02*
X830Y1027D02*
X805Y1002D01*
D02*
X805Y952D02*
X830Y927D01*
D02*
X830Y927D02*
X805Y902D01*
D02*
X805Y852D02*
X830Y827D01*
D02*
X830Y827D02*
X805Y802D01*
D02*
X805Y752D02*
X830Y727D01*
D02*
X830Y727D02*
X805Y702D01*
D02*
X805Y652D02*
X830Y627D01*
D02*
X830Y1227D02*
X980Y1227D01*
D02*
X980Y1227D02*
X1005Y1202D01*
D02*
X1005Y1202D02*
X1005Y1152D01*
D02*
X1005Y1152D02*
X980Y1127D01*
D02*
X980Y1127D02*
X1005Y1102D01*
D02*
X1005Y1102D02*
X1005Y1052D01*
D02*
X1005Y1052D02*
X980Y1027D01*
D02*
X980Y1027D02*
X1005Y1002D01*
D02*
X1005Y1002D02*
X1005Y952D01*
D02*
X1005Y952D02*
X980Y927D01*
D02*
X980Y927D02*
X1005Y902D01*
D02*
X1005Y902D02*
X1005Y852D01*
D02*
X1005Y852D02*
X980Y827D01*
D02*
X980Y827D02*
X1005Y802D01*
D02*
X1005Y802D02*
X1005Y752D01*
D02*
X1005Y752D02*
X980Y727D01*
D02*
X980Y727D02*
X1005Y702D01*
D02*
X1005Y702D02*
X1005Y652D01*
D02*
X1005Y652D02*
X980Y627D01*
D02*
X980Y627D02*
X1005Y602D01*
D02*
X1005Y602D02*
X1005Y552D01*
D02*
X1005Y552D02*
X980Y527D01*
D02*
X980Y527D02*
X1005Y502D01*
D02*
X1005Y502D02*
X1005Y452D01*
D02*
X1005Y452D02*
X980Y427D01*
D02*
X980Y427D02*
X1005Y402D01*
D02*
X1005Y402D02*
X1005Y352D01*
D02*
X1005Y352D02*
X980Y327D01*
D02*
X830Y327D02*
X805Y352D01*
D02*
X830Y427D02*
X805Y402D01*
D02*
X830Y427D02*
X805Y452D01*
D02*
X830Y527D02*
X805Y502D01*
D02*
X830Y527D02*
X805Y552D01*
D02*
X830Y627D02*
X805Y602D01*
D02*
X980Y1127D02*
X830Y1127D01*
D02*
X980Y1027D02*
X830Y1027D01*
D02*
X980Y927D02*
X830Y927D01*
D02*
X980Y827D02*
X830Y827D01*
D02*
X980Y727D02*
X830Y727D01*
D02*
X980Y627D02*
X830Y627D01*
D02*
X980Y527D02*
X830Y527D01*
D02*
X980Y427D02*
X830Y427D01*
D02*
X980Y327D02*
X830Y327D01*
D02*
X805Y402D02*
X805Y352D01*
D02*
X805Y502D02*
X805Y452D01*
D02*
X805Y602D02*
X805Y552D01*
D02*
X805Y702D02*
X805Y652D01*
D02*
X805Y802D02*
X805Y752D01*
D02*
X805Y902D02*
X805Y852D01*
D02*
X805Y1002D02*
X805Y952D01*
D02*
X805Y1102D02*
X805Y1052D01*
D02*
X805Y1202D02*
X805Y1152D01*
D02*
X980Y327D02*
X1005Y302D01*
D02*
X1005Y302D02*
X1005Y252D01*
D02*
X1005Y252D02*
X980Y227D01*
D02*
X830Y227D02*
X805Y252D01*
D02*
X830Y327D02*
X805Y302D01*
D02*
X980Y227D02*
X830Y227D01*
D02*
X805Y302D02*
X805Y252D01*
G54D13*
X293Y4527D02*
X805Y4527D01*
X284Y4526D02*
X814Y4526D01*
X279Y4525D02*
X819Y4525D01*
X275Y4524D02*
X823Y4524D01*
X271Y4523D02*
X827Y4523D01*
X268Y4522D02*
X830Y4522D01*
X265Y4521D02*
X833Y4521D01*
X262Y4520D02*
X836Y4520D01*
X260Y4519D02*
X291Y4519D01*
X807Y4519D02*
X838Y4519D01*
X258Y4518D02*
X283Y4518D01*
X815Y4518D02*
X840Y4518D01*
X256Y4517D02*
X278Y4517D01*
X820Y4517D02*
X842Y4517D01*
X254Y4516D02*
X274Y4516D01*
X824Y4516D02*
X844Y4516D01*
X252Y4515D02*
X271Y4515D01*
X827Y4515D02*
X846Y4515D01*
X250Y4514D02*
X268Y4514D01*
X830Y4514D02*
X848Y4514D01*
X248Y4513D02*
X265Y4513D01*
X833Y4513D02*
X850Y4513D01*
X247Y4512D02*
X263Y4512D01*
X835Y4512D02*
X851Y4512D01*
X245Y4511D02*
X260Y4511D01*
X837Y4511D02*
X853Y4511D01*
X243Y4510D02*
X258Y4510D01*
X840Y4510D02*
X854Y4510D01*
X242Y4509D02*
X256Y4509D01*
X842Y4509D02*
X856Y4509D01*
X241Y4508D02*
X254Y4508D01*
X844Y4508D02*
X857Y4508D01*
X239Y4507D02*
X253Y4507D01*
X845Y4507D02*
X859Y4507D01*
X238Y4506D02*
X251Y4506D01*
X847Y4506D02*
X860Y4506D01*
X237Y4505D02*
X249Y4505D01*
X849Y4505D02*
X861Y4505D01*
X235Y4504D02*
X248Y4504D01*
X850Y4504D02*
X863Y4504D01*
X234Y4503D02*
X246Y4503D01*
X852Y4503D02*
X864Y4503D01*
X233Y4502D02*
X245Y4502D01*
X853Y4502D02*
X865Y4502D01*
X232Y4501D02*
X244Y4501D01*
X854Y4501D02*
X866Y4501D01*
X231Y4500D02*
X242Y4500D01*
X856Y4500D02*
X867Y4500D01*
X230Y4499D02*
X241Y4499D01*
X857Y4499D02*
X868Y4499D01*
X229Y4498D02*
X240Y4498D01*
X858Y4498D02*
X869Y4498D01*
X228Y4497D02*
X239Y4497D01*
X859Y4497D02*
X870Y4497D01*
X227Y4496D02*
X237Y4496D01*
X860Y4496D02*
X871Y4496D01*
X226Y4495D02*
X236Y4495D01*
X862Y4495D02*
X872Y4495D01*
X225Y4494D02*
X235Y4494D01*
X863Y4494D02*
X873Y4494D01*
X224Y4493D02*
X234Y4493D01*
X864Y4493D02*
X874Y4493D01*
X223Y4492D02*
X233Y4492D01*
X865Y4492D02*
X875Y4492D01*
X222Y4491D02*
X232Y4491D01*
X866Y4491D02*
X876Y4491D01*
X222Y4490D02*
X231Y4490D01*
X867Y4490D02*
X876Y4490D01*
X221Y4489D02*
X230Y4489D01*
X868Y4489D02*
X877Y4489D01*
X220Y4488D02*
X230Y4488D01*
X868Y4488D02*
X878Y4488D01*
X219Y4487D02*
X229Y4487D01*
X869Y4487D02*
X879Y4487D01*
X219Y4486D02*
X228Y4486D01*
X870Y4486D02*
X879Y4486D01*
X218Y4485D02*
X227Y4485D01*
X871Y4485D02*
X880Y4485D01*
X217Y4484D02*
X226Y4484D01*
X872Y4484D02*
X881Y4484D01*
X217Y4483D02*
X225Y4483D01*
X873Y4483D02*
X881Y4483D01*
X216Y4482D02*
X225Y4482D01*
X873Y4482D02*
X882Y4482D01*
X215Y4481D02*
X224Y4481D01*
X874Y4481D02*
X883Y4481D01*
X215Y4480D02*
X223Y4480D01*
X875Y4480D02*
X883Y4480D01*
X214Y4479D02*
X222Y4479D01*
X876Y4479D02*
X884Y4479D01*
X214Y4478D02*
X222Y4478D01*
X876Y4478D02*
X884Y4478D01*
X213Y4477D02*
X221Y4477D01*
X877Y4477D02*
X885Y4477D01*
X212Y4476D02*
X220Y4476D01*
X877Y4476D02*
X886Y4476D01*
X212Y4475D02*
X220Y4475D01*
X878Y4475D02*
X886Y4475D01*
X211Y4474D02*
X219Y4474D01*
X879Y4474D02*
X887Y4474D01*
X211Y4473D02*
X219Y4473D01*
X879Y4473D02*
X887Y4473D01*
X210Y4472D02*
X218Y4472D01*
X880Y4472D02*
X888Y4472D01*
X210Y4471D02*
X218Y4471D01*
X880Y4471D02*
X888Y4471D01*
X209Y4470D02*
X217Y4470D01*
X881Y4470D02*
X889Y4470D01*
X209Y4469D02*
X216Y4469D01*
X882Y4469D02*
X889Y4469D01*
X208Y4468D02*
X216Y4468D01*
X882Y4468D02*
X890Y4468D01*
X208Y4467D02*
X216Y4467D01*
X882Y4467D02*
X890Y4467D01*
X207Y4466D02*
X215Y4466D01*
X883Y4466D02*
X891Y4466D01*
X207Y4465D02*
X215Y4465D01*
X883Y4465D02*
X891Y4465D01*
X207Y4464D02*
X214Y4464D01*
X884Y4464D02*
X891Y4464D01*
X206Y4463D02*
X214Y4463D01*
X884Y4463D02*
X892Y4463D01*
X206Y4462D02*
X213Y4462D01*
X885Y4462D02*
X892Y4462D01*
X205Y4461D02*
X213Y4461D01*
X885Y4461D02*
X893Y4461D01*
X205Y4460D02*
X212Y4460D01*
X886Y4460D02*
X893Y4460D01*
X205Y4459D02*
X212Y4459D01*
X886Y4459D02*
X893Y4459D01*
X204Y4458D02*
X212Y4458D01*
X886Y4458D02*
X894Y4458D01*
X204Y4457D02*
X211Y4457D01*
X887Y4457D02*
X894Y4457D01*
X204Y4456D02*
X211Y4456D01*
X887Y4456D02*
X894Y4456D01*
X203Y4455D02*
X211Y4455D01*
X887Y4455D02*
X894Y4455D01*
X203Y4454D02*
X210Y4454D01*
X888Y4454D02*
X895Y4454D01*
X203Y4453D02*
X210Y4453D01*
X888Y4453D02*
X895Y4453D01*
X203Y4452D02*
X210Y4452D01*
X888Y4452D02*
X895Y4452D01*
X202Y4451D02*
X210Y4451D01*
X888Y4451D02*
X896Y4451D01*
X202Y4450D02*
X209Y4450D01*
X889Y4450D02*
X896Y4450D01*
X202Y4449D02*
X209Y4449D01*
X889Y4449D02*
X896Y4449D01*
X202Y4448D02*
X209Y4448D01*
X889Y4448D02*
X896Y4448D01*
X202Y4447D02*
X209Y4447D01*
X889Y4447D02*
X896Y4447D01*
X201Y4446D02*
X208Y4446D01*
X890Y4446D02*
X897Y4446D01*
X201Y4445D02*
X208Y4445D01*
X890Y4445D02*
X897Y4445D01*
X201Y4444D02*
X208Y4444D01*
X890Y4444D02*
X897Y4444D01*
X201Y4443D02*
X208Y4443D01*
X890Y4443D02*
X897Y4443D01*
X201Y4442D02*
X208Y4442D01*
X890Y4442D02*
X897Y4442D01*
X200Y4441D02*
X208Y4441D01*
X890Y4441D02*
X897Y4441D01*
X200Y4440D02*
X207Y4440D01*
X891Y4440D02*
X898Y4440D01*
X200Y4439D02*
X207Y4439D01*
X891Y4439D02*
X898Y4439D01*
X200Y4438D02*
X207Y4438D01*
X891Y4438D02*
X898Y4438D01*
X200Y4437D02*
X207Y4437D01*
X891Y4437D02*
X898Y4437D01*
X200Y4436D02*
X207Y4436D01*
X891Y4436D02*
X898Y4436D01*
X200Y4435D02*
X207Y4435D01*
X891Y4435D02*
X898Y4435D01*
X200Y4434D02*
X207Y4434D01*
X891Y4434D02*
X898Y4434D01*
X200Y4433D02*
X207Y4433D01*
X891Y4433D02*
X898Y4433D01*
X200Y4432D02*
X207Y4432D01*
X891Y4432D02*
X898Y4432D01*
X200Y4431D02*
X207Y4431D01*
X891Y4431D02*
X898Y4431D01*
X200Y4430D02*
X207Y4430D01*
X891Y4430D02*
X898Y4430D01*
X199Y4429D02*
X207Y4429D01*
X891Y4429D02*
X898Y4429D01*
X199Y4428D02*
X207Y4428D01*
X891Y4428D02*
X898Y4428D01*
X200Y4427D02*
X207Y4427D01*
X891Y4427D02*
X898Y4427D01*
X200Y4426D02*
X207Y4426D01*
X891Y4426D02*
X898Y4426D01*
X200Y4425D02*
X207Y4425D01*
X891Y4425D02*
X898Y4425D01*
X199Y4424D02*
X207Y4424D01*
X891Y4424D02*
X899Y4424D01*
X200Y4423D02*
X207Y4423D01*
X891Y4423D02*
X898Y4423D01*
X200Y4422D02*
X207Y4422D01*
X891Y4422D02*
X898Y4422D01*
X200Y4421D02*
X207Y4421D01*
X891Y4421D02*
X898Y4421D01*
X200Y4420D02*
X207Y4420D01*
X891Y4420D02*
X898Y4420D01*
X200Y4419D02*
X207Y4419D01*
X891Y4419D02*
X898Y4419D01*
X200Y4418D02*
X207Y4418D01*
X891Y4418D02*
X898Y4418D01*
X200Y4417D02*
X207Y4417D01*
X891Y4417D02*
X898Y4417D01*
X200Y4416D02*
X207Y4416D01*
X891Y4416D02*
X898Y4416D01*
X200Y4415D02*
X207Y4415D01*
X891Y4415D02*
X898Y4415D01*
X200Y4414D02*
X207Y4414D01*
X891Y4414D02*
X898Y4414D01*
X200Y4413D02*
X207Y4413D01*
X891Y4413D02*
X898Y4413D01*
X200Y4412D02*
X207Y4412D01*
X891Y4412D02*
X898Y4412D01*
X200Y4411D02*
X207Y4411D01*
X891Y4411D02*
X898Y4411D01*
X200Y4410D02*
X207Y4410D01*
X891Y4410D02*
X898Y4410D01*
X200Y4409D02*
X207Y4409D01*
X891Y4409D02*
X898Y4409D01*
X200Y4408D02*
X207Y4408D01*
X891Y4408D02*
X898Y4408D01*
X200Y4407D02*
X207Y4407D01*
X891Y4407D02*
X898Y4407D01*
X200Y4406D02*
X207Y4406D01*
X891Y4406D02*
X898Y4406D01*
X200Y4405D02*
X207Y4405D01*
X891Y4405D02*
X898Y4405D01*
X200Y4404D02*
X207Y4404D01*
X891Y4404D02*
X898Y4404D01*
X200Y4403D02*
X207Y4403D01*
X891Y4403D02*
X898Y4403D01*
X200Y4402D02*
X207Y4402D01*
X891Y4402D02*
X898Y4402D01*
X200Y4401D02*
X207Y4401D01*
X891Y4401D02*
X898Y4401D01*
X200Y4400D02*
X207Y4400D01*
X891Y4400D02*
X898Y4400D01*
X200Y4399D02*
X207Y4399D01*
X891Y4399D02*
X898Y4399D01*
X200Y4398D02*
X207Y4398D01*
X891Y4398D02*
X898Y4398D01*
X200Y4397D02*
X207Y4397D01*
X891Y4397D02*
X898Y4397D01*
X200Y4396D02*
X207Y4396D01*
X891Y4396D02*
X898Y4396D01*
X200Y4395D02*
X207Y4395D01*
X891Y4395D02*
X898Y4395D01*
X200Y4394D02*
X207Y4394D01*
X891Y4394D02*
X898Y4394D01*
X200Y4393D02*
X207Y4393D01*
X891Y4393D02*
X898Y4393D01*
X200Y4392D02*
X207Y4392D01*
X891Y4392D02*
X898Y4392D01*
X200Y4391D02*
X207Y4391D01*
X891Y4391D02*
X898Y4391D01*
X200Y4390D02*
X207Y4390D01*
X891Y4390D02*
X898Y4390D01*
X200Y4389D02*
X207Y4389D01*
X891Y4389D02*
X898Y4389D01*
X200Y4388D02*
X207Y4388D01*
X891Y4388D02*
X898Y4388D01*
X200Y4387D02*
X207Y4387D01*
X891Y4387D02*
X898Y4387D01*
X200Y4386D02*
X207Y4386D01*
X891Y4386D02*
X898Y4386D01*
X200Y4385D02*
X207Y4385D01*
X891Y4385D02*
X898Y4385D01*
X200Y4384D02*
X207Y4384D01*
X891Y4384D02*
X898Y4384D01*
X200Y4383D02*
X207Y4383D01*
X891Y4383D02*
X898Y4383D01*
X200Y4382D02*
X207Y4382D01*
X891Y4382D02*
X898Y4382D01*
X200Y4381D02*
X207Y4381D01*
X891Y4381D02*
X898Y4381D01*
X200Y4380D02*
X207Y4380D01*
X891Y4380D02*
X898Y4380D01*
X200Y4379D02*
X207Y4379D01*
X891Y4379D02*
X898Y4379D01*
X200Y4378D02*
X207Y4378D01*
X891Y4378D02*
X898Y4378D01*
X200Y4377D02*
X207Y4377D01*
X891Y4377D02*
X898Y4377D01*
X200Y4376D02*
X207Y4376D01*
X891Y4376D02*
X898Y4376D01*
X200Y4375D02*
X207Y4375D01*
X891Y4375D02*
X898Y4375D01*
X200Y4374D02*
X207Y4374D01*
X891Y4374D02*
X898Y4374D01*
X200Y4373D02*
X207Y4373D01*
X891Y4373D02*
X898Y4373D01*
X200Y4372D02*
X207Y4372D01*
X891Y4372D02*
X898Y4372D01*
X200Y4371D02*
X207Y4371D01*
X891Y4371D02*
X898Y4371D01*
X200Y4370D02*
X207Y4370D01*
X891Y4370D02*
X898Y4370D01*
X200Y4369D02*
X207Y4369D01*
X891Y4369D02*
X898Y4369D01*
X200Y4368D02*
X207Y4368D01*
X891Y4368D02*
X898Y4368D01*
X200Y4367D02*
X207Y4367D01*
X891Y4367D02*
X898Y4367D01*
X200Y4366D02*
X207Y4366D01*
X891Y4366D02*
X898Y4366D01*
X200Y4365D02*
X207Y4365D01*
X891Y4365D02*
X898Y4365D01*
X200Y4364D02*
X207Y4364D01*
X891Y4364D02*
X898Y4364D01*
X200Y4363D02*
X207Y4363D01*
X891Y4363D02*
X898Y4363D01*
X200Y4362D02*
X207Y4362D01*
X891Y4362D02*
X898Y4362D01*
X200Y4361D02*
X207Y4361D01*
X891Y4361D02*
X898Y4361D01*
X200Y4360D02*
X207Y4360D01*
X891Y4360D02*
X898Y4360D01*
X200Y4359D02*
X207Y4359D01*
X891Y4359D02*
X898Y4359D01*
X200Y4358D02*
X207Y4358D01*
X891Y4358D02*
X898Y4358D01*
X200Y4357D02*
X207Y4357D01*
X891Y4357D02*
X898Y4357D01*
X200Y4356D02*
X207Y4356D01*
X891Y4356D02*
X898Y4356D01*
X200Y4355D02*
X207Y4355D01*
X891Y4355D02*
X898Y4355D01*
X200Y4354D02*
X207Y4354D01*
X891Y4354D02*
X898Y4354D01*
X200Y4353D02*
X207Y4353D01*
X891Y4353D02*
X898Y4353D01*
X200Y4352D02*
X207Y4352D01*
X891Y4352D02*
X898Y4352D01*
X200Y4351D02*
X207Y4351D01*
X891Y4351D02*
X898Y4351D01*
X200Y4350D02*
X207Y4350D01*
X891Y4350D02*
X898Y4350D01*
X200Y4349D02*
X207Y4349D01*
X891Y4349D02*
X898Y4349D01*
X200Y4348D02*
X207Y4348D01*
X891Y4348D02*
X898Y4348D01*
X200Y4347D02*
X207Y4347D01*
X891Y4347D02*
X898Y4347D01*
X200Y4346D02*
X207Y4346D01*
X891Y4346D02*
X898Y4346D01*
X200Y4345D02*
X207Y4345D01*
X891Y4345D02*
X898Y4345D01*
X200Y4344D02*
X207Y4344D01*
X891Y4344D02*
X898Y4344D01*
X200Y4343D02*
X207Y4343D01*
X891Y4343D02*
X898Y4343D01*
X200Y4342D02*
X207Y4342D01*
X891Y4342D02*
X898Y4342D01*
X200Y4341D02*
X207Y4341D01*
X891Y4341D02*
X898Y4341D01*
X200Y4340D02*
X207Y4340D01*
X891Y4340D02*
X898Y4340D01*
X200Y4339D02*
X207Y4339D01*
X891Y4339D02*
X898Y4339D01*
X200Y4338D02*
X207Y4338D01*
X891Y4338D02*
X898Y4338D01*
X200Y4337D02*
X207Y4337D01*
X891Y4337D02*
X898Y4337D01*
X200Y4336D02*
X207Y4336D01*
X891Y4336D02*
X898Y4336D01*
X200Y4335D02*
X207Y4335D01*
X891Y4335D02*
X898Y4335D01*
X200Y4334D02*
X207Y4334D01*
X891Y4334D02*
X898Y4334D01*
X200Y4333D02*
X207Y4333D01*
X891Y4333D02*
X898Y4333D01*
X200Y4332D02*
X207Y4332D01*
X891Y4332D02*
X898Y4332D01*
X200Y4331D02*
X207Y4331D01*
X891Y4331D02*
X898Y4331D01*
X200Y4330D02*
X207Y4330D01*
X891Y4330D02*
X898Y4330D01*
X200Y4329D02*
X207Y4329D01*
X891Y4329D02*
X898Y4329D01*
X200Y4328D02*
X207Y4328D01*
X891Y4328D02*
X898Y4328D01*
X200Y4327D02*
X207Y4327D01*
X891Y4327D02*
X898Y4327D01*
X200Y4326D02*
X207Y4326D01*
X891Y4326D02*
X898Y4326D01*
X200Y4325D02*
X207Y4325D01*
X891Y4325D02*
X898Y4325D01*
X200Y4324D02*
X207Y4324D01*
X891Y4324D02*
X898Y4324D01*
X200Y4323D02*
X207Y4323D01*
X891Y4323D02*
X898Y4323D01*
X200Y4322D02*
X207Y4322D01*
X891Y4322D02*
X898Y4322D01*
X200Y4321D02*
X207Y4321D01*
X891Y4321D02*
X898Y4321D01*
X200Y4320D02*
X207Y4320D01*
X891Y4320D02*
X898Y4320D01*
X200Y4319D02*
X207Y4319D01*
X891Y4319D02*
X898Y4319D01*
X200Y4318D02*
X207Y4318D01*
X891Y4318D02*
X898Y4318D01*
X200Y4317D02*
X207Y4317D01*
X891Y4317D02*
X898Y4317D01*
X200Y4316D02*
X207Y4316D01*
X891Y4316D02*
X898Y4316D01*
X200Y4315D02*
X207Y4315D01*
X891Y4315D02*
X898Y4315D01*
X200Y4314D02*
X207Y4314D01*
X891Y4314D02*
X898Y4314D01*
X200Y4313D02*
X207Y4313D01*
X891Y4313D02*
X898Y4313D01*
X200Y4312D02*
X207Y4312D01*
X891Y4312D02*
X898Y4312D01*
X200Y4311D02*
X207Y4311D01*
X891Y4311D02*
X898Y4311D01*
X200Y4310D02*
X207Y4310D01*
X891Y4310D02*
X898Y4310D01*
X200Y4309D02*
X207Y4309D01*
X891Y4309D02*
X898Y4309D01*
X200Y4308D02*
X207Y4308D01*
X891Y4308D02*
X898Y4308D01*
X200Y4307D02*
X207Y4307D01*
X891Y4307D02*
X898Y4307D01*
X200Y4306D02*
X207Y4306D01*
X891Y4306D02*
X898Y4306D01*
X200Y4305D02*
X207Y4305D01*
X891Y4305D02*
X898Y4305D01*
X200Y4304D02*
X207Y4304D01*
X891Y4304D02*
X898Y4304D01*
X200Y4303D02*
X207Y4303D01*
X891Y4303D02*
X898Y4303D01*
X200Y4302D02*
X207Y4302D01*
X891Y4302D02*
X898Y4302D01*
X200Y4301D02*
X207Y4301D01*
X891Y4301D02*
X898Y4301D01*
X200Y4300D02*
X207Y4300D01*
X891Y4300D02*
X898Y4300D01*
X200Y4299D02*
X207Y4299D01*
X891Y4299D02*
X898Y4299D01*
X200Y4298D02*
X207Y4298D01*
X891Y4298D02*
X898Y4298D01*
X200Y4297D02*
X207Y4297D01*
X891Y4297D02*
X898Y4297D01*
X200Y4296D02*
X207Y4296D01*
X891Y4296D02*
X898Y4296D01*
X200Y4295D02*
X207Y4295D01*
X891Y4295D02*
X898Y4295D01*
X200Y4294D02*
X207Y4294D01*
X891Y4294D02*
X898Y4294D01*
X200Y4293D02*
X207Y4293D01*
X891Y4293D02*
X898Y4293D01*
X200Y4292D02*
X207Y4292D01*
X891Y4292D02*
X898Y4292D01*
X200Y4291D02*
X207Y4291D01*
X891Y4291D02*
X898Y4291D01*
X200Y4290D02*
X207Y4290D01*
X891Y4290D02*
X898Y4290D01*
X200Y4289D02*
X207Y4289D01*
X891Y4289D02*
X898Y4289D01*
X200Y4288D02*
X207Y4288D01*
X891Y4288D02*
X898Y4288D01*
X200Y4287D02*
X207Y4287D01*
X891Y4287D02*
X898Y4287D01*
X200Y4286D02*
X207Y4286D01*
X891Y4286D02*
X898Y4286D01*
X200Y4285D02*
X207Y4285D01*
X891Y4285D02*
X898Y4285D01*
X200Y4284D02*
X207Y4284D01*
X891Y4284D02*
X898Y4284D01*
X200Y4283D02*
X207Y4283D01*
X891Y4283D02*
X898Y4283D01*
X200Y4282D02*
X207Y4282D01*
X891Y4282D02*
X898Y4282D01*
X200Y4281D02*
X207Y4281D01*
X891Y4281D02*
X898Y4281D01*
X200Y4280D02*
X207Y4280D01*
X891Y4280D02*
X898Y4280D01*
X200Y4279D02*
X207Y4279D01*
X891Y4279D02*
X898Y4279D01*
X200Y4278D02*
X207Y4278D01*
X891Y4278D02*
X898Y4278D01*
X200Y4277D02*
X207Y4277D01*
X891Y4277D02*
X898Y4277D01*
X200Y4276D02*
X207Y4276D01*
X891Y4276D02*
X898Y4276D01*
X200Y4275D02*
X207Y4275D01*
X891Y4275D02*
X898Y4275D01*
X200Y4274D02*
X207Y4274D01*
X891Y4274D02*
X898Y4274D01*
X200Y4273D02*
X207Y4273D01*
X891Y4273D02*
X898Y4273D01*
X200Y4272D02*
X207Y4272D01*
X891Y4272D02*
X898Y4272D01*
X200Y4271D02*
X207Y4271D01*
X891Y4271D02*
X898Y4271D01*
X200Y4270D02*
X207Y4270D01*
X891Y4270D02*
X898Y4270D01*
X200Y4269D02*
X207Y4269D01*
X891Y4269D02*
X898Y4269D01*
X200Y4268D02*
X207Y4268D01*
X891Y4268D02*
X898Y4268D01*
X200Y4267D02*
X207Y4267D01*
X891Y4267D02*
X898Y4267D01*
X200Y4266D02*
X207Y4266D01*
X891Y4266D02*
X898Y4266D01*
X200Y4265D02*
X207Y4265D01*
X891Y4265D02*
X898Y4265D01*
X200Y4264D02*
X207Y4264D01*
X891Y4264D02*
X898Y4264D01*
X200Y4263D02*
X207Y4263D01*
X891Y4263D02*
X898Y4263D01*
X200Y4262D02*
X207Y4262D01*
X891Y4262D02*
X898Y4262D01*
X200Y4261D02*
X207Y4261D01*
X891Y4261D02*
X898Y4261D01*
X200Y4260D02*
X207Y4260D01*
X891Y4260D02*
X898Y4260D01*
X200Y4259D02*
X207Y4259D01*
X891Y4259D02*
X898Y4259D01*
X200Y4258D02*
X207Y4258D01*
X891Y4258D02*
X898Y4258D01*
X200Y4257D02*
X207Y4257D01*
X891Y4257D02*
X898Y4257D01*
X200Y4256D02*
X207Y4256D01*
X891Y4256D02*
X898Y4256D01*
X200Y4255D02*
X207Y4255D01*
X891Y4255D02*
X898Y4255D01*
X200Y4254D02*
X207Y4254D01*
X891Y4254D02*
X898Y4254D01*
X200Y4253D02*
X207Y4253D01*
X891Y4253D02*
X898Y4253D01*
X200Y4252D02*
X207Y4252D01*
X891Y4252D02*
X898Y4252D01*
X200Y4251D02*
X207Y4251D01*
X891Y4251D02*
X898Y4251D01*
X200Y4250D02*
X207Y4250D01*
X891Y4250D02*
X898Y4250D01*
X200Y4249D02*
X207Y4249D01*
X891Y4249D02*
X898Y4249D01*
X200Y4248D02*
X207Y4248D01*
X891Y4248D02*
X898Y4248D01*
X200Y4247D02*
X207Y4247D01*
X891Y4247D02*
X898Y4247D01*
X200Y4246D02*
X207Y4246D01*
X891Y4246D02*
X898Y4246D01*
X200Y4245D02*
X207Y4245D01*
X891Y4245D02*
X898Y4245D01*
X200Y4244D02*
X207Y4244D01*
X891Y4244D02*
X898Y4244D01*
X200Y4243D02*
X207Y4243D01*
X891Y4243D02*
X898Y4243D01*
X200Y4242D02*
X207Y4242D01*
X891Y4242D02*
X898Y4242D01*
X200Y4241D02*
X207Y4241D01*
X891Y4241D02*
X898Y4241D01*
X200Y4240D02*
X207Y4240D01*
X891Y4240D02*
X898Y4240D01*
X200Y4239D02*
X207Y4239D01*
X891Y4239D02*
X898Y4239D01*
X200Y4238D02*
X207Y4238D01*
X891Y4238D02*
X898Y4238D01*
X200Y4237D02*
X207Y4237D01*
X891Y4237D02*
X898Y4237D01*
X200Y4236D02*
X207Y4236D01*
X891Y4236D02*
X898Y4236D01*
X200Y4235D02*
X207Y4235D01*
X891Y4235D02*
X898Y4235D01*
X200Y4234D02*
X207Y4234D01*
X891Y4234D02*
X898Y4234D01*
X200Y4233D02*
X207Y4233D01*
X891Y4233D02*
X898Y4233D01*
X200Y4232D02*
X207Y4232D01*
X891Y4232D02*
X898Y4232D01*
X200Y4231D02*
X207Y4231D01*
X891Y4231D02*
X898Y4231D01*
X200Y4230D02*
X207Y4230D01*
X891Y4230D02*
X898Y4230D01*
X200Y4229D02*
X207Y4229D01*
X891Y4229D02*
X898Y4229D01*
X200Y4228D02*
X207Y4228D01*
X891Y4228D02*
X898Y4228D01*
X200Y4227D02*
X207Y4227D01*
X891Y4227D02*
X898Y4227D01*
X200Y4226D02*
X207Y4226D01*
X891Y4226D02*
X898Y4226D01*
X200Y4225D02*
X207Y4225D01*
X891Y4225D02*
X898Y4225D01*
X200Y4224D02*
X207Y4224D01*
X891Y4224D02*
X898Y4224D01*
X200Y4223D02*
X207Y4223D01*
X891Y4223D02*
X898Y4223D01*
X200Y4222D02*
X207Y4222D01*
X891Y4222D02*
X898Y4222D01*
X200Y4221D02*
X207Y4221D01*
X891Y4221D02*
X898Y4221D01*
X200Y4220D02*
X207Y4220D01*
X891Y4220D02*
X898Y4220D01*
X200Y4219D02*
X207Y4219D01*
X891Y4219D02*
X898Y4219D01*
X200Y4218D02*
X207Y4218D01*
X891Y4218D02*
X898Y4218D01*
X200Y4217D02*
X207Y4217D01*
X891Y4217D02*
X898Y4217D01*
X200Y4216D02*
X207Y4216D01*
X891Y4216D02*
X898Y4216D01*
X200Y4215D02*
X207Y4215D01*
X891Y4215D02*
X898Y4215D01*
X200Y4214D02*
X207Y4214D01*
X891Y4214D02*
X898Y4214D01*
X200Y4213D02*
X207Y4213D01*
X891Y4213D02*
X898Y4213D01*
X200Y4212D02*
X207Y4212D01*
X891Y4212D02*
X898Y4212D01*
X200Y4211D02*
X207Y4211D01*
X891Y4211D02*
X898Y4211D01*
X200Y4210D02*
X207Y4210D01*
X891Y4210D02*
X898Y4210D01*
X200Y4209D02*
X207Y4209D01*
X891Y4209D02*
X898Y4209D01*
X200Y4208D02*
X207Y4208D01*
X891Y4208D02*
X898Y4208D01*
X200Y4207D02*
X207Y4207D01*
X891Y4207D02*
X898Y4207D01*
X200Y4206D02*
X207Y4206D01*
X891Y4206D02*
X898Y4206D01*
X200Y4205D02*
X207Y4205D01*
X891Y4205D02*
X898Y4205D01*
X200Y4204D02*
X207Y4204D01*
X891Y4204D02*
X898Y4204D01*
X200Y4203D02*
X207Y4203D01*
X891Y4203D02*
X898Y4203D01*
X200Y4202D02*
X207Y4202D01*
X891Y4202D02*
X898Y4202D01*
X200Y4201D02*
X207Y4201D01*
X891Y4201D02*
X898Y4201D01*
X200Y4200D02*
X207Y4200D01*
X891Y4200D02*
X898Y4200D01*
X200Y4199D02*
X207Y4199D01*
X891Y4199D02*
X898Y4199D01*
X200Y4198D02*
X207Y4198D01*
X891Y4198D02*
X898Y4198D01*
X200Y4197D02*
X207Y4197D01*
X891Y4197D02*
X898Y4197D01*
X200Y4196D02*
X207Y4196D01*
X891Y4196D02*
X898Y4196D01*
X200Y4195D02*
X207Y4195D01*
X891Y4195D02*
X898Y4195D01*
X200Y4194D02*
X207Y4194D01*
X891Y4194D02*
X898Y4194D01*
X200Y4193D02*
X207Y4193D01*
X891Y4193D02*
X898Y4193D01*
X200Y4192D02*
X207Y4192D01*
X891Y4192D02*
X898Y4192D01*
X200Y4191D02*
X207Y4191D01*
X891Y4191D02*
X898Y4191D01*
X200Y4190D02*
X207Y4190D01*
X891Y4190D02*
X898Y4190D01*
X200Y4189D02*
X207Y4189D01*
X891Y4189D02*
X898Y4189D01*
X200Y4188D02*
X207Y4188D01*
X891Y4188D02*
X898Y4188D01*
X200Y4187D02*
X207Y4187D01*
X891Y4187D02*
X898Y4187D01*
X200Y4186D02*
X207Y4186D01*
X891Y4186D02*
X898Y4186D01*
X200Y4185D02*
X207Y4185D01*
X891Y4185D02*
X898Y4185D01*
X200Y4184D02*
X207Y4184D01*
X891Y4184D02*
X898Y4184D01*
X200Y4183D02*
X207Y4183D01*
X891Y4183D02*
X898Y4183D01*
X200Y4182D02*
X207Y4182D01*
X891Y4182D02*
X898Y4182D01*
X200Y4181D02*
X207Y4181D01*
X891Y4181D02*
X898Y4181D01*
X200Y4180D02*
X207Y4180D01*
X891Y4180D02*
X898Y4180D01*
X200Y4179D02*
X207Y4179D01*
X891Y4179D02*
X898Y4179D01*
X200Y4178D02*
X207Y4178D01*
X891Y4178D02*
X898Y4178D01*
X200Y4177D02*
X207Y4177D01*
X891Y4177D02*
X898Y4177D01*
X200Y4176D02*
X207Y4176D01*
X891Y4176D02*
X898Y4176D01*
X200Y4175D02*
X207Y4175D01*
X891Y4175D02*
X898Y4175D01*
X200Y4174D02*
X207Y4174D01*
X891Y4174D02*
X898Y4174D01*
X200Y4173D02*
X207Y4173D01*
X891Y4173D02*
X898Y4173D01*
X200Y4172D02*
X207Y4172D01*
X891Y4172D02*
X898Y4172D01*
X200Y4171D02*
X207Y4171D01*
X891Y4171D02*
X898Y4171D01*
X200Y4170D02*
X207Y4170D01*
X891Y4170D02*
X898Y4170D01*
X200Y4169D02*
X207Y4169D01*
X891Y4169D02*
X898Y4169D01*
X200Y4168D02*
X207Y4168D01*
X891Y4168D02*
X898Y4168D01*
X200Y4167D02*
X207Y4167D01*
X891Y4167D02*
X898Y4167D01*
X200Y4166D02*
X207Y4166D01*
X891Y4166D02*
X898Y4166D01*
X200Y4165D02*
X207Y4165D01*
X891Y4165D02*
X898Y4165D01*
X200Y4164D02*
X207Y4164D01*
X891Y4164D02*
X898Y4164D01*
X200Y4163D02*
X207Y4163D01*
X891Y4163D02*
X898Y4163D01*
X200Y4162D02*
X207Y4162D01*
X891Y4162D02*
X898Y4162D01*
X200Y4161D02*
X207Y4161D01*
X891Y4161D02*
X898Y4161D01*
X200Y4160D02*
X207Y4160D01*
X891Y4160D02*
X898Y4160D01*
X200Y4159D02*
X207Y4159D01*
X891Y4159D02*
X898Y4159D01*
X200Y4158D02*
X207Y4158D01*
X891Y4158D02*
X898Y4158D01*
X200Y4157D02*
X207Y4157D01*
X891Y4157D02*
X898Y4157D01*
X200Y4156D02*
X207Y4156D01*
X891Y4156D02*
X898Y4156D01*
X200Y4155D02*
X207Y4155D01*
X891Y4155D02*
X898Y4155D01*
X200Y4154D02*
X207Y4154D01*
X891Y4154D02*
X898Y4154D01*
X200Y4153D02*
X207Y4153D01*
X891Y4153D02*
X898Y4153D01*
X200Y4152D02*
X207Y4152D01*
X891Y4152D02*
X898Y4152D01*
X200Y4151D02*
X207Y4151D01*
X891Y4151D02*
X898Y4151D01*
X200Y4150D02*
X207Y4150D01*
X891Y4150D02*
X898Y4150D01*
X200Y4149D02*
X207Y4149D01*
X891Y4149D02*
X898Y4149D01*
X200Y4148D02*
X207Y4148D01*
X891Y4148D02*
X898Y4148D01*
X200Y4147D02*
X207Y4147D01*
X891Y4147D02*
X898Y4147D01*
X200Y4146D02*
X207Y4146D01*
X891Y4146D02*
X898Y4146D01*
X200Y4145D02*
X207Y4145D01*
X891Y4145D02*
X898Y4145D01*
X200Y4144D02*
X207Y4144D01*
X891Y4144D02*
X898Y4144D01*
X200Y4143D02*
X207Y4143D01*
X891Y4143D02*
X898Y4143D01*
X200Y4142D02*
X207Y4142D01*
X891Y4142D02*
X898Y4142D01*
X200Y4141D02*
X207Y4141D01*
X891Y4141D02*
X898Y4141D01*
X200Y4140D02*
X207Y4140D01*
X891Y4140D02*
X898Y4140D01*
X200Y4139D02*
X207Y4139D01*
X891Y4139D02*
X898Y4139D01*
X200Y4138D02*
X207Y4138D01*
X891Y4138D02*
X898Y4138D01*
X200Y4137D02*
X207Y4137D01*
X891Y4137D02*
X898Y4137D01*
X200Y4136D02*
X207Y4136D01*
X891Y4136D02*
X898Y4136D01*
X200Y4135D02*
X207Y4135D01*
X891Y4135D02*
X898Y4135D01*
X200Y4134D02*
X207Y4134D01*
X891Y4134D02*
X898Y4134D01*
X200Y4133D02*
X207Y4133D01*
X891Y4133D02*
X898Y4133D01*
X200Y4132D02*
X207Y4132D01*
X891Y4132D02*
X898Y4132D01*
X200Y4131D02*
X207Y4131D01*
X891Y4131D02*
X898Y4131D01*
X200Y4130D02*
X207Y4130D01*
X891Y4130D02*
X898Y4130D01*
X200Y4129D02*
X207Y4129D01*
X891Y4129D02*
X898Y4129D01*
X200Y4128D02*
X207Y4128D01*
X891Y4128D02*
X898Y4128D01*
X200Y4127D02*
X207Y4127D01*
X891Y4127D02*
X898Y4127D01*
X200Y4126D02*
X207Y4126D01*
X891Y4126D02*
X898Y4126D01*
X200Y4125D02*
X207Y4125D01*
X891Y4125D02*
X898Y4125D01*
X200Y4124D02*
X207Y4124D01*
X891Y4124D02*
X898Y4124D01*
X200Y4123D02*
X207Y4123D01*
X891Y4123D02*
X898Y4123D01*
X200Y4122D02*
X207Y4122D01*
X891Y4122D02*
X898Y4122D01*
X200Y4121D02*
X207Y4121D01*
X891Y4121D02*
X898Y4121D01*
X200Y4120D02*
X207Y4120D01*
X891Y4120D02*
X898Y4120D01*
X200Y4119D02*
X207Y4119D01*
X891Y4119D02*
X898Y4119D01*
X200Y4118D02*
X207Y4118D01*
X891Y4118D02*
X898Y4118D01*
X200Y4117D02*
X207Y4117D01*
X891Y4117D02*
X898Y4117D01*
X200Y4116D02*
X207Y4116D01*
X891Y4116D02*
X898Y4116D01*
X200Y4115D02*
X207Y4115D01*
X891Y4115D02*
X898Y4115D01*
X200Y4114D02*
X207Y4114D01*
X891Y4114D02*
X898Y4114D01*
X200Y4113D02*
X207Y4113D01*
X891Y4113D02*
X898Y4113D01*
X200Y4112D02*
X207Y4112D01*
X891Y4112D02*
X898Y4112D01*
X200Y4111D02*
X207Y4111D01*
X891Y4111D02*
X898Y4111D01*
X200Y4110D02*
X207Y4110D01*
X891Y4110D02*
X898Y4110D01*
X200Y4109D02*
X207Y4109D01*
X891Y4109D02*
X898Y4109D01*
X200Y4108D02*
X207Y4108D01*
X891Y4108D02*
X898Y4108D01*
X200Y4107D02*
X207Y4107D01*
X891Y4107D02*
X898Y4107D01*
X200Y4106D02*
X207Y4106D01*
X891Y4106D02*
X898Y4106D01*
X200Y4105D02*
X207Y4105D01*
X891Y4105D02*
X898Y4105D01*
X200Y4104D02*
X207Y4104D01*
X891Y4104D02*
X898Y4104D01*
X200Y4103D02*
X207Y4103D01*
X891Y4103D02*
X898Y4103D01*
X200Y4102D02*
X207Y4102D01*
X891Y4102D02*
X898Y4102D01*
X200Y4101D02*
X207Y4101D01*
X891Y4101D02*
X898Y4101D01*
X200Y4100D02*
X207Y4100D01*
X891Y4100D02*
X898Y4100D01*
X200Y4099D02*
X207Y4099D01*
X891Y4099D02*
X898Y4099D01*
X200Y4098D02*
X207Y4098D01*
X891Y4098D02*
X898Y4098D01*
X200Y4097D02*
X207Y4097D01*
X891Y4097D02*
X898Y4097D01*
X200Y4096D02*
X207Y4096D01*
X891Y4096D02*
X898Y4096D01*
X200Y4095D02*
X207Y4095D01*
X891Y4095D02*
X898Y4095D01*
X200Y4094D02*
X207Y4094D01*
X891Y4094D02*
X898Y4094D01*
X200Y4093D02*
X207Y4093D01*
X891Y4093D02*
X898Y4093D01*
X200Y4092D02*
X207Y4092D01*
X891Y4092D02*
X898Y4092D01*
X200Y4091D02*
X207Y4091D01*
X891Y4091D02*
X898Y4091D01*
X200Y4090D02*
X207Y4090D01*
X891Y4090D02*
X898Y4090D01*
X200Y4089D02*
X207Y4089D01*
X891Y4089D02*
X898Y4089D01*
X200Y4088D02*
X207Y4088D01*
X891Y4088D02*
X898Y4088D01*
X200Y4087D02*
X207Y4087D01*
X891Y4087D02*
X898Y4087D01*
X200Y4086D02*
X207Y4086D01*
X891Y4086D02*
X898Y4086D01*
X200Y4085D02*
X207Y4085D01*
X891Y4085D02*
X898Y4085D01*
X200Y4084D02*
X207Y4084D01*
X891Y4084D02*
X898Y4084D01*
X200Y4083D02*
X207Y4083D01*
X891Y4083D02*
X898Y4083D01*
X200Y4082D02*
X207Y4082D01*
X891Y4082D02*
X898Y4082D01*
X200Y4081D02*
X207Y4081D01*
X891Y4081D02*
X898Y4081D01*
X200Y4080D02*
X207Y4080D01*
X891Y4080D02*
X898Y4080D01*
X200Y4079D02*
X207Y4079D01*
X891Y4079D02*
X898Y4079D01*
X200Y4078D02*
X207Y4078D01*
X891Y4078D02*
X898Y4078D01*
X200Y4077D02*
X207Y4077D01*
X891Y4077D02*
X898Y4077D01*
X200Y4076D02*
X207Y4076D01*
X891Y4076D02*
X898Y4076D01*
X200Y4075D02*
X207Y4075D01*
X891Y4075D02*
X898Y4075D01*
X200Y4074D02*
X207Y4074D01*
X891Y4074D02*
X898Y4074D01*
X200Y4073D02*
X207Y4073D01*
X891Y4073D02*
X898Y4073D01*
X200Y4072D02*
X207Y4072D01*
X891Y4072D02*
X898Y4072D01*
X200Y4071D02*
X207Y4071D01*
X891Y4071D02*
X898Y4071D01*
X200Y4070D02*
X207Y4070D01*
X891Y4070D02*
X898Y4070D01*
X200Y4069D02*
X207Y4069D01*
X891Y4069D02*
X898Y4069D01*
X200Y4068D02*
X207Y4068D01*
X891Y4068D02*
X898Y4068D01*
X200Y4067D02*
X207Y4067D01*
X891Y4067D02*
X898Y4067D01*
X200Y4066D02*
X207Y4066D01*
X891Y4066D02*
X898Y4066D01*
X200Y4065D02*
X207Y4065D01*
X891Y4065D02*
X898Y4065D01*
X200Y4064D02*
X207Y4064D01*
X891Y4064D02*
X898Y4064D01*
X200Y4063D02*
X207Y4063D01*
X891Y4063D02*
X898Y4063D01*
X200Y4062D02*
X207Y4062D01*
X891Y4062D02*
X898Y4062D01*
X200Y4061D02*
X207Y4061D01*
X891Y4061D02*
X898Y4061D01*
X200Y4060D02*
X207Y4060D01*
X891Y4060D02*
X898Y4060D01*
X200Y4059D02*
X207Y4059D01*
X891Y4059D02*
X898Y4059D01*
X200Y4058D02*
X207Y4058D01*
X891Y4058D02*
X898Y4058D01*
X200Y4057D02*
X207Y4057D01*
X891Y4057D02*
X898Y4057D01*
X200Y4056D02*
X207Y4056D01*
X891Y4056D02*
X898Y4056D01*
X200Y4055D02*
X207Y4055D01*
X891Y4055D02*
X898Y4055D01*
X200Y4054D02*
X207Y4054D01*
X891Y4054D02*
X898Y4054D01*
X200Y4053D02*
X207Y4053D01*
X891Y4053D02*
X898Y4053D01*
X200Y4052D02*
X207Y4052D01*
X891Y4052D02*
X898Y4052D01*
X200Y4051D02*
X207Y4051D01*
X891Y4051D02*
X898Y4051D01*
X200Y4050D02*
X207Y4050D01*
X891Y4050D02*
X898Y4050D01*
X200Y4049D02*
X207Y4049D01*
X891Y4049D02*
X898Y4049D01*
X200Y4048D02*
X207Y4048D01*
X891Y4048D02*
X898Y4048D01*
X200Y4047D02*
X207Y4047D01*
X891Y4047D02*
X898Y4047D01*
X200Y4046D02*
X207Y4046D01*
X891Y4046D02*
X898Y4046D01*
X200Y4045D02*
X207Y4045D01*
X891Y4045D02*
X898Y4045D01*
X200Y4044D02*
X207Y4044D01*
X891Y4044D02*
X898Y4044D01*
X200Y4043D02*
X207Y4043D01*
X891Y4043D02*
X898Y4043D01*
X200Y4042D02*
X207Y4042D01*
X891Y4042D02*
X898Y4042D01*
X200Y4041D02*
X207Y4041D01*
X891Y4041D02*
X898Y4041D01*
X200Y4040D02*
X207Y4040D01*
X891Y4040D02*
X898Y4040D01*
X200Y4039D02*
X207Y4039D01*
X891Y4039D02*
X898Y4039D01*
X200Y4038D02*
X207Y4038D01*
X891Y4038D02*
X898Y4038D01*
X200Y4037D02*
X207Y4037D01*
X891Y4037D02*
X898Y4037D01*
X200Y4036D02*
X207Y4036D01*
X891Y4036D02*
X898Y4036D01*
X200Y4035D02*
X207Y4035D01*
X891Y4035D02*
X898Y4035D01*
X200Y4034D02*
X207Y4034D01*
X891Y4034D02*
X898Y4034D01*
X200Y4033D02*
X207Y4033D01*
X891Y4033D02*
X898Y4033D01*
X200Y4032D02*
X207Y4032D01*
X891Y4032D02*
X898Y4032D01*
X200Y4031D02*
X207Y4031D01*
X891Y4031D02*
X898Y4031D01*
X200Y4030D02*
X207Y4030D01*
X891Y4030D02*
X898Y4030D01*
X200Y4029D02*
X207Y4029D01*
X891Y4029D02*
X898Y4029D01*
X200Y4028D02*
X207Y4028D01*
X891Y4028D02*
X898Y4028D01*
X200Y4027D02*
X207Y4027D01*
X891Y4027D02*
X898Y4027D01*
X200Y4026D02*
X207Y4026D01*
X891Y4026D02*
X898Y4026D01*
X200Y4025D02*
X207Y4025D01*
X891Y4025D02*
X898Y4025D01*
X200Y4024D02*
X207Y4024D01*
X891Y4024D02*
X898Y4024D01*
X200Y4023D02*
X207Y4023D01*
X891Y4023D02*
X898Y4023D01*
X200Y4022D02*
X207Y4022D01*
X891Y4022D02*
X898Y4022D01*
X200Y4021D02*
X207Y4021D01*
X891Y4021D02*
X898Y4021D01*
X200Y4020D02*
X207Y4020D01*
X891Y4020D02*
X898Y4020D01*
X200Y4019D02*
X207Y4019D01*
X891Y4019D02*
X898Y4019D01*
X200Y4018D02*
X207Y4018D01*
X891Y4018D02*
X898Y4018D01*
X200Y4017D02*
X207Y4017D01*
X891Y4017D02*
X898Y4017D01*
X200Y4016D02*
X207Y4016D01*
X891Y4016D02*
X898Y4016D01*
X200Y4015D02*
X207Y4015D01*
X891Y4015D02*
X898Y4015D01*
X200Y4014D02*
X207Y4014D01*
X891Y4014D02*
X898Y4014D01*
X200Y4013D02*
X207Y4013D01*
X891Y4013D02*
X898Y4013D01*
X200Y4012D02*
X207Y4012D01*
X891Y4012D02*
X898Y4012D01*
X200Y4011D02*
X207Y4011D01*
X891Y4011D02*
X898Y4011D01*
X200Y4010D02*
X207Y4010D01*
X891Y4010D02*
X898Y4010D01*
X200Y4009D02*
X207Y4009D01*
X891Y4009D02*
X898Y4009D01*
X200Y4008D02*
X207Y4008D01*
X891Y4008D02*
X898Y4008D01*
X200Y4007D02*
X207Y4007D01*
X891Y4007D02*
X898Y4007D01*
X200Y4006D02*
X207Y4006D01*
X891Y4006D02*
X898Y4006D01*
X200Y4005D02*
X207Y4005D01*
X891Y4005D02*
X898Y4005D01*
X200Y4004D02*
X207Y4004D01*
X891Y4004D02*
X898Y4004D01*
X200Y4003D02*
X207Y4003D01*
X891Y4003D02*
X898Y4003D01*
X200Y4002D02*
X207Y4002D01*
X891Y4002D02*
X898Y4002D01*
X200Y4001D02*
X207Y4001D01*
X891Y4001D02*
X898Y4001D01*
X200Y4000D02*
X207Y4000D01*
X891Y4000D02*
X898Y4000D01*
X200Y3999D02*
X207Y3999D01*
X891Y3999D02*
X898Y3999D01*
X200Y3998D02*
X207Y3998D01*
X891Y3998D02*
X898Y3998D01*
X200Y3997D02*
X207Y3997D01*
X891Y3997D02*
X898Y3997D01*
X200Y3996D02*
X207Y3996D01*
X891Y3996D02*
X898Y3996D01*
X200Y3995D02*
X207Y3995D01*
X891Y3995D02*
X898Y3995D01*
X200Y3994D02*
X207Y3994D01*
X891Y3994D02*
X898Y3994D01*
X200Y3993D02*
X207Y3993D01*
X891Y3993D02*
X898Y3993D01*
X200Y3992D02*
X207Y3992D01*
X891Y3992D02*
X898Y3992D01*
X200Y3991D02*
X207Y3991D01*
X891Y3991D02*
X898Y3991D01*
X200Y3990D02*
X207Y3990D01*
X891Y3990D02*
X898Y3990D01*
X200Y3989D02*
X207Y3989D01*
X891Y3989D02*
X898Y3989D01*
X200Y3988D02*
X207Y3988D01*
X891Y3988D02*
X898Y3988D01*
X200Y3987D02*
X207Y3987D01*
X891Y3987D02*
X898Y3987D01*
X200Y3986D02*
X207Y3986D01*
X891Y3986D02*
X898Y3986D01*
X200Y3985D02*
X207Y3985D01*
X891Y3985D02*
X898Y3985D01*
X200Y3984D02*
X207Y3984D01*
X891Y3984D02*
X898Y3984D01*
X200Y3983D02*
X207Y3983D01*
X891Y3983D02*
X898Y3983D01*
X200Y3982D02*
X207Y3982D01*
X891Y3982D02*
X898Y3982D01*
X200Y3981D02*
X207Y3981D01*
X891Y3981D02*
X898Y3981D01*
X199Y3980D02*
X207Y3980D01*
X891Y3980D02*
X899Y3980D01*
X200Y3979D02*
X207Y3979D01*
X891Y3979D02*
X898Y3979D01*
X200Y3978D02*
X207Y3978D01*
X891Y3978D02*
X898Y3978D01*
X200Y3977D02*
X207Y3977D01*
X891Y3977D02*
X898Y3977D01*
X199Y3976D02*
X207Y3976D01*
X891Y3976D02*
X898Y3976D01*
X200Y3975D02*
X207Y3975D01*
X891Y3975D02*
X898Y3975D01*
X200Y3974D02*
X207Y3974D01*
X891Y3974D02*
X898Y3974D01*
X200Y3973D02*
X207Y3973D01*
X891Y3973D02*
X898Y3973D01*
X200Y3972D02*
X207Y3972D01*
X891Y3972D02*
X898Y3972D01*
X200Y3971D02*
X207Y3971D01*
X891Y3971D02*
X898Y3971D01*
X200Y3970D02*
X207Y3970D01*
X891Y3970D02*
X898Y3970D01*
X200Y3969D02*
X207Y3969D01*
X891Y3969D02*
X898Y3969D01*
X200Y3968D02*
X207Y3968D01*
X891Y3968D02*
X898Y3968D01*
X200Y3967D02*
X207Y3967D01*
X891Y3967D02*
X898Y3967D01*
X200Y3966D02*
X207Y3966D01*
X891Y3966D02*
X898Y3966D01*
X200Y3965D02*
X207Y3965D01*
X891Y3965D02*
X898Y3965D01*
X200Y3964D02*
X207Y3964D01*
X891Y3964D02*
X898Y3964D01*
X201Y3963D02*
X208Y3963D01*
X890Y3963D02*
X897Y3963D01*
X201Y3962D02*
X208Y3962D01*
X890Y3962D02*
X897Y3962D01*
X201Y3961D02*
X208Y3961D01*
X890Y3961D02*
X897Y3961D01*
X201Y3960D02*
X208Y3960D01*
X890Y3960D02*
X897Y3960D01*
X201Y3959D02*
X208Y3959D01*
X890Y3959D02*
X897Y3959D01*
X201Y3958D02*
X208Y3958D01*
X889Y3958D02*
X897Y3958D01*
X202Y3957D02*
X209Y3957D01*
X889Y3957D02*
X896Y3957D01*
X202Y3956D02*
X209Y3956D01*
X889Y3956D02*
X896Y3956D01*
X202Y3955D02*
X209Y3955D01*
X889Y3955D02*
X896Y3955D01*
X202Y3954D02*
X209Y3954D01*
X889Y3954D02*
X896Y3954D01*
X203Y3953D02*
X210Y3953D01*
X888Y3953D02*
X895Y3953D01*
X203Y3952D02*
X210Y3952D01*
X888Y3952D02*
X895Y3952D01*
X203Y3951D02*
X210Y3951D01*
X888Y3951D02*
X895Y3951D01*
X203Y3950D02*
X211Y3950D01*
X887Y3950D02*
X895Y3950D01*
X204Y3949D02*
X211Y3949D01*
X887Y3949D02*
X894Y3949D01*
X204Y3948D02*
X211Y3948D01*
X887Y3948D02*
X894Y3948D01*
X204Y3947D02*
X212Y3947D01*
X886Y3947D02*
X894Y3947D01*
X205Y3946D02*
X212Y3946D01*
X886Y3946D02*
X893Y3946D01*
X205Y3945D02*
X212Y3945D01*
X886Y3945D02*
X893Y3945D01*
X205Y3944D02*
X213Y3944D01*
X885Y3944D02*
X893Y3944D01*
X206Y3943D02*
X213Y3943D01*
X885Y3943D02*
X892Y3943D01*
X206Y3942D02*
X213Y3942D01*
X884Y3942D02*
X892Y3942D01*
X206Y3941D02*
X214Y3941D01*
X884Y3941D02*
X892Y3941D01*
X207Y3940D02*
X214Y3940D01*
X884Y3940D02*
X891Y3940D01*
X207Y3939D02*
X215Y3939D01*
X883Y3939D02*
X891Y3939D01*
X208Y3938D02*
X215Y3938D01*
X883Y3938D02*
X890Y3938D01*
X208Y3937D02*
X216Y3937D01*
X882Y3937D02*
X890Y3937D01*
X208Y3936D02*
X216Y3936D01*
X882Y3936D02*
X890Y3936D01*
X209Y3935D02*
X217Y3935D01*
X881Y3935D02*
X889Y3935D01*
X209Y3934D02*
X217Y3934D01*
X881Y3934D02*
X889Y3934D01*
X210Y3933D02*
X218Y3933D01*
X880Y3933D02*
X888Y3933D01*
X210Y3932D02*
X218Y3932D01*
X880Y3932D02*
X888Y3932D01*
X211Y3931D02*
X219Y3931D01*
X879Y3931D02*
X887Y3931D01*
X211Y3930D02*
X220Y3930D01*
X878Y3930D02*
X886Y3930D01*
X212Y3929D02*
X220Y3929D01*
X878Y3929D02*
X886Y3929D01*
X213Y3928D02*
X221Y3928D01*
X877Y3928D02*
X885Y3928D01*
X213Y3927D02*
X221Y3927D01*
X877Y3927D02*
X885Y3927D01*
X214Y3926D02*
X222Y3926D01*
X876Y3926D02*
X884Y3926D01*
X214Y3925D02*
X223Y3925D01*
X875Y3925D02*
X884Y3925D01*
X215Y3924D02*
X224Y3924D01*
X874Y3924D02*
X883Y3924D01*
X216Y3923D02*
X224Y3923D01*
X874Y3923D02*
X882Y3923D01*
X216Y3922D02*
X225Y3922D01*
X873Y3922D02*
X882Y3922D01*
X217Y3921D02*
X226Y3921D01*
X872Y3921D02*
X881Y3921D01*
X218Y3920D02*
X226Y3920D01*
X872Y3920D02*
X880Y3920D01*
X218Y3919D02*
X227Y3919D01*
X871Y3919D02*
X880Y3919D01*
X219Y3918D02*
X228Y3918D01*
X870Y3918D02*
X879Y3918D01*
X220Y3917D02*
X229Y3917D01*
X869Y3917D02*
X878Y3917D01*
X221Y3916D02*
X230Y3916D01*
X868Y3916D02*
X877Y3916D01*
X221Y3915D02*
X231Y3915D01*
X867Y3915D02*
X877Y3915D01*
X222Y3914D02*
X232Y3914D01*
X866Y3914D02*
X876Y3914D01*
X223Y3913D02*
X233Y3913D01*
X865Y3913D02*
X875Y3913D01*
X224Y3912D02*
X234Y3912D01*
X864Y3912D02*
X874Y3912D01*
X225Y3911D02*
X235Y3911D01*
X863Y3911D02*
X873Y3911D01*
X225Y3910D02*
X236Y3910D01*
X862Y3910D02*
X873Y3910D01*
X226Y3909D02*
X237Y3909D01*
X861Y3909D02*
X872Y3909D01*
X227Y3908D02*
X238Y3908D01*
X860Y3908D02*
X871Y3908D01*
X228Y3907D02*
X239Y3907D01*
X859Y3907D02*
X870Y3907D01*
X229Y3906D02*
X240Y3906D01*
X858Y3906D02*
X869Y3906D01*
X230Y3905D02*
X242Y3905D01*
X856Y3905D02*
X868Y3905D01*
X231Y3904D02*
X243Y3904D01*
X855Y3904D02*
X867Y3904D01*
X232Y3903D02*
X244Y3903D01*
X854Y3903D02*
X865Y3903D01*
X234Y3902D02*
X246Y3902D01*
X852Y3902D02*
X864Y3902D01*
X235Y3901D02*
X247Y3901D01*
X851Y3901D02*
X863Y3901D01*
X236Y3900D02*
X248Y3900D01*
X850Y3900D02*
X862Y3900D01*
X237Y3899D02*
X250Y3899D01*
X848Y3899D02*
X861Y3899D01*
X239Y3898D02*
X252Y3898D01*
X846Y3898D02*
X859Y3898D01*
X240Y3897D02*
X254Y3897D01*
X844Y3897D02*
X858Y3897D01*
X241Y3896D02*
X255Y3896D01*
X843Y3896D02*
X857Y3896D01*
X243Y3895D02*
X257Y3895D01*
X841Y3895D02*
X855Y3895D01*
X244Y3894D02*
X259Y3894D01*
X839Y3894D02*
X854Y3894D01*
X246Y3893D02*
X262Y3893D01*
X836Y3893D02*
X852Y3893D01*
X247Y3892D02*
X264Y3892D01*
X834Y3892D02*
X850Y3892D01*
X249Y3891D02*
X266Y3891D01*
X832Y3891D02*
X849Y3891D01*
X251Y3890D02*
X269Y3890D01*
X829Y3890D02*
X847Y3890D01*
X253Y3889D02*
X272Y3889D01*
X826Y3889D02*
X845Y3889D01*
X255Y3888D02*
X276Y3888D01*
X822Y3888D02*
X843Y3888D01*
X257Y3887D02*
X280Y3887D01*
X818Y3887D02*
X841Y3887D01*
X259Y3886D02*
X286Y3886D01*
X812Y3886D02*
X839Y3886D01*
X261Y3885D02*
X837Y3885D01*
X264Y3884D02*
X834Y3884D01*
X266Y3883D02*
X832Y3883D01*
X269Y3882D02*
X829Y3882D01*
X273Y3881D02*
X825Y3881D01*
X276Y3880D02*
X822Y3880D01*
X281Y3879D02*
X817Y3879D01*
X287Y3878D02*
X811Y3878D01*
X515Y1934D02*
X551Y1934D01*
X622Y1934D02*
X1100Y1934D01*
X1172Y1934D02*
X1371Y1934D01*
X509Y1933D02*
X551Y1933D01*
X622Y1933D02*
X1100Y1933D01*
X1172Y1933D02*
X1376Y1933D01*
X507Y1932D02*
X551Y1932D01*
X623Y1932D02*
X1100Y1932D01*
X1173Y1932D02*
X1379Y1932D01*
X505Y1931D02*
X550Y1931D01*
X624Y1931D02*
X1099Y1931D01*
X1173Y1931D02*
X1381Y1931D01*
X504Y1930D02*
X549Y1930D01*
X624Y1930D02*
X1098Y1930D01*
X1174Y1930D02*
X1382Y1930D01*
X503Y1929D02*
X549Y1929D01*
X625Y1929D02*
X1098Y1929D01*
X1175Y1929D02*
X1383Y1929D01*
X502Y1928D02*
X548Y1928D01*
X625Y1928D02*
X1097Y1928D01*
X1175Y1928D02*
X1384Y1928D01*
X501Y1927D02*
X547Y1927D01*
X626Y1927D02*
X1097Y1927D01*
X1176Y1927D02*
X1385Y1927D01*
X500Y1926D02*
X547Y1926D01*
X626Y1926D02*
X1096Y1926D01*
X1176Y1926D02*
X1386Y1926D01*
X499Y1925D02*
X546Y1925D01*
X627Y1925D02*
X1096Y1925D01*
X1177Y1925D02*
X1387Y1925D01*
X499Y1924D02*
X546Y1924D01*
X627Y1924D02*
X1095Y1924D01*
X1177Y1924D02*
X1387Y1924D01*
X498Y1923D02*
X546Y1923D01*
X628Y1923D02*
X1095Y1923D01*
X1178Y1923D02*
X1388Y1923D01*
X498Y1922D02*
X545Y1922D01*
X628Y1922D02*
X1094Y1922D01*
X1178Y1922D02*
X1388Y1922D01*
X497Y1921D02*
X545Y1921D01*
X629Y1921D02*
X1094Y1921D01*
X1178Y1921D02*
X1388Y1921D01*
X497Y1920D02*
X545Y1920D01*
X629Y1920D02*
X1094Y1920D01*
X1179Y1920D02*
X1389Y1920D01*
X497Y1919D02*
X544Y1919D01*
X629Y1919D02*
X1093Y1919D01*
X1179Y1919D02*
X1389Y1919D01*
X497Y1918D02*
X544Y1918D01*
X630Y1918D02*
X1093Y1918D01*
X1179Y1918D02*
X1389Y1918D01*
X497Y1917D02*
X544Y1917D01*
X630Y1917D02*
X1093Y1917D01*
X1179Y1917D02*
X1389Y1917D01*
X497Y1916D02*
X544Y1916D01*
X630Y1916D02*
X1093Y1916D01*
X1180Y1916D02*
X1389Y1916D01*
X496Y1915D02*
X543Y1915D01*
X630Y1915D02*
X1092Y1915D01*
X1180Y1915D02*
X1389Y1915D01*
X496Y1914D02*
X543Y1914D01*
X630Y1914D02*
X1092Y1914D01*
X1180Y1914D02*
X1389Y1914D01*
X496Y1913D02*
X543Y1913D01*
X630Y1913D02*
X1092Y1913D01*
X1180Y1913D02*
X1389Y1913D01*
X496Y1912D02*
X543Y1912D01*
X631Y1912D02*
X1092Y1912D01*
X1180Y1912D02*
X1389Y1912D01*
X496Y1911D02*
X543Y1911D01*
X631Y1911D02*
X1092Y1911D01*
X1180Y1911D02*
X1389Y1911D01*
X496Y1910D02*
X543Y1910D01*
X631Y1910D02*
X1092Y1910D01*
X1181Y1910D02*
X1389Y1910D01*
X496Y1909D02*
X543Y1909D01*
X631Y1909D02*
X1092Y1909D01*
X1181Y1909D02*
X1389Y1909D01*
X496Y1908D02*
X543Y1908D01*
X631Y1908D02*
X1092Y1908D01*
X1181Y1908D02*
X1389Y1908D01*
X496Y1907D02*
X543Y1907D01*
X631Y1907D02*
X1092Y1907D01*
X1181Y1907D02*
X1389Y1907D01*
X496Y1906D02*
X543Y1906D01*
X631Y1906D02*
X1092Y1906D01*
X1181Y1906D02*
X1389Y1906D01*
X496Y1905D02*
X543Y1905D01*
X631Y1905D02*
X1092Y1905D01*
X1180Y1905D02*
X1389Y1905D01*
X496Y1904D02*
X543Y1904D01*
X631Y1904D02*
X1092Y1904D01*
X1180Y1904D02*
X1389Y1904D01*
X496Y1903D02*
X543Y1903D01*
X631Y1903D02*
X1092Y1903D01*
X1180Y1903D02*
X1389Y1903D01*
X496Y1902D02*
X543Y1902D01*
X631Y1902D02*
X1092Y1902D01*
X1180Y1902D02*
X1389Y1902D01*
X496Y1901D02*
X543Y1901D01*
X630Y1901D02*
X1092Y1901D01*
X1180Y1901D02*
X1389Y1901D01*
X496Y1900D02*
X543Y1900D01*
X630Y1900D02*
X1092Y1900D01*
X1180Y1900D02*
X1389Y1900D01*
X496Y1899D02*
X544Y1899D01*
X630Y1899D02*
X1093Y1899D01*
X1180Y1899D02*
X1389Y1899D01*
X496Y1898D02*
X544Y1898D01*
X630Y1898D02*
X1093Y1898D01*
X1179Y1898D02*
X1389Y1898D01*
X496Y1897D02*
X544Y1897D01*
X630Y1897D02*
X1093Y1897D01*
X1179Y1897D02*
X1389Y1897D01*
X496Y1896D02*
X533Y1896D01*
X1353Y1896D02*
X1389Y1896D01*
X496Y1895D02*
X533Y1895D01*
X1353Y1895D02*
X1389Y1895D01*
X496Y1894D02*
X533Y1894D01*
X1353Y1894D02*
X1389Y1894D01*
X496Y1893D02*
X533Y1893D01*
X1353Y1893D02*
X1389Y1893D01*
X496Y1892D02*
X533Y1892D01*
X1353Y1892D02*
X1389Y1892D01*
X496Y1891D02*
X533Y1891D01*
X1353Y1891D02*
X1389Y1891D01*
X496Y1890D02*
X533Y1890D01*
X1353Y1890D02*
X1389Y1890D01*
X496Y1889D02*
X533Y1889D01*
X1353Y1889D02*
X1389Y1889D01*
X496Y1888D02*
X533Y1888D01*
X1353Y1888D02*
X1389Y1888D01*
X496Y1887D02*
X533Y1887D01*
X1353Y1887D02*
X1389Y1887D01*
X496Y1886D02*
X533Y1886D01*
X1353Y1886D02*
X1389Y1886D01*
X496Y1885D02*
X533Y1885D01*
X1353Y1885D02*
X1389Y1885D01*
X496Y1884D02*
X533Y1884D01*
X1353Y1884D02*
X1389Y1884D01*
X496Y1883D02*
X533Y1883D01*
X1353Y1883D02*
X1389Y1883D01*
X496Y1882D02*
X533Y1882D01*
X1353Y1882D02*
X1389Y1882D01*
X496Y1881D02*
X533Y1881D01*
X1353Y1881D02*
X1389Y1881D01*
X496Y1880D02*
X533Y1880D01*
X1353Y1880D02*
X1389Y1880D01*
X496Y1879D02*
X533Y1879D01*
X1353Y1879D02*
X1389Y1879D01*
X496Y1878D02*
X533Y1878D01*
X1353Y1878D02*
X1389Y1878D01*
X496Y1877D02*
X533Y1877D01*
X1353Y1877D02*
X1389Y1877D01*
X496Y1876D02*
X533Y1876D01*
X1353Y1876D02*
X1389Y1876D01*
X496Y1875D02*
X533Y1875D01*
X1353Y1875D02*
X1389Y1875D01*
X496Y1874D02*
X533Y1874D01*
X1353Y1874D02*
X1389Y1874D01*
X496Y1873D02*
X533Y1873D01*
X1353Y1873D02*
X1389Y1873D01*
X496Y1872D02*
X533Y1872D01*
X1353Y1872D02*
X1389Y1872D01*
X496Y1871D02*
X533Y1871D01*
X1353Y1871D02*
X1389Y1871D01*
X496Y1870D02*
X533Y1870D01*
X1353Y1870D02*
X1389Y1870D01*
X496Y1869D02*
X533Y1869D01*
X1353Y1869D02*
X1389Y1869D01*
X496Y1868D02*
X533Y1868D01*
X1353Y1868D02*
X1389Y1868D01*
X496Y1867D02*
X533Y1867D01*
X1353Y1867D02*
X1389Y1867D01*
X496Y1866D02*
X533Y1866D01*
X1353Y1866D02*
X1389Y1866D01*
X496Y1865D02*
X533Y1865D01*
X1353Y1865D02*
X1389Y1865D01*
X496Y1864D02*
X533Y1864D01*
X1353Y1864D02*
X1389Y1864D01*
X496Y1863D02*
X533Y1863D01*
X1353Y1863D02*
X1389Y1863D01*
X496Y1862D02*
X533Y1862D01*
X1353Y1862D02*
X1389Y1862D01*
X496Y1861D02*
X533Y1861D01*
X1353Y1861D02*
X1389Y1861D01*
X496Y1860D02*
X533Y1860D01*
X1353Y1860D02*
X1389Y1860D01*
X496Y1859D02*
X533Y1859D01*
X1353Y1859D02*
X1389Y1859D01*
X496Y1858D02*
X533Y1858D01*
X1353Y1858D02*
X1389Y1858D01*
X496Y1857D02*
X533Y1857D01*
X1353Y1857D02*
X1389Y1857D01*
X496Y1856D02*
X533Y1856D01*
X1353Y1856D02*
X1389Y1856D01*
X496Y1855D02*
X533Y1855D01*
X1353Y1855D02*
X1389Y1855D01*
X496Y1854D02*
X533Y1854D01*
X1353Y1854D02*
X1389Y1854D01*
X496Y1853D02*
X533Y1853D01*
X1353Y1853D02*
X1389Y1853D01*
X496Y1852D02*
X533Y1852D01*
X1353Y1852D02*
X1389Y1852D01*
X496Y1851D02*
X533Y1851D01*
X1353Y1851D02*
X1389Y1851D01*
X496Y1850D02*
X533Y1850D01*
X1353Y1850D02*
X1389Y1850D01*
X496Y1849D02*
X533Y1849D01*
X1353Y1849D02*
X1389Y1849D01*
X496Y1848D02*
X533Y1848D01*
X1353Y1848D02*
X1389Y1848D01*
X496Y1847D02*
X533Y1847D01*
X1353Y1847D02*
X1389Y1847D01*
X496Y1846D02*
X533Y1846D01*
X1353Y1846D02*
X1389Y1846D01*
X496Y1845D02*
X533Y1845D01*
X1353Y1845D02*
X1389Y1845D01*
X496Y1844D02*
X533Y1844D01*
X1353Y1844D02*
X1389Y1844D01*
X496Y1843D02*
X533Y1843D01*
X1353Y1843D02*
X1389Y1843D01*
X496Y1842D02*
X533Y1842D01*
X1353Y1842D02*
X1389Y1842D01*
X496Y1841D02*
X533Y1841D01*
X1353Y1841D02*
X1389Y1841D01*
X496Y1840D02*
X533Y1840D01*
X1353Y1840D02*
X1389Y1840D01*
X496Y1839D02*
X533Y1839D01*
X1353Y1839D02*
X1389Y1839D01*
X496Y1838D02*
X533Y1838D01*
X1353Y1838D02*
X1389Y1838D01*
X496Y1837D02*
X533Y1837D01*
X1353Y1837D02*
X1389Y1837D01*
X496Y1836D02*
X533Y1836D01*
X1353Y1836D02*
X1389Y1836D01*
X496Y1835D02*
X533Y1835D01*
X1353Y1835D02*
X1389Y1835D01*
X496Y1834D02*
X533Y1834D01*
X1353Y1834D02*
X1389Y1834D01*
X496Y1833D02*
X533Y1833D01*
X1353Y1833D02*
X1389Y1833D01*
X496Y1832D02*
X533Y1832D01*
X1353Y1832D02*
X1389Y1832D01*
X496Y1831D02*
X533Y1831D01*
X1353Y1831D02*
X1389Y1831D01*
X496Y1830D02*
X533Y1830D01*
X1353Y1830D02*
X1389Y1830D01*
X496Y1829D02*
X533Y1829D01*
X1353Y1829D02*
X1389Y1829D01*
X496Y1828D02*
X533Y1828D01*
X1353Y1828D02*
X1389Y1828D01*
X496Y1827D02*
X533Y1827D01*
X1353Y1827D02*
X1389Y1827D01*
X496Y1826D02*
X533Y1826D01*
X1353Y1826D02*
X1389Y1826D01*
X496Y1825D02*
X533Y1825D01*
X1353Y1825D02*
X1389Y1825D01*
X496Y1824D02*
X533Y1824D01*
X1353Y1824D02*
X1389Y1824D01*
X496Y1823D02*
X533Y1823D01*
X1353Y1823D02*
X1389Y1823D01*
X496Y1822D02*
X533Y1822D01*
X1353Y1822D02*
X1389Y1822D01*
X496Y1821D02*
X533Y1821D01*
X1353Y1821D02*
X1389Y1821D01*
X496Y1820D02*
X533Y1820D01*
X1353Y1820D02*
X1389Y1820D01*
X496Y1819D02*
X533Y1819D01*
X1353Y1819D02*
X1389Y1819D01*
X496Y1818D02*
X533Y1818D01*
X1353Y1818D02*
X1389Y1818D01*
X496Y1817D02*
X533Y1817D01*
X1353Y1817D02*
X1389Y1817D01*
X496Y1816D02*
X533Y1816D01*
X1353Y1816D02*
X1389Y1816D01*
X496Y1815D02*
X533Y1815D01*
X1353Y1815D02*
X1389Y1815D01*
X496Y1814D02*
X533Y1814D01*
X1353Y1814D02*
X1389Y1814D01*
X496Y1813D02*
X533Y1813D01*
X1353Y1813D02*
X1389Y1813D01*
X496Y1812D02*
X533Y1812D01*
X1353Y1812D02*
X1389Y1812D01*
X496Y1811D02*
X533Y1811D01*
X1353Y1811D02*
X1389Y1811D01*
X496Y1810D02*
X533Y1810D01*
X1353Y1810D02*
X1389Y1810D01*
X496Y1809D02*
X533Y1809D01*
X1353Y1809D02*
X1389Y1809D01*
X496Y1808D02*
X533Y1808D01*
X1353Y1808D02*
X1389Y1808D01*
X496Y1807D02*
X533Y1807D01*
X1353Y1807D02*
X1389Y1807D01*
X496Y1806D02*
X533Y1806D01*
X1353Y1806D02*
X1389Y1806D01*
X496Y1805D02*
X533Y1805D01*
X1353Y1805D02*
X1389Y1805D01*
X496Y1804D02*
X533Y1804D01*
X1353Y1804D02*
X1389Y1804D01*
X496Y1803D02*
X533Y1803D01*
X1353Y1803D02*
X1389Y1803D01*
X496Y1802D02*
X533Y1802D01*
X1353Y1802D02*
X1389Y1802D01*
X496Y1801D02*
X533Y1801D01*
X1353Y1801D02*
X1389Y1801D01*
X496Y1800D02*
X533Y1800D01*
X1353Y1800D02*
X1389Y1800D01*
X496Y1799D02*
X533Y1799D01*
X1353Y1799D02*
X1389Y1799D01*
X496Y1798D02*
X533Y1798D01*
X1353Y1798D02*
X1389Y1798D01*
X496Y1797D02*
X533Y1797D01*
X1353Y1797D02*
X1389Y1797D01*
X496Y1796D02*
X533Y1796D01*
X1353Y1796D02*
X1389Y1796D01*
X496Y1795D02*
X533Y1795D01*
X1353Y1795D02*
X1389Y1795D01*
X496Y1794D02*
X533Y1794D01*
X1353Y1794D02*
X1389Y1794D01*
X496Y1793D02*
X533Y1793D01*
X1353Y1793D02*
X1389Y1793D01*
X496Y1792D02*
X533Y1792D01*
X1353Y1792D02*
X1389Y1792D01*
X496Y1791D02*
X533Y1791D01*
X1353Y1791D02*
X1389Y1791D01*
X496Y1790D02*
X533Y1790D01*
X1353Y1790D02*
X1389Y1790D01*
X496Y1789D02*
X533Y1789D01*
X1353Y1789D02*
X1389Y1789D01*
X496Y1788D02*
X533Y1788D01*
X1353Y1788D02*
X1389Y1788D01*
X496Y1787D02*
X533Y1787D01*
X1353Y1787D02*
X1389Y1787D01*
X496Y1786D02*
X533Y1786D01*
X1353Y1786D02*
X1389Y1786D01*
X496Y1785D02*
X533Y1785D01*
X1353Y1785D02*
X1389Y1785D01*
X496Y1784D02*
X533Y1784D01*
X1353Y1784D02*
X1389Y1784D01*
X496Y1783D02*
X533Y1783D01*
X1353Y1783D02*
X1389Y1783D01*
X496Y1782D02*
X533Y1782D01*
X1353Y1782D02*
X1389Y1782D01*
X496Y1781D02*
X533Y1781D01*
X1353Y1781D02*
X1389Y1781D01*
X496Y1780D02*
X533Y1780D01*
X1353Y1780D02*
X1389Y1780D01*
X496Y1779D02*
X533Y1779D01*
X1353Y1779D02*
X1389Y1779D01*
X496Y1778D02*
X533Y1778D01*
X1353Y1778D02*
X1389Y1778D01*
X496Y1777D02*
X533Y1777D01*
X1353Y1777D02*
X1389Y1777D01*
X496Y1776D02*
X533Y1776D01*
X1353Y1776D02*
X1389Y1776D01*
X496Y1775D02*
X533Y1775D01*
X1353Y1775D02*
X1389Y1775D01*
X496Y1774D02*
X533Y1774D01*
X1353Y1774D02*
X1389Y1774D01*
X496Y1773D02*
X533Y1773D01*
X1353Y1773D02*
X1389Y1773D01*
X496Y1772D02*
X533Y1772D01*
X1353Y1772D02*
X1389Y1772D01*
X496Y1771D02*
X533Y1771D01*
X1353Y1771D02*
X1389Y1771D01*
X496Y1770D02*
X533Y1770D01*
X1353Y1770D02*
X1389Y1770D01*
X496Y1769D02*
X533Y1769D01*
X1353Y1769D02*
X1389Y1769D01*
X496Y1768D02*
X533Y1768D01*
X1353Y1768D02*
X1389Y1768D01*
X496Y1767D02*
X533Y1767D01*
X1353Y1767D02*
X1389Y1767D01*
X496Y1766D02*
X533Y1766D01*
X1353Y1766D02*
X1389Y1766D01*
X496Y1765D02*
X533Y1765D01*
X1353Y1765D02*
X1389Y1765D01*
X496Y1764D02*
X533Y1764D01*
X1353Y1764D02*
X1389Y1764D01*
X496Y1763D02*
X533Y1763D01*
X1353Y1763D02*
X1389Y1763D01*
X496Y1762D02*
X533Y1762D01*
X1353Y1762D02*
X1389Y1762D01*
X496Y1761D02*
X533Y1761D01*
X1353Y1761D02*
X1389Y1761D01*
X496Y1760D02*
X533Y1760D01*
X1353Y1760D02*
X1389Y1760D01*
X496Y1759D02*
X533Y1759D01*
X1353Y1759D02*
X1389Y1759D01*
X496Y1758D02*
X533Y1758D01*
X1353Y1758D02*
X1389Y1758D01*
X496Y1757D02*
X533Y1757D01*
X1353Y1757D02*
X1389Y1757D01*
X496Y1756D02*
X533Y1756D01*
X1353Y1756D02*
X1389Y1756D01*
X496Y1755D02*
X533Y1755D01*
X1353Y1755D02*
X1389Y1755D01*
X496Y1754D02*
X533Y1754D01*
X1353Y1754D02*
X1389Y1754D01*
X496Y1753D02*
X533Y1753D01*
X1353Y1753D02*
X1389Y1753D01*
X496Y1752D02*
X533Y1752D01*
X1353Y1752D02*
X1389Y1752D01*
X496Y1751D02*
X533Y1751D01*
X1353Y1751D02*
X1389Y1751D01*
X496Y1750D02*
X533Y1750D01*
X1353Y1750D02*
X1389Y1750D01*
X496Y1749D02*
X533Y1749D01*
X1353Y1749D02*
X1389Y1749D01*
X496Y1748D02*
X533Y1748D01*
X1353Y1748D02*
X1389Y1748D01*
X496Y1747D02*
X533Y1747D01*
X1353Y1747D02*
X1389Y1747D01*
X496Y1746D02*
X533Y1746D01*
X1353Y1746D02*
X1389Y1746D01*
X496Y1745D02*
X533Y1745D01*
X1353Y1745D02*
X1389Y1745D01*
X496Y1744D02*
X533Y1744D01*
X1353Y1744D02*
X1389Y1744D01*
X496Y1743D02*
X533Y1743D01*
X1353Y1743D02*
X1389Y1743D01*
X496Y1742D02*
X533Y1742D01*
X1353Y1742D02*
X1389Y1742D01*
X496Y1741D02*
X533Y1741D01*
X1353Y1741D02*
X1389Y1741D01*
X496Y1740D02*
X533Y1740D01*
X1353Y1740D02*
X1389Y1740D01*
X496Y1739D02*
X533Y1739D01*
X1353Y1739D02*
X1389Y1739D01*
X496Y1738D02*
X533Y1738D01*
X1353Y1738D02*
X1389Y1738D01*
X496Y1737D02*
X533Y1737D01*
X1353Y1737D02*
X1389Y1737D01*
X496Y1736D02*
X533Y1736D01*
X1353Y1736D02*
X1389Y1736D01*
X496Y1735D02*
X533Y1735D01*
X1353Y1735D02*
X1389Y1735D01*
X496Y1734D02*
X533Y1734D01*
X1353Y1734D02*
X1389Y1734D01*
X496Y1733D02*
X533Y1733D01*
X1353Y1733D02*
X1389Y1733D01*
X496Y1732D02*
X533Y1732D01*
X1353Y1732D02*
X1389Y1732D01*
X496Y1731D02*
X533Y1731D01*
X1353Y1731D02*
X1389Y1731D01*
X496Y1730D02*
X533Y1730D01*
X1353Y1730D02*
X1389Y1730D01*
X496Y1729D02*
X533Y1729D01*
X1353Y1729D02*
X1389Y1729D01*
X496Y1728D02*
X533Y1728D01*
X1353Y1728D02*
X1389Y1728D01*
X496Y1727D02*
X533Y1727D01*
X1353Y1727D02*
X1389Y1727D01*
X496Y1726D02*
X533Y1726D01*
X1353Y1726D02*
X1389Y1726D01*
X496Y1725D02*
X533Y1725D01*
X1353Y1725D02*
X1389Y1725D01*
X496Y1724D02*
X533Y1724D01*
X1353Y1724D02*
X1389Y1724D01*
X496Y1723D02*
X533Y1723D01*
X1353Y1723D02*
X1389Y1723D01*
X496Y1722D02*
X533Y1722D01*
X1353Y1722D02*
X1389Y1722D01*
X496Y1721D02*
X533Y1721D01*
X1353Y1721D02*
X1389Y1721D01*
X496Y1720D02*
X533Y1720D01*
X1353Y1720D02*
X1389Y1720D01*
X496Y1719D02*
X533Y1719D01*
X1353Y1719D02*
X1389Y1719D01*
X496Y1718D02*
X533Y1718D01*
X1353Y1718D02*
X1389Y1718D01*
X496Y1717D02*
X533Y1717D01*
X1353Y1717D02*
X1389Y1717D01*
X496Y1716D02*
X533Y1716D01*
X1353Y1716D02*
X1389Y1716D01*
X496Y1715D02*
X533Y1715D01*
X1353Y1715D02*
X1389Y1715D01*
X496Y1714D02*
X533Y1714D01*
X1353Y1714D02*
X1389Y1714D01*
X496Y1713D02*
X533Y1713D01*
X1353Y1713D02*
X1389Y1713D01*
X496Y1712D02*
X533Y1712D01*
X1353Y1712D02*
X1389Y1712D01*
X496Y1711D02*
X533Y1711D01*
X1353Y1711D02*
X1389Y1711D01*
X496Y1710D02*
X533Y1710D01*
X1353Y1710D02*
X1389Y1710D01*
X496Y1709D02*
X533Y1709D01*
X1353Y1709D02*
X1389Y1709D01*
X496Y1708D02*
X533Y1708D01*
X1353Y1708D02*
X1389Y1708D01*
X496Y1707D02*
X533Y1707D01*
X1353Y1707D02*
X1389Y1707D01*
X496Y1706D02*
X533Y1706D01*
X1353Y1706D02*
X1389Y1706D01*
X496Y1705D02*
X533Y1705D01*
X1353Y1705D02*
X1389Y1705D01*
X496Y1704D02*
X533Y1704D01*
X1353Y1704D02*
X1389Y1704D01*
X496Y1703D02*
X533Y1703D01*
X1353Y1703D02*
X1389Y1703D01*
X496Y1702D02*
X533Y1702D01*
X1353Y1702D02*
X1389Y1702D01*
X496Y1701D02*
X533Y1701D01*
X1353Y1701D02*
X1389Y1701D01*
X496Y1700D02*
X533Y1700D01*
X1353Y1700D02*
X1389Y1700D01*
X496Y1699D02*
X533Y1699D01*
X1353Y1699D02*
X1389Y1699D01*
X496Y1698D02*
X533Y1698D01*
X1353Y1698D02*
X1389Y1698D01*
X496Y1697D02*
X533Y1697D01*
X1353Y1697D02*
X1389Y1697D01*
X496Y1696D02*
X533Y1696D01*
X1353Y1696D02*
X1389Y1696D01*
X496Y1695D02*
X533Y1695D01*
X1353Y1695D02*
X1389Y1695D01*
X496Y1694D02*
X533Y1694D01*
X1353Y1694D02*
X1389Y1694D01*
X496Y1693D02*
X533Y1693D01*
X1353Y1693D02*
X1389Y1693D01*
X496Y1692D02*
X533Y1692D01*
X1353Y1692D02*
X1389Y1692D01*
X496Y1691D02*
X533Y1691D01*
X1353Y1691D02*
X1389Y1691D01*
X496Y1690D02*
X533Y1690D01*
X1353Y1690D02*
X1389Y1690D01*
X496Y1689D02*
X533Y1689D01*
X1353Y1689D02*
X1389Y1689D01*
X496Y1688D02*
X533Y1688D01*
X1353Y1688D02*
X1389Y1688D01*
X496Y1687D02*
X533Y1687D01*
X1353Y1687D02*
X1389Y1687D01*
X496Y1686D02*
X533Y1686D01*
X1353Y1686D02*
X1389Y1686D01*
X496Y1685D02*
X533Y1685D01*
X1353Y1685D02*
X1389Y1685D01*
X496Y1684D02*
X533Y1684D01*
X1353Y1684D02*
X1389Y1684D01*
X496Y1683D02*
X533Y1683D01*
X1353Y1683D02*
X1389Y1683D01*
X496Y1682D02*
X533Y1682D01*
X1353Y1682D02*
X1389Y1682D01*
X496Y1681D02*
X533Y1681D01*
X1353Y1681D02*
X1389Y1681D01*
X496Y1680D02*
X533Y1680D01*
X1353Y1680D02*
X1389Y1680D01*
X496Y1679D02*
X533Y1679D01*
X1353Y1679D02*
X1389Y1679D01*
X496Y1678D02*
X533Y1678D01*
X1353Y1678D02*
X1389Y1678D01*
X496Y1677D02*
X533Y1677D01*
X1353Y1677D02*
X1389Y1677D01*
X496Y1676D02*
X533Y1676D01*
X1353Y1676D02*
X1389Y1676D01*
X496Y1675D02*
X533Y1675D01*
X1353Y1675D02*
X1389Y1675D01*
X496Y1674D02*
X533Y1674D01*
X1353Y1674D02*
X1389Y1674D01*
X496Y1673D02*
X533Y1673D01*
X1353Y1673D02*
X1389Y1673D01*
X496Y1672D02*
X533Y1672D01*
X1353Y1672D02*
X1389Y1672D01*
X496Y1671D02*
X533Y1671D01*
X1353Y1671D02*
X1389Y1671D01*
X496Y1670D02*
X533Y1670D01*
X1353Y1670D02*
X1389Y1670D01*
X496Y1669D02*
X533Y1669D01*
X1353Y1669D02*
X1389Y1669D01*
X496Y1668D02*
X533Y1668D01*
X1353Y1668D02*
X1360Y1668D01*
X1377Y1668D02*
X1389Y1668D01*
X496Y1667D02*
X533Y1667D01*
X1353Y1667D02*
X1356Y1667D01*
X1382Y1667D02*
X1389Y1667D01*
X496Y1666D02*
X533Y1666D01*
X1353Y1666D02*
X1353Y1666D01*
X1385Y1666D02*
X1389Y1666D01*
X496Y1665D02*
X533Y1665D01*
X1387Y1665D02*
X1389Y1665D01*
X496Y1664D02*
X533Y1664D01*
X496Y1663D02*
X533Y1663D01*
X496Y1662D02*
X533Y1662D01*
X496Y1661D02*
X533Y1661D01*
X496Y1660D02*
X533Y1660D01*
X496Y1659D02*
X533Y1659D01*
X496Y1658D02*
X533Y1658D01*
X496Y1657D02*
X533Y1657D01*
X496Y1656D02*
X533Y1656D01*
X496Y1655D02*
X533Y1655D01*
X496Y1654D02*
X533Y1654D01*
X496Y1653D02*
X533Y1653D01*
X496Y1652D02*
X533Y1652D01*
X496Y1651D02*
X533Y1651D01*
X496Y1650D02*
X533Y1650D01*
X496Y1649D02*
X533Y1649D01*
X496Y1648D02*
X533Y1648D01*
X496Y1647D02*
X533Y1647D01*
X496Y1646D02*
X533Y1646D01*
X496Y1645D02*
X533Y1645D01*
X496Y1644D02*
X533Y1644D01*
X496Y1643D02*
X533Y1643D01*
X496Y1642D02*
X533Y1642D01*
X496Y1641D02*
X533Y1641D01*
X496Y1640D02*
X533Y1640D01*
X496Y1639D02*
X533Y1639D01*
X496Y1638D02*
X533Y1638D01*
X496Y1637D02*
X533Y1637D01*
X496Y1636D02*
X533Y1636D01*
X496Y1635D02*
X533Y1635D01*
X496Y1634D02*
X533Y1634D01*
X496Y1633D02*
X533Y1633D01*
X496Y1632D02*
X533Y1632D01*
X496Y1631D02*
X533Y1631D01*
X496Y1630D02*
X533Y1630D01*
X496Y1629D02*
X533Y1629D01*
X496Y1628D02*
X533Y1628D01*
X496Y1627D02*
X533Y1627D01*
X496Y1626D02*
X533Y1626D01*
X496Y1625D02*
X533Y1625D01*
X496Y1624D02*
X533Y1624D01*
X496Y1623D02*
X533Y1623D01*
X496Y1622D02*
X533Y1622D01*
X496Y1621D02*
X533Y1621D01*
X496Y1620D02*
X533Y1620D01*
X496Y1619D02*
X533Y1619D01*
X496Y1618D02*
X533Y1618D01*
X496Y1617D02*
X533Y1617D01*
X496Y1616D02*
X533Y1616D01*
X496Y1615D02*
X533Y1615D01*
X496Y1614D02*
X533Y1614D01*
X496Y1613D02*
X533Y1613D01*
X496Y1612D02*
X533Y1612D01*
X496Y1611D02*
X533Y1611D01*
X496Y1610D02*
X533Y1610D01*
X496Y1609D02*
X533Y1609D01*
X496Y1608D02*
X533Y1608D01*
X496Y1607D02*
X533Y1607D01*
X496Y1606D02*
X533Y1606D01*
X496Y1605D02*
X533Y1605D01*
X496Y1604D02*
X533Y1604D01*
X496Y1603D02*
X533Y1603D01*
X496Y1602D02*
X533Y1602D01*
X496Y1601D02*
X533Y1601D01*
X496Y1600D02*
X533Y1600D01*
X496Y1599D02*
X533Y1599D01*
X496Y1598D02*
X533Y1598D01*
X496Y1597D02*
X533Y1597D01*
X496Y1596D02*
X533Y1596D01*
X496Y1595D02*
X533Y1595D01*
X496Y1594D02*
X533Y1594D01*
X496Y1593D02*
X533Y1593D01*
X496Y1592D02*
X533Y1592D01*
X496Y1591D02*
X533Y1591D01*
X496Y1590D02*
X533Y1590D01*
X496Y1589D02*
X533Y1589D01*
X496Y1588D02*
X533Y1588D01*
X496Y1587D02*
X533Y1587D01*
X496Y1586D02*
X533Y1586D01*
X496Y1585D02*
X533Y1585D01*
X496Y1584D02*
X533Y1584D01*
X496Y1583D02*
X533Y1583D01*
X496Y1582D02*
X533Y1582D01*
X496Y1581D02*
X533Y1581D01*
X496Y1580D02*
X533Y1580D01*
X496Y1579D02*
X533Y1579D01*
X496Y1578D02*
X533Y1578D01*
X1388Y1578D02*
X1389Y1578D01*
X496Y1577D02*
X533Y1577D01*
X1386Y1577D02*
X1389Y1577D01*
X496Y1576D02*
X533Y1576D01*
X1353Y1576D02*
X1355Y1576D01*
X1383Y1576D02*
X1389Y1576D01*
X496Y1575D02*
X533Y1575D01*
X1353Y1575D02*
X1359Y1575D01*
X1379Y1575D02*
X1389Y1575D01*
X496Y1574D02*
X533Y1574D01*
X1353Y1574D02*
X1366Y1574D01*
X1371Y1574D02*
X1389Y1574D01*
X496Y1573D02*
X533Y1573D01*
X1353Y1573D02*
X1389Y1573D01*
X496Y1572D02*
X533Y1572D01*
X1353Y1572D02*
X1389Y1572D01*
X496Y1571D02*
X533Y1571D01*
X1353Y1571D02*
X1389Y1571D01*
X496Y1570D02*
X533Y1570D01*
X1353Y1570D02*
X1389Y1570D01*
X496Y1569D02*
X533Y1569D01*
X1353Y1569D02*
X1389Y1569D01*
X496Y1568D02*
X533Y1568D01*
X1353Y1568D02*
X1389Y1568D01*
X496Y1567D02*
X533Y1567D01*
X1353Y1567D02*
X1389Y1567D01*
X496Y1566D02*
X533Y1566D01*
X1353Y1566D02*
X1389Y1566D01*
X496Y1565D02*
X533Y1565D01*
X1353Y1565D02*
X1389Y1565D01*
X496Y1564D02*
X533Y1564D01*
X1353Y1564D02*
X1389Y1564D01*
X496Y1563D02*
X533Y1563D01*
X1353Y1563D02*
X1389Y1563D01*
X496Y1562D02*
X533Y1562D01*
X1353Y1562D02*
X1389Y1562D01*
X496Y1561D02*
X533Y1561D01*
X1353Y1561D02*
X1389Y1561D01*
X496Y1560D02*
X533Y1560D01*
X1353Y1560D02*
X1389Y1560D01*
X496Y1559D02*
X533Y1559D01*
X1353Y1559D02*
X1389Y1559D01*
X496Y1558D02*
X533Y1558D01*
X1353Y1558D02*
X1389Y1558D01*
X496Y1557D02*
X533Y1557D01*
X1353Y1557D02*
X1389Y1557D01*
X496Y1556D02*
X533Y1556D01*
X1353Y1556D02*
X1389Y1556D01*
X496Y1555D02*
X533Y1555D01*
X1353Y1555D02*
X1389Y1555D01*
X496Y1554D02*
X533Y1554D01*
X1353Y1554D02*
X1389Y1554D01*
X496Y1553D02*
X533Y1553D01*
X1353Y1553D02*
X1389Y1553D01*
X496Y1552D02*
X533Y1552D01*
X1353Y1552D02*
X1389Y1552D01*
X496Y1551D02*
X533Y1551D01*
X1353Y1551D02*
X1389Y1551D01*
X496Y1550D02*
X533Y1550D01*
X1353Y1550D02*
X1389Y1550D01*
X496Y1549D02*
X533Y1549D01*
X1353Y1549D02*
X1389Y1549D01*
X496Y1548D02*
X533Y1548D01*
X1353Y1548D02*
X1389Y1548D01*
X496Y1547D02*
X533Y1547D01*
X1353Y1547D02*
X1389Y1547D01*
X496Y1546D02*
X533Y1546D01*
X1353Y1546D02*
X1389Y1546D01*
X496Y1545D02*
X533Y1545D01*
X1353Y1545D02*
X1389Y1545D01*
X496Y1544D02*
X533Y1544D01*
X1353Y1544D02*
X1389Y1544D01*
X496Y1543D02*
X533Y1543D01*
X1353Y1543D02*
X1389Y1543D01*
X496Y1542D02*
X533Y1542D01*
X1353Y1542D02*
X1389Y1542D01*
X496Y1541D02*
X533Y1541D01*
X1353Y1541D02*
X1389Y1541D01*
X496Y1540D02*
X533Y1540D01*
X1353Y1540D02*
X1389Y1540D01*
X496Y1539D02*
X533Y1539D01*
X1353Y1539D02*
X1389Y1539D01*
X496Y1538D02*
X533Y1538D01*
X1353Y1538D02*
X1389Y1538D01*
X496Y1537D02*
X533Y1537D01*
X1353Y1537D02*
X1389Y1537D01*
X496Y1536D02*
X533Y1536D01*
X1353Y1536D02*
X1389Y1536D01*
X496Y1535D02*
X533Y1535D01*
X1353Y1535D02*
X1389Y1535D01*
X496Y1534D02*
X533Y1534D01*
X1353Y1534D02*
X1389Y1534D01*
X496Y1533D02*
X533Y1533D01*
X1353Y1533D02*
X1389Y1533D01*
X496Y1532D02*
X533Y1532D01*
X1353Y1532D02*
X1389Y1532D01*
X496Y1531D02*
X533Y1531D01*
X1353Y1531D02*
X1389Y1531D01*
X496Y1530D02*
X533Y1530D01*
X1353Y1530D02*
X1389Y1530D01*
X496Y1529D02*
X533Y1529D01*
X1353Y1529D02*
X1389Y1529D01*
X496Y1528D02*
X533Y1528D01*
X1353Y1528D02*
X1389Y1528D01*
X496Y1527D02*
X533Y1527D01*
X1353Y1527D02*
X1389Y1527D01*
X496Y1526D02*
X533Y1526D01*
X1353Y1526D02*
X1389Y1526D01*
X496Y1525D02*
X533Y1525D01*
X1353Y1525D02*
X1389Y1525D01*
X496Y1524D02*
X533Y1524D01*
X1353Y1524D02*
X1389Y1524D01*
X496Y1523D02*
X533Y1523D01*
X1353Y1523D02*
X1389Y1523D01*
X496Y1522D02*
X533Y1522D01*
X1353Y1522D02*
X1389Y1522D01*
X496Y1521D02*
X533Y1521D01*
X1353Y1521D02*
X1389Y1521D01*
X496Y1520D02*
X533Y1520D01*
X1353Y1520D02*
X1389Y1520D01*
X496Y1519D02*
X533Y1519D01*
X1353Y1519D02*
X1389Y1519D01*
X496Y1518D02*
X533Y1518D01*
X1353Y1518D02*
X1389Y1518D01*
X496Y1517D02*
X533Y1517D01*
X1353Y1517D02*
X1389Y1517D01*
X496Y1516D02*
X533Y1516D01*
X1353Y1516D02*
X1389Y1516D01*
X496Y1515D02*
X533Y1515D01*
X1353Y1515D02*
X1389Y1515D01*
X496Y1514D02*
X533Y1514D01*
X1353Y1514D02*
X1389Y1514D01*
X496Y1513D02*
X533Y1513D01*
X1353Y1513D02*
X1389Y1513D01*
X496Y1512D02*
X533Y1512D01*
X1353Y1512D02*
X1389Y1512D01*
X496Y1511D02*
X533Y1511D01*
X1353Y1511D02*
X1389Y1511D01*
X496Y1510D02*
X533Y1510D01*
X1353Y1510D02*
X1389Y1510D01*
X496Y1509D02*
X533Y1509D01*
X1353Y1509D02*
X1389Y1509D01*
X496Y1508D02*
X533Y1508D01*
X1353Y1508D02*
X1389Y1508D01*
X496Y1507D02*
X533Y1507D01*
X1353Y1507D02*
X1389Y1507D01*
X496Y1506D02*
X533Y1506D01*
X1353Y1506D02*
X1389Y1506D01*
X496Y1505D02*
X533Y1505D01*
X1353Y1505D02*
X1389Y1505D01*
X496Y1504D02*
X533Y1504D01*
X1353Y1504D02*
X1389Y1504D01*
X496Y1503D02*
X533Y1503D01*
X1353Y1503D02*
X1389Y1503D01*
X496Y1502D02*
X533Y1502D01*
X1353Y1502D02*
X1389Y1502D01*
X496Y1501D02*
X533Y1501D01*
X1353Y1501D02*
X1389Y1501D01*
X496Y1500D02*
X533Y1500D01*
X1353Y1500D02*
X1389Y1500D01*
X496Y1499D02*
X533Y1499D01*
X1353Y1499D02*
X1389Y1499D01*
X496Y1498D02*
X533Y1498D01*
X1353Y1498D02*
X1389Y1498D01*
X496Y1497D02*
X533Y1497D01*
X1353Y1497D02*
X1389Y1497D01*
X496Y1496D02*
X533Y1496D01*
X1353Y1496D02*
X1389Y1496D01*
X496Y1495D02*
X533Y1495D01*
X1353Y1495D02*
X1389Y1495D01*
X496Y1494D02*
X533Y1494D01*
X1353Y1494D02*
X1389Y1494D01*
X496Y1493D02*
X533Y1493D01*
X1353Y1493D02*
X1389Y1493D01*
X496Y1492D02*
X533Y1492D01*
X1353Y1492D02*
X1389Y1492D01*
X496Y1491D02*
X533Y1491D01*
X1353Y1491D02*
X1389Y1491D01*
X496Y1490D02*
X533Y1490D01*
X1353Y1490D02*
X1389Y1490D01*
X496Y1489D02*
X533Y1489D01*
X1353Y1489D02*
X1389Y1489D01*
X496Y1488D02*
X533Y1488D01*
X1353Y1488D02*
X1389Y1488D01*
X496Y1487D02*
X533Y1487D01*
X1353Y1487D02*
X1389Y1487D01*
X496Y1486D02*
X533Y1486D01*
X1353Y1486D02*
X1389Y1486D01*
X496Y1485D02*
X533Y1485D01*
X1353Y1485D02*
X1389Y1485D01*
X496Y1484D02*
X533Y1484D01*
X1353Y1484D02*
X1389Y1484D01*
X496Y1483D02*
X533Y1483D01*
X1353Y1483D02*
X1389Y1483D01*
X496Y1482D02*
X533Y1482D01*
X1353Y1482D02*
X1389Y1482D01*
X496Y1481D02*
X533Y1481D01*
X1353Y1481D02*
X1389Y1481D01*
X496Y1480D02*
X533Y1480D01*
X1353Y1480D02*
X1389Y1480D01*
X496Y1479D02*
X533Y1479D01*
X1353Y1479D02*
X1389Y1479D01*
X496Y1478D02*
X533Y1478D01*
X1353Y1478D02*
X1389Y1478D01*
X496Y1477D02*
X533Y1477D01*
X1353Y1477D02*
X1389Y1477D01*
X496Y1476D02*
X533Y1476D01*
X1353Y1476D02*
X1389Y1476D01*
X496Y1475D02*
X533Y1475D01*
X1353Y1475D02*
X1389Y1475D01*
X496Y1474D02*
X533Y1474D01*
X1353Y1474D02*
X1389Y1474D01*
X496Y1473D02*
X533Y1473D01*
X1353Y1473D02*
X1389Y1473D01*
X496Y1472D02*
X533Y1472D01*
X1353Y1472D02*
X1389Y1472D01*
X496Y1471D02*
X533Y1471D01*
X1353Y1471D02*
X1389Y1471D01*
X496Y1470D02*
X533Y1470D01*
X1353Y1470D02*
X1389Y1470D01*
X496Y1469D02*
X533Y1469D01*
X1353Y1469D02*
X1389Y1469D01*
X496Y1468D02*
X533Y1468D01*
X1353Y1468D02*
X1389Y1468D01*
X496Y1467D02*
X533Y1467D01*
X1353Y1467D02*
X1389Y1467D01*
X496Y1466D02*
X533Y1466D01*
X1353Y1466D02*
X1389Y1466D01*
X496Y1465D02*
X533Y1465D01*
X1353Y1465D02*
X1389Y1465D01*
X496Y1464D02*
X533Y1464D01*
X1353Y1464D02*
X1389Y1464D01*
X496Y1463D02*
X533Y1463D01*
X1353Y1463D02*
X1389Y1463D01*
X496Y1462D02*
X533Y1462D01*
X1353Y1462D02*
X1389Y1462D01*
X496Y1461D02*
X533Y1461D01*
X1353Y1461D02*
X1389Y1461D01*
X496Y1460D02*
X533Y1460D01*
X1353Y1460D02*
X1389Y1460D01*
X496Y1459D02*
X533Y1459D01*
X1353Y1459D02*
X1389Y1459D01*
X496Y1458D02*
X533Y1458D01*
X1353Y1458D02*
X1389Y1458D01*
X496Y1457D02*
X533Y1457D01*
X1353Y1457D02*
X1389Y1457D01*
X496Y1456D02*
X533Y1456D01*
X1353Y1456D02*
X1389Y1456D01*
X496Y1455D02*
X533Y1455D01*
X1353Y1455D02*
X1389Y1455D01*
X496Y1454D02*
X533Y1454D01*
X1353Y1454D02*
X1389Y1454D01*
X496Y1453D02*
X533Y1453D01*
X1353Y1453D02*
X1389Y1453D01*
X496Y1452D02*
X533Y1452D01*
X1353Y1452D02*
X1389Y1452D01*
X496Y1451D02*
X533Y1451D01*
X1353Y1451D02*
X1389Y1451D01*
X496Y1450D02*
X533Y1450D01*
X1353Y1450D02*
X1389Y1450D01*
X496Y1449D02*
X533Y1449D01*
X1353Y1449D02*
X1389Y1449D01*
X496Y1448D02*
X533Y1448D01*
X1353Y1448D02*
X1389Y1448D01*
X496Y1447D02*
X533Y1447D01*
X1353Y1447D02*
X1389Y1447D01*
X496Y1446D02*
X533Y1446D01*
X1353Y1446D02*
X1389Y1446D01*
X496Y1445D02*
X533Y1445D01*
X1353Y1445D02*
X1389Y1445D01*
X496Y1444D02*
X533Y1444D01*
X1353Y1444D02*
X1389Y1444D01*
X496Y1443D02*
X533Y1443D01*
X1353Y1443D02*
X1389Y1443D01*
X496Y1442D02*
X533Y1442D01*
X1353Y1442D02*
X1389Y1442D01*
X496Y1441D02*
X533Y1441D01*
X1353Y1441D02*
X1389Y1441D01*
X496Y1440D02*
X533Y1440D01*
X1353Y1440D02*
X1389Y1440D01*
X496Y1439D02*
X533Y1439D01*
X1353Y1439D02*
X1389Y1439D01*
X496Y1438D02*
X533Y1438D01*
X1353Y1438D02*
X1389Y1438D01*
X496Y1437D02*
X533Y1437D01*
X1353Y1437D02*
X1389Y1437D01*
X496Y1436D02*
X533Y1436D01*
X1353Y1436D02*
X1389Y1436D01*
X496Y1435D02*
X533Y1435D01*
X1353Y1435D02*
X1389Y1435D01*
X496Y1434D02*
X533Y1434D01*
X1353Y1434D02*
X1389Y1434D01*
X496Y1433D02*
X533Y1433D01*
X1353Y1433D02*
X1389Y1433D01*
X496Y1432D02*
X533Y1432D01*
X1353Y1432D02*
X1389Y1432D01*
X496Y1431D02*
X533Y1431D01*
X1353Y1431D02*
X1389Y1431D01*
X496Y1430D02*
X533Y1430D01*
X1353Y1430D02*
X1389Y1430D01*
X496Y1429D02*
X533Y1429D01*
X1353Y1429D02*
X1389Y1429D01*
X496Y1428D02*
X533Y1428D01*
X1353Y1428D02*
X1389Y1428D01*
X496Y1427D02*
X533Y1427D01*
X1353Y1427D02*
X1389Y1427D01*
X496Y1426D02*
X533Y1426D01*
X1353Y1426D02*
X1389Y1426D01*
X496Y1425D02*
X533Y1425D01*
X1353Y1425D02*
X1389Y1425D01*
X496Y1424D02*
X533Y1424D01*
X1353Y1424D02*
X1389Y1424D01*
X496Y1423D02*
X533Y1423D01*
X1353Y1423D02*
X1389Y1423D01*
X496Y1422D02*
X533Y1422D01*
X1353Y1422D02*
X1389Y1422D01*
X496Y1421D02*
X533Y1421D01*
X1353Y1421D02*
X1389Y1421D01*
X496Y1420D02*
X533Y1420D01*
X1353Y1420D02*
X1389Y1420D01*
X496Y1419D02*
X533Y1419D01*
X1353Y1419D02*
X1389Y1419D01*
X496Y1418D02*
X533Y1418D01*
X1353Y1418D02*
X1389Y1418D01*
X496Y1417D02*
X533Y1417D01*
X1353Y1417D02*
X1389Y1417D01*
X496Y1416D02*
X533Y1416D01*
X1353Y1416D02*
X1389Y1416D01*
X496Y1415D02*
X533Y1415D01*
X1353Y1415D02*
X1389Y1415D01*
X496Y1414D02*
X533Y1414D01*
X1353Y1414D02*
X1389Y1414D01*
X496Y1413D02*
X533Y1413D01*
X1353Y1413D02*
X1389Y1413D01*
X496Y1412D02*
X533Y1412D01*
X1353Y1412D02*
X1389Y1412D01*
X496Y1411D02*
X533Y1411D01*
X1353Y1411D02*
X1389Y1411D01*
X496Y1410D02*
X533Y1410D01*
X1353Y1410D02*
X1389Y1410D01*
X496Y1409D02*
X533Y1409D01*
X1353Y1409D02*
X1389Y1409D01*
X496Y1408D02*
X533Y1408D01*
X1353Y1408D02*
X1389Y1408D01*
X496Y1407D02*
X533Y1407D01*
X1353Y1407D02*
X1389Y1407D01*
X496Y1406D02*
X533Y1406D01*
X1353Y1406D02*
X1389Y1406D01*
X496Y1405D02*
X533Y1405D01*
X1353Y1405D02*
X1389Y1405D01*
X496Y1404D02*
X533Y1404D01*
X1353Y1404D02*
X1389Y1404D01*
X496Y1403D02*
X533Y1403D01*
X1353Y1403D02*
X1389Y1403D01*
X496Y1402D02*
X533Y1402D01*
X1353Y1402D02*
X1389Y1402D01*
X496Y1401D02*
X533Y1401D01*
X1353Y1401D02*
X1389Y1401D01*
X496Y1400D02*
X533Y1400D01*
X1353Y1400D02*
X1389Y1400D01*
X496Y1399D02*
X533Y1399D01*
X1353Y1399D02*
X1389Y1399D01*
X496Y1398D02*
X533Y1398D01*
X1353Y1398D02*
X1389Y1398D01*
X496Y1397D02*
X533Y1397D01*
X1353Y1397D02*
X1389Y1397D01*
X496Y1396D02*
X533Y1396D01*
X1353Y1396D02*
X1389Y1396D01*
X496Y1395D02*
X533Y1395D01*
X1353Y1395D02*
X1389Y1395D01*
X496Y1394D02*
X533Y1394D01*
X1353Y1394D02*
X1389Y1394D01*
X496Y1393D02*
X533Y1393D01*
X1353Y1393D02*
X1389Y1393D01*
X496Y1392D02*
X533Y1392D01*
X1353Y1392D02*
X1389Y1392D01*
X496Y1391D02*
X533Y1391D01*
X1353Y1391D02*
X1389Y1391D01*
X496Y1390D02*
X533Y1390D01*
X1353Y1390D02*
X1389Y1390D01*
X496Y1389D02*
X533Y1389D01*
X1353Y1389D02*
X1389Y1389D01*
X496Y1388D02*
X533Y1388D01*
X1353Y1388D02*
X1389Y1388D01*
X496Y1387D02*
X533Y1387D01*
X1353Y1387D02*
X1389Y1387D01*
X496Y1386D02*
X533Y1386D01*
X1353Y1386D02*
X1389Y1386D01*
X496Y1385D02*
X533Y1385D01*
X1353Y1385D02*
X1389Y1385D01*
X496Y1384D02*
X533Y1384D01*
X1353Y1384D02*
X1389Y1384D01*
X496Y1383D02*
X533Y1383D01*
X1353Y1383D02*
X1389Y1383D01*
X496Y1382D02*
X533Y1382D01*
X1353Y1382D02*
X1389Y1382D01*
X496Y1381D02*
X533Y1381D01*
X1353Y1381D02*
X1389Y1381D01*
X496Y1380D02*
X533Y1380D01*
X1353Y1380D02*
X1389Y1380D01*
X496Y1379D02*
X533Y1379D01*
X1353Y1379D02*
X1389Y1379D01*
X496Y1378D02*
X533Y1378D01*
X1353Y1378D02*
X1389Y1378D01*
X496Y1377D02*
X533Y1377D01*
X1353Y1377D02*
X1389Y1377D01*
X496Y1376D02*
X533Y1376D01*
X1353Y1376D02*
X1389Y1376D01*
X496Y1375D02*
X533Y1375D01*
X1353Y1375D02*
X1389Y1375D01*
X496Y1374D02*
X533Y1374D01*
X1353Y1374D02*
X1389Y1374D01*
X496Y1373D02*
X533Y1373D01*
X1353Y1373D02*
X1389Y1373D01*
X496Y1372D02*
X533Y1372D01*
X1353Y1372D02*
X1389Y1372D01*
X496Y1371D02*
X533Y1371D01*
X1353Y1371D02*
X1389Y1371D01*
X496Y1370D02*
X533Y1370D01*
X1353Y1370D02*
X1389Y1370D01*
X496Y1369D02*
X533Y1369D01*
X1353Y1369D02*
X1389Y1369D01*
X496Y1368D02*
X533Y1368D01*
X1353Y1368D02*
X1389Y1368D01*
X496Y1367D02*
X533Y1367D01*
X1353Y1367D02*
X1389Y1367D01*
X496Y1366D02*
X533Y1366D01*
X1353Y1366D02*
X1389Y1366D01*
X496Y1365D02*
X533Y1365D01*
X1353Y1365D02*
X1389Y1365D01*
X496Y1364D02*
X533Y1364D01*
X1353Y1364D02*
X1389Y1364D01*
X496Y1363D02*
X533Y1363D01*
X1353Y1363D02*
X1389Y1363D01*
X496Y1362D02*
X533Y1362D01*
X1353Y1362D02*
X1389Y1362D01*
X496Y1361D02*
X533Y1361D01*
X1353Y1361D02*
X1389Y1361D01*
X496Y1360D02*
X533Y1360D01*
X1353Y1360D02*
X1389Y1360D01*
X496Y1359D02*
X533Y1359D01*
X1353Y1359D02*
X1389Y1359D01*
X496Y1358D02*
X548Y1358D01*
X625Y1358D02*
X1097Y1358D01*
X1176Y1358D02*
X1389Y1358D01*
X496Y1357D02*
X548Y1357D01*
X626Y1357D02*
X1096Y1357D01*
X1176Y1357D02*
X1389Y1357D01*
X496Y1356D02*
X547Y1356D01*
X626Y1356D02*
X1096Y1356D01*
X1176Y1356D02*
X1389Y1356D01*
X496Y1355D02*
X547Y1355D01*
X627Y1355D02*
X1095Y1355D01*
X1177Y1355D02*
X1389Y1355D01*
X496Y1354D02*
X546Y1354D01*
X627Y1354D02*
X1095Y1354D01*
X1177Y1354D02*
X1389Y1354D01*
X496Y1353D02*
X546Y1353D01*
X628Y1353D02*
X1095Y1353D01*
X1178Y1353D02*
X1389Y1353D01*
X496Y1352D02*
X546Y1352D01*
X628Y1352D02*
X1094Y1352D01*
X1178Y1352D02*
X1389Y1352D01*
X496Y1351D02*
X545Y1351D01*
X628Y1351D02*
X1094Y1351D01*
X1178Y1351D02*
X1389Y1351D01*
X496Y1350D02*
X545Y1350D01*
X629Y1350D02*
X1094Y1350D01*
X1179Y1350D02*
X1389Y1350D01*
X496Y1349D02*
X545Y1349D01*
X629Y1349D02*
X1093Y1349D01*
X1179Y1349D02*
X1389Y1349D01*
X496Y1348D02*
X544Y1348D01*
X629Y1348D02*
X1093Y1348D01*
X1179Y1348D02*
X1389Y1348D01*
X496Y1347D02*
X544Y1347D01*
X630Y1347D02*
X1093Y1347D01*
X1180Y1347D02*
X1389Y1347D01*
X496Y1346D02*
X544Y1346D01*
X630Y1346D02*
X1093Y1346D01*
X1180Y1346D02*
X1389Y1346D01*
X496Y1345D02*
X544Y1345D01*
X630Y1345D02*
X1092Y1345D01*
X1180Y1345D02*
X1389Y1345D01*
X496Y1344D02*
X543Y1344D01*
X630Y1344D02*
X1092Y1344D01*
X1180Y1344D02*
X1389Y1344D01*
X496Y1343D02*
X543Y1343D01*
X630Y1343D02*
X1092Y1343D01*
X1180Y1343D02*
X1389Y1343D01*
X496Y1342D02*
X543Y1342D01*
X631Y1342D02*
X1092Y1342D01*
X1180Y1342D02*
X1389Y1342D01*
X496Y1341D02*
X543Y1341D01*
X631Y1341D02*
X1092Y1341D01*
X1180Y1341D02*
X1389Y1341D01*
X496Y1340D02*
X543Y1340D01*
X631Y1340D02*
X1092Y1340D01*
X1180Y1340D02*
X1389Y1340D01*
X496Y1339D02*
X543Y1339D01*
X631Y1339D02*
X1092Y1339D01*
X1181Y1339D02*
X1389Y1339D01*
X497Y1338D02*
X543Y1338D01*
X631Y1338D02*
X1092Y1338D01*
X1181Y1338D02*
X1389Y1338D01*
X497Y1337D02*
X543Y1337D01*
X631Y1337D02*
X1092Y1337D01*
X1181Y1337D02*
X1389Y1337D01*
X497Y1336D02*
X543Y1336D01*
X631Y1336D02*
X1092Y1336D01*
X1181Y1336D02*
X1389Y1336D01*
X497Y1335D02*
X543Y1335D01*
X631Y1335D02*
X1092Y1335D01*
X1180Y1335D02*
X1389Y1335D01*
X497Y1334D02*
X543Y1334D01*
X631Y1334D02*
X1092Y1334D01*
X1180Y1334D02*
X1388Y1334D01*
X498Y1333D02*
X543Y1333D01*
X631Y1333D02*
X1092Y1333D01*
X1180Y1333D02*
X1388Y1333D01*
X498Y1332D02*
X543Y1332D01*
X631Y1332D02*
X1092Y1332D01*
X1180Y1332D02*
X1388Y1332D01*
X499Y1331D02*
X543Y1331D01*
X630Y1331D02*
X1092Y1331D01*
X1180Y1331D02*
X1387Y1331D01*
X499Y1330D02*
X543Y1330D01*
X630Y1330D02*
X1092Y1330D01*
X1180Y1330D02*
X1387Y1330D01*
X500Y1329D02*
X543Y1329D01*
X630Y1329D02*
X1093Y1329D01*
X1180Y1329D02*
X1386Y1329D01*
X501Y1328D02*
X543Y1328D01*
X630Y1328D02*
X1093Y1328D01*
X1179Y1328D02*
X1385Y1328D01*
X501Y1327D02*
X544Y1327D01*
X630Y1327D02*
X1093Y1327D01*
X1179Y1327D02*
X1384Y1327D01*
X502Y1326D02*
X544Y1326D01*
X630Y1326D02*
X1093Y1326D01*
X1179Y1326D02*
X1384Y1326D01*
X504Y1325D02*
X544Y1325D01*
X629Y1325D02*
X1094Y1325D01*
X1179Y1325D02*
X1382Y1325D01*
X505Y1324D02*
X544Y1324D01*
X629Y1324D02*
X1094Y1324D01*
X1178Y1324D02*
X1381Y1324D01*
X507Y1323D02*
X545Y1323D01*
X629Y1323D02*
X1094Y1323D01*
X1178Y1323D02*
X1379Y1323D01*
X509Y1322D02*
X545Y1322D01*
X628Y1322D02*
X1095Y1322D01*
X1178Y1322D02*
X1377Y1322D01*
X513Y1321D02*
X545Y1321D01*
X628Y1321D02*
X1095Y1321D01*
X1178Y1321D02*
X1373Y1321D01*
D02*
G04 End of Silk1*
M02*