; NON-PLATED HOLES START AT T1
; THROUGH (PLATED) HOLES START AT T100
M48
INCH
T1C0.126000
T2C0.049194
T3C0.165354
T100C0.031496
T101C0.040000
T102C0.086614
T103C0.039370
T104C0.035433
T105C0.073000
T106C0.031833
T107C0.098425
%
T1
X041810Y025776
X041810Y017776
X019912Y033776
X019912Y025776
X019912Y017776
X019912Y041776
X041810Y041776
X041810Y033776
T2
X014495Y017771
T3
X005495Y043771
X008495Y015771
X045495Y002770
X002495Y002770
T100
X037890Y005471
X037890Y008070
T101
X008495Y002770
X011495Y035771
X009495Y008771
X009495Y002770
X008495Y004770
X011495Y027771
X009495Y010771
X011495Y023771
X009595Y005770
X008595Y005770
X002495Y009771
X009595Y007770
X008495Y008771
X008595Y009771
X002495Y015148
X011495Y031771
X009495Y006770
X009595Y003770
X009595Y011771
X011495Y037149
X008595Y003770
X002495Y017771
X011495Y025148
X002495Y011148
X009595Y009771
X008595Y007770
X009495Y004770
X008595Y011771
X008495Y010771
X011495Y033148
X002495Y019148
X011495Y029148
X002495Y013771
X008495Y006770
T102
X002995Y044271
X007995Y044271
T103
X003495Y039771
X008495Y039771
X007495Y039771
X006495Y039771
X002495Y039771
X005495Y039771
X004495Y039771
T104
X031495Y010771
X028495Y010771
X034495Y002770
X033495Y010771
X032495Y002770
X023495Y002770
X026495Y002770
X027495Y002770
X024495Y010771
X037495Y002770
X022495Y002770
X030495Y010771
X028495Y002770
X026495Y010771
X025495Y002770
X036495Y002770
X038993Y008188
X027495Y010771
X038993Y005353
X029495Y010771
X031495Y002770
X022495Y010771
X030495Y002770
X024495Y002770
X033495Y002770
X029495Y002770
X035495Y002770
X025495Y010771
X023495Y010771
X032495Y010771
T105
X016495Y017771
X045185Y017777
X045185Y033777
X016495Y033771
X045185Y025777
X016495Y041771
X016495Y025771
X045185Y041777
T106
X014495Y015771
X014495Y016771
X004370Y013798
X004370Y015798
X004370Y014798
X014495Y014771
X004370Y017798
X004370Y016798
X004370Y018798
T107
X038995Y010271
X038995Y003270
T00
M30
