G04 MADE WITH FRITZING*
G04 WWW.FRITZING.ORG*
G04 DOUBLE SIDED*
G04 HOLES PLATED*
G04 CONTOUR ON CENTER OF CONTOUR VECTOR*
%ASAXBY*%
%FSLAX23Y23*%
%MOIN*%
%OFA0B0*%
%SFA1.0B1.0*%
%ADD10C,0.084000*%
%ADD11C,0.136614*%
%ADD12C,0.080000*%
%ADD13C,0.090000*%
%ADD14C,0.103000*%
%ADD15C,0.136000*%
%ADD16C,0.148425*%
%ADD17C,0.105000*%
%ADD18C,0.061496*%
%ADD19C,0.072000*%
%ADD20C,0.076555*%
%ADD21C,0.059194*%
%ADD22C,0.175354*%
%ADD23R,0.090000X0.090000*%
%ADD24R,0.105000X0.105000*%
%ADD25R,0.001000X0.001000*%
%LNMASK1*%
G90*
G70*
G54D10*
X860Y1177D03*
X960Y1177D03*
X850Y1077D03*
X950Y1077D03*
X860Y977D03*
X960Y977D03*
X850Y877D03*
X950Y877D03*
X860Y777D03*
X960Y777D03*
X850Y677D03*
X950Y677D03*
X860Y577D03*
X960Y577D03*
X850Y477D03*
X950Y477D03*
X860Y377D03*
X960Y377D03*
X850Y277D03*
X950Y277D03*
X860Y1177D03*
X960Y1177D03*
X850Y1077D03*
X950Y1077D03*
X860Y977D03*
X960Y977D03*
X850Y877D03*
X950Y877D03*
X860Y777D03*
X960Y777D03*
X850Y677D03*
X950Y677D03*
X860Y577D03*
X960Y577D03*
X850Y477D03*
X950Y477D03*
X860Y377D03*
X960Y377D03*
X850Y277D03*
X950Y277D03*
G54D11*
X800Y4427D03*
G54D12*
X250Y3977D03*
X350Y3977D03*
X450Y3977D03*
X550Y3977D03*
X650Y3977D03*
X750Y3977D03*
X850Y3977D03*
G54D11*
X300Y4427D03*
G54D13*
X250Y1115D03*
X250Y977D03*
X250Y1115D03*
X250Y977D03*
X250Y1515D03*
X250Y1377D03*
X250Y1515D03*
X250Y1377D03*
X1150Y2515D03*
X1150Y2377D03*
X1150Y2515D03*
X1150Y2377D03*
X1150Y2915D03*
X1150Y2777D03*
X1150Y2915D03*
X1150Y2777D03*
X1150Y3315D03*
X1150Y3177D03*
X1150Y3315D03*
X1150Y3177D03*
X1150Y3715D03*
X1150Y3577D03*
X1150Y3715D03*
X1150Y3577D03*
X250Y1915D03*
X250Y1777D03*
X250Y1915D03*
X250Y1777D03*
G54D14*
X1650Y4177D03*
G54D15*
X1991Y4178D03*
G54D14*
X4519Y4178D03*
G54D15*
X4181Y4178D03*
G54D14*
X1650Y4177D03*
G54D15*
X1991Y4178D03*
G54D14*
X4519Y4178D03*
G54D15*
X4181Y4178D03*
G54D14*
X1650Y3377D03*
G54D15*
X1991Y3378D03*
G54D14*
X4519Y3378D03*
G54D15*
X4181Y3378D03*
G54D14*
X1650Y3377D03*
G54D15*
X1991Y3378D03*
G54D14*
X4519Y3378D03*
G54D15*
X4181Y3378D03*
G54D14*
X1650Y1777D03*
G54D15*
X1991Y1778D03*
G54D14*
X4519Y1778D03*
G54D15*
X4181Y1778D03*
G54D14*
X1650Y1777D03*
G54D15*
X1991Y1778D03*
G54D14*
X4519Y1778D03*
G54D15*
X4181Y1778D03*
G54D14*
X1650Y2577D03*
G54D15*
X1991Y2578D03*
G54D14*
X4519Y2578D03*
G54D15*
X4181Y2578D03*
G54D14*
X1650Y2577D03*
G54D15*
X1991Y2578D03*
G54D14*
X4519Y2578D03*
G54D15*
X4181Y2578D03*
G54D16*
X3900Y327D03*
G54D17*
X3899Y819D03*
G54D18*
X3789Y807D03*
G54D19*
X2250Y277D03*
X2350Y277D03*
X2450Y277D03*
X2550Y277D03*
X2650Y277D03*
X2750Y277D03*
X2850Y277D03*
X2950Y277D03*
X3050Y277D03*
G54D16*
X3900Y1027D03*
G54D19*
X3150Y277D03*
X3250Y277D03*
X3350Y277D03*
X3450Y277D03*
X3550Y277D03*
X3650Y277D03*
X3750Y277D03*
X3350Y1077D03*
X3250Y1077D03*
X3150Y1077D03*
X3050Y1077D03*
X2950Y1077D03*
X2850Y1077D03*
X2750Y1077D03*
X2650Y1077D03*
X2550Y1077D03*
X2450Y1077D03*
X2350Y1077D03*
X2250Y1077D03*
G54D18*
X3789Y547D03*
G54D17*
X3899Y535D03*
G54D16*
X3900Y327D03*
G54D17*
X3899Y819D03*
G54D18*
X3789Y807D03*
G54D19*
X2250Y277D03*
X2350Y277D03*
X2450Y277D03*
X2550Y277D03*
X2650Y277D03*
X2750Y277D03*
X2850Y277D03*
X2950Y277D03*
X3050Y277D03*
G54D16*
X3900Y1027D03*
G54D19*
X3150Y277D03*
X3250Y277D03*
X3350Y277D03*
X3450Y277D03*
X3550Y277D03*
X3650Y277D03*
X3750Y277D03*
X3350Y1077D03*
X3250Y1077D03*
X3150Y1077D03*
X3050Y1077D03*
X2950Y1077D03*
X2850Y1077D03*
X2750Y1077D03*
X2650Y1077D03*
X2550Y1077D03*
X2450Y1077D03*
X2350Y1077D03*
X2250Y1077D03*
G54D18*
X3789Y547D03*
G54D17*
X3899Y535D03*
G54D20*
X437Y1780D03*
X437Y1680D03*
X437Y1580D03*
X437Y1480D03*
X437Y1380D03*
X437Y1880D03*
X1450Y1677D03*
X1450Y1577D03*
G54D21*
X1450Y1777D03*
G54D20*
X1450Y1477D03*
G54D22*
X4550Y277D03*
X850Y1577D03*
X550Y4377D03*
X250Y277D03*
G54D23*
X250Y1115D03*
X250Y1115D03*
X250Y1515D03*
X250Y1515D03*
X1150Y2515D03*
X1150Y2515D03*
X1150Y2915D03*
X1150Y2915D03*
X1150Y3315D03*
X1150Y3315D03*
X1150Y3715D03*
X1150Y3715D03*
X250Y1915D03*
X250Y1915D03*
G54D24*
X3899Y819D03*
X3899Y535D03*
X3899Y819D03*
X3899Y535D03*
G54D25*
X403Y1915D02*
X470Y1915D01*
X402Y1914D02*
X471Y1914D01*
X402Y1913D02*
X471Y1913D01*
X402Y1912D02*
X471Y1912D01*
X402Y1911D02*
X471Y1911D01*
X402Y1910D02*
X471Y1910D01*
X402Y1909D02*
X471Y1909D01*
X402Y1908D02*
X471Y1908D01*
X402Y1907D02*
X471Y1907D01*
X402Y1906D02*
X471Y1906D01*
X402Y1905D02*
X471Y1905D01*
X402Y1904D02*
X471Y1904D01*
X402Y1903D02*
X471Y1903D01*
X402Y1902D02*
X471Y1902D01*
X402Y1901D02*
X471Y1901D01*
X402Y1900D02*
X471Y1900D01*
X402Y1899D02*
X471Y1899D01*
X402Y1898D02*
X471Y1898D01*
X402Y1897D02*
X471Y1897D01*
X402Y1896D02*
X471Y1896D01*
X402Y1895D02*
X471Y1895D01*
X402Y1894D02*
X471Y1894D01*
X402Y1893D02*
X432Y1893D01*
X441Y1893D02*
X471Y1893D01*
X402Y1892D02*
X429Y1892D01*
X444Y1892D02*
X471Y1892D01*
X402Y1891D02*
X428Y1891D01*
X445Y1891D02*
X471Y1891D01*
X402Y1890D02*
X427Y1890D01*
X446Y1890D02*
X471Y1890D01*
X402Y1889D02*
X426Y1889D01*
X447Y1889D02*
X471Y1889D01*
X402Y1888D02*
X425Y1888D01*
X448Y1888D02*
X471Y1888D01*
X402Y1887D02*
X424Y1887D01*
X449Y1887D02*
X471Y1887D01*
X402Y1886D02*
X424Y1886D01*
X449Y1886D02*
X471Y1886D01*
X402Y1885D02*
X423Y1885D01*
X450Y1885D02*
X471Y1885D01*
X402Y1884D02*
X423Y1884D01*
X450Y1884D02*
X471Y1884D01*
X402Y1883D02*
X423Y1883D01*
X450Y1883D02*
X471Y1883D01*
X402Y1882D02*
X423Y1882D01*
X450Y1882D02*
X471Y1882D01*
X402Y1881D02*
X423Y1881D01*
X450Y1881D02*
X471Y1881D01*
X402Y1880D02*
X423Y1880D01*
X450Y1880D02*
X471Y1880D01*
X402Y1879D02*
X423Y1879D01*
X450Y1879D02*
X471Y1879D01*
X402Y1878D02*
X423Y1878D01*
X450Y1878D02*
X471Y1878D01*
X402Y1877D02*
X423Y1877D01*
X450Y1877D02*
X471Y1877D01*
X402Y1876D02*
X423Y1876D01*
X450Y1876D02*
X471Y1876D01*
X402Y1875D02*
X423Y1875D01*
X450Y1875D02*
X471Y1875D01*
X402Y1874D02*
X424Y1874D01*
X449Y1874D02*
X471Y1874D01*
X402Y1873D02*
X425Y1873D01*
X448Y1873D02*
X471Y1873D01*
X402Y1872D02*
X425Y1872D01*
X448Y1872D02*
X471Y1872D01*
X402Y1871D02*
X426Y1871D01*
X447Y1871D02*
X471Y1871D01*
X402Y1870D02*
X427Y1870D01*
X446Y1870D02*
X471Y1870D01*
X402Y1869D02*
X428Y1869D01*
X445Y1869D02*
X471Y1869D01*
X402Y1868D02*
X430Y1868D01*
X443Y1868D02*
X471Y1868D01*
X402Y1867D02*
X433Y1867D01*
X440Y1867D02*
X471Y1867D01*
X402Y1866D02*
X471Y1866D01*
X402Y1865D02*
X471Y1865D01*
X402Y1864D02*
X471Y1864D01*
X402Y1863D02*
X471Y1863D01*
X402Y1862D02*
X471Y1862D01*
X402Y1861D02*
X471Y1861D01*
X402Y1860D02*
X471Y1860D01*
X402Y1859D02*
X471Y1859D01*
X402Y1858D02*
X471Y1858D01*
X402Y1857D02*
X471Y1857D01*
X402Y1856D02*
X471Y1856D01*
X402Y1855D02*
X471Y1855D01*
X402Y1854D02*
X471Y1854D01*
X402Y1853D02*
X471Y1853D01*
X402Y1852D02*
X471Y1852D01*
X402Y1851D02*
X471Y1851D01*
X402Y1850D02*
X471Y1850D01*
X402Y1849D02*
X471Y1849D01*
X402Y1848D02*
X471Y1848D01*
X402Y1847D02*
X471Y1847D01*
X402Y1846D02*
X471Y1846D01*
X1415Y1812D02*
X1483Y1812D01*
X1415Y1811D02*
X1483Y1811D01*
X1415Y1810D02*
X1483Y1810D01*
X1415Y1809D02*
X1483Y1809D01*
X1415Y1808D02*
X1483Y1808D01*
X1415Y1807D02*
X1483Y1807D01*
X1415Y1806D02*
X1483Y1806D01*
X1415Y1805D02*
X1483Y1805D01*
X1415Y1804D02*
X1483Y1804D01*
X1415Y1803D02*
X1483Y1803D01*
X1415Y1802D02*
X1483Y1802D01*
X1415Y1801D02*
X1483Y1801D01*
X1415Y1800D02*
X1483Y1800D01*
X1415Y1799D02*
X1483Y1799D01*
X1415Y1798D02*
X1483Y1798D01*
X1415Y1797D02*
X1483Y1797D01*
X1415Y1796D02*
X1483Y1796D01*
X1415Y1795D02*
X1483Y1795D01*
X1415Y1794D02*
X1483Y1794D01*
X1415Y1793D02*
X1483Y1793D01*
X1415Y1792D02*
X1483Y1792D01*
X1415Y1791D02*
X1483Y1791D01*
X1415Y1790D02*
X1443Y1790D01*
X1455Y1790D02*
X1483Y1790D01*
X1415Y1789D02*
X1441Y1789D01*
X1456Y1789D02*
X1483Y1789D01*
X1415Y1788D02*
X1440Y1788D01*
X1458Y1788D02*
X1483Y1788D01*
X1415Y1787D02*
X1439Y1787D01*
X1459Y1787D02*
X1483Y1787D01*
X1415Y1786D02*
X1438Y1786D01*
X1460Y1786D02*
X1483Y1786D01*
X1415Y1785D02*
X1437Y1785D01*
X1461Y1785D02*
X1483Y1785D01*
X1415Y1784D02*
X1437Y1784D01*
X1461Y1784D02*
X1483Y1784D01*
X1415Y1783D02*
X1436Y1783D01*
X1462Y1783D02*
X1483Y1783D01*
X1415Y1782D02*
X1436Y1782D01*
X1462Y1782D02*
X1483Y1782D01*
X1415Y1781D02*
X1435Y1781D01*
X1462Y1781D02*
X1483Y1781D01*
X1415Y1780D02*
X1435Y1780D01*
X1463Y1780D02*
X1483Y1780D01*
X1415Y1779D02*
X1435Y1779D01*
X1463Y1779D02*
X1483Y1779D01*
X1415Y1778D02*
X1435Y1778D01*
X1463Y1778D02*
X1483Y1778D01*
X1415Y1777D02*
X1435Y1777D01*
X1463Y1777D02*
X1483Y1777D01*
X1415Y1776D02*
X1435Y1776D01*
X1463Y1776D02*
X1483Y1776D01*
X1415Y1775D02*
X1435Y1775D01*
X1463Y1775D02*
X1483Y1775D01*
X1415Y1774D02*
X1435Y1774D01*
X1462Y1774D02*
X1483Y1774D01*
X1415Y1773D02*
X1436Y1773D01*
X1462Y1773D02*
X1483Y1773D01*
X1415Y1772D02*
X1436Y1772D01*
X1462Y1772D02*
X1483Y1772D01*
X1415Y1771D02*
X1437Y1771D01*
X1461Y1771D02*
X1483Y1771D01*
X1415Y1770D02*
X1437Y1770D01*
X1461Y1770D02*
X1483Y1770D01*
X1415Y1769D02*
X1438Y1769D01*
X1460Y1769D02*
X1483Y1769D01*
X1415Y1768D02*
X1439Y1768D01*
X1459Y1768D02*
X1483Y1768D01*
X1415Y1767D02*
X1440Y1767D01*
X1458Y1767D02*
X1483Y1767D01*
X1415Y1766D02*
X1441Y1766D01*
X1457Y1766D02*
X1483Y1766D01*
X1415Y1765D02*
X1443Y1765D01*
X1455Y1765D02*
X1483Y1765D01*
X1415Y1764D02*
X1448Y1764D01*
X1450Y1764D02*
X1483Y1764D01*
X1415Y1763D02*
X1483Y1763D01*
X1415Y1762D02*
X1483Y1762D01*
X1415Y1761D02*
X1483Y1761D01*
X1415Y1760D02*
X1483Y1760D01*
X1415Y1759D02*
X1483Y1759D01*
X1415Y1758D02*
X1483Y1758D01*
X1415Y1757D02*
X1483Y1757D01*
X1415Y1756D02*
X1483Y1756D01*
X1415Y1755D02*
X1483Y1755D01*
X1415Y1754D02*
X1483Y1754D01*
X1415Y1753D02*
X1483Y1753D01*
X1415Y1752D02*
X1483Y1752D01*
X1415Y1751D02*
X1483Y1751D01*
X1415Y1750D02*
X1483Y1750D01*
X1415Y1749D02*
X1483Y1749D01*
X1415Y1748D02*
X1483Y1748D01*
X1415Y1747D02*
X1483Y1747D01*
X1415Y1746D02*
X1483Y1746D01*
X1415Y1745D02*
X1483Y1745D01*
X1415Y1744D02*
X1483Y1744D01*
X1415Y1743D02*
X1483Y1743D01*
X3763Y853D02*
X3814Y853D01*
X3763Y852D02*
X3814Y852D01*
X3763Y851D02*
X3814Y851D01*
X3763Y850D02*
X3814Y850D01*
X3763Y849D02*
X3814Y849D01*
X3763Y848D02*
X3814Y848D01*
X3763Y847D02*
X3814Y847D01*
X3763Y846D02*
X3814Y846D01*
X3763Y845D02*
X3814Y845D01*
X3763Y844D02*
X3814Y844D01*
X3763Y843D02*
X3814Y843D01*
X3763Y842D02*
X3814Y842D01*
X3763Y841D02*
X3814Y841D01*
X3763Y840D02*
X3814Y840D01*
X3763Y839D02*
X3814Y839D01*
X3763Y838D02*
X3814Y838D01*
X3763Y837D02*
X3814Y837D01*
X3763Y836D02*
X3814Y836D01*
X3763Y835D02*
X3814Y835D01*
X3763Y834D02*
X3814Y834D01*
X3763Y833D02*
X3814Y833D01*
X3763Y832D02*
X3814Y832D01*
X3763Y831D02*
X3814Y831D01*
X3763Y830D02*
X3814Y830D01*
X3763Y829D02*
X3814Y829D01*
X3763Y828D02*
X3814Y828D01*
X3763Y827D02*
X3814Y827D01*
X3763Y826D02*
X3814Y826D01*
X3763Y825D02*
X3814Y825D01*
X3763Y824D02*
X3814Y824D01*
X3763Y823D02*
X3786Y823D01*
X3791Y823D02*
X3814Y823D01*
X3763Y822D02*
X3782Y822D01*
X3795Y822D02*
X3814Y822D01*
X3763Y821D02*
X3780Y821D01*
X3797Y821D02*
X3814Y821D01*
X3763Y820D02*
X3778Y820D01*
X3798Y820D02*
X3814Y820D01*
X3763Y819D02*
X3777Y819D01*
X3799Y819D02*
X3814Y819D01*
X3763Y818D02*
X3776Y818D01*
X3800Y818D02*
X3814Y818D01*
X3763Y817D02*
X3775Y817D01*
X3801Y817D02*
X3814Y817D01*
X3763Y816D02*
X3775Y816D01*
X3802Y816D02*
X3814Y816D01*
X3763Y815D02*
X3774Y815D01*
X3803Y815D02*
X3814Y815D01*
X3763Y814D02*
X3773Y814D01*
X3803Y814D02*
X3814Y814D01*
X3763Y813D02*
X3773Y813D01*
X3804Y813D02*
X3814Y813D01*
X3763Y812D02*
X3773Y812D01*
X3804Y812D02*
X3814Y812D01*
X3763Y811D02*
X3772Y811D01*
X3804Y811D02*
X3814Y811D01*
X3763Y810D02*
X3772Y810D01*
X3804Y810D02*
X3814Y810D01*
X3763Y809D02*
X3772Y809D01*
X3804Y809D02*
X3814Y809D01*
X3763Y808D02*
X3772Y808D01*
X3804Y808D02*
X3814Y808D01*
X3763Y807D02*
X3772Y807D01*
X3804Y807D02*
X3814Y807D01*
X3763Y806D02*
X3772Y806D01*
X3804Y806D02*
X3814Y806D01*
X3763Y805D02*
X3772Y805D01*
X3804Y805D02*
X3814Y805D01*
X3763Y804D02*
X3772Y804D01*
X3804Y804D02*
X3814Y804D01*
X3763Y803D02*
X3773Y803D01*
X3804Y803D02*
X3814Y803D01*
X3763Y802D02*
X3773Y802D01*
X3804Y802D02*
X3814Y802D01*
X3763Y801D02*
X3773Y801D01*
X3803Y801D02*
X3814Y801D01*
X3763Y800D02*
X3774Y800D01*
X3803Y800D02*
X3814Y800D01*
X3763Y799D02*
X3774Y799D01*
X3802Y799D02*
X3814Y799D01*
X3763Y798D02*
X3775Y798D01*
X3801Y798D02*
X3814Y798D01*
X3763Y797D02*
X3776Y797D01*
X3800Y797D02*
X3814Y797D01*
X3763Y796D02*
X3777Y796D01*
X3800Y796D02*
X3814Y796D01*
X3763Y795D02*
X3778Y795D01*
X3798Y795D02*
X3814Y795D01*
X3763Y794D02*
X3780Y794D01*
X3797Y794D02*
X3814Y794D01*
X3763Y793D02*
X3781Y793D01*
X3795Y793D02*
X3814Y793D01*
X3763Y792D02*
X3787Y792D01*
X3790Y792D02*
X3814Y792D01*
X3763Y791D02*
X3814Y791D01*
X3763Y790D02*
X3814Y790D01*
X3763Y789D02*
X3814Y789D01*
X3763Y788D02*
X3814Y788D01*
X3763Y787D02*
X3814Y787D01*
X3763Y786D02*
X3814Y786D01*
X3763Y785D02*
X3814Y785D01*
X3763Y784D02*
X3814Y784D01*
X3763Y783D02*
X3814Y783D01*
X3763Y782D02*
X3813Y782D01*
X3763Y573D02*
X3813Y573D01*
X3763Y572D02*
X3814Y572D01*
X3763Y571D02*
X3814Y571D01*
X3763Y570D02*
X3814Y570D01*
X3763Y569D02*
X3814Y569D01*
X3763Y568D02*
X3814Y568D01*
X3763Y567D02*
X3814Y567D01*
X3763Y566D02*
X3814Y566D01*
X3763Y565D02*
X3814Y565D01*
X3763Y564D02*
X3814Y564D01*
X3763Y563D02*
X3785Y563D01*
X3792Y563D02*
X3814Y563D01*
X3763Y562D02*
X3781Y562D01*
X3795Y562D02*
X3814Y562D01*
X3763Y561D02*
X3779Y561D01*
X3797Y561D02*
X3814Y561D01*
X3763Y560D02*
X3778Y560D01*
X3798Y560D02*
X3814Y560D01*
X3763Y559D02*
X3777Y559D01*
X3800Y559D02*
X3814Y559D01*
X3763Y558D02*
X3776Y558D01*
X3801Y558D02*
X3814Y558D01*
X3763Y557D02*
X3775Y557D01*
X3801Y557D02*
X3814Y557D01*
X3763Y556D02*
X3774Y556D01*
X3802Y556D02*
X3814Y556D01*
X3763Y555D02*
X3774Y555D01*
X3803Y555D02*
X3814Y555D01*
X3763Y554D02*
X3773Y554D01*
X3803Y554D02*
X3814Y554D01*
X3763Y553D02*
X3773Y553D01*
X3804Y553D02*
X3814Y553D01*
X3763Y552D02*
X3773Y552D01*
X3804Y552D02*
X3814Y552D01*
X3763Y551D02*
X3772Y551D01*
X3804Y551D02*
X3814Y551D01*
X3763Y550D02*
X3772Y550D01*
X3804Y550D02*
X3814Y550D01*
X3763Y549D02*
X3772Y549D01*
X3804Y549D02*
X3814Y549D01*
X3763Y548D02*
X3772Y548D01*
X3804Y548D02*
X3814Y548D01*
X3763Y547D02*
X3772Y547D01*
X3804Y547D02*
X3814Y547D01*
X3763Y546D02*
X3772Y546D01*
X3804Y546D02*
X3814Y546D01*
X3763Y545D02*
X3772Y545D01*
X3804Y545D02*
X3814Y545D01*
X3763Y544D02*
X3772Y544D01*
X3804Y544D02*
X3814Y544D01*
X3763Y543D02*
X3773Y543D01*
X3804Y543D02*
X3814Y543D01*
X3763Y542D02*
X3773Y542D01*
X3804Y542D02*
X3814Y542D01*
X3763Y541D02*
X3773Y541D01*
X3803Y541D02*
X3814Y541D01*
X3763Y540D02*
X3774Y540D01*
X3803Y540D02*
X3814Y540D01*
X3763Y539D02*
X3775Y539D01*
X3802Y539D02*
X3814Y539D01*
X3763Y538D02*
X3775Y538D01*
X3801Y538D02*
X3814Y538D01*
X3763Y537D02*
X3776Y537D01*
X3800Y537D02*
X3814Y537D01*
X3763Y536D02*
X3777Y536D01*
X3799Y536D02*
X3814Y536D01*
X3763Y535D02*
X3778Y535D01*
X3798Y535D02*
X3814Y535D01*
X3763Y534D02*
X3780Y534D01*
X3797Y534D02*
X3814Y534D01*
X3763Y533D02*
X3782Y533D01*
X3795Y533D02*
X3814Y533D01*
X3763Y532D02*
X3787Y532D01*
X3790Y532D02*
X3814Y532D01*
X3763Y531D02*
X3814Y531D01*
X3763Y530D02*
X3814Y530D01*
X3763Y529D02*
X3814Y529D01*
X3763Y528D02*
X3814Y528D01*
X3763Y527D02*
X3814Y527D01*
X3763Y526D02*
X3814Y526D01*
X3763Y525D02*
X3814Y525D01*
X3763Y524D02*
X3814Y524D01*
X3763Y523D02*
X3814Y523D01*
X3763Y522D02*
X3814Y522D01*
X3763Y521D02*
X3814Y521D01*
X3763Y520D02*
X3814Y520D01*
X3763Y519D02*
X3814Y519D01*
X3763Y518D02*
X3814Y518D01*
X3763Y517D02*
X3814Y517D01*
X3763Y516D02*
X3814Y516D01*
X3763Y515D02*
X3814Y515D01*
X3763Y514D02*
X3814Y514D01*
X3763Y513D02*
X3814Y513D01*
X3763Y512D02*
X3814Y512D01*
X3763Y511D02*
X3814Y511D01*
X3763Y510D02*
X3814Y510D01*
X3763Y509D02*
X3814Y509D01*
X3763Y508D02*
X3814Y508D01*
X3763Y507D02*
X3814Y507D01*
X3763Y506D02*
X3814Y506D01*
X3763Y505D02*
X3814Y505D01*
X3763Y504D02*
X3814Y504D01*
X3763Y503D02*
X3814Y503D01*
X3763Y502D02*
X3814Y502D01*
D02*
G04 End of Mask1*
M02*