  0
SECTION
  2
HEADER
  9
$ACADVER
  1
AC1009
  9
$EXTMIN
 10
0.0
 20
0.0
 30
0.0
  9
$EXTMAX
 10
1000.0
 20
1000.0
 30
0.0
  9
$FILLMODE
 70
 0
  9
$SPLFRAME
 70
 1
  0
ENDSEC
  0
SECTION
  2
TABLES
  0
TABLE
  2
LAYER
 70
1
  0
LAYER
  2
0
 70
     0
 62
     7
  6
CONTINUOUS
  0
ENDTAB
  0
ENDSEC
  0
SECTION
  2
ENTITIES
  0
POLYLINE
  8
0
 62
     0
 66
     1
 10
0
 20
0
 30
0.0
 40
72
 41
72
  0
VERTEX
  8
0
 10
1355.5
 20
2006.5
 30
0.0
 40
1
 41
1
  0
VERTEX
  8
0
 10
1355.5
 20
1516.5
 30
0.0
 40
1
 41
1
  0
SEQEND
 8
0
  0
POLYLINE
  8
0
 62
     0
 66
     1
 10
0
 20
0
 30
0.0
 40
72
 41
72
  0
VERTEX
  8
0
 10
1655.5
 20
2006.5
 30
0.0
 40
1
 41
1
  0
VERTEX
  8
0
 10
1655.5
 20
1516.5
 30
0.0
 40
1
 41
1
  0
SEQEND
 8
0
  0
POLYLINE
  8
0
 62
     0
 66
     1
 10
0
 20
0
 30
0.0
 40
72
 41
72
  0
VERTEX
  8
0
 10
1890.5
 20
2306.5
 30
0.0
 40
1
 41
1
  0
VERTEX
  8
0
 10
1890.5
 20
2006.5
 30
0.0
 40
1
 41
1
  0
SEQEND
 8
0
  0
POLYLINE
  8
0
 62
     0
 66
     1
 10
0
 20
0
 30
0.0
 40
72
 41
72
  0
VERTEX
  8
0
 10
2255.5
 20
1996.5
 30
0.0
 40
1
 41
1
  0
VERTEX
  8
0
 10
2375.5
 20
1996.5
 30
0.0
 40
1
 41
1
  0
SEQEND
 8
0
  0
POLYLINE
  8
0
 62
     0
 66
     1
 10
0
 20
0
 30
0.0
 40
72
 41
72
  0
VERTEX
  8
0
 10
2255.5
 20
1403.5
 30
0.0
 40
1
 41
1
  0
VERTEX
  8
0
 10
2375.5
 20
1403.5
 30
0.0
 40
1
 41
1
  0
SEQEND
 8
0
  0
POLYLINE
  8
0
 62
     0
 66
     1
 10
0
 20
0
 30
0.0
 40
72
 41
72
  0
VERTEX
  8
0
 10
1662.5
 20
1516.5
 30
0.0
 40
1
 41
1
  0
VERTEX
  8
0
 10
1662.5
 20
1396.5
 30
0.0
 40
1
 41
1
  0
SEQEND
 8
0
  0
POLYLINE
  8
0
 62
     0
 66
     1
 10
0
 20
0
 30
0.0
 40
72
 41
72
  0
VERTEX
  8
0
 10
1000.5
 20
1386.5
 30
0.0
 40
1
 41
1
  0
VERTEX
  8
0
 10
1000.5
 20
1506.5
 30
0.0
 40
1
 41
1
  0
SEQEND
 8
0
  0
POLYLINE
  8
0
 62
     0
 66
     1
 10
0
 20
0
 30
0.0
 40
72
 41
72
  0
VERTEX
  8
0
 10
1162.5
 20
1516.5
 30
0.0
 40
1
 41
1
  0
VERTEX
  8
0
 10
1162.5
 20
1396.5
 30
0.0
 40
1
 41
1
  0
SEQEND
 8
0
  0
POLYLINE
  8
0
 62
     0
 66
     1
 10
0
 20
0
 30
0.0
 40
72
 41
72
  0
VERTEX
  8
0
 10
1570.5
 20
300.5
 30
0.0
 40
1
 41
1
  0
VERTEX
  8
0
 10
1570.5
 20
855.5
 30
0.0
 40
1
 41
1
  0
SEQEND
 8
0
  0
POLYLINE
  8
0
 62
     0
 66
     1
 10
0
 20
0
 30
0.0
 40
72
 41
72
  0
VERTEX
  8
0
 10
1055.5
 20
1386.5
 30
0.0
 40
1
 41
1
  0
VERTEX
  8
0
 10
500.5
 20
1386.5
 30
0.0
 40
1
 41
1
  0
SEQEND
 8
0
  0
POLYLINE
  8
0
 62
     0
 66
     1
 10
0
 20
0
 30
0.0
 40
72
 41
72
  0
VERTEX
  8
0
 10
600.5
 20
300.5
 30
0.0
 40
1
 41
1
  0
VERTEX
  8
0
 10
600.5
 20
1154.5
 30
0.0
 40
1
 41
1
  0
SEQEND
 8
0
  0
POLYLINE
  8
0
 62
     0
 66
     1
 10
0
 20
0
 30
0.0
 40
72
 41
72
  0
VERTEX
  8
0
 10
900.5
 20
300.5
 30
0.0
 40
1
 41
1
  0
VERTEX
  8
0
 10
900.5
 20
1154.5
 30
0.0
 40
1
 41
1
  0
SEQEND
 8
0
  0
POLYLINE
  8
0
 62
     0
 66
     1
 10
0
 20
0
 30
0.0
 40
72
 41
72
  0
VERTEX
  8
0
 10
1200.5
 20
300.5
 30
0.0
 40
1
 41
1
  0
VERTEX
  8
0
 10
1200.5
 20
1154.5
 30
0.0
 40
1
 41
1
  0
SEQEND
 8
0
  0
POLYLINE
  8
0
 62
     0
 66
     1
 10
0
 20
0
 30
0.0
 40
72
 41
72
  0
VERTEX
  8
0
 10
1500.5
 20
855.5
 30
0.0
 40
1
 41
1
  0
VERTEX
  8
0
 10
1640.5
 20
855.5
 30
0.0
 40
1
 41
1
  0
SEQEND
 8
0
  0
POLYLINE
  8
0
 62
     0
 66
     1
 10
0
 20
0
 30
0.0
 40
72
 41
72
  0
VERTEX
  8
0
 10
2255.5
 20
1516.5
 30
0.0
 40
1
 41
1
  0
VERTEX
  8
0
 10
1055.5
 20
1516.5
 30
0.0
 40
1
 41
1
  0
SEQEND
 8
0
  0
POLYLINE
  8
0
 62
     0
 66
     1
 10
0
 20
0
 30
0.0
 40
72
 41
72
  0
VERTEX
  8
0
 10
1640.5
 20
300.5
 30
0.0
 40
1
 41
1
  0
VERTEX
  8
0
 10
300.5
 20
300.5
 30
0.0
 40
1
 41
1
  0
SEQEND
 8
0
  0
POLYLINE
  8
0
 62
     0
 66
     1
 10
0
 20
0
 30
0.0
 40
72
 41
72
  0
VERTEX
  8
0
 10
0.5
 20
2196.5
 30
0.0
 40
1
 41
1
  0
VERTEX
  8
0
 10
0.5
 20
2496.5
 30
0.0
 40
1
 41
1
  0
VERTEX
  8
0
 10
490.5
 20
2496.5
 30
0.0
 40
1
 41
1
  0
VERTEX
  8
0
 10
490.5
 20
2196.5
 30
0.0
 40
1
 41
1
  0
SEQEND
 8
0
  0
POLYLINE
  8
0
 62
     0
 66
     1
 10
0
 20
0
 30
0.0
 40
72
 41
72
  0
VERTEX
  8
0
 10
500.5
 20
2196.5
 30
0.0
 40
1
 41
1
  0
VERTEX
  8
0
 10
0.5
 20
2196.5
 30
0.0
 40
1
 41
1
  0
VERTEX
  8
0
 10
0.5
 20
1641.5
 30
0.0
 40
1
 41
1
  0
VERTEX
  8
0
 10
500.5
 20
1641.5
 30
0.0
 40
1
 41
1
  0
SEQEND
 8
0
  0
POLYLINE
  8
0
 62
     0
 66
     1
 10
0
 20
0
 30
0.0
 40
72
 41
72
  0
VERTEX
  8
0
 10
800.5
 20
2006.5
 30
0.0
 40
1
 41
1
  0
VERTEX
  8
0
 10
800.5
 20
2496.5
 30
0.0
 40
1
 41
1
  0
VERTEX
  8
0
 10
500.5
 20
2496.5
 30
0.0
 40
1
 41
1
  0
VERTEX
  8
0
 10
500.5
 20
1316.5
 30
0.0
 40
1
 41
1
  0
VERTEX
  8
0
 10
1055.5
 20
1316.5
 30
0.0
 40
1
 41
1
  0
VERTEX
  8
0
 10
1055.5
 20
1396.5
 30
0.0
 40
1
 41
1
  0
VERTEX
  8
0
 10
2255.5
 20
1396.5
 30
0.0
 40
1
 41
1
  0
VERTEX
  8
0
 10
2255.5
 20
2496.5
 30
0.0
 40
1
 41
1
  0
VERTEX
  8
0
 10
2375.5
 20
2496.5
 30
0.0
 40
1
 41
1
  0
SEQEND
 8
0
  0
POLYLINE
  8
0
 62
     0
 66
     1
 10
0
 20
0
 30
0.0
 40
72
 41
72
  0
VERTEX
  8
0
 10
1055.5
 20
2006.5
 30
0.0
 40
1
 41
1
  0
VERTEX
  8
0
 10
1055.5
 20
1506.5
 30
0.0
 40
1
 41
1
  0
VERTEX
  8
0
 10
500.5
 20
1506.5
 30
0.0
 40
1
 41
1
  0
SEQEND
 8
0
  0
POLYLINE
  8
0
 62
     0
 66
     1
 10
0
 20
0
 30
0.0
 40
72
 41
72
  0
VERTEX
  8
0
 10
800.5
 20
2496.5
 30
0.0
 40
1
 41
1
  0
VERTEX
  8
0
 10
1100.5
 20
2496.5
 30
0.0
 40
1
 41
1
  0
VERTEX
  8
0
 10
1100.5
 20
2006.5
 30
0.0
 40
1
 41
1
  0
SEQEND
 8
0
  0
POLYLINE
  8
0
 62
     0
 66
     1
 10
0
 20
0
 30
0.0
 40
72
 41
72
  0
VERTEX
  8
0
 10
500.5
 20
1341.5
 30
0.0
 40
1
 41
1
  0
VERTEX
  8
0
 10
10.5
 20
1341.5
 30
0.0
 40
1
 41
1
  0
VERTEX
  8
0
 10
10.5
 20
1641.5
 30
0.0
 40
1
 41
1
  0
SEQEND
 8
0
  0
POLYLINE
  8
0
 62
     0
 66
     1
 10
0
 20
0
 30
0.0
 40
72
 41
72
  0
VERTEX
  8
0
 10
1100.5
 20
2496.5
 30
0.0
 40
1
 41
1
  0
VERTEX
  8
0
 10
1400.5
 20
2496.5
 30
0.0
 40
1
 41
1
  0
VERTEX
  8
0
 10
1400.5
 20
2006.5
 30
0.0
 40
1
 41
1
  0
SEQEND
 8
0
  0
POLYLINE
  8
0
 62
     0
 66
     1
 10
0
 20
0
 30
0.0
 40
72
 41
72
  0
VERTEX
  8
0
 10
2255.5
 20
2006.5
 30
0.0
 40
1
 41
1
  0
VERTEX
  8
0
 10
500.5
 20
2006.5
 30
0.0
 40
1
 41
1
  0
SEQEND
 8
0
  0
POLYLINE
  8
0
 62
     0
 66
     1
 10
0
 20
0
 30
0.0
 40
72
 41
72
  0
VERTEX
  8
0
 10
2255.5
 20
2496.5
 30
0.0
 40
1
 41
1
  0
VERTEX
  8
0
 10
1955.5
 20
2496.5
 30
0.0
 40
1
 41
1
  0
VERTEX
  8
0
 10
1955.5
 20
1516.5
 30
0.0
 40
1
 41
1
  0
SEQEND
 8
0
  0
POLYLINE
  8
0
 62
     0
 66
     1
 10
0
 20
0
 30
0.0
 40
72
 41
72
  0
VERTEX
  8
0
 10
2375.5
 20
1903.5
 30
0.0
 40
1
 41
1
  0
VERTEX
  8
0
 10
2495.5
 20
1903.5
 30
0.0
 40
1
 41
1
  0
VERTEX
  8
0
 10
2495.5
 20
2496.5
 30
0.0
 40
1
 41
1
  0
VERTEX
  8
0
 10
2375.5
 20
2496.5
 30
0.0
 40
1
 41
1
  0
VERTEX
  8
0
 10
2375.5
 20
1310.5
 30
0.0
 40
1
 41
1
  0
VERTEX
  8
0
 10
2495.5
 20
1310.5
 30
0.0
 40
1
 41
1
  0
VERTEX
  8
0
 10
2495.5
 20
1903.5
 30
0.0
 40
1
 41
1
  0
SEQEND
 8
0
  0
POLYLINE
  8
0
 62
     0
 66
     1
 10
0
 20
0
 30
0.0
 40
72
 41
72
  0
VERTEX
  8
0
 10
1400.5
 20
2306.5
 30
0.0
 40
1
 41
1
  0
VERTEX
  8
0
 10
1900.5
 20
2306.5
 30
0.0
 40
1
 41
1
  0
VERTEX
  8
0
 10
1900.5
 20
2426.5
 30
0.0
 40
1
 41
1
  0
VERTEX
  8
0
 10
1400.5
 20
2426.5
 30
0.0
 40
1
 41
1
  0
SEQEND
 8
0
  0
POLYLINE
  8
0
 62
     0
 66
     1
 10
0
 20
0
 30
0.0
 40
72
 41
72
  0
VERTEX
  8
0
 10
1055.5
 20
1326.5
 30
0.0
 40
1
 41
1
  0
VERTEX
  8
0
 10
1610.5
 20
1326.5
 30
0.0
 40
1
 41
1
  0
VERTEX
  8
0
 10
1610.5
 20
1396.5
 30
0.0
 40
1
 41
1
  0
SEQEND
 8
0
  0
POLYLINE
  8
0
 62
     0
 66
     1
 10
0
 20
0
 30
0.0
 40
72
 41
72
  0
VERTEX
  8
0
 10
1868.5
 20
2426.5
 30
0.0
 40
1
 41
1
  0
VERTEX
  8
0
 10
1868.5
 20
2496.5
 30
0.0
 40
1
 41
1
  0
VERTEX
  8
0
 10
1400.5
 20
2496.5
 30
0.0
 40
1
 41
1
  0
SEQEND
 8
0
  0
POLYLINE
  8
0
 62
     0
 66
     1
 10
0
 20
0
 30
0.0
 40
72
 41
72
  0
VERTEX
  8
0
 10
1610.5
 20
1326.5
 30
0.0
 40
1
 41
1
  0
VERTEX
  8
0
 10
2078.5
 20
1326.5
 30
0.0
 40
1
 41
1
  0
VERTEX
  8
0
 10
2078.5
 20
1396.5
 30
0.0
 40
1
 41
1
  0
SEQEND
 8
0
  0
POLYLINE
  8
0
 62
     0
 66
     1
 10
0
 20
0
 30
0.0
 40
72
 41
72
  0
VERTEX
  8
0
 10
300.5
 20
1154.5
 30
0.0
 40
1
 41
1
  0
VERTEX
  8
0
 10
0.5
 20
1154.5
 30
0.0
 40
1
 41
1
  0
VERTEX
  8
0
 10
0.5
 20
727.5
 30
0.0
 40
1
 41
1
  0
VERTEX
  8
0
 10
300.5
 20
727.5
 30
0.0
 40
1
 41
1
  0
SEQEND
 8
0
  0
POLYLINE
  8
0
 62
     0
 66
     1
 10
0
 20
0
 30
0.0
 40
72
 41
72
  0
VERTEX
  8
0
 10
300.5
 20
237.5
 30
0.0
 40
1
 41
1
  0
VERTEX
  8
0
 10
0.5
 20
237.5
 30
0.0
 40
1
 41
1
  0
VERTEX
  8
0
 10
0.5
 20
727.5
 30
0.0
 40
1
 41
1
  0
SEQEND
 8
0
  0
POLYLINE
  8
0
 62
     0
 66
     1
 10
0
 20
0
 30
0.0
 40
72
 41
72
  0
VERTEX
  8
0
 10
300.5
 20
727.5
 30
0.0
 40
1
 41
1
  0
VERTEX
  8
0
 10
1500.5
 20
727.5
 30
0.0
 40
1
 41
1
  0
SEQEND
 8
0
  0
POLYLINE
  8
0
 62
     0
 66
     1
 10
0
 20
0
 30
0.0
 40
72
 41
72
  0
VERTEX
  8
0
 10
727.5
 20
300.5
 30
0.0
 40
1
 41
1
  0
VERTEX
  8
0
 10
727.5
 20
0.5
 30
0.0
 40
1
 41
1
  0
VERTEX
  8
0
 10
300.5
 20
0.5
 30
0.0
 40
1
 41
1
  0
VERTEX
  8
0
 10
300.5
 20
1154.5
 30
0.0
 40
1
 41
1
  0
VERTEX
  8
0
 10
1500.5
 20
1154.5
 30
0.0
 40
1
 41
1
  0
VERTEX
  8
0
 10
1500.5
 20
300.5
 30
0.0
 40
1
 41
1
  0
SEQEND
 8
0
  0
POLYLINE
  8
0
 62
     0
 66
     1
 10
0
 20
0
 30
0.0
 40
72
 41
72
  0
VERTEX
  8
0
 10
727.5
 20
0.5
 30
0.0
 40
1
 41
1
  0
VERTEX
  8
0
 10
1154.5
 20
0.5
 30
0.0
 40
1
 41
1
  0
VERTEX
  8
0
 10
1154.5
 20
300.5
 30
0.0
 40
1
 41
1
  0
SEQEND
 8
0
  0
POLYLINE
  8
0
 62
     0
 66
     1
 10
0
 20
0
 30
0.0
 40
72
 41
72
  0
VERTEX
  8
0
 10
1154.5
 20
0.5
 30
0.0
 40
1
 41
1
  0
VERTEX
  8
0
 10
1581.5
 20
0.5
 30
0.0
 40
1
 41
1
  0
VERTEX
  8
0
 10
1581.5
 20
300.5
 30
0.0
 40
1
 41
1
  0
SEQEND
 8
0
  0
POLYLINE
  8
0
 62
     0
 66
     1
 10
0
 20
0
 30
0.0
 40
72
 41
72
  0
VERTEX
  8
0
 10
1640.5
 20
686.5
 30
0.0
 40
1
 41
1
  0
VERTEX
  8
0
 10
1710.5
 20
686.5
 30
0.0
 40
1
 41
1
  0
VERTEX
  8
0
 10
1710.5
 20
1154.5
 30
0.0
 40
1
 41
1
  0
VERTEX
  8
0
 10
1640.5
 20
1154.5
 30
0.0
 40
1
 41
1
  0
VERTEX
  8
0
 10
1640.5
 20
218.5
 30
0.0
 40
1
 41
1
  0
VERTEX
  8
0
 10
1710.5
 20
218.5
 30
0.0
 40
1
 41
1
  0
VERTEX
  8
0
 10
1710.5
 20
686.5
 30
0.0
 40
1
 41
1
  0
SEQEND
 8
0
  0
ENDSEC
  0
EOF
