<svg xmlns="http://www.w3.org/2000/svg" width="34.72222222222222in" height="37.27777777777778in" viewBox="0 0 2500 2684"><g/><g/><g/><g/><g/><g/><g/><g/><g/><g/><g/><g/><g/><g/><g/><g/><g/><g/><g/><g/><g/><g/><g/><g/><g/><g/><g/><g/><g/><g/><g/><g/><g/><g/><g/><g/><g/><g/><g/><g/><g/><g/><g/><g/><line x1="1354.9999997" x2="1354.9999997" y1="490.00000609999995" y2="980.0000061" fill="none" stroke="#000000"/><line x1="1654.9999997" x2="1654.9999997" y1="490.00000610000006" y2="980.0000061000001" fill="none" stroke="#000000"/><line x1="1889.9999997" x2="1889.9999997" y1="190.00000609999995" y2="490.00000609999995" fill="none" stroke="#000000"/><line x1="2254.9999997" x2="2374.9999997" y1="500.0000058999999" y2="500.0000058999999" fill="none" stroke="#000000"/><line x1="2254.9999997" x2="2374.9999997" y1="1093.0000059" y2="1093.0000059" fill="none" stroke="#000000"/><line x1="1661.9999997" x2="1661.9999997" y1="980.0000061000001" y2="1100.0000061" fill="none" stroke="#000000"/><line x1="999.9999997" x2="999.9999997" y1="1110.0000061" y2="990.0000061" fill="none" stroke="#000000"/><line x1="1161.9999997" x2="1161.9999997" y1="980.0000061000001" y2="1100.0000061" fill="none" stroke="#000000"/><line x1="1569.9999925" x2="1569.9999925" y1="2196.000004" y2="1641.000004" fill="none" stroke="#000000"/><line x1="1054.9999997" y1="1110.0000061" x2="499.9999997" y2="1110.0000061" fill="none" stroke="#000000"/><line x1="599.9999925000001" y1="2196.000004" x2="599.9999924999998" y2="1342.000004" fill="none" stroke="#000000"/><line x1="899.9999925" y1="2196.000004" x2="899.9999925" y2="1342.000004" fill="none" stroke="#000000"/><line x1="1199.9999925" y1="2196.000004" x2="1199.9999925" y2="1342.000004" fill="none" stroke="#000000"/><line x1="1499.9999925" y1="1641.000004" x2="1639.9999925" y2="1641.000004" fill="none" stroke="#000000"/><line x1="2254.9999997" y1="980.0000061" x2="1054.9999997" y2="980.0000061000002" fill="none" stroke="#000000"/><line x1="1639.9999925" y1="2196.000004" x2="299.99999249999996" y2="2196.000004" fill="none" stroke="#000000"/><path d="M 0 300.00000178348284 L 0 0.000001783482844075479 L 0 0.000001783482844075479 L 490 0.000001783482844075479 L 490 0.000001783482844075479 L 490 300.00000178348284" fill="none" stroke="#000000"/><path d="M 499.9999997 300.00000179999984 L -3.000000106112566e-7 300.0000017999999 L -3.000000106112566e-7 300.0000017999999 L -2.999999537678377e-7 855.0000018 L -2.999999537678377e-7 855.0000018 L 499.99999970000005 855.0000017999998" fill="none" stroke="#000000"/><path d="M 799.9999997000001 490.00000610000006 L 799.9999997 0.000006100000064179767 L 799.9999997 0.000006100000064179767 L 499.9999997 0.000006100000121023186 L 499.99999969999993 0.000006100000064179767 L 499.9999997 1180.0000060999998 L 499.9999997 1180.0000060999998 L 1054.9999997 1180.0000060999998 L 1054.9999997 1180.0000060999998 L 1054.9999997 1100.0000060999998 L 1054.9999997 1100.0000061000003 L 2254.9999997 1100.0000061 L 2254.9999997 1100.0000061 L 2254.9999997 0.0000058999999055231456 L 2254.9999997 0.0000058999999055231456 L 2374.9999997 0.0000058999999055231456" fill="none" stroke="#000000"/><path d="M 1054.9999997 490.00000609999995 L 1054.9999997 990.0000061 L 1054.9999997 990.0000061 L 499.9999997 990.0000061000001" fill="none" stroke="#000000"/><path d="M 799.9999997 0.000006100000064179767 L 1099.9999997 0.000006100000045810065 L 1099.9999997 0.000006100000045810065 L 1099.9999997 490.00000610000006" fill="none" stroke="#000000"/><path d="M 499.99999970000005 1155.0000018 L 9.999999700000046 1155.0000018 L 9.999999700000046 1155.0000018 L 9.99999969999999 855.0000018000001" fill="none" stroke="#000000"/><path d="M 1099.9999997 0.000006100000064179767 L 1399.9999997 0.000006100000045810065 L 1399.9999997 0.000006100000045810065 L 1399.9999997 490.00000610000006" fill="none" stroke="#000000"/><path d="M 2254.9999997 490.00000610000006 L 1954.9999997 490.0000061000001 L 1954.9999997 490.00000609999995 L 499.9999997 490.0000061000001" fill="none" stroke="#000000"/><path d="M 2254.9999997 0.000006100000064179767 L 1954.9999997 0.000006100000121023186 L 1954.9999997 0.000006100000064179767 L 1954.9999997 980.0000061000001" fill="none" stroke="#000000"/><path d="M 2374.9999997 592.9999949999999 L 2494.9999997 592.9999949999999 L 2494.9999997 592.9999949999999 L 2494.9999997 -0.0000050000001010630555 L 2494.9999997 -0.0000050000001010630555 L 2374.9999997 -0.0000050000001010630555 L 2374.9999997 -0.000005000000101063051 L 2374.9999997 1185.9999950000001 L 2374.9999997 1185.9999950000001 L 2494.9999997 1185.9999950000001 L 2494.9999997 1185.9999950000001 L 2494.9999997 592.999995" fill="none" stroke="#000000"/><path d="M 1399.9999997 190.00000609999995 L 1899.9999997 190.00000609999995 L 1899.9999997 190.00000610000006 L 1899.9999997 70.00000610000006 L 1899.9999997 70.00000610000006 L 1399.9999997 70.00000610000012" fill="none" stroke="#000000"/><path d="M 1054.9999997 1170.0000060999998 L 1609.9999997 1170.0000060999998 L 1609.9999997 1170.0000060999998 L 1609.9999997 1100.0000060999998" fill="none" stroke="#000000"/><path d="M 1867.9999997 70.00000610000006 L 1867.9999997 0.000006100000064179767 L 1867.9999997 0.000006100000064179767 L 1399.9999997 0.000006100000064179767" fill="none" stroke="#000000"/><path d="M 1609.9999997 1170.0000060999998 L 2077.9999997 1170.0000060999998 L 2077.9999997 1170.0000060999998 L 2077.9999997 1100.0000060999998" fill="none" stroke="#000000"/><path d="M 299.9999924562872 1342.0000040498562 L -0.000007543712797541957 1342.0000040498562 L -0.000007543712797541957 1342.0000040498562 L -0.000007543712740698538 1769.0000040498562 L -0.000007543712740698538 1769.0000040498562 L 299.99999245628726 1769.0000040498562" fill="none" stroke="#000000"/><path d="M 299.99999250000013 2259.000004 L -0.000007499999867377483 2259.000004 L -0.000007499999867377483 2259.000004 L -0.00000749999998106432 1769.000004" fill="none" stroke="#000000"/><path d="M 299.9999925000001 1769.000004 L 599.9999925000001 1769.000004 L 599.9999925000001 1769.000004 L 899.9999925000001 1769.000004 L 899.9999925 1769.000004 L 1199.9999925 1769.000004 L 1199.9999925 1769.000004 L 1499.9999925 1769.000004" fill="none" stroke="#000000"/><path d="M 726.9999925 2196.000004 L 726.9999925 2496.000004 L 726.9999925 2496.000004 L 299.9999925 2496.000004 L 299.9999925 2496.000004 L 299.99999249999973 1342.000004 L 299.9999925 1342.000004 L 899.9999925 1342.000004 L 899.9999925 1342.000004 L 1499.9999925 1342.000004 L 1499.9999925 1342.000004 L 1499.9999925 2196.000004" fill="none" stroke="#000000"/><path d="M 726.9999925 2496.000004 L 1153.9999925 2496.000004 L 1153.9999925 2496.000004 L 1153.9999925 2196.000004" fill="none" stroke="#000000"/><path d="M 1153.9999925 2496.000004 L 1580.9999925 2496.000004 L 1580.9999925 2496.000004 L 1580.9999925 2196.000004" fill="none" stroke="#000000"/><path d="M 1639.9999925 1810.0000042 L 1709.9999925 1810.0000042 L 1709.9999925 1810.0000042 L 1709.9999925 1342.0000042 L 1709.9999925 1342.0000042 L 1639.9999925 1342.0000042 L 1639.9999925 1342.0000042 L 1639.9999925 2278.0000042 L 1639.9999925 2278.0000042 L 1709.9999925 2278.0000042 L 1709.9999925 2278.0000042 L 1709.9999925 1810.0000042000001" fill="none" stroke="#000000"/></svg>