; NON-PLATED HOLES START AT T1
; THROUGH (PLATED) HOLES START AT T100
M48
INCH
T1C0.126000
T2C0.049194
T3C0.165354
T100C0.031496
T101C0.098425
T102C0.040000
T103C0.039370
T104C0.035433
T105C0.073000
T106C0.031833
T107C0.086614
%
T1
X006073Y022728
X027970Y022728
X006073Y031727
X027970Y031727
T2
X022345Y005726
T3
X035345Y034726
X002345Y001726
T100
X002950Y011427
X002950Y014025
T101
X001845Y016226
X001845Y009226
T102
X035345Y005348
X006345Y004726
X013345Y011726
X016345Y011726
X035345Y001348
X035345Y010348
X012345Y011726
X035345Y002726
X011345Y011726
X007723Y004726
X015345Y011726
X035345Y006726
X014345Y011726
X035345Y011726
T103
X026345Y011726
X028345Y011726
X025345Y011726
X024345Y011726
X022345Y011726
X027345Y011726
X023345Y011726
T104
X008345Y008726
X011345Y008726
X005345Y008726
X018345Y016726
X012345Y008726
X010345Y008726
X008345Y016726
X009345Y008726
X015345Y008726
X014345Y008726
X003345Y008726
X009345Y016726
X011345Y016726
X001847Y014143
X014345Y016726
X006345Y008726
X001847Y011309
X017345Y008726
X007345Y008726
X015345Y016726
X016345Y008726
X010345Y016726
X016345Y016726
X018345Y008726
X004345Y008726
X013345Y008726
X017345Y016726
X012345Y016726
X013345Y016726
X007345Y016726
T105
X031345Y022726
X002655Y031732
X031345Y031726
X002655Y022733
T106
X022345Y002726
X032470Y002753
X032470Y004754
X022345Y003726
X022345Y004726
X032470Y006754
X032470Y005754
X032470Y001754
X032470Y003754
T107
X027845Y016226
X022845Y016226
T00
M30
