; NON-PLATED HOLES START AT T1
; THROUGH (PLATED) HOLES START AT T100
M48
INCH
T1C0.049194
T2C0.165354
T3C0.126000
T100C0.031496
T101C0.073000
T102C0.040000
T103C0.086614
T104C0.035433
T105C0.031833
T106C0.098425
T107C0.039370
%
T1
X022345Y002670
T2
X035345Y034726
X002345Y001726
T3
X006073Y022728
X027970Y022728
X027970Y031727
X006073Y031727
T100
X002950Y011427
X002950Y014025
T101
X002655Y022733
X002655Y031732
X031345Y022726
X031345Y031726
T102
X011345Y011726
X012345Y011726
X015345Y011726
X013345Y011726
X014345Y011726
X035345Y009348
X016345Y011726
X006345Y004726
X035345Y001348
X007723Y004726
X035345Y010726
X035345Y005348
X035345Y002726
X035345Y006726
T103
X022845Y010226
X027845Y010226
T104
X003345Y008726
X012345Y016726
X013345Y016726
X017345Y008726
X018345Y016726
X008345Y016726
X013345Y008726
X012345Y008726
X015345Y008726
X011345Y008726
X016345Y008726
X014345Y016726
X018345Y008726
X006345Y008726
X008345Y008726
X011345Y016726
X014345Y008726
X009345Y008726
X009345Y016726
X010345Y016726
X004345Y008726
X001847Y014143
X005345Y008726
X017345Y016726
X015345Y016726
X007345Y016726
X010345Y008726
X007345Y008726
X001847Y011309
X016345Y016726
T105
X022345Y005670
X032470Y005642
X032470Y004642
X032470Y002642
X022345Y003670
X032470Y003642
X032470Y001642
X032470Y006642
X022345Y004670
T106
X001845Y016226
X001845Y009226
T107
X024345Y014726
X028345Y014726
X026345Y014726
X025345Y014726
X027345Y014726
X023345Y014726
X022345Y014726
T00
M30
