G04 MADE WITH FRITZING*
G04 WWW.FRITZING.ORG*
G04 DOUBLE SIDED*
G04 HOLES PLATED*
G04 CONTOUR ON CENTER OF CONTOUR VECTOR*
%ASAXBY*%
%FSLAX23Y23*%
%MOIN*%
%OFA0B0*%
%SFA1.0B1.0*%
%ADD10C,0.066555*%
%ADD11C,0.049194*%
%ADD12C,0.074000*%
%ADD13C,0.126614*%
%ADD14C,0.070000*%
%ADD15C,0.080000*%
%ADD16C,0.093000*%
%ADD17C,0.138425*%
%ADD18C,0.095000*%
%ADD19C,0.051496*%
%ADD20C,0.062000*%
%ADD21R,0.080000X0.080000*%
%ADD22R,0.095000X0.095000*%
%ADD23C,0.024000*%
%ADD24C,0.065000*%
%ADD25C,0.045000*%
%ADD26R,0.001000X0.001000*%
%LNCOPPER0*%
G90*
G70*
G54D10*
X3247Y264D03*
X3247Y364D03*
X3247Y464D03*
X3247Y564D03*
X3247Y664D03*
X3247Y164D03*
X2235Y367D03*
X2235Y467D03*
G54D11*
X2235Y267D03*
G54D10*
X2235Y567D03*
G54D12*
X1635Y1173D03*
X1535Y1173D03*
X1435Y1173D03*
X1335Y1173D03*
X1235Y1173D03*
X1135Y1173D03*
X1635Y1173D03*
X1535Y1173D03*
X1435Y1173D03*
X1335Y1173D03*
X1235Y1173D03*
X1135Y1173D03*
X1635Y1173D03*
X1535Y1173D03*
X1435Y1173D03*
X1335Y1173D03*
X1235Y1173D03*
X1135Y1173D03*
X1635Y1073D03*
X1535Y1073D03*
X1435Y1073D03*
X1335Y1073D03*
X1235Y1073D03*
X1135Y1073D03*
X1635Y1073D03*
X1535Y1073D03*
X1435Y1073D03*
X1335Y1073D03*
X1235Y1073D03*
X1135Y1073D03*
X1635Y1073D03*
X1535Y1073D03*
X1435Y1073D03*
X1335Y1073D03*
X1235Y1073D03*
X1135Y1073D03*
X2035Y473D03*
X1935Y473D03*
X1835Y473D03*
X1735Y473D03*
X1635Y473D03*
X1535Y473D03*
X2035Y473D03*
X1935Y473D03*
X1835Y473D03*
X1735Y473D03*
X1635Y473D03*
X1535Y473D03*
X2035Y473D03*
X1935Y473D03*
X1835Y473D03*
X1735Y473D03*
X1635Y473D03*
X1535Y473D03*
G54D13*
X2785Y1023D03*
G54D14*
X2235Y1473D03*
X2335Y1473D03*
X2435Y1473D03*
X2535Y1473D03*
X2635Y1473D03*
X2735Y1473D03*
X2835Y1473D03*
G54D13*
X2285Y1023D03*
X2785Y1023D03*
G54D14*
X2235Y1473D03*
X2335Y1473D03*
X2435Y1473D03*
X2535Y1473D03*
X2635Y1473D03*
X2735Y1473D03*
X2835Y1473D03*
G54D13*
X2285Y1023D03*
G54D15*
X3535Y1073D03*
X3535Y935D03*
X3535Y1073D03*
X3535Y935D03*
X3535Y673D03*
X3535Y535D03*
X3535Y673D03*
X3535Y535D03*
X3535Y273D03*
X3535Y135D03*
X3535Y273D03*
X3535Y135D03*
X635Y473D03*
X772Y473D03*
X635Y473D03*
X772Y473D03*
G54D16*
X266Y3173D03*
X3135Y3173D03*
X266Y2273D03*
X3135Y2273D03*
G54D17*
X185Y923D03*
G54D18*
X185Y1414D03*
G54D19*
X295Y1403D03*
G54D20*
X1835Y873D03*
X1735Y873D03*
X1635Y873D03*
X1535Y873D03*
X1435Y873D03*
X1335Y873D03*
X1235Y873D03*
X1135Y873D03*
X1035Y873D03*
G54D17*
X185Y1623D03*
G54D20*
X935Y873D03*
X835Y873D03*
X735Y873D03*
X635Y873D03*
X535Y873D03*
X435Y873D03*
X335Y873D03*
X735Y1673D03*
X835Y1673D03*
X935Y1673D03*
X1035Y1673D03*
X1135Y1673D03*
X1235Y1673D03*
X1335Y1673D03*
X1435Y1673D03*
X1535Y1673D03*
X1635Y1673D03*
X1735Y1673D03*
X1835Y1673D03*
G54D19*
X295Y1143D03*
G54D18*
X185Y1131D03*
G54D21*
X3535Y1073D03*
X3535Y1073D03*
X3535Y673D03*
X3535Y673D03*
X3535Y273D03*
X3535Y273D03*
X635Y473D03*
X635Y473D03*
G54D22*
X185Y1414D03*
X185Y1131D03*
G54D23*
X1335Y272D02*
X2034Y272D01*
D02*
X2034Y272D02*
X2034Y274D01*
D02*
X1335Y474D02*
X1335Y272D01*
D02*
X2134Y372D02*
X2134Y572D01*
D02*
X2134Y572D02*
X2208Y568D01*
D02*
X2034Y274D02*
X2134Y372D01*
D02*
X1035Y472D02*
X1335Y474D01*
D02*
X803Y473D02*
X1035Y472D01*
D02*
X3534Y773D02*
X3535Y904D01*
D02*
X3434Y773D02*
X3534Y773D01*
D02*
X3434Y672D02*
X3434Y773D01*
D02*
X3270Y578D02*
X3434Y672D01*
D02*
X3534Y472D02*
X3534Y504D01*
D02*
X3272Y374D02*
X3534Y472D01*
D02*
X3274Y162D02*
X3504Y138D01*
D02*
X1835Y1373D02*
X2035Y1371D01*
D02*
X2035Y1371D02*
X2436Y1371D01*
D02*
X1835Y1472D02*
X1835Y1373D01*
D02*
X2436Y1371D02*
X2513Y1451D01*
D02*
X1835Y1373D02*
X1835Y1472D01*
D02*
X1835Y1644D02*
X1835Y1373D01*
G54D24*
D02*
X537Y1072D02*
X534Y2071D01*
D02*
X534Y2071D02*
X336Y2071D01*
D02*
X336Y2071D02*
X288Y2207D01*
D02*
X612Y918D02*
X537Y1072D01*
D02*
X636Y675D02*
X635Y822D01*
D02*
X635Y526D02*
X636Y675D01*
G54D25*
D02*
X2835Y572D02*
X2270Y285D01*
D02*
X2903Y771D02*
X2835Y572D01*
D02*
X2933Y1173D02*
X2903Y771D01*
D02*
X2844Y1443D02*
X2933Y1173D01*
G54D23*
D02*
X934Y1173D02*
X1103Y1173D01*
D02*
X655Y893D02*
X934Y1173D01*
D02*
X1233Y1373D02*
X1232Y1271D01*
D02*
X734Y1373D02*
X1233Y1373D01*
D02*
X1232Y1271D02*
X1234Y1204D01*
D02*
X735Y1644D02*
X734Y1373D01*
D02*
X1335Y1204D02*
X1335Y1644D01*
D02*
X1435Y1204D02*
X1435Y1644D01*
D02*
X1535Y1644D02*
X1535Y1204D01*
D02*
X1635Y1204D02*
X1635Y1644D01*
G54D14*
D02*
X266Y2343D02*
X266Y3103D01*
D02*
X733Y2673D02*
X834Y2472D01*
D02*
X834Y2472D02*
X834Y2174D01*
D02*
X735Y2970D02*
X733Y2673D01*
D02*
X834Y2174D02*
X733Y1873D01*
D02*
X436Y2970D02*
X735Y2970D01*
D02*
X437Y2970D02*
X436Y2970D01*
D02*
X733Y1873D02*
X2535Y1873D01*
D02*
X2535Y1873D02*
X2834Y1672D01*
D02*
X2834Y1672D02*
X2835Y1526D01*
D02*
X311Y3120D02*
X437Y2970D01*
G54D23*
D02*
X1535Y504D02*
X1535Y844D01*
D02*
X1635Y504D02*
X1635Y844D01*
D02*
X1735Y504D02*
X1735Y844D01*
D02*
X1835Y504D02*
X1835Y844D01*
G54D25*
D02*
X2234Y774D02*
X2032Y671D01*
D02*
X2903Y771D02*
X2234Y774D01*
D02*
X2003Y473D02*
X1966Y473D01*
D02*
X2032Y671D02*
X1948Y501D01*
G54D26*
X274Y1444D02*
X315Y1444D01*
X274Y1443D02*
X315Y1443D01*
X274Y1442D02*
X315Y1442D01*
X274Y1441D02*
X315Y1441D01*
X274Y1440D02*
X315Y1440D01*
X274Y1439D02*
X315Y1439D01*
X274Y1438D02*
X315Y1438D01*
X274Y1437D02*
X315Y1437D01*
X274Y1436D02*
X315Y1436D01*
X274Y1435D02*
X315Y1435D01*
X274Y1434D02*
X315Y1434D01*
X274Y1433D02*
X315Y1433D01*
X274Y1432D02*
X315Y1432D01*
X274Y1431D02*
X315Y1431D01*
X274Y1430D02*
X315Y1430D01*
X274Y1429D02*
X315Y1429D01*
X274Y1428D02*
X315Y1428D01*
X274Y1427D02*
X315Y1427D01*
X274Y1426D02*
X315Y1426D01*
X274Y1425D02*
X315Y1425D01*
X274Y1424D02*
X315Y1424D01*
X274Y1423D02*
X289Y1423D01*
X300Y1423D02*
X315Y1423D01*
X274Y1422D02*
X286Y1422D01*
X303Y1422D02*
X315Y1422D01*
X274Y1421D02*
X284Y1421D01*
X305Y1421D02*
X315Y1421D01*
X274Y1420D02*
X282Y1420D01*
X307Y1420D02*
X315Y1420D01*
X274Y1419D02*
X281Y1419D01*
X308Y1419D02*
X315Y1419D01*
X274Y1418D02*
X280Y1418D01*
X309Y1418D02*
X315Y1418D01*
X274Y1417D02*
X279Y1417D01*
X310Y1417D02*
X315Y1417D01*
X274Y1416D02*
X278Y1416D01*
X311Y1416D02*
X315Y1416D01*
X274Y1415D02*
X277Y1415D01*
X312Y1415D02*
X315Y1415D01*
X274Y1414D02*
X276Y1414D01*
X313Y1414D02*
X315Y1414D01*
X274Y1413D02*
X276Y1413D01*
X313Y1413D02*
X315Y1413D01*
X274Y1412D02*
X275Y1412D01*
X314Y1412D02*
X315Y1412D01*
X274Y1411D02*
X275Y1411D01*
X314Y1411D02*
X315Y1411D01*
X274Y1410D02*
X275Y1410D01*
X314Y1410D02*
X315Y1410D01*
X274Y1409D02*
X274Y1409D01*
X315Y1409D02*
X315Y1409D01*
X274Y1408D02*
X274Y1408D01*
X315Y1408D02*
X315Y1408D01*
X274Y1398D02*
X274Y1398D01*
X315Y1398D02*
X315Y1398D01*
X274Y1397D02*
X274Y1397D01*
X315Y1397D02*
X315Y1397D01*
X274Y1396D02*
X275Y1396D01*
X314Y1396D02*
X315Y1396D01*
X274Y1395D02*
X275Y1395D01*
X314Y1395D02*
X315Y1395D01*
X274Y1394D02*
X275Y1394D01*
X314Y1394D02*
X315Y1394D01*
X274Y1393D02*
X276Y1393D01*
X313Y1393D02*
X315Y1393D01*
X274Y1392D02*
X276Y1392D01*
X313Y1392D02*
X315Y1392D01*
X274Y1391D02*
X277Y1391D01*
X312Y1391D02*
X315Y1391D01*
X274Y1390D02*
X278Y1390D01*
X311Y1390D02*
X315Y1390D01*
X274Y1389D02*
X279Y1389D01*
X310Y1389D02*
X315Y1389D01*
X274Y1388D02*
X280Y1388D01*
X309Y1388D02*
X315Y1388D01*
X274Y1387D02*
X281Y1387D01*
X308Y1387D02*
X315Y1387D01*
X274Y1386D02*
X282Y1386D01*
X307Y1386D02*
X315Y1386D01*
X274Y1385D02*
X284Y1385D01*
X305Y1385D02*
X315Y1385D01*
X274Y1384D02*
X286Y1384D01*
X303Y1384D02*
X315Y1384D01*
X274Y1383D02*
X289Y1383D01*
X300Y1383D02*
X315Y1383D01*
X1598Y1210D02*
X1670Y1210D01*
X1598Y1209D02*
X1671Y1209D01*
X1598Y1208D02*
X1671Y1208D01*
X1598Y1207D02*
X1671Y1207D01*
X1598Y1206D02*
X1671Y1206D01*
X1598Y1205D02*
X1671Y1205D01*
X1598Y1204D02*
X1671Y1204D01*
X1598Y1203D02*
X1671Y1203D01*
X1598Y1202D02*
X1671Y1202D01*
X1598Y1201D02*
X1671Y1201D01*
X1598Y1200D02*
X1671Y1200D01*
X1598Y1199D02*
X1671Y1199D01*
X1598Y1198D02*
X1671Y1198D01*
X1598Y1197D02*
X1671Y1197D01*
X1598Y1196D02*
X1671Y1196D01*
X1598Y1195D02*
X1671Y1195D01*
X1598Y1194D02*
X1671Y1194D01*
X1598Y1193D02*
X1633Y1193D01*
X1635Y1193D02*
X1671Y1193D01*
X1598Y1192D02*
X1627Y1192D01*
X1641Y1192D02*
X1671Y1192D01*
X1598Y1191D02*
X1625Y1191D01*
X1643Y1191D02*
X1671Y1191D01*
X1598Y1190D02*
X1623Y1190D01*
X1645Y1190D02*
X1671Y1190D01*
X1598Y1189D02*
X1621Y1189D01*
X1647Y1189D02*
X1671Y1189D01*
X1598Y1188D02*
X1620Y1188D01*
X1648Y1188D02*
X1671Y1188D01*
X1598Y1187D02*
X1619Y1187D01*
X1649Y1187D02*
X1671Y1187D01*
X1598Y1186D02*
X1618Y1186D01*
X1650Y1186D02*
X1671Y1186D01*
X1598Y1185D02*
X1618Y1185D01*
X1650Y1185D02*
X1671Y1185D01*
X1598Y1184D02*
X1617Y1184D01*
X1651Y1184D02*
X1671Y1184D01*
X1598Y1183D02*
X1616Y1183D01*
X1652Y1183D02*
X1671Y1183D01*
X1598Y1182D02*
X1616Y1182D01*
X1652Y1182D02*
X1671Y1182D01*
X1598Y1181D02*
X1615Y1181D01*
X1653Y1181D02*
X1671Y1181D01*
X1598Y1180D02*
X1615Y1180D01*
X1653Y1180D02*
X1671Y1180D01*
X1598Y1179D02*
X1614Y1179D01*
X1654Y1179D02*
X1671Y1179D01*
X1598Y1178D02*
X1614Y1178D01*
X1654Y1178D02*
X1671Y1178D01*
X1598Y1177D02*
X1614Y1177D01*
X1654Y1177D02*
X1671Y1177D01*
X1598Y1176D02*
X1614Y1176D01*
X1654Y1176D02*
X1671Y1176D01*
X1598Y1175D02*
X1614Y1175D01*
X1654Y1175D02*
X1671Y1175D01*
X1598Y1174D02*
X1614Y1174D01*
X1654Y1174D02*
X1671Y1174D01*
X1598Y1173D02*
X1614Y1173D01*
X1654Y1173D02*
X1671Y1173D01*
X1598Y1172D02*
X1614Y1172D01*
X1654Y1172D02*
X1671Y1172D01*
X1598Y1171D02*
X1614Y1171D01*
X1654Y1171D02*
X1671Y1171D01*
X1598Y1170D02*
X1614Y1170D01*
X1654Y1170D02*
X1671Y1170D01*
X1598Y1169D02*
X1614Y1169D01*
X1654Y1169D02*
X1671Y1169D01*
X1598Y1168D02*
X1614Y1168D01*
X1654Y1168D02*
X1671Y1168D01*
X1598Y1167D02*
X1615Y1167D01*
X1653Y1167D02*
X1671Y1167D01*
X1598Y1166D02*
X1615Y1166D01*
X1653Y1166D02*
X1671Y1166D01*
X1598Y1165D02*
X1615Y1165D01*
X1653Y1165D02*
X1671Y1165D01*
X1598Y1164D02*
X1616Y1164D01*
X1652Y1164D02*
X1671Y1164D01*
X274Y1163D02*
X288Y1163D01*
X301Y1163D02*
X315Y1163D01*
X1598Y1163D02*
X1616Y1163D01*
X1652Y1163D02*
X1671Y1163D01*
X274Y1162D02*
X285Y1162D01*
X304Y1162D02*
X315Y1162D01*
X1598Y1162D02*
X1617Y1162D01*
X1651Y1162D02*
X1671Y1162D01*
X274Y1161D02*
X284Y1161D01*
X305Y1161D02*
X315Y1161D01*
X1598Y1161D02*
X1618Y1161D01*
X1650Y1161D02*
X1671Y1161D01*
X274Y1160D02*
X282Y1160D01*
X307Y1160D02*
X315Y1160D01*
X1598Y1160D02*
X1619Y1160D01*
X1650Y1160D02*
X1671Y1160D01*
X274Y1159D02*
X281Y1159D01*
X308Y1159D02*
X315Y1159D01*
X1598Y1159D02*
X1619Y1159D01*
X1649Y1159D02*
X1671Y1159D01*
X274Y1158D02*
X280Y1158D01*
X309Y1158D02*
X315Y1158D01*
X1598Y1158D02*
X1621Y1158D01*
X1647Y1158D02*
X1671Y1158D01*
X274Y1157D02*
X279Y1157D01*
X310Y1157D02*
X315Y1157D01*
X1598Y1157D02*
X1622Y1157D01*
X1646Y1157D02*
X1671Y1157D01*
X274Y1156D02*
X278Y1156D01*
X311Y1156D02*
X315Y1156D01*
X1598Y1156D02*
X1623Y1156D01*
X1645Y1156D02*
X1671Y1156D01*
X274Y1155D02*
X277Y1155D01*
X312Y1155D02*
X315Y1155D01*
X1598Y1155D02*
X1625Y1155D01*
X1643Y1155D02*
X1671Y1155D01*
X274Y1154D02*
X276Y1154D01*
X313Y1154D02*
X315Y1154D01*
X1598Y1154D02*
X1628Y1154D01*
X1640Y1154D02*
X1671Y1154D01*
X274Y1153D02*
X276Y1153D01*
X313Y1153D02*
X315Y1153D01*
X1598Y1153D02*
X1671Y1153D01*
X274Y1152D02*
X275Y1152D01*
X314Y1152D02*
X315Y1152D01*
X1598Y1152D02*
X1671Y1152D01*
X274Y1151D02*
X275Y1151D01*
X314Y1151D02*
X315Y1151D01*
X1598Y1151D02*
X1671Y1151D01*
X274Y1150D02*
X274Y1150D01*
X314Y1150D02*
X315Y1150D01*
X1598Y1150D02*
X1671Y1150D01*
X274Y1149D02*
X274Y1149D01*
X315Y1149D02*
X315Y1149D01*
X1598Y1149D02*
X1671Y1149D01*
X274Y1148D02*
X274Y1148D01*
X315Y1148D02*
X315Y1148D01*
X1598Y1148D02*
X1671Y1148D01*
X1598Y1147D02*
X1671Y1147D01*
X1598Y1146D02*
X1671Y1146D01*
X1598Y1145D02*
X1671Y1145D01*
X1598Y1144D02*
X1671Y1144D01*
X1598Y1143D02*
X1671Y1143D01*
X1598Y1142D02*
X1671Y1142D01*
X1598Y1141D02*
X1671Y1141D01*
X1598Y1140D02*
X1671Y1140D01*
X1598Y1139D02*
X1671Y1139D01*
X274Y1138D02*
X274Y1138D01*
X315Y1138D02*
X315Y1138D01*
X1598Y1138D02*
X1671Y1138D01*
X274Y1137D02*
X274Y1137D01*
X315Y1137D02*
X315Y1137D01*
X1598Y1137D02*
X1671Y1137D01*
X274Y1136D02*
X275Y1136D01*
X314Y1136D02*
X315Y1136D01*
X274Y1135D02*
X275Y1135D01*
X314Y1135D02*
X315Y1135D01*
X274Y1134D02*
X275Y1134D01*
X314Y1134D02*
X315Y1134D01*
X274Y1133D02*
X276Y1133D01*
X313Y1133D02*
X315Y1133D01*
X274Y1132D02*
X277Y1132D01*
X312Y1132D02*
X315Y1132D01*
X274Y1131D02*
X277Y1131D01*
X312Y1131D02*
X315Y1131D01*
X274Y1130D02*
X278Y1130D01*
X311Y1130D02*
X315Y1130D01*
X274Y1129D02*
X279Y1129D01*
X310Y1129D02*
X315Y1129D01*
X274Y1128D02*
X280Y1128D01*
X309Y1128D02*
X315Y1128D01*
X274Y1127D02*
X281Y1127D01*
X308Y1127D02*
X315Y1127D01*
X274Y1126D02*
X282Y1126D01*
X307Y1126D02*
X315Y1126D01*
X274Y1125D02*
X284Y1125D01*
X305Y1125D02*
X315Y1125D01*
X274Y1124D02*
X286Y1124D01*
X303Y1124D02*
X315Y1124D01*
X274Y1123D02*
X289Y1123D01*
X300Y1123D02*
X315Y1123D01*
X274Y1122D02*
X315Y1122D01*
X274Y1121D02*
X315Y1121D01*
X274Y1120D02*
X315Y1120D01*
X274Y1119D02*
X315Y1119D01*
X274Y1118D02*
X315Y1118D01*
X274Y1117D02*
X315Y1117D01*
X274Y1116D02*
X315Y1116D01*
X274Y1115D02*
X315Y1115D01*
X274Y1114D02*
X315Y1114D01*
X274Y1113D02*
X315Y1113D01*
X274Y1112D02*
X315Y1112D01*
X274Y1111D02*
X315Y1111D01*
X274Y1110D02*
X315Y1110D01*
X1598Y1110D02*
X1670Y1110D01*
X274Y1109D02*
X315Y1109D01*
X1598Y1109D02*
X1671Y1109D01*
X274Y1108D02*
X315Y1108D01*
X1598Y1108D02*
X1671Y1108D01*
X274Y1107D02*
X315Y1107D01*
X1598Y1107D02*
X1671Y1107D01*
X274Y1106D02*
X315Y1106D01*
X1598Y1106D02*
X1671Y1106D01*
X274Y1105D02*
X315Y1105D01*
X1598Y1105D02*
X1671Y1105D01*
X274Y1104D02*
X315Y1104D01*
X1598Y1104D02*
X1671Y1104D01*
X274Y1103D02*
X315Y1103D01*
X1598Y1103D02*
X1671Y1103D01*
X274Y1102D02*
X315Y1102D01*
X1598Y1102D02*
X1671Y1102D01*
X1598Y1101D02*
X1671Y1101D01*
X1598Y1100D02*
X1671Y1100D01*
X1598Y1099D02*
X1671Y1099D01*
X1598Y1098D02*
X1671Y1098D01*
X1598Y1097D02*
X1671Y1097D01*
X1598Y1096D02*
X1671Y1096D01*
X1598Y1095D02*
X1671Y1095D01*
X1598Y1094D02*
X1671Y1094D01*
X1598Y1093D02*
X1632Y1093D01*
X1636Y1093D02*
X1671Y1093D01*
X1598Y1092D02*
X1627Y1092D01*
X1641Y1092D02*
X1671Y1092D01*
X1598Y1091D02*
X1625Y1091D01*
X1643Y1091D02*
X1671Y1091D01*
X1598Y1090D02*
X1623Y1090D01*
X1645Y1090D02*
X1671Y1090D01*
X1598Y1089D02*
X1621Y1089D01*
X1647Y1089D02*
X1671Y1089D01*
X1598Y1088D02*
X1620Y1088D01*
X1648Y1088D02*
X1671Y1088D01*
X1598Y1087D02*
X1619Y1087D01*
X1649Y1087D02*
X1671Y1087D01*
X1598Y1086D02*
X1618Y1086D01*
X1650Y1086D02*
X1671Y1086D01*
X1598Y1085D02*
X1618Y1085D01*
X1651Y1085D02*
X1671Y1085D01*
X1598Y1084D02*
X1617Y1084D01*
X1651Y1084D02*
X1671Y1084D01*
X1598Y1083D02*
X1616Y1083D01*
X1652Y1083D02*
X1671Y1083D01*
X1598Y1082D02*
X1616Y1082D01*
X1652Y1082D02*
X1671Y1082D01*
X1598Y1081D02*
X1615Y1081D01*
X1653Y1081D02*
X1671Y1081D01*
X1598Y1080D02*
X1615Y1080D01*
X1653Y1080D02*
X1671Y1080D01*
X1598Y1079D02*
X1614Y1079D01*
X1654Y1079D02*
X1671Y1079D01*
X1598Y1078D02*
X1614Y1078D01*
X1654Y1078D02*
X1671Y1078D01*
X1598Y1077D02*
X1614Y1077D01*
X1654Y1077D02*
X1671Y1077D01*
X1598Y1076D02*
X1614Y1076D01*
X1654Y1076D02*
X1671Y1076D01*
X1598Y1075D02*
X1614Y1075D01*
X1654Y1075D02*
X1671Y1075D01*
X1598Y1074D02*
X1614Y1074D01*
X1654Y1074D02*
X1671Y1074D01*
X1598Y1073D02*
X1614Y1073D01*
X1654Y1073D02*
X1671Y1073D01*
X1598Y1072D02*
X1614Y1072D01*
X1654Y1072D02*
X1671Y1072D01*
X1598Y1071D02*
X1614Y1071D01*
X1654Y1071D02*
X1671Y1071D01*
X1598Y1070D02*
X1614Y1070D01*
X1654Y1070D02*
X1671Y1070D01*
X1598Y1069D02*
X1614Y1069D01*
X1654Y1069D02*
X1671Y1069D01*
X1598Y1068D02*
X1614Y1068D01*
X1654Y1068D02*
X1671Y1068D01*
X1598Y1067D02*
X1615Y1067D01*
X1653Y1067D02*
X1671Y1067D01*
X1598Y1066D02*
X1615Y1066D01*
X1653Y1066D02*
X1671Y1066D01*
X1598Y1065D02*
X1615Y1065D01*
X1653Y1065D02*
X1671Y1065D01*
X1598Y1064D02*
X1616Y1064D01*
X1652Y1064D02*
X1671Y1064D01*
X1598Y1063D02*
X1616Y1063D01*
X1652Y1063D02*
X1671Y1063D01*
X1598Y1062D02*
X1617Y1062D01*
X1651Y1062D02*
X1671Y1062D01*
X1598Y1061D02*
X1618Y1061D01*
X1650Y1061D02*
X1671Y1061D01*
X1598Y1060D02*
X1619Y1060D01*
X1650Y1060D02*
X1671Y1060D01*
X1598Y1059D02*
X1619Y1059D01*
X1649Y1059D02*
X1671Y1059D01*
X1598Y1058D02*
X1621Y1058D01*
X1647Y1058D02*
X1671Y1058D01*
X1598Y1057D02*
X1622Y1057D01*
X1646Y1057D02*
X1671Y1057D01*
X1598Y1056D02*
X1623Y1056D01*
X1645Y1056D02*
X1671Y1056D01*
X1598Y1055D02*
X1625Y1055D01*
X1643Y1055D02*
X1671Y1055D01*
X1598Y1054D02*
X1628Y1054D01*
X1640Y1054D02*
X1671Y1054D01*
X1598Y1053D02*
X1671Y1053D01*
X1598Y1052D02*
X1671Y1052D01*
X1598Y1051D02*
X1671Y1051D01*
X1598Y1050D02*
X1671Y1050D01*
X1598Y1049D02*
X1671Y1049D01*
X1598Y1048D02*
X1671Y1048D01*
X1598Y1047D02*
X1671Y1047D01*
X1598Y1046D02*
X1671Y1046D01*
X1598Y1045D02*
X1671Y1045D01*
X1598Y1044D02*
X1671Y1044D01*
X1598Y1043D02*
X1671Y1043D01*
X1598Y1042D02*
X1671Y1042D01*
X1598Y1041D02*
X1671Y1041D01*
X1598Y1040D02*
X1671Y1040D01*
X1598Y1039D02*
X1671Y1039D01*
X1598Y1038D02*
X1671Y1038D01*
X1598Y1037D02*
X1671Y1037D01*
X1998Y510D02*
X2070Y510D01*
X1997Y509D02*
X2070Y509D01*
X1997Y508D02*
X2070Y508D01*
X1997Y507D02*
X2070Y507D01*
X1997Y506D02*
X2070Y506D01*
X1997Y505D02*
X2070Y505D01*
X1997Y504D02*
X2070Y504D01*
X1997Y503D02*
X2070Y503D01*
X1997Y502D02*
X2070Y502D01*
X1997Y501D02*
X2070Y501D01*
X1997Y500D02*
X2070Y500D01*
X1997Y499D02*
X2070Y499D01*
X1997Y498D02*
X2070Y498D01*
X1997Y497D02*
X2070Y497D01*
X1997Y496D02*
X2070Y496D01*
X1997Y495D02*
X2070Y495D01*
X1997Y494D02*
X2070Y494D01*
X1997Y493D02*
X2032Y493D01*
X2036Y493D02*
X2070Y493D01*
X1997Y492D02*
X2027Y492D01*
X2041Y492D02*
X2070Y492D01*
X1997Y491D02*
X2025Y491D01*
X2043Y491D02*
X2070Y491D01*
X1997Y490D02*
X2023Y490D01*
X2045Y490D02*
X2070Y490D01*
X1997Y489D02*
X2021Y489D01*
X2047Y489D02*
X2070Y489D01*
X1997Y488D02*
X2020Y488D01*
X2048Y488D02*
X2070Y488D01*
X1997Y487D02*
X2019Y487D01*
X2049Y487D02*
X2070Y487D01*
X1997Y486D02*
X2018Y486D01*
X2050Y486D02*
X2070Y486D01*
X1997Y485D02*
X2017Y485D01*
X2051Y485D02*
X2070Y485D01*
X1997Y484D02*
X2017Y484D01*
X2051Y484D02*
X2070Y484D01*
X1997Y483D02*
X2016Y483D01*
X2052Y483D02*
X2070Y483D01*
X1997Y482D02*
X2016Y482D01*
X2052Y482D02*
X2070Y482D01*
X1997Y481D02*
X2015Y481D01*
X2053Y481D02*
X2070Y481D01*
X1997Y480D02*
X2015Y480D01*
X2053Y480D02*
X2070Y480D01*
X1997Y479D02*
X2014Y479D01*
X2054Y479D02*
X2070Y479D01*
X1997Y478D02*
X2014Y478D01*
X2054Y478D02*
X2070Y478D01*
X1997Y477D02*
X2014Y477D01*
X2054Y477D02*
X2070Y477D01*
X1997Y476D02*
X2014Y476D01*
X2054Y476D02*
X2070Y476D01*
X1997Y475D02*
X2014Y475D01*
X2054Y475D02*
X2070Y475D01*
X1997Y474D02*
X2014Y474D01*
X2054Y474D02*
X2070Y474D01*
X1997Y473D02*
X2014Y473D01*
X2054Y473D02*
X2070Y473D01*
X1997Y472D02*
X2014Y472D01*
X2054Y472D02*
X2070Y472D01*
X1997Y471D02*
X2014Y471D01*
X2054Y471D02*
X2070Y471D01*
X1997Y470D02*
X2014Y470D01*
X2054Y470D02*
X2070Y470D01*
X1997Y469D02*
X2014Y469D01*
X2054Y469D02*
X2070Y469D01*
X1997Y468D02*
X2014Y468D01*
X2054Y468D02*
X2070Y468D01*
X1997Y467D02*
X2015Y467D01*
X2053Y467D02*
X2070Y467D01*
X1997Y466D02*
X2015Y466D01*
X2053Y466D02*
X2070Y466D01*
X1997Y465D02*
X2015Y465D01*
X2053Y465D02*
X2070Y465D01*
X1997Y464D02*
X2016Y464D01*
X2052Y464D02*
X2070Y464D01*
X1997Y463D02*
X2016Y463D01*
X2052Y463D02*
X2070Y463D01*
X1997Y462D02*
X2017Y462D01*
X2051Y462D02*
X2070Y462D01*
X1997Y461D02*
X2018Y461D01*
X2050Y461D02*
X2070Y461D01*
X1997Y460D02*
X2019Y460D01*
X2049Y460D02*
X2070Y460D01*
X1997Y459D02*
X2019Y459D01*
X2049Y459D02*
X2070Y459D01*
X1997Y458D02*
X2021Y458D01*
X2047Y458D02*
X2070Y458D01*
X1997Y457D02*
X2022Y457D01*
X2046Y457D02*
X2070Y457D01*
X1997Y456D02*
X2023Y456D01*
X2045Y456D02*
X2070Y456D01*
X1997Y455D02*
X2025Y455D01*
X2043Y455D02*
X2070Y455D01*
X1997Y454D02*
X2028Y454D01*
X2040Y454D02*
X2070Y454D01*
X1997Y453D02*
X2070Y453D01*
X1997Y452D02*
X2070Y452D01*
X1997Y451D02*
X2070Y451D01*
X1997Y450D02*
X2070Y450D01*
X1997Y449D02*
X2070Y449D01*
X1997Y448D02*
X2070Y448D01*
X1997Y447D02*
X2070Y447D01*
X1997Y446D02*
X2070Y446D01*
X1997Y445D02*
X2070Y445D01*
X1997Y444D02*
X2070Y444D01*
X1997Y443D02*
X2070Y443D01*
X1997Y442D02*
X2070Y442D01*
X1997Y441D02*
X2070Y441D01*
X1997Y440D02*
X2070Y440D01*
X1997Y439D02*
X2070Y439D01*
X1997Y438D02*
X2070Y438D01*
X1997Y437D02*
X2070Y437D01*
X2205Y297D02*
X2263Y297D01*
X2205Y296D02*
X2263Y296D01*
X2205Y295D02*
X2263Y295D01*
X2205Y294D02*
X2263Y294D01*
X2205Y293D02*
X2263Y293D01*
X2205Y292D02*
X2263Y292D01*
X2205Y291D02*
X2263Y291D01*
X2205Y290D02*
X2263Y290D01*
X2205Y289D02*
X2263Y289D01*
X2205Y288D02*
X2263Y288D01*
X2205Y287D02*
X2263Y287D01*
X2205Y286D02*
X2233Y286D01*
X2235Y286D02*
X2263Y286D01*
X2205Y285D02*
X2228Y285D01*
X2240Y285D02*
X2263Y285D01*
X2205Y284D02*
X2225Y284D01*
X2243Y284D02*
X2263Y284D01*
X2205Y283D02*
X2223Y283D01*
X2245Y283D02*
X2263Y283D01*
X2205Y282D02*
X2222Y282D01*
X2246Y282D02*
X2263Y282D01*
X2205Y281D02*
X2221Y281D01*
X2247Y281D02*
X2263Y281D01*
X2205Y280D02*
X2220Y280D01*
X2248Y280D02*
X2263Y280D01*
X2205Y279D02*
X2219Y279D01*
X2249Y279D02*
X2263Y279D01*
X2205Y278D02*
X2218Y278D01*
X2250Y278D02*
X2263Y278D01*
X2205Y277D02*
X2218Y277D01*
X2250Y277D02*
X2263Y277D01*
X2205Y276D02*
X2217Y276D01*
X2251Y276D02*
X2263Y276D01*
X2205Y275D02*
X2217Y275D01*
X2251Y275D02*
X2263Y275D01*
X2205Y274D02*
X2216Y274D01*
X2252Y274D02*
X2263Y274D01*
X2205Y273D02*
X2216Y273D01*
X2252Y273D02*
X2263Y273D01*
X2205Y272D02*
X2216Y272D01*
X2252Y272D02*
X2263Y272D01*
X2205Y271D02*
X2215Y271D01*
X2253Y271D02*
X2263Y271D01*
X2205Y270D02*
X2215Y270D01*
X2253Y270D02*
X2263Y270D01*
X2205Y269D02*
X2215Y269D01*
X2253Y269D02*
X2263Y269D01*
X2205Y268D02*
X2215Y268D01*
X2253Y268D02*
X2263Y268D01*
X2205Y267D02*
X2215Y267D01*
X2253Y267D02*
X2263Y267D01*
X2205Y266D02*
X2215Y266D01*
X2253Y266D02*
X2263Y266D01*
X2205Y265D02*
X2215Y265D01*
X2253Y265D02*
X2263Y265D01*
X2205Y264D02*
X2215Y264D01*
X2253Y264D02*
X2263Y264D01*
X2205Y263D02*
X2216Y263D01*
X2252Y263D02*
X2263Y263D01*
X2205Y262D02*
X2216Y262D01*
X2252Y262D02*
X2263Y262D01*
X2205Y261D02*
X2216Y261D01*
X2252Y261D02*
X2263Y261D01*
X2205Y260D02*
X2217Y260D01*
X2251Y260D02*
X2263Y260D01*
X2205Y259D02*
X2217Y259D01*
X2251Y259D02*
X2263Y259D01*
X2205Y258D02*
X2218Y258D01*
X2250Y258D02*
X2263Y258D01*
X2205Y257D02*
X2218Y257D01*
X2250Y257D02*
X2263Y257D01*
X2205Y256D02*
X2219Y256D01*
X2249Y256D02*
X2263Y256D01*
X2205Y255D02*
X2220Y255D01*
X2248Y255D02*
X2263Y255D01*
X2205Y254D02*
X2221Y254D01*
X2247Y254D02*
X2263Y254D01*
X2205Y253D02*
X2222Y253D01*
X2246Y253D02*
X2263Y253D01*
X2205Y252D02*
X2223Y252D01*
X2245Y252D02*
X2263Y252D01*
X2205Y251D02*
X2225Y251D01*
X2243Y251D02*
X2263Y251D01*
X2205Y250D02*
X2228Y250D01*
X2240Y250D02*
X2263Y250D01*
X2205Y249D02*
X2263Y249D01*
X2205Y248D02*
X2263Y248D01*
X2205Y247D02*
X2263Y247D01*
X2205Y246D02*
X2263Y246D01*
X2205Y245D02*
X2263Y245D01*
X2205Y244D02*
X2263Y244D01*
X2205Y243D02*
X2263Y243D01*
X2205Y242D02*
X2263Y242D01*
X2205Y241D02*
X2263Y241D01*
X2205Y240D02*
X2263Y240D01*
X2205Y239D02*
X2263Y239D01*
X2205Y238D02*
X2263Y238D01*
X3217Y194D02*
X3276Y194D01*
X3217Y193D02*
X3276Y193D01*
X3217Y192D02*
X3276Y192D01*
X3217Y191D02*
X3276Y191D01*
X3217Y190D02*
X3276Y190D01*
X3217Y189D02*
X3276Y189D01*
X3217Y188D02*
X3276Y188D01*
X3217Y187D02*
X3276Y187D01*
X3217Y186D02*
X3276Y186D01*
X3217Y185D02*
X3276Y185D01*
X3217Y184D02*
X3276Y184D01*
X3217Y183D02*
X3243Y183D01*
X3250Y183D02*
X3276Y183D01*
X3217Y182D02*
X3239Y182D01*
X3254Y182D02*
X3276Y182D01*
X3217Y181D02*
X3237Y181D01*
X3256Y181D02*
X3276Y181D01*
X3217Y180D02*
X3235Y180D01*
X3257Y180D02*
X3276Y180D01*
X3217Y179D02*
X3234Y179D01*
X3259Y179D02*
X3276Y179D01*
X3217Y178D02*
X3233Y178D01*
X3260Y178D02*
X3276Y178D01*
X3217Y177D02*
X3232Y177D01*
X3261Y177D02*
X3276Y177D01*
X3217Y176D02*
X3231Y176D01*
X3262Y176D02*
X3276Y176D01*
X3217Y175D02*
X3231Y175D01*
X3262Y175D02*
X3276Y175D01*
X3217Y174D02*
X3230Y174D01*
X3263Y174D02*
X3276Y174D01*
X3217Y173D02*
X3229Y173D01*
X3263Y173D02*
X3276Y173D01*
X3217Y172D02*
X3229Y172D01*
X3264Y172D02*
X3276Y172D01*
X3217Y171D02*
X3229Y171D01*
X3264Y171D02*
X3276Y171D01*
X3217Y170D02*
X3228Y170D01*
X3265Y170D02*
X3276Y170D01*
X3217Y169D02*
X3228Y169D01*
X3265Y169D02*
X3276Y169D01*
X3217Y168D02*
X3228Y168D01*
X3265Y168D02*
X3276Y168D01*
X3217Y167D02*
X3228Y167D01*
X3265Y167D02*
X3276Y167D01*
X3217Y166D02*
X3228Y166D01*
X3265Y166D02*
X3276Y166D01*
X3217Y165D02*
X3227Y165D01*
X3265Y165D02*
X3276Y165D01*
X3217Y164D02*
X3227Y164D01*
X3265Y164D02*
X3276Y164D01*
X3217Y163D02*
X3228Y163D01*
X3265Y163D02*
X3276Y163D01*
X3217Y162D02*
X3228Y162D01*
X3265Y162D02*
X3276Y162D01*
X3217Y161D02*
X3228Y161D01*
X3265Y161D02*
X3276Y161D01*
X3217Y160D02*
X3228Y160D01*
X3265Y160D02*
X3276Y160D01*
X3217Y159D02*
X3228Y159D01*
X3264Y159D02*
X3276Y159D01*
X3217Y158D02*
X3229Y158D01*
X3264Y158D02*
X3276Y158D01*
X3217Y157D02*
X3229Y157D01*
X3264Y157D02*
X3276Y157D01*
X3217Y156D02*
X3230Y156D01*
X3263Y156D02*
X3276Y156D01*
X3217Y155D02*
X3230Y155D01*
X3263Y155D02*
X3276Y155D01*
X3217Y154D02*
X3231Y154D01*
X3262Y154D02*
X3276Y154D01*
X3217Y153D02*
X3232Y153D01*
X3261Y153D02*
X3276Y153D01*
X3217Y152D02*
X3233Y152D01*
X3260Y152D02*
X3276Y152D01*
X3217Y151D02*
X3234Y151D01*
X3259Y151D02*
X3276Y151D01*
X3217Y150D02*
X3235Y150D01*
X3258Y150D02*
X3276Y150D01*
X3217Y149D02*
X3236Y149D01*
X3257Y149D02*
X3276Y149D01*
X3217Y148D02*
X3238Y148D01*
X3255Y148D02*
X3276Y148D01*
X3217Y147D02*
X3241Y147D01*
X3252Y147D02*
X3276Y147D01*
X3217Y146D02*
X3276Y146D01*
X3217Y145D02*
X3276Y145D01*
X3217Y144D02*
X3276Y144D01*
X3217Y143D02*
X3276Y143D01*
X3217Y142D02*
X3276Y142D01*
X3217Y141D02*
X3276Y141D01*
X3217Y140D02*
X3276Y140D01*
X3217Y139D02*
X3276Y139D01*
X3217Y138D02*
X3276Y138D01*
X3217Y137D02*
X3276Y137D01*
X3217Y136D02*
X3276Y136D01*
X3218Y135D02*
X3275Y135D01*
D02*
G04 End of Copper0*
M02*