G04 MADE WITH FRITZING*
G04 WWW.FRITZING.ORG*
G04 DOUBLE SIDED*
G04 HOLES PLATED*
G04 CONTOUR ON CENTER OF CONTOUR VECTOR*
%ASAXBY*%
%FSLAX23Y23*%
%MOIN*%
%OFA0B0*%
%SFA1.0B1.0*%
%ADD10R,3.740160X3.740160X3.724160X3.724160*%
%ADD11C,0.008000*%
%ADD12C,0.010000*%
%ADD13C,0.005000*%
%ADD14R,0.001000X0.001000*%
%LNSILK0*%
G90*
G70*
G54D11*
X4Y3736D02*
X3736Y3736D01*
X3736Y4D01*
X4Y4D01*
X4Y3736D01*
D02*
G54D12*
X3623Y347D02*
X3623Y61D01*
D02*
X3623Y61D02*
X3407Y61D01*
D02*
X3407Y61D02*
X3407Y347D01*
D02*
X3407Y347D02*
X3623Y347D01*
G54D13*
D02*
X3447Y61D02*
X3447Y347D01*
G54D12*
D02*
X3623Y747D02*
X3623Y461D01*
D02*
X3623Y461D02*
X3407Y461D01*
D02*
X3407Y461D02*
X3407Y747D01*
D02*
X3407Y747D02*
X3623Y747D01*
G54D13*
D02*
X3447Y461D02*
X3447Y747D01*
G54D12*
D02*
X3623Y1247D02*
X3623Y961D01*
D02*
X3623Y961D02*
X3407Y961D01*
D02*
X3407Y961D02*
X3407Y1247D01*
D02*
X3407Y1247D02*
X3623Y1247D01*
G54D13*
D02*
X3447Y961D02*
X3447Y1247D01*
G54D12*
D02*
X561Y561D02*
X846Y561D01*
D02*
X846Y561D02*
X846Y345D01*
D02*
X846Y345D02*
X561Y345D01*
D02*
X561Y345D02*
X561Y561D01*
G54D13*
D02*
X846Y385D02*
X561Y385D01*
G54D14*
X2307Y729D02*
X2511Y729D01*
X2582Y729D02*
X3061Y729D01*
X3131Y729D02*
X3173Y729D01*
X2305Y728D02*
X2510Y728D01*
X2583Y728D02*
X3060Y728D01*
X3132Y728D02*
X3175Y728D01*
X2303Y727D02*
X2510Y727D01*
X2584Y727D02*
X3059Y727D01*
X3133Y727D02*
X3177Y727D01*
X2301Y726D02*
X2509Y726D01*
X2584Y726D02*
X3059Y726D01*
X3134Y726D02*
X3179Y726D01*
X2300Y725D02*
X2508Y725D01*
X2585Y725D02*
X3058Y725D01*
X3134Y725D02*
X3180Y725D01*
X2299Y724D02*
X2508Y724D01*
X2586Y724D02*
X3058Y724D01*
X3135Y724D02*
X3181Y724D01*
X2298Y723D02*
X2507Y723D01*
X2586Y723D02*
X3057Y723D01*
X3135Y723D02*
X3182Y723D01*
X2297Y722D02*
X2507Y722D01*
X2587Y722D02*
X3057Y722D01*
X3136Y722D02*
X3183Y722D01*
X2297Y721D02*
X2506Y721D01*
X2587Y721D02*
X3056Y721D01*
X3136Y721D02*
X3183Y721D01*
X2296Y720D02*
X2506Y720D01*
X2588Y720D02*
X3056Y720D01*
X3137Y720D02*
X3184Y720D01*
X2295Y719D02*
X2505Y719D01*
X2588Y719D02*
X3055Y719D01*
X3137Y719D02*
X3185Y719D01*
X2295Y718D02*
X2505Y718D01*
X2588Y718D02*
X3055Y718D01*
X3138Y718D02*
X3185Y718D01*
X2295Y717D02*
X2505Y717D01*
X2589Y717D02*
X3054Y717D01*
X3138Y717D02*
X3185Y717D01*
X2294Y716D02*
X2504Y716D01*
X2589Y716D02*
X3054Y716D01*
X3138Y716D02*
X3186Y716D01*
X2294Y715D02*
X2504Y715D01*
X2589Y715D02*
X3054Y715D01*
X3139Y715D02*
X3186Y715D01*
X2294Y714D02*
X2504Y714D01*
X2590Y714D02*
X3054Y714D01*
X3139Y714D02*
X3186Y714D01*
X2294Y713D02*
X2504Y713D01*
X2590Y713D02*
X3053Y713D01*
X3139Y713D02*
X3186Y713D01*
X2294Y712D02*
X2503Y712D01*
X2590Y712D02*
X3053Y712D01*
X3139Y712D02*
X3186Y712D01*
X2294Y711D02*
X2503Y711D01*
X2590Y711D02*
X3053Y711D01*
X3140Y711D02*
X3186Y711D01*
X2294Y710D02*
X2503Y710D01*
X2591Y710D02*
X3053Y710D01*
X3140Y710D02*
X3187Y710D01*
X2294Y709D02*
X2503Y709D01*
X2591Y709D02*
X3052Y709D01*
X3140Y709D02*
X3187Y709D01*
X2294Y708D02*
X2503Y708D01*
X2591Y708D02*
X3052Y708D01*
X3140Y708D02*
X3187Y708D01*
X2294Y707D02*
X2502Y707D01*
X2591Y707D02*
X3052Y707D01*
X3140Y707D02*
X3187Y707D01*
X2294Y706D02*
X2502Y706D01*
X2591Y706D02*
X3052Y706D01*
X3140Y706D02*
X3187Y706D01*
X2294Y705D02*
X2502Y705D01*
X2591Y705D02*
X3052Y705D01*
X3140Y705D02*
X3187Y705D01*
X2294Y704D02*
X2502Y704D01*
X2591Y704D02*
X3052Y704D01*
X3140Y704D02*
X3187Y704D01*
X2294Y703D02*
X2502Y703D01*
X2591Y703D02*
X3052Y703D01*
X3140Y703D02*
X3187Y703D01*
X2294Y702D02*
X2502Y702D01*
X2591Y702D02*
X3052Y702D01*
X3140Y702D02*
X3187Y702D01*
X2294Y701D02*
X2502Y701D01*
X2591Y701D02*
X3052Y701D01*
X3140Y701D02*
X3187Y701D01*
X2294Y700D02*
X2502Y700D01*
X2591Y700D02*
X3052Y700D01*
X3140Y700D02*
X3187Y700D01*
X2294Y699D02*
X2503Y699D01*
X2591Y699D02*
X3052Y699D01*
X3140Y699D02*
X3187Y699D01*
X2294Y698D02*
X2503Y698D01*
X2591Y698D02*
X3052Y698D01*
X3140Y698D02*
X3187Y698D01*
X2294Y697D02*
X2503Y697D01*
X2591Y697D02*
X3052Y697D01*
X3140Y697D02*
X3187Y697D01*
X2294Y696D02*
X2503Y696D01*
X2591Y696D02*
X3053Y696D01*
X3140Y696D02*
X3187Y696D01*
X2294Y695D02*
X2503Y695D01*
X2590Y695D02*
X3053Y695D01*
X3139Y695D02*
X3187Y695D01*
X2294Y694D02*
X2503Y694D01*
X2590Y694D02*
X3053Y694D01*
X3139Y694D02*
X3187Y694D01*
X2294Y693D02*
X2504Y693D01*
X2590Y693D02*
X3053Y693D01*
X3139Y693D02*
X3187Y693D01*
X2294Y692D02*
X2330Y692D01*
X3150Y692D02*
X3187Y692D01*
X2294Y691D02*
X2330Y691D01*
X3150Y691D02*
X3187Y691D01*
X2294Y690D02*
X2330Y690D01*
X3150Y690D02*
X3187Y690D01*
X2294Y689D02*
X2330Y689D01*
X3150Y689D02*
X3187Y689D01*
X2294Y688D02*
X2330Y688D01*
X3150Y688D02*
X3187Y688D01*
X2294Y687D02*
X2330Y687D01*
X3150Y687D02*
X3187Y687D01*
X2294Y686D02*
X2330Y686D01*
X3150Y686D02*
X3187Y686D01*
X2294Y685D02*
X2330Y685D01*
X3150Y685D02*
X3187Y685D01*
X2294Y684D02*
X2330Y684D01*
X3150Y684D02*
X3187Y684D01*
X2294Y683D02*
X2330Y683D01*
X3150Y683D02*
X3187Y683D01*
X2294Y682D02*
X2330Y682D01*
X3150Y682D02*
X3187Y682D01*
X2294Y681D02*
X2330Y681D01*
X3150Y681D02*
X3187Y681D01*
X2294Y680D02*
X2330Y680D01*
X3150Y680D02*
X3187Y680D01*
X2294Y679D02*
X2330Y679D01*
X3150Y679D02*
X3187Y679D01*
X2294Y678D02*
X2330Y678D01*
X3150Y678D02*
X3187Y678D01*
X2294Y677D02*
X2330Y677D01*
X3150Y677D02*
X3187Y677D01*
X2294Y676D02*
X2330Y676D01*
X3150Y676D02*
X3187Y676D01*
X2294Y675D02*
X2330Y675D01*
X3150Y675D02*
X3187Y675D01*
X2294Y674D02*
X2330Y674D01*
X3150Y674D02*
X3187Y674D01*
X2294Y673D02*
X2330Y673D01*
X3150Y673D02*
X3187Y673D01*
X2294Y672D02*
X2330Y672D01*
X3150Y672D02*
X3187Y672D01*
X2294Y671D02*
X2330Y671D01*
X3150Y671D02*
X3187Y671D01*
X2294Y670D02*
X2330Y670D01*
X3150Y670D02*
X3187Y670D01*
X2294Y669D02*
X2330Y669D01*
X3150Y669D02*
X3187Y669D01*
X2294Y668D02*
X2330Y668D01*
X3150Y668D02*
X3187Y668D01*
X2294Y667D02*
X2330Y667D01*
X3150Y667D02*
X3187Y667D01*
X2294Y666D02*
X2330Y666D01*
X3150Y666D02*
X3187Y666D01*
X2294Y665D02*
X2330Y665D01*
X3150Y665D02*
X3187Y665D01*
X2294Y664D02*
X2330Y664D01*
X3150Y664D02*
X3187Y664D01*
X2294Y663D02*
X2330Y663D01*
X3150Y663D02*
X3187Y663D01*
X2294Y662D02*
X2330Y662D01*
X3150Y662D02*
X3187Y662D01*
X2294Y661D02*
X2330Y661D01*
X3150Y661D02*
X3187Y661D01*
X2294Y660D02*
X2330Y660D01*
X3150Y660D02*
X3187Y660D01*
X2294Y659D02*
X2330Y659D01*
X3150Y659D02*
X3187Y659D01*
X2294Y658D02*
X2330Y658D01*
X3150Y658D02*
X3187Y658D01*
X2294Y657D02*
X2330Y657D01*
X3150Y657D02*
X3187Y657D01*
X2294Y656D02*
X2330Y656D01*
X3150Y656D02*
X3187Y656D01*
X2294Y655D02*
X2330Y655D01*
X3150Y655D02*
X3187Y655D01*
X2294Y654D02*
X2330Y654D01*
X3150Y654D02*
X3187Y654D01*
X2294Y653D02*
X2330Y653D01*
X3150Y653D02*
X3187Y653D01*
X2294Y652D02*
X2330Y652D01*
X3150Y652D02*
X3187Y652D01*
X2294Y651D02*
X2330Y651D01*
X3150Y651D02*
X3187Y651D01*
X2294Y650D02*
X2330Y650D01*
X3150Y650D02*
X3187Y650D01*
X2294Y649D02*
X2330Y649D01*
X3150Y649D02*
X3187Y649D01*
X2294Y648D02*
X2330Y648D01*
X3150Y648D02*
X3187Y648D01*
X2294Y647D02*
X2330Y647D01*
X3150Y647D02*
X3187Y647D01*
X2294Y646D02*
X2330Y646D01*
X3150Y646D02*
X3187Y646D01*
X2294Y645D02*
X2330Y645D01*
X3150Y645D02*
X3187Y645D01*
X2294Y644D02*
X2330Y644D01*
X3150Y644D02*
X3187Y644D01*
X2294Y643D02*
X2330Y643D01*
X3150Y643D02*
X3187Y643D01*
X2294Y642D02*
X2330Y642D01*
X3150Y642D02*
X3187Y642D01*
X2294Y641D02*
X2330Y641D01*
X3150Y641D02*
X3187Y641D01*
X2294Y640D02*
X2330Y640D01*
X3150Y640D02*
X3187Y640D01*
X2294Y639D02*
X2330Y639D01*
X3150Y639D02*
X3187Y639D01*
X2294Y638D02*
X2330Y638D01*
X3150Y638D02*
X3187Y638D01*
X2294Y637D02*
X2330Y637D01*
X3150Y637D02*
X3187Y637D01*
X2294Y636D02*
X2330Y636D01*
X3150Y636D02*
X3187Y636D01*
X2294Y635D02*
X2330Y635D01*
X3150Y635D02*
X3187Y635D01*
X2294Y634D02*
X2330Y634D01*
X3150Y634D02*
X3187Y634D01*
X2294Y633D02*
X2330Y633D01*
X3150Y633D02*
X3187Y633D01*
X2294Y632D02*
X2330Y632D01*
X3150Y632D02*
X3187Y632D01*
X2294Y631D02*
X2330Y631D01*
X3150Y631D02*
X3187Y631D01*
X2294Y630D02*
X2330Y630D01*
X3150Y630D02*
X3187Y630D01*
X2294Y629D02*
X2330Y629D01*
X3150Y629D02*
X3187Y629D01*
X2294Y628D02*
X2330Y628D01*
X3150Y628D02*
X3187Y628D01*
X2294Y627D02*
X2330Y627D01*
X3150Y627D02*
X3187Y627D01*
X2294Y626D02*
X2330Y626D01*
X3150Y626D02*
X3187Y626D01*
X2294Y625D02*
X2330Y625D01*
X3150Y625D02*
X3187Y625D01*
X2294Y624D02*
X2330Y624D01*
X3150Y624D02*
X3187Y624D01*
X2294Y623D02*
X2330Y623D01*
X3150Y623D02*
X3187Y623D01*
X2294Y622D02*
X2330Y622D01*
X3150Y622D02*
X3187Y622D01*
X2294Y621D02*
X2330Y621D01*
X3150Y621D02*
X3187Y621D01*
X2294Y620D02*
X2330Y620D01*
X3150Y620D02*
X3187Y620D01*
X2294Y619D02*
X2330Y619D01*
X3150Y619D02*
X3187Y619D01*
X2294Y618D02*
X2330Y618D01*
X3150Y618D02*
X3187Y618D01*
X2294Y617D02*
X2330Y617D01*
X3150Y617D02*
X3187Y617D01*
X2294Y616D02*
X2330Y616D01*
X3150Y616D02*
X3187Y616D01*
X2294Y615D02*
X2330Y615D01*
X3150Y615D02*
X3187Y615D01*
X2294Y614D02*
X2330Y614D01*
X3150Y614D02*
X3187Y614D01*
X2294Y613D02*
X2330Y613D01*
X3150Y613D02*
X3187Y613D01*
X2294Y612D02*
X2330Y612D01*
X3150Y612D02*
X3187Y612D01*
X2294Y611D02*
X2330Y611D01*
X3150Y611D02*
X3187Y611D01*
X2294Y610D02*
X2330Y610D01*
X3150Y610D02*
X3187Y610D01*
X2294Y609D02*
X2330Y609D01*
X3150Y609D02*
X3187Y609D01*
X2294Y608D02*
X2330Y608D01*
X3150Y608D02*
X3187Y608D01*
X2294Y607D02*
X2330Y607D01*
X3150Y607D02*
X3187Y607D01*
X2294Y606D02*
X2330Y606D01*
X3150Y606D02*
X3187Y606D01*
X2294Y605D02*
X2330Y605D01*
X3150Y605D02*
X3187Y605D01*
X2294Y604D02*
X2330Y604D01*
X3150Y604D02*
X3187Y604D01*
X2294Y603D02*
X2330Y603D01*
X3150Y603D02*
X3187Y603D01*
X2294Y602D02*
X2330Y602D01*
X3150Y602D02*
X3187Y602D01*
X2294Y601D02*
X2330Y601D01*
X3150Y601D02*
X3187Y601D01*
X2294Y600D02*
X2330Y600D01*
X3150Y600D02*
X3187Y600D01*
X2294Y599D02*
X2330Y599D01*
X3150Y599D02*
X3187Y599D01*
X2294Y598D02*
X2330Y598D01*
X3150Y598D02*
X3187Y598D01*
X2294Y597D02*
X2330Y597D01*
X3150Y597D02*
X3187Y597D01*
X2294Y596D02*
X2330Y596D01*
X3150Y596D02*
X3187Y596D01*
X2294Y595D02*
X2330Y595D01*
X3150Y595D02*
X3187Y595D01*
X2294Y594D02*
X2330Y594D01*
X3150Y594D02*
X3187Y594D01*
X2294Y593D02*
X2330Y593D01*
X3150Y593D02*
X3187Y593D01*
X2294Y592D02*
X2330Y592D01*
X3150Y592D02*
X3187Y592D01*
X2294Y591D02*
X2330Y591D01*
X3150Y591D02*
X3187Y591D01*
X2294Y590D02*
X2330Y590D01*
X3150Y590D02*
X3187Y590D01*
X2294Y589D02*
X2330Y589D01*
X3150Y589D02*
X3187Y589D01*
X2294Y588D02*
X2330Y588D01*
X3150Y588D02*
X3187Y588D01*
X2294Y587D02*
X2330Y587D01*
X3150Y587D02*
X3187Y587D01*
X2294Y586D02*
X2330Y586D01*
X3150Y586D02*
X3187Y586D01*
X2294Y585D02*
X2330Y585D01*
X3150Y585D02*
X3187Y585D01*
X2294Y584D02*
X2330Y584D01*
X3150Y584D02*
X3187Y584D01*
X2294Y583D02*
X2330Y583D01*
X3150Y583D02*
X3187Y583D01*
X2294Y582D02*
X2330Y582D01*
X3150Y582D02*
X3187Y582D01*
X2294Y581D02*
X2330Y581D01*
X3150Y581D02*
X3187Y581D01*
X2294Y580D02*
X2330Y580D01*
X3150Y580D02*
X3187Y580D01*
X2294Y579D02*
X2330Y579D01*
X3150Y579D02*
X3187Y579D01*
X2294Y578D02*
X2330Y578D01*
X3150Y578D02*
X3187Y578D01*
X2294Y577D02*
X2330Y577D01*
X3150Y577D02*
X3187Y577D01*
X2294Y576D02*
X2330Y576D01*
X3150Y576D02*
X3187Y576D01*
X2294Y575D02*
X2330Y575D01*
X3150Y575D02*
X3187Y575D01*
X2294Y574D02*
X2330Y574D01*
X3150Y574D02*
X3187Y574D01*
X2294Y573D02*
X2330Y573D01*
X3150Y573D02*
X3187Y573D01*
X2294Y572D02*
X2330Y572D01*
X3150Y572D02*
X3187Y572D01*
X2294Y571D02*
X2330Y571D01*
X3150Y571D02*
X3187Y571D01*
X2294Y570D02*
X2330Y570D01*
X3150Y570D02*
X3187Y570D01*
X2294Y569D02*
X2330Y569D01*
X3150Y569D02*
X3187Y569D01*
X2294Y568D02*
X2330Y568D01*
X3150Y568D02*
X3187Y568D01*
X2294Y567D02*
X2330Y567D01*
X3150Y567D02*
X3187Y567D01*
X2294Y566D02*
X2330Y566D01*
X3150Y566D02*
X3187Y566D01*
X2294Y565D02*
X2330Y565D01*
X3150Y565D02*
X3187Y565D01*
X2294Y564D02*
X2330Y564D01*
X3150Y564D02*
X3187Y564D01*
X2294Y563D02*
X2330Y563D01*
X3150Y563D02*
X3187Y563D01*
X2294Y562D02*
X2330Y562D01*
X3150Y562D02*
X3187Y562D01*
X2294Y561D02*
X2330Y561D01*
X3150Y561D02*
X3187Y561D01*
X2294Y560D02*
X2330Y560D01*
X3150Y560D02*
X3187Y560D01*
X2294Y559D02*
X2330Y559D01*
X3150Y559D02*
X3187Y559D01*
X2294Y558D02*
X2330Y558D01*
X3150Y558D02*
X3187Y558D01*
X2294Y557D02*
X2330Y557D01*
X3150Y557D02*
X3187Y557D01*
X2294Y556D02*
X2330Y556D01*
X3150Y556D02*
X3187Y556D01*
X2294Y555D02*
X2330Y555D01*
X3150Y555D02*
X3187Y555D01*
X2294Y554D02*
X2330Y554D01*
X3150Y554D02*
X3187Y554D01*
X2294Y553D02*
X2330Y553D01*
X3150Y553D02*
X3187Y553D01*
X2294Y552D02*
X2330Y552D01*
X3150Y552D02*
X3187Y552D01*
X2294Y551D02*
X2330Y551D01*
X3150Y551D02*
X3187Y551D01*
X2294Y550D02*
X2330Y550D01*
X3150Y550D02*
X3187Y550D01*
X2294Y549D02*
X2330Y549D01*
X3150Y549D02*
X3187Y549D01*
X2294Y548D02*
X2330Y548D01*
X3150Y548D02*
X3187Y548D01*
X2294Y547D02*
X2330Y547D01*
X3150Y547D02*
X3187Y547D01*
X2294Y546D02*
X2330Y546D01*
X3150Y546D02*
X3187Y546D01*
X2294Y545D02*
X2330Y545D01*
X3150Y545D02*
X3187Y545D01*
X2294Y544D02*
X2330Y544D01*
X3150Y544D02*
X3187Y544D01*
X2294Y543D02*
X2330Y543D01*
X3150Y543D02*
X3187Y543D01*
X2294Y542D02*
X2330Y542D01*
X3150Y542D02*
X3187Y542D01*
X2294Y541D02*
X2330Y541D01*
X3150Y541D02*
X3187Y541D01*
X2294Y540D02*
X2330Y540D01*
X3150Y540D02*
X3187Y540D01*
X2294Y539D02*
X2330Y539D01*
X3150Y539D02*
X3187Y539D01*
X2294Y538D02*
X2330Y538D01*
X3150Y538D02*
X3187Y538D01*
X2294Y537D02*
X2330Y537D01*
X3150Y537D02*
X3187Y537D01*
X2294Y536D02*
X2330Y536D01*
X3150Y536D02*
X3187Y536D01*
X2294Y535D02*
X2330Y535D01*
X3150Y535D02*
X3187Y535D01*
X2294Y534D02*
X2330Y534D01*
X3150Y534D02*
X3187Y534D01*
X2294Y533D02*
X2330Y533D01*
X3150Y533D02*
X3187Y533D01*
X2294Y532D02*
X2330Y532D01*
X3150Y532D02*
X3187Y532D01*
X2294Y531D02*
X2330Y531D01*
X3150Y531D02*
X3187Y531D01*
X2294Y530D02*
X2330Y530D01*
X3150Y530D02*
X3187Y530D01*
X2294Y529D02*
X2330Y529D01*
X3150Y529D02*
X3187Y529D01*
X2294Y528D02*
X2330Y528D01*
X3150Y528D02*
X3187Y528D01*
X2294Y527D02*
X2330Y527D01*
X3150Y527D02*
X3187Y527D01*
X2294Y526D02*
X2330Y526D01*
X3150Y526D02*
X3187Y526D01*
X2294Y525D02*
X2330Y525D01*
X3150Y525D02*
X3187Y525D01*
X2294Y524D02*
X2330Y524D01*
X3150Y524D02*
X3187Y524D01*
X2294Y523D02*
X2330Y523D01*
X3150Y523D02*
X3187Y523D01*
X2294Y522D02*
X2330Y522D01*
X3150Y522D02*
X3187Y522D01*
X2294Y521D02*
X2330Y521D01*
X3150Y521D02*
X3187Y521D01*
X2294Y520D02*
X2330Y520D01*
X3150Y520D02*
X3187Y520D01*
X2294Y519D02*
X2330Y519D01*
X3150Y519D02*
X3187Y519D01*
X2294Y518D02*
X2330Y518D01*
X3150Y518D02*
X3187Y518D01*
X2294Y517D02*
X2330Y517D01*
X3150Y517D02*
X3187Y517D01*
X2294Y516D02*
X2330Y516D01*
X3150Y516D02*
X3187Y516D01*
X2294Y515D02*
X2330Y515D01*
X3150Y515D02*
X3187Y515D01*
X2294Y514D02*
X2330Y514D01*
X3150Y514D02*
X3187Y514D01*
X2294Y513D02*
X2330Y513D01*
X3150Y513D02*
X3187Y513D01*
X2294Y512D02*
X2330Y512D01*
X3150Y512D02*
X3187Y512D01*
X2294Y511D02*
X2330Y511D01*
X3150Y511D02*
X3187Y511D01*
X2294Y510D02*
X2330Y510D01*
X3150Y510D02*
X3187Y510D01*
X2294Y509D02*
X2330Y509D01*
X3150Y509D02*
X3187Y509D01*
X2294Y508D02*
X2330Y508D01*
X3150Y508D02*
X3187Y508D01*
X2294Y507D02*
X2330Y507D01*
X3150Y507D02*
X3187Y507D01*
X2294Y506D02*
X2330Y506D01*
X3150Y506D02*
X3187Y506D01*
X2294Y505D02*
X2330Y505D01*
X3150Y505D02*
X3187Y505D01*
X2294Y504D02*
X2330Y504D01*
X3150Y504D02*
X3187Y504D01*
X2294Y503D02*
X2330Y503D01*
X3150Y503D02*
X3187Y503D01*
X2294Y502D02*
X2330Y502D01*
X3150Y502D02*
X3187Y502D01*
X2294Y501D02*
X2330Y501D01*
X3150Y501D02*
X3187Y501D01*
X2294Y500D02*
X2330Y500D01*
X3150Y500D02*
X3187Y500D01*
X2294Y499D02*
X2330Y499D01*
X3150Y499D02*
X3187Y499D01*
X2294Y498D02*
X2330Y498D01*
X3150Y498D02*
X3187Y498D01*
X2294Y497D02*
X2330Y497D01*
X3150Y497D02*
X3187Y497D01*
X2294Y496D02*
X2330Y496D01*
X3150Y496D02*
X3187Y496D01*
X2294Y495D02*
X2330Y495D01*
X3150Y495D02*
X3187Y495D01*
X2294Y494D02*
X2330Y494D01*
X3150Y494D02*
X3187Y494D01*
X2294Y493D02*
X2330Y493D01*
X3150Y493D02*
X3187Y493D01*
X2294Y492D02*
X2330Y492D01*
X3150Y492D02*
X3187Y492D01*
X2294Y491D02*
X2330Y491D01*
X3150Y491D02*
X3187Y491D01*
X2294Y490D02*
X2330Y490D01*
X3150Y490D02*
X3187Y490D01*
X2294Y489D02*
X2330Y489D01*
X3150Y489D02*
X3187Y489D01*
X2294Y488D02*
X2330Y488D01*
X3150Y488D02*
X3187Y488D01*
X2294Y487D02*
X2330Y487D01*
X3150Y487D02*
X3187Y487D01*
X2294Y486D02*
X2330Y486D01*
X3150Y486D02*
X3187Y486D01*
X2294Y485D02*
X2330Y485D01*
X3150Y485D02*
X3187Y485D01*
X2294Y484D02*
X2330Y484D01*
X3150Y484D02*
X3187Y484D01*
X2294Y483D02*
X2330Y483D01*
X3150Y483D02*
X3187Y483D01*
X2294Y482D02*
X2330Y482D01*
X3150Y482D02*
X3187Y482D01*
X2294Y481D02*
X2330Y481D01*
X3150Y481D02*
X3187Y481D01*
X2294Y480D02*
X2330Y480D01*
X3150Y480D02*
X3187Y480D01*
X2294Y479D02*
X2330Y479D01*
X3150Y479D02*
X3187Y479D01*
X2294Y478D02*
X2330Y478D01*
X3150Y478D02*
X3187Y478D01*
X2294Y477D02*
X2330Y477D01*
X3150Y477D02*
X3187Y477D01*
X2294Y476D02*
X2330Y476D01*
X3150Y476D02*
X3187Y476D01*
X2294Y475D02*
X2330Y475D01*
X3150Y475D02*
X3187Y475D01*
X2294Y474D02*
X2330Y474D01*
X3150Y474D02*
X3187Y474D01*
X2294Y473D02*
X2330Y473D01*
X3150Y473D02*
X3187Y473D01*
X2294Y472D02*
X2330Y472D01*
X3150Y472D02*
X3187Y472D01*
X2294Y471D02*
X2330Y471D01*
X3150Y471D02*
X3187Y471D01*
X2294Y470D02*
X2330Y470D01*
X3150Y470D02*
X3187Y470D01*
X2294Y469D02*
X2330Y469D01*
X3150Y469D02*
X3187Y469D01*
X2294Y468D02*
X2330Y468D01*
X3150Y468D02*
X3187Y468D01*
X2294Y467D02*
X2330Y467D01*
X3150Y467D02*
X3187Y467D01*
X2294Y466D02*
X2330Y466D01*
X3150Y466D02*
X3187Y466D01*
X2294Y465D02*
X2330Y465D01*
X3150Y465D02*
X3187Y465D01*
X2294Y464D02*
X2308Y464D01*
X2320Y464D02*
X2330Y464D01*
X3150Y464D02*
X3187Y464D01*
X2294Y463D02*
X2302Y463D01*
X2326Y463D02*
X2330Y463D01*
X3150Y463D02*
X3187Y463D01*
X2294Y462D02*
X2299Y462D01*
X2329Y462D02*
X2330Y462D01*
X3150Y462D02*
X3187Y462D01*
X2294Y461D02*
X2296Y461D01*
X3150Y461D02*
X3187Y461D01*
X2294Y460D02*
X2294Y460D01*
X3150Y460D02*
X3187Y460D01*
X3150Y459D02*
X3187Y459D01*
X3150Y458D02*
X3187Y458D01*
X3150Y457D02*
X3187Y457D01*
X3150Y456D02*
X3187Y456D01*
X3150Y455D02*
X3187Y455D01*
X3150Y454D02*
X3187Y454D01*
X3150Y453D02*
X3187Y453D01*
X3150Y452D02*
X3187Y452D01*
X3150Y451D02*
X3187Y451D01*
X3150Y450D02*
X3187Y450D01*
X3150Y449D02*
X3187Y449D01*
X3150Y448D02*
X3187Y448D01*
X3150Y447D02*
X3187Y447D01*
X3150Y446D02*
X3187Y446D01*
X3150Y445D02*
X3187Y445D01*
X3150Y444D02*
X3187Y444D01*
X3150Y443D02*
X3187Y443D01*
X3150Y442D02*
X3187Y442D01*
X3150Y441D02*
X3187Y441D01*
X3150Y440D02*
X3187Y440D01*
X3150Y439D02*
X3187Y439D01*
X3150Y438D02*
X3187Y438D01*
X3150Y437D02*
X3187Y437D01*
X3150Y436D02*
X3187Y436D01*
X3150Y435D02*
X3187Y435D01*
X3150Y434D02*
X3187Y434D01*
X3150Y433D02*
X3187Y433D01*
X3150Y432D02*
X3187Y432D01*
X3150Y431D02*
X3187Y431D01*
X3150Y430D02*
X3187Y430D01*
X3150Y429D02*
X3187Y429D01*
X3150Y428D02*
X3187Y428D01*
X3150Y427D02*
X3187Y427D01*
X3150Y426D02*
X3187Y426D01*
X3150Y425D02*
X3187Y425D01*
X3150Y424D02*
X3187Y424D01*
X3150Y423D02*
X3187Y423D01*
X3150Y422D02*
X3187Y422D01*
X3150Y421D02*
X3187Y421D01*
X3150Y420D02*
X3187Y420D01*
X3150Y419D02*
X3187Y419D01*
X3150Y418D02*
X3187Y418D01*
X3150Y417D02*
X3187Y417D01*
X3150Y416D02*
X3187Y416D01*
X3150Y415D02*
X3187Y415D01*
X3150Y414D02*
X3187Y414D01*
X3150Y413D02*
X3187Y413D01*
X3150Y412D02*
X3187Y412D01*
X3150Y411D02*
X3187Y411D01*
X3150Y410D02*
X3187Y410D01*
X3150Y409D02*
X3187Y409D01*
X3150Y408D02*
X3187Y408D01*
X3150Y407D02*
X3187Y407D01*
X3150Y406D02*
X3187Y406D01*
X3150Y405D02*
X3187Y405D01*
X3150Y404D02*
X3187Y404D01*
X3150Y403D02*
X3187Y403D01*
X3150Y402D02*
X3187Y402D01*
X3150Y401D02*
X3187Y401D01*
X3150Y400D02*
X3187Y400D01*
X3150Y399D02*
X3187Y399D01*
X3150Y398D02*
X3187Y398D01*
X3150Y397D02*
X3187Y397D01*
X3150Y396D02*
X3187Y396D01*
X3150Y395D02*
X3187Y395D01*
X3150Y394D02*
X3187Y394D01*
X3150Y393D02*
X3187Y393D01*
X3150Y392D02*
X3187Y392D01*
X3150Y391D02*
X3187Y391D01*
X3150Y390D02*
X3187Y390D01*
X3150Y389D02*
X3187Y389D01*
X3150Y388D02*
X3187Y388D01*
X3150Y387D02*
X3187Y387D01*
X3150Y386D02*
X3187Y386D01*
X3150Y385D02*
X3187Y385D01*
X3150Y384D02*
X3187Y384D01*
X3150Y383D02*
X3187Y383D01*
X3150Y382D02*
X3187Y382D01*
X3150Y381D02*
X3187Y381D01*
X3150Y380D02*
X3187Y380D01*
X3150Y379D02*
X3187Y379D01*
X3150Y378D02*
X3187Y378D01*
X3150Y377D02*
X3187Y377D01*
X3150Y376D02*
X3187Y376D01*
X3150Y375D02*
X3187Y375D01*
X2294Y374D02*
X2294Y374D01*
X3150Y374D02*
X3187Y374D01*
X2294Y373D02*
X2296Y373D01*
X3150Y373D02*
X3187Y373D01*
X2294Y372D02*
X2299Y372D01*
X2329Y372D02*
X2330Y372D01*
X3150Y372D02*
X3187Y372D01*
X2294Y371D02*
X2302Y371D01*
X2326Y371D02*
X2330Y371D01*
X3150Y371D02*
X3187Y371D01*
X2294Y370D02*
X2308Y370D01*
X2320Y370D02*
X2330Y370D01*
X3150Y370D02*
X3187Y370D01*
X2294Y369D02*
X2330Y369D01*
X3150Y369D02*
X3187Y369D01*
X2294Y368D02*
X2330Y368D01*
X3150Y368D02*
X3187Y368D01*
X2294Y367D02*
X2330Y367D01*
X3150Y367D02*
X3187Y367D01*
X2294Y366D02*
X2330Y366D01*
X3150Y366D02*
X3187Y366D01*
X2294Y365D02*
X2330Y365D01*
X3150Y365D02*
X3187Y365D01*
X2294Y364D02*
X2330Y364D01*
X3150Y364D02*
X3187Y364D01*
X2294Y363D02*
X2330Y363D01*
X3150Y363D02*
X3187Y363D01*
X2294Y362D02*
X2330Y362D01*
X3150Y362D02*
X3187Y362D01*
X2294Y361D02*
X2330Y361D01*
X3150Y361D02*
X3187Y361D01*
X2294Y360D02*
X2330Y360D01*
X3150Y360D02*
X3187Y360D01*
X2294Y359D02*
X2330Y359D01*
X3150Y359D02*
X3187Y359D01*
X2294Y358D02*
X2330Y358D01*
X3150Y358D02*
X3187Y358D01*
X2294Y357D02*
X2330Y357D01*
X3150Y357D02*
X3187Y357D01*
X2294Y356D02*
X2330Y356D01*
X3150Y356D02*
X3187Y356D01*
X2294Y355D02*
X2330Y355D01*
X3150Y355D02*
X3187Y355D01*
X2294Y354D02*
X2330Y354D01*
X3150Y354D02*
X3187Y354D01*
X2294Y353D02*
X2330Y353D01*
X3150Y353D02*
X3187Y353D01*
X2294Y352D02*
X2330Y352D01*
X3150Y352D02*
X3187Y352D01*
X2294Y351D02*
X2330Y351D01*
X3150Y351D02*
X3187Y351D01*
X2294Y350D02*
X2330Y350D01*
X3150Y350D02*
X3187Y350D01*
X2294Y349D02*
X2330Y349D01*
X3150Y349D02*
X3187Y349D01*
X2294Y348D02*
X2330Y348D01*
X3150Y348D02*
X3187Y348D01*
X2294Y347D02*
X2330Y347D01*
X3150Y347D02*
X3187Y347D01*
X2294Y346D02*
X2330Y346D01*
X3150Y346D02*
X3187Y346D01*
X2294Y345D02*
X2330Y345D01*
X3150Y345D02*
X3187Y345D01*
X2294Y344D02*
X2330Y344D01*
X3150Y344D02*
X3187Y344D01*
X2294Y343D02*
X2330Y343D01*
X3150Y343D02*
X3187Y343D01*
X2294Y342D02*
X2330Y342D01*
X3150Y342D02*
X3187Y342D01*
X2294Y341D02*
X2330Y341D01*
X3150Y341D02*
X3187Y341D01*
X2294Y340D02*
X2330Y340D01*
X3150Y340D02*
X3187Y340D01*
X2294Y339D02*
X2330Y339D01*
X3150Y339D02*
X3187Y339D01*
X2294Y338D02*
X2330Y338D01*
X3150Y338D02*
X3187Y338D01*
X2294Y337D02*
X2330Y337D01*
X3150Y337D02*
X3187Y337D01*
X2294Y336D02*
X2330Y336D01*
X3150Y336D02*
X3187Y336D01*
X2294Y335D02*
X2330Y335D01*
X3150Y335D02*
X3187Y335D01*
X2294Y334D02*
X2330Y334D01*
X3150Y334D02*
X3187Y334D01*
X2294Y333D02*
X2330Y333D01*
X3150Y333D02*
X3187Y333D01*
X2294Y332D02*
X2330Y332D01*
X3150Y332D02*
X3187Y332D01*
X2294Y331D02*
X2330Y331D01*
X3150Y331D02*
X3187Y331D01*
X2294Y330D02*
X2330Y330D01*
X3150Y330D02*
X3187Y330D01*
X2294Y329D02*
X2330Y329D01*
X3150Y329D02*
X3187Y329D01*
X2294Y328D02*
X2330Y328D01*
X3150Y328D02*
X3187Y328D01*
X2294Y327D02*
X2330Y327D01*
X3150Y327D02*
X3187Y327D01*
X2294Y326D02*
X2330Y326D01*
X3150Y326D02*
X3187Y326D01*
X2294Y325D02*
X2330Y325D01*
X3150Y325D02*
X3187Y325D01*
X2294Y324D02*
X2330Y324D01*
X3150Y324D02*
X3187Y324D01*
X2294Y323D02*
X2330Y323D01*
X3150Y323D02*
X3187Y323D01*
X2294Y322D02*
X2330Y322D01*
X3150Y322D02*
X3187Y322D01*
X2294Y321D02*
X2330Y321D01*
X3150Y321D02*
X3187Y321D01*
X2294Y320D02*
X2330Y320D01*
X3150Y320D02*
X3187Y320D01*
X2294Y319D02*
X2330Y319D01*
X3150Y319D02*
X3187Y319D01*
X2294Y318D02*
X2330Y318D01*
X3150Y318D02*
X3187Y318D01*
X2294Y317D02*
X2330Y317D01*
X3150Y317D02*
X3187Y317D01*
X2294Y316D02*
X2330Y316D01*
X3150Y316D02*
X3187Y316D01*
X2294Y315D02*
X2330Y315D01*
X3150Y315D02*
X3187Y315D01*
X2294Y314D02*
X2330Y314D01*
X3150Y314D02*
X3187Y314D01*
X2294Y313D02*
X2330Y313D01*
X3150Y313D02*
X3187Y313D01*
X2294Y312D02*
X2330Y312D01*
X3150Y312D02*
X3187Y312D01*
X2294Y311D02*
X2330Y311D01*
X3150Y311D02*
X3187Y311D01*
X2294Y310D02*
X2330Y310D01*
X3150Y310D02*
X3187Y310D01*
X2294Y309D02*
X2330Y309D01*
X3150Y309D02*
X3187Y309D01*
X2294Y308D02*
X2330Y308D01*
X3150Y308D02*
X3187Y308D01*
X2294Y307D02*
X2330Y307D01*
X3150Y307D02*
X3187Y307D01*
X2294Y306D02*
X2330Y306D01*
X3150Y306D02*
X3187Y306D01*
X2294Y305D02*
X2330Y305D01*
X3150Y305D02*
X3187Y305D01*
X2294Y304D02*
X2330Y304D01*
X3150Y304D02*
X3187Y304D01*
X2294Y303D02*
X2330Y303D01*
X3150Y303D02*
X3187Y303D01*
X2294Y302D02*
X2330Y302D01*
X3150Y302D02*
X3187Y302D01*
X2294Y301D02*
X2330Y301D01*
X3150Y301D02*
X3187Y301D01*
X2294Y300D02*
X2330Y300D01*
X3150Y300D02*
X3187Y300D01*
X2294Y299D02*
X2330Y299D01*
X3150Y299D02*
X3187Y299D01*
X2294Y298D02*
X2330Y298D01*
X3150Y298D02*
X3187Y298D01*
X2294Y297D02*
X2330Y297D01*
X3150Y297D02*
X3187Y297D01*
X2294Y296D02*
X2330Y296D01*
X3150Y296D02*
X3187Y296D01*
X2294Y295D02*
X2330Y295D01*
X3150Y295D02*
X3187Y295D01*
X2294Y294D02*
X2330Y294D01*
X3150Y294D02*
X3187Y294D01*
X2294Y293D02*
X2330Y293D01*
X3150Y293D02*
X3187Y293D01*
X2294Y292D02*
X2330Y292D01*
X3150Y292D02*
X3187Y292D01*
X2294Y291D02*
X2330Y291D01*
X3150Y291D02*
X3187Y291D01*
X2294Y290D02*
X2330Y290D01*
X3150Y290D02*
X3187Y290D01*
X2294Y289D02*
X2330Y289D01*
X3150Y289D02*
X3187Y289D01*
X2294Y288D02*
X2330Y288D01*
X3150Y288D02*
X3187Y288D01*
X2294Y287D02*
X2330Y287D01*
X3150Y287D02*
X3187Y287D01*
X2294Y286D02*
X2330Y286D01*
X3150Y286D02*
X3187Y286D01*
X2294Y285D02*
X2330Y285D01*
X3150Y285D02*
X3187Y285D01*
X2294Y284D02*
X2330Y284D01*
X3150Y284D02*
X3187Y284D01*
X2294Y283D02*
X2330Y283D01*
X3150Y283D02*
X3187Y283D01*
X2294Y282D02*
X2330Y282D01*
X3150Y282D02*
X3187Y282D01*
X2294Y281D02*
X2330Y281D01*
X3150Y281D02*
X3187Y281D01*
X2294Y280D02*
X2330Y280D01*
X3150Y280D02*
X3187Y280D01*
X2294Y279D02*
X2330Y279D01*
X3150Y279D02*
X3187Y279D01*
X2294Y278D02*
X2330Y278D01*
X3150Y278D02*
X3187Y278D01*
X2294Y277D02*
X2330Y277D01*
X3150Y277D02*
X3187Y277D01*
X2294Y276D02*
X2330Y276D01*
X3150Y276D02*
X3187Y276D01*
X2294Y275D02*
X2330Y275D01*
X3150Y275D02*
X3187Y275D01*
X2294Y274D02*
X2330Y274D01*
X3150Y274D02*
X3187Y274D01*
X2294Y273D02*
X2330Y273D01*
X3150Y273D02*
X3187Y273D01*
X2294Y272D02*
X2330Y272D01*
X3150Y272D02*
X3187Y272D01*
X2294Y271D02*
X2330Y271D01*
X3150Y271D02*
X3187Y271D01*
X2294Y270D02*
X2330Y270D01*
X3150Y270D02*
X3187Y270D01*
X2294Y269D02*
X2330Y269D01*
X3150Y269D02*
X3187Y269D01*
X2294Y268D02*
X2330Y268D01*
X3150Y268D02*
X3187Y268D01*
X2294Y267D02*
X2330Y267D01*
X3150Y267D02*
X3187Y267D01*
X2294Y266D02*
X2330Y266D01*
X3150Y266D02*
X3187Y266D01*
X2294Y265D02*
X2330Y265D01*
X3150Y265D02*
X3187Y265D01*
X2294Y264D02*
X2330Y264D01*
X3150Y264D02*
X3187Y264D01*
X2294Y263D02*
X2330Y263D01*
X3150Y263D02*
X3187Y263D01*
X2294Y262D02*
X2330Y262D01*
X3150Y262D02*
X3187Y262D01*
X2294Y261D02*
X2330Y261D01*
X3150Y261D02*
X3187Y261D01*
X2294Y260D02*
X2330Y260D01*
X3150Y260D02*
X3187Y260D01*
X2294Y259D02*
X2330Y259D01*
X3150Y259D02*
X3187Y259D01*
X2294Y258D02*
X2330Y258D01*
X3150Y258D02*
X3187Y258D01*
X2294Y257D02*
X2330Y257D01*
X3150Y257D02*
X3187Y257D01*
X2294Y256D02*
X2330Y256D01*
X3150Y256D02*
X3187Y256D01*
X2294Y255D02*
X2330Y255D01*
X3150Y255D02*
X3187Y255D01*
X2294Y254D02*
X2330Y254D01*
X3150Y254D02*
X3187Y254D01*
X2294Y253D02*
X2330Y253D01*
X3150Y253D02*
X3187Y253D01*
X2294Y252D02*
X2330Y252D01*
X3150Y252D02*
X3187Y252D01*
X2294Y251D02*
X2330Y251D01*
X3150Y251D02*
X3187Y251D01*
X2294Y250D02*
X2330Y250D01*
X3150Y250D02*
X3187Y250D01*
X2294Y249D02*
X2330Y249D01*
X3150Y249D02*
X3187Y249D01*
X2294Y248D02*
X2330Y248D01*
X3150Y248D02*
X3187Y248D01*
X2294Y247D02*
X2330Y247D01*
X3150Y247D02*
X3187Y247D01*
X2294Y246D02*
X2330Y246D01*
X3150Y246D02*
X3187Y246D01*
X2294Y245D02*
X2330Y245D01*
X3150Y245D02*
X3187Y245D01*
X2294Y244D02*
X2330Y244D01*
X3150Y244D02*
X3187Y244D01*
X2294Y243D02*
X2330Y243D01*
X3150Y243D02*
X3187Y243D01*
X2294Y242D02*
X2330Y242D01*
X3150Y242D02*
X3187Y242D01*
X2294Y241D02*
X2330Y241D01*
X3150Y241D02*
X3187Y241D01*
X2294Y240D02*
X2330Y240D01*
X3150Y240D02*
X3187Y240D01*
X2294Y239D02*
X2330Y239D01*
X3150Y239D02*
X3187Y239D01*
X2294Y238D02*
X2330Y238D01*
X3150Y238D02*
X3187Y238D01*
X2294Y237D02*
X2330Y237D01*
X3150Y237D02*
X3187Y237D01*
X2294Y236D02*
X2330Y236D01*
X3150Y236D02*
X3187Y236D01*
X2294Y235D02*
X2330Y235D01*
X3150Y235D02*
X3187Y235D01*
X2294Y234D02*
X2330Y234D01*
X3150Y234D02*
X3187Y234D01*
X2294Y233D02*
X2330Y233D01*
X3150Y233D02*
X3187Y233D01*
X2294Y232D02*
X2330Y232D01*
X3150Y232D02*
X3187Y232D01*
X2294Y231D02*
X2330Y231D01*
X3150Y231D02*
X3187Y231D01*
X2294Y230D02*
X2330Y230D01*
X3150Y230D02*
X3187Y230D01*
X2294Y229D02*
X2330Y229D01*
X3150Y229D02*
X3187Y229D01*
X2294Y228D02*
X2330Y228D01*
X3150Y228D02*
X3187Y228D01*
X2294Y227D02*
X2330Y227D01*
X3150Y227D02*
X3187Y227D01*
X2294Y226D02*
X2330Y226D01*
X3150Y226D02*
X3187Y226D01*
X2294Y225D02*
X2330Y225D01*
X3150Y225D02*
X3187Y225D01*
X2294Y224D02*
X2330Y224D01*
X3150Y224D02*
X3187Y224D01*
X2294Y223D02*
X2330Y223D01*
X3150Y223D02*
X3187Y223D01*
X2294Y222D02*
X2330Y222D01*
X3150Y222D02*
X3187Y222D01*
X2294Y221D02*
X2330Y221D01*
X3150Y221D02*
X3187Y221D01*
X2294Y220D02*
X2330Y220D01*
X3150Y220D02*
X3187Y220D01*
X2294Y219D02*
X2330Y219D01*
X3150Y219D02*
X3187Y219D01*
X2294Y218D02*
X2330Y218D01*
X3150Y218D02*
X3187Y218D01*
X2294Y217D02*
X2330Y217D01*
X3150Y217D02*
X3187Y217D01*
X2294Y216D02*
X2330Y216D01*
X3150Y216D02*
X3187Y216D01*
X2294Y215D02*
X2330Y215D01*
X3150Y215D02*
X3187Y215D01*
X2294Y214D02*
X2330Y214D01*
X3150Y214D02*
X3187Y214D01*
X2294Y213D02*
X2330Y213D01*
X3150Y213D02*
X3187Y213D01*
X2294Y212D02*
X2330Y212D01*
X3150Y212D02*
X3187Y212D01*
X2294Y211D02*
X2330Y211D01*
X3150Y211D02*
X3187Y211D01*
X2294Y210D02*
X2330Y210D01*
X3150Y210D02*
X3187Y210D01*
X2294Y209D02*
X2330Y209D01*
X3150Y209D02*
X3187Y209D01*
X2294Y208D02*
X2330Y208D01*
X3150Y208D02*
X3187Y208D01*
X2294Y207D02*
X2330Y207D01*
X3150Y207D02*
X3187Y207D01*
X2294Y206D02*
X2330Y206D01*
X3150Y206D02*
X3187Y206D01*
X2294Y205D02*
X2330Y205D01*
X3150Y205D02*
X3187Y205D01*
X2294Y204D02*
X2330Y204D01*
X3150Y204D02*
X3187Y204D01*
X2294Y203D02*
X2330Y203D01*
X3150Y203D02*
X3187Y203D01*
X2294Y202D02*
X2330Y202D01*
X3150Y202D02*
X3187Y202D01*
X2294Y201D02*
X2330Y201D01*
X3150Y201D02*
X3187Y201D01*
X2294Y200D02*
X2330Y200D01*
X3150Y200D02*
X3187Y200D01*
X2294Y199D02*
X2330Y199D01*
X3150Y199D02*
X3187Y199D01*
X2294Y198D02*
X2330Y198D01*
X3150Y198D02*
X3187Y198D01*
X2294Y197D02*
X2330Y197D01*
X3150Y197D02*
X3187Y197D01*
X2294Y196D02*
X2330Y196D01*
X3150Y196D02*
X3187Y196D01*
X2294Y195D02*
X2330Y195D01*
X3150Y195D02*
X3187Y195D01*
X2294Y194D02*
X2330Y194D01*
X3150Y194D02*
X3187Y194D01*
X2294Y193D02*
X2330Y193D01*
X3150Y193D02*
X3187Y193D01*
X2294Y192D02*
X2330Y192D01*
X3150Y192D02*
X3187Y192D01*
X2294Y191D02*
X2330Y191D01*
X3150Y191D02*
X3187Y191D01*
X2294Y190D02*
X2330Y190D01*
X3150Y190D02*
X3187Y190D01*
X2294Y189D02*
X2330Y189D01*
X3150Y189D02*
X3187Y189D01*
X2294Y188D02*
X2330Y188D01*
X3150Y188D02*
X3187Y188D01*
X2294Y187D02*
X2330Y187D01*
X3150Y187D02*
X3187Y187D01*
X2294Y186D02*
X2330Y186D01*
X3150Y186D02*
X3187Y186D01*
X2294Y185D02*
X2330Y185D01*
X3150Y185D02*
X3187Y185D01*
X2294Y184D02*
X2330Y184D01*
X3150Y184D02*
X3187Y184D01*
X2294Y183D02*
X2330Y183D01*
X3150Y183D02*
X3187Y183D01*
X2294Y182D02*
X2330Y182D01*
X3150Y182D02*
X3187Y182D01*
X2294Y181D02*
X2330Y181D01*
X3150Y181D02*
X3187Y181D01*
X2294Y180D02*
X2330Y180D01*
X3150Y180D02*
X3187Y180D01*
X2294Y179D02*
X2330Y179D01*
X3150Y179D02*
X3187Y179D01*
X2294Y178D02*
X2330Y178D01*
X3150Y178D02*
X3187Y178D01*
X2294Y177D02*
X2330Y177D01*
X3150Y177D02*
X3187Y177D01*
X2294Y176D02*
X2330Y176D01*
X3150Y176D02*
X3187Y176D01*
X2294Y175D02*
X2330Y175D01*
X3150Y175D02*
X3187Y175D01*
X2294Y174D02*
X2330Y174D01*
X3150Y174D02*
X3187Y174D01*
X2294Y173D02*
X2330Y173D01*
X3150Y173D02*
X3187Y173D01*
X2294Y172D02*
X2330Y172D01*
X3150Y172D02*
X3187Y172D01*
X2294Y171D02*
X2330Y171D01*
X3150Y171D02*
X3187Y171D01*
X2294Y170D02*
X2330Y170D01*
X3150Y170D02*
X3187Y170D01*
X2294Y169D02*
X2330Y169D01*
X3150Y169D02*
X3187Y169D01*
X2294Y168D02*
X2330Y168D01*
X3150Y168D02*
X3187Y168D01*
X2294Y167D02*
X2330Y167D01*
X3150Y167D02*
X3187Y167D01*
X2294Y166D02*
X2330Y166D01*
X3150Y166D02*
X3187Y166D01*
X2294Y165D02*
X2330Y165D01*
X3150Y165D02*
X3187Y165D01*
X2294Y164D02*
X2330Y164D01*
X3150Y164D02*
X3187Y164D01*
X2294Y163D02*
X2330Y163D01*
X3150Y163D02*
X3187Y163D01*
X2294Y162D02*
X2330Y162D01*
X3150Y162D02*
X3187Y162D01*
X2294Y161D02*
X2330Y161D01*
X3150Y161D02*
X3187Y161D01*
X2294Y160D02*
X2330Y160D01*
X3150Y160D02*
X3187Y160D01*
X2294Y159D02*
X2330Y159D01*
X3150Y159D02*
X3187Y159D01*
X2294Y158D02*
X2330Y158D01*
X3150Y158D02*
X3187Y158D01*
X2294Y157D02*
X2330Y157D01*
X3150Y157D02*
X3187Y157D01*
X2294Y156D02*
X2330Y156D01*
X3150Y156D02*
X3187Y156D01*
X2294Y155D02*
X2330Y155D01*
X3150Y155D02*
X3187Y155D01*
X2294Y154D02*
X2330Y154D01*
X3150Y154D02*
X3187Y154D01*
X2294Y153D02*
X2507Y153D01*
X2586Y153D02*
X3058Y153D01*
X3135Y153D02*
X3187Y153D01*
X2294Y152D02*
X2507Y152D01*
X2587Y152D02*
X3057Y152D01*
X3135Y152D02*
X3187Y152D01*
X2294Y151D02*
X2506Y151D01*
X2587Y151D02*
X3057Y151D01*
X3136Y151D02*
X3187Y151D01*
X2294Y150D02*
X2506Y150D01*
X2588Y150D02*
X3056Y150D01*
X3136Y150D02*
X3187Y150D01*
X2294Y149D02*
X2505Y149D01*
X2588Y149D02*
X3056Y149D01*
X3137Y149D02*
X3187Y149D01*
X2294Y148D02*
X2505Y148D01*
X2589Y148D02*
X3055Y148D01*
X3137Y148D02*
X3187Y148D01*
X2294Y147D02*
X2505Y147D01*
X2589Y147D02*
X3055Y147D01*
X3138Y147D02*
X3187Y147D01*
X2294Y146D02*
X2504Y146D01*
X2589Y146D02*
X3054Y146D01*
X3138Y146D02*
X3187Y146D01*
X2294Y145D02*
X2504Y145D01*
X2590Y145D02*
X3054Y145D01*
X3138Y145D02*
X3187Y145D01*
X2294Y144D02*
X2504Y144D01*
X2590Y144D02*
X3054Y144D01*
X3139Y144D02*
X3187Y144D01*
X2294Y143D02*
X2503Y143D01*
X2590Y143D02*
X3053Y143D01*
X3139Y143D02*
X3187Y143D01*
X2294Y142D02*
X2503Y142D01*
X2590Y142D02*
X3053Y142D01*
X3139Y142D02*
X3187Y142D01*
X2294Y141D02*
X2503Y141D01*
X2590Y141D02*
X3053Y141D01*
X3139Y141D02*
X3187Y141D01*
X2294Y140D02*
X2503Y140D01*
X2591Y140D02*
X3053Y140D01*
X3140Y140D02*
X3187Y140D01*
X2294Y139D02*
X2503Y139D01*
X2591Y139D02*
X3053Y139D01*
X3140Y139D02*
X3187Y139D01*
X2294Y138D02*
X2503Y138D01*
X2591Y138D02*
X3052Y138D01*
X3140Y138D02*
X3187Y138D01*
X2294Y137D02*
X2503Y137D01*
X2591Y137D02*
X3052Y137D01*
X3140Y137D02*
X3187Y137D01*
X2294Y136D02*
X2502Y136D01*
X2591Y136D02*
X3052Y136D01*
X3140Y136D02*
X3187Y136D01*
X2294Y135D02*
X2502Y135D01*
X2591Y135D02*
X3052Y135D01*
X3140Y135D02*
X3186Y135D01*
X2294Y134D02*
X2502Y134D01*
X2591Y134D02*
X3052Y134D01*
X3140Y134D02*
X3186Y134D01*
X2294Y133D02*
X2502Y133D01*
X2591Y133D02*
X3052Y133D01*
X3140Y133D02*
X3186Y133D01*
X2294Y132D02*
X2502Y132D01*
X2591Y132D02*
X3052Y132D01*
X3140Y132D02*
X3186Y132D01*
X2294Y131D02*
X2502Y131D01*
X2591Y131D02*
X3052Y131D01*
X3140Y131D02*
X3186Y131D01*
X2294Y130D02*
X2502Y130D01*
X2591Y130D02*
X3052Y130D01*
X3140Y130D02*
X3186Y130D01*
X2295Y129D02*
X2503Y129D01*
X2591Y129D02*
X3052Y129D01*
X3140Y129D02*
X3185Y129D01*
X2295Y128D02*
X2503Y128D01*
X2591Y128D02*
X3052Y128D01*
X3140Y128D02*
X3185Y128D01*
X2295Y127D02*
X2503Y127D01*
X2591Y127D02*
X3052Y127D01*
X3140Y127D02*
X3184Y127D01*
X2296Y126D02*
X2503Y126D01*
X2591Y126D02*
X3053Y126D01*
X3140Y126D02*
X3184Y126D01*
X2297Y125D02*
X2503Y125D01*
X2590Y125D02*
X3053Y125D01*
X3140Y125D02*
X3183Y125D01*
X2297Y124D02*
X2503Y124D01*
X2590Y124D02*
X3053Y124D01*
X3140Y124D02*
X3183Y124D01*
X2298Y123D02*
X2504Y123D01*
X2590Y123D02*
X3053Y123D01*
X3139Y123D02*
X3182Y123D01*
X2299Y122D02*
X2504Y122D01*
X2590Y122D02*
X3053Y122D01*
X3139Y122D02*
X3181Y122D01*
X2300Y121D02*
X2504Y121D01*
X2589Y121D02*
X3054Y121D01*
X3139Y121D02*
X3180Y121D01*
X2301Y120D02*
X2504Y120D01*
X2589Y120D02*
X3054Y120D01*
X3139Y120D02*
X3179Y120D01*
X2303Y119D02*
X2505Y119D01*
X2589Y119D02*
X3054Y119D01*
X3138Y119D02*
X3177Y119D01*
X2305Y118D02*
X2505Y118D01*
X2588Y118D02*
X3055Y118D01*
X3138Y118D02*
X3175Y118D01*
X2308Y117D02*
X2505Y117D01*
X2588Y117D02*
X3055Y117D01*
X3138Y117D02*
X3172Y117D01*
D02*
G04 End of Silk0*
M02*