G04 MADE WITH FRITZING*
G04 WWW.FRITZING.ORG*
G04 DOUBLE SIDED*
G04 HOLES PLATED*
G04 CONTOUR ON CENTER OF CONTOUR VECTOR*
%ASAXBY*%
%FSLAX23Y23*%
%MOIN*%
%OFA0B0*%
%SFA1.0B1.0*%
%ADD10C,0.076555*%
%ADD11C,0.059194*%
%ADD12C,0.084000*%
%ADD13C,0.136614*%
%ADD14C,0.080000*%
%ADD15C,0.090000*%
%ADD16C,0.103000*%
%ADD17C,0.136000*%
%ADD18C,0.148425*%
%ADD19C,0.105000*%
%ADD20C,0.061496*%
%ADD21C,0.072000*%
%ADD22C,0.175354*%
%ADD23R,0.090000X0.090000*%
%ADD24R,0.105000X0.105000*%
%ADD25R,0.001000X0.001000*%
%LNMASK0*%
G90*
G70*
G54D10*
X3247Y575D03*
X3247Y475D03*
X3247Y375D03*
X3247Y275D03*
X3247Y175D03*
X3247Y675D03*
X2235Y473D03*
X2235Y373D03*
G54D11*
X2235Y573D03*
G54D10*
X2235Y273D03*
X3247Y575D03*
X3247Y475D03*
X3247Y375D03*
X3247Y275D03*
X3247Y175D03*
X3247Y675D03*
X2235Y473D03*
X2235Y373D03*
G54D11*
X2235Y573D03*
G54D10*
X2235Y273D03*
G54D12*
X1635Y1173D03*
X1535Y1173D03*
X1435Y1173D03*
X1335Y1173D03*
X1235Y1173D03*
X1135Y1173D03*
X1635Y1173D03*
X1535Y1173D03*
X1435Y1173D03*
X1335Y1173D03*
X1235Y1173D03*
X1135Y1173D03*
X1635Y1173D03*
X1535Y1173D03*
X1435Y1173D03*
X1335Y1173D03*
X1235Y1173D03*
X1135Y1173D03*
G54D13*
X2785Y1623D03*
G54D14*
X2235Y1173D03*
X2335Y1173D03*
X2435Y1173D03*
X2535Y1173D03*
X2635Y1173D03*
X2735Y1173D03*
X2835Y1173D03*
G54D13*
X2285Y1623D03*
G54D15*
X3535Y273D03*
X3535Y135D03*
X3535Y273D03*
X3535Y135D03*
X3535Y673D03*
X3535Y535D03*
X3535Y673D03*
X3535Y535D03*
X3535Y1173D03*
X3535Y1035D03*
X3535Y1173D03*
X3535Y1035D03*
X635Y473D03*
X772Y473D03*
X635Y473D03*
X772Y473D03*
G54D16*
X266Y3173D03*
G54D17*
X607Y3173D03*
G54D16*
X3135Y3173D03*
G54D17*
X2797Y3173D03*
G54D16*
X266Y2273D03*
G54D17*
X607Y2273D03*
G54D16*
X3135Y2273D03*
G54D17*
X2797Y2273D03*
G54D18*
X185Y923D03*
G54D19*
X185Y1414D03*
G54D20*
X295Y1403D03*
G54D21*
X1835Y873D03*
X1735Y873D03*
X1635Y873D03*
X1535Y873D03*
X1435Y873D03*
X1335Y873D03*
X1235Y873D03*
X1135Y873D03*
X1035Y873D03*
G54D18*
X185Y1623D03*
G54D21*
X935Y873D03*
X835Y873D03*
X735Y873D03*
X635Y873D03*
X535Y873D03*
X435Y873D03*
X335Y873D03*
X735Y1673D03*
X835Y1673D03*
X935Y1673D03*
X1035Y1673D03*
X1135Y1673D03*
X1235Y1673D03*
X1335Y1673D03*
X1435Y1673D03*
X1535Y1673D03*
X1635Y1673D03*
X1735Y1673D03*
X1835Y1673D03*
G54D20*
X295Y1143D03*
G54D19*
X185Y1131D03*
G54D22*
X3535Y3473D03*
X235Y173D03*
G54D23*
X3535Y273D03*
X3535Y273D03*
X3535Y673D03*
X3535Y673D03*
X3535Y1173D03*
X3535Y1173D03*
X635Y473D03*
X635Y473D03*
G54D24*
X185Y1414D03*
X185Y1131D03*
G54D25*
X269Y1449D02*
X320Y1449D01*
X269Y1448D02*
X320Y1448D01*
X269Y1447D02*
X320Y1447D01*
X269Y1446D02*
X320Y1446D01*
X269Y1445D02*
X320Y1445D01*
X269Y1444D02*
X320Y1444D01*
X269Y1443D02*
X320Y1443D01*
X269Y1442D02*
X320Y1442D01*
X269Y1441D02*
X320Y1441D01*
X269Y1440D02*
X320Y1440D01*
X269Y1439D02*
X320Y1439D01*
X269Y1438D02*
X320Y1438D01*
X269Y1437D02*
X320Y1437D01*
X269Y1436D02*
X320Y1436D01*
X269Y1435D02*
X320Y1435D01*
X269Y1434D02*
X320Y1434D01*
X269Y1433D02*
X320Y1433D01*
X269Y1432D02*
X320Y1432D01*
X269Y1431D02*
X320Y1431D01*
X269Y1430D02*
X320Y1430D01*
X269Y1429D02*
X320Y1429D01*
X269Y1428D02*
X320Y1428D01*
X269Y1427D02*
X320Y1427D01*
X269Y1426D02*
X320Y1426D01*
X269Y1425D02*
X320Y1425D01*
X269Y1424D02*
X320Y1424D01*
X269Y1423D02*
X320Y1423D01*
X269Y1422D02*
X320Y1422D01*
X269Y1421D02*
X320Y1421D01*
X269Y1420D02*
X320Y1420D01*
X269Y1419D02*
X320Y1419D01*
X269Y1418D02*
X289Y1418D01*
X300Y1418D02*
X320Y1418D01*
X269Y1417D02*
X287Y1417D01*
X302Y1417D02*
X320Y1417D01*
X269Y1416D02*
X285Y1416D01*
X304Y1416D02*
X320Y1416D01*
X269Y1415D02*
X284Y1415D01*
X305Y1415D02*
X320Y1415D01*
X269Y1414D02*
X283Y1414D01*
X306Y1414D02*
X320Y1414D01*
X269Y1413D02*
X282Y1413D01*
X307Y1413D02*
X320Y1413D01*
X269Y1412D02*
X281Y1412D01*
X308Y1412D02*
X320Y1412D01*
X269Y1411D02*
X280Y1411D01*
X309Y1411D02*
X320Y1411D01*
X269Y1410D02*
X280Y1410D01*
X309Y1410D02*
X320Y1410D01*
X269Y1409D02*
X279Y1409D01*
X310Y1409D02*
X320Y1409D01*
X269Y1408D02*
X279Y1408D01*
X310Y1408D02*
X320Y1408D01*
X269Y1407D02*
X279Y1407D01*
X310Y1407D02*
X320Y1407D01*
X269Y1406D02*
X279Y1406D01*
X310Y1406D02*
X320Y1406D01*
X269Y1405D02*
X279Y1405D01*
X310Y1405D02*
X320Y1405D01*
X269Y1404D02*
X279Y1404D01*
X310Y1404D02*
X320Y1404D01*
X269Y1403D02*
X279Y1403D01*
X310Y1403D02*
X320Y1403D01*
X269Y1402D02*
X279Y1402D01*
X310Y1402D02*
X320Y1402D01*
X269Y1401D02*
X279Y1401D01*
X310Y1401D02*
X320Y1401D01*
X269Y1400D02*
X279Y1400D01*
X310Y1400D02*
X320Y1400D01*
X269Y1399D02*
X279Y1399D01*
X310Y1399D02*
X320Y1399D01*
X269Y1398D02*
X279Y1398D01*
X310Y1398D02*
X320Y1398D01*
X269Y1397D02*
X279Y1397D01*
X310Y1397D02*
X320Y1397D01*
X269Y1396D02*
X280Y1396D01*
X309Y1396D02*
X320Y1396D01*
X269Y1395D02*
X280Y1395D01*
X309Y1395D02*
X320Y1395D01*
X269Y1394D02*
X281Y1394D01*
X308Y1394D02*
X320Y1394D01*
X269Y1393D02*
X282Y1393D01*
X307Y1393D02*
X320Y1393D01*
X269Y1392D02*
X283Y1392D01*
X306Y1392D02*
X320Y1392D01*
X269Y1391D02*
X284Y1391D01*
X305Y1391D02*
X320Y1391D01*
X269Y1390D02*
X285Y1390D01*
X304Y1390D02*
X320Y1390D01*
X269Y1389D02*
X287Y1389D01*
X302Y1389D02*
X320Y1389D01*
X269Y1388D02*
X289Y1388D01*
X300Y1388D02*
X320Y1388D01*
X269Y1387D02*
X320Y1387D01*
X269Y1386D02*
X320Y1386D01*
X269Y1385D02*
X320Y1385D01*
X269Y1384D02*
X320Y1384D01*
X269Y1383D02*
X320Y1383D01*
X269Y1382D02*
X320Y1382D01*
X269Y1381D02*
X320Y1381D01*
X269Y1380D02*
X320Y1380D01*
X269Y1379D02*
X320Y1379D01*
X269Y1378D02*
X320Y1378D01*
X1593Y1215D02*
X1675Y1215D01*
X1593Y1214D02*
X1676Y1214D01*
X1593Y1213D02*
X1676Y1213D01*
X1593Y1212D02*
X1676Y1212D01*
X1593Y1211D02*
X1676Y1211D01*
X1593Y1210D02*
X1676Y1210D01*
X1593Y1209D02*
X1676Y1209D01*
X1593Y1208D02*
X1676Y1208D01*
X1593Y1207D02*
X1676Y1207D01*
X1593Y1206D02*
X1676Y1206D01*
X1593Y1205D02*
X1676Y1205D01*
X1593Y1204D02*
X1676Y1204D01*
X1593Y1203D02*
X1676Y1203D01*
X1593Y1202D02*
X1676Y1202D01*
X1593Y1201D02*
X1676Y1201D01*
X1593Y1200D02*
X1676Y1200D01*
X1593Y1199D02*
X1676Y1199D01*
X1593Y1198D02*
X1676Y1198D01*
X1593Y1197D02*
X1676Y1197D01*
X1593Y1196D02*
X1676Y1196D01*
X1593Y1195D02*
X1676Y1195D01*
X1593Y1194D02*
X1676Y1194D01*
X1593Y1193D02*
X1676Y1193D01*
X1593Y1192D02*
X1676Y1192D01*
X1593Y1191D02*
X1676Y1191D01*
X1593Y1190D02*
X1676Y1190D01*
X1593Y1189D02*
X1676Y1189D01*
X1593Y1188D02*
X1632Y1188D01*
X1636Y1188D02*
X1676Y1188D01*
X1593Y1187D02*
X1628Y1187D01*
X1640Y1187D02*
X1676Y1187D01*
X1593Y1186D02*
X1626Y1186D01*
X1642Y1186D02*
X1676Y1186D01*
X1593Y1185D02*
X1624Y1185D01*
X1644Y1185D02*
X1676Y1185D01*
X1593Y1184D02*
X1623Y1184D01*
X1645Y1184D02*
X1676Y1184D01*
X1593Y1183D02*
X1622Y1183D01*
X1646Y1183D02*
X1676Y1183D01*
X1593Y1182D02*
X1621Y1182D01*
X1647Y1182D02*
X1676Y1182D01*
X1593Y1181D02*
X1621Y1181D01*
X1647Y1181D02*
X1676Y1181D01*
X1593Y1180D02*
X1620Y1180D01*
X1648Y1180D02*
X1676Y1180D01*
X1593Y1179D02*
X1620Y1179D01*
X1648Y1179D02*
X1676Y1179D01*
X1593Y1178D02*
X1619Y1178D01*
X1649Y1178D02*
X1676Y1178D01*
X1593Y1177D02*
X1619Y1177D01*
X1649Y1177D02*
X1676Y1177D01*
X1593Y1176D02*
X1619Y1176D01*
X1649Y1176D02*
X1676Y1176D01*
X1593Y1175D02*
X1619Y1175D01*
X1649Y1175D02*
X1676Y1175D01*
X1593Y1174D02*
X1619Y1174D01*
X1649Y1174D02*
X1676Y1174D01*
X1593Y1173D02*
X1619Y1173D01*
X1649Y1173D02*
X1676Y1173D01*
X1593Y1172D02*
X1619Y1172D01*
X1649Y1172D02*
X1676Y1172D01*
X1593Y1171D02*
X1619Y1171D01*
X1649Y1171D02*
X1676Y1171D01*
X1593Y1170D02*
X1619Y1170D01*
X1649Y1170D02*
X1676Y1170D01*
X291Y1169D02*
X298Y1169D01*
X1593Y1169D02*
X1619Y1169D01*
X1649Y1169D02*
X1676Y1169D01*
X269Y1168D02*
X320Y1168D01*
X1593Y1168D02*
X1619Y1168D01*
X1649Y1168D02*
X1676Y1168D01*
X269Y1167D02*
X320Y1167D01*
X1593Y1167D02*
X1620Y1167D01*
X1648Y1167D02*
X1676Y1167D01*
X269Y1166D02*
X320Y1166D01*
X1593Y1166D02*
X1620Y1166D01*
X1648Y1166D02*
X1676Y1166D01*
X269Y1165D02*
X320Y1165D01*
X1593Y1165D02*
X1621Y1165D01*
X1647Y1165D02*
X1676Y1165D01*
X269Y1164D02*
X320Y1164D01*
X1593Y1164D02*
X1622Y1164D01*
X1646Y1164D02*
X1676Y1164D01*
X269Y1163D02*
X320Y1163D01*
X1593Y1163D02*
X1622Y1163D01*
X1646Y1163D02*
X1676Y1163D01*
X269Y1162D02*
X320Y1162D01*
X1593Y1162D02*
X1623Y1162D01*
X1645Y1162D02*
X1676Y1162D01*
X269Y1161D02*
X320Y1161D01*
X1593Y1161D02*
X1625Y1161D01*
X1643Y1161D02*
X1676Y1161D01*
X269Y1160D02*
X320Y1160D01*
X1593Y1160D02*
X1626Y1160D01*
X1642Y1160D02*
X1676Y1160D01*
X269Y1159D02*
X320Y1159D01*
X1593Y1159D02*
X1628Y1159D01*
X1640Y1159D02*
X1676Y1159D01*
X269Y1158D02*
X289Y1158D01*
X300Y1158D02*
X320Y1158D01*
X1593Y1158D02*
X1676Y1158D01*
X269Y1157D02*
X286Y1157D01*
X303Y1157D02*
X320Y1157D01*
X1593Y1157D02*
X1676Y1157D01*
X269Y1156D02*
X285Y1156D01*
X304Y1156D02*
X320Y1156D01*
X1593Y1156D02*
X1676Y1156D01*
X269Y1155D02*
X284Y1155D01*
X305Y1155D02*
X320Y1155D01*
X1593Y1155D02*
X1676Y1155D01*
X269Y1154D02*
X283Y1154D01*
X306Y1154D02*
X320Y1154D01*
X1593Y1154D02*
X1676Y1154D01*
X269Y1153D02*
X282Y1153D01*
X307Y1153D02*
X320Y1153D01*
X1593Y1153D02*
X1676Y1153D01*
X269Y1152D02*
X281Y1152D01*
X308Y1152D02*
X320Y1152D01*
X1593Y1152D02*
X1676Y1152D01*
X269Y1151D02*
X280Y1151D01*
X309Y1151D02*
X320Y1151D01*
X1593Y1151D02*
X1676Y1151D01*
X269Y1150D02*
X280Y1150D01*
X309Y1150D02*
X320Y1150D01*
X1593Y1150D02*
X1676Y1150D01*
X269Y1149D02*
X279Y1149D01*
X310Y1149D02*
X320Y1149D01*
X1593Y1149D02*
X1676Y1149D01*
X269Y1148D02*
X279Y1148D01*
X310Y1148D02*
X320Y1148D01*
X1593Y1148D02*
X1676Y1148D01*
X269Y1147D02*
X279Y1147D01*
X310Y1147D02*
X320Y1147D01*
X1593Y1147D02*
X1676Y1147D01*
X269Y1146D02*
X279Y1146D01*
X310Y1146D02*
X320Y1146D01*
X1593Y1146D02*
X1676Y1146D01*
X269Y1145D02*
X279Y1145D01*
X310Y1145D02*
X320Y1145D01*
X1593Y1145D02*
X1676Y1145D01*
X269Y1144D02*
X279Y1144D01*
X310Y1144D02*
X320Y1144D01*
X1593Y1144D02*
X1676Y1144D01*
X269Y1143D02*
X279Y1143D01*
X310Y1143D02*
X320Y1143D01*
X1593Y1143D02*
X1676Y1143D01*
X269Y1142D02*
X279Y1142D01*
X310Y1142D02*
X320Y1142D01*
X1593Y1142D02*
X1676Y1142D01*
X269Y1141D02*
X279Y1141D01*
X310Y1141D02*
X320Y1141D01*
X1593Y1141D02*
X1676Y1141D01*
X269Y1140D02*
X279Y1140D01*
X310Y1140D02*
X320Y1140D01*
X1593Y1140D02*
X1676Y1140D01*
X269Y1139D02*
X279Y1139D01*
X310Y1139D02*
X320Y1139D01*
X1593Y1139D02*
X1676Y1139D01*
X269Y1138D02*
X279Y1138D01*
X310Y1138D02*
X320Y1138D01*
X1593Y1138D02*
X1676Y1138D01*
X269Y1137D02*
X279Y1137D01*
X310Y1137D02*
X320Y1137D01*
X1593Y1137D02*
X1676Y1137D01*
X269Y1136D02*
X280Y1136D01*
X309Y1136D02*
X320Y1136D01*
X1593Y1136D02*
X1676Y1136D01*
X269Y1135D02*
X281Y1135D01*
X308Y1135D02*
X320Y1135D01*
X1593Y1135D02*
X1676Y1135D01*
X269Y1134D02*
X281Y1134D01*
X308Y1134D02*
X320Y1134D01*
X1593Y1134D02*
X1676Y1134D01*
X269Y1133D02*
X282Y1133D01*
X307Y1133D02*
X320Y1133D01*
X1593Y1133D02*
X1676Y1133D01*
X269Y1132D02*
X283Y1132D01*
X306Y1132D02*
X320Y1132D01*
X1593Y1132D02*
X1676Y1132D01*
X269Y1131D02*
X284Y1131D01*
X305Y1131D02*
X320Y1131D01*
X269Y1130D02*
X285Y1130D01*
X304Y1130D02*
X320Y1130D01*
X269Y1129D02*
X287Y1129D01*
X302Y1129D02*
X320Y1129D01*
X269Y1128D02*
X290Y1128D01*
X299Y1128D02*
X320Y1128D01*
X269Y1127D02*
X320Y1127D01*
X269Y1126D02*
X320Y1126D01*
X269Y1125D02*
X320Y1125D01*
X269Y1124D02*
X320Y1124D01*
X269Y1123D02*
X320Y1123D01*
X269Y1122D02*
X320Y1122D01*
X269Y1121D02*
X320Y1121D01*
X269Y1120D02*
X320Y1120D01*
X269Y1119D02*
X320Y1119D01*
X269Y1118D02*
X320Y1118D01*
X269Y1117D02*
X320Y1117D01*
X269Y1116D02*
X320Y1116D01*
X269Y1115D02*
X320Y1115D01*
X269Y1114D02*
X320Y1114D01*
X269Y1113D02*
X320Y1113D01*
X269Y1112D02*
X320Y1112D01*
X269Y1111D02*
X320Y1111D01*
X269Y1110D02*
X320Y1110D01*
X269Y1109D02*
X320Y1109D01*
X269Y1108D02*
X320Y1108D01*
X269Y1107D02*
X320Y1107D01*
X269Y1106D02*
X320Y1106D01*
X269Y1105D02*
X320Y1105D01*
X269Y1104D02*
X320Y1104D01*
X269Y1103D02*
X320Y1103D01*
X269Y1102D02*
X320Y1102D01*
X269Y1101D02*
X320Y1101D01*
X269Y1100D02*
X320Y1100D01*
X269Y1099D02*
X320Y1099D01*
X269Y1098D02*
X320Y1098D01*
X269Y1097D02*
X320Y1097D01*
X3212Y710D02*
X3281Y710D01*
X3212Y709D02*
X3281Y709D01*
X3212Y708D02*
X3281Y708D01*
X3212Y707D02*
X3281Y707D01*
X3212Y706D02*
X3281Y706D01*
X3212Y705D02*
X3281Y705D01*
X3212Y704D02*
X3281Y704D01*
X3212Y703D02*
X3281Y703D01*
X3212Y702D02*
X3281Y702D01*
X3212Y701D02*
X3281Y701D01*
X3212Y700D02*
X3281Y700D01*
X3212Y699D02*
X3281Y699D01*
X3212Y698D02*
X3281Y698D01*
X3212Y697D02*
X3281Y697D01*
X3212Y696D02*
X3281Y696D01*
X3212Y695D02*
X3281Y695D01*
X3212Y694D02*
X3281Y694D01*
X3212Y693D02*
X3281Y693D01*
X3212Y692D02*
X3281Y692D01*
X3212Y691D02*
X3281Y691D01*
X3212Y690D02*
X3281Y690D01*
X3212Y689D02*
X3243Y689D01*
X3250Y689D02*
X3281Y689D01*
X3212Y688D02*
X3240Y688D01*
X3253Y688D02*
X3281Y688D01*
X3212Y687D02*
X3238Y687D01*
X3255Y687D02*
X3281Y687D01*
X3212Y686D02*
X3237Y686D01*
X3256Y686D02*
X3281Y686D01*
X3212Y685D02*
X3236Y685D01*
X3257Y685D02*
X3281Y685D01*
X3212Y684D02*
X3235Y684D01*
X3258Y684D02*
X3281Y684D01*
X3212Y683D02*
X3234Y683D01*
X3258Y683D02*
X3281Y683D01*
X3212Y682D02*
X3234Y682D01*
X3259Y682D02*
X3281Y682D01*
X3212Y681D02*
X3233Y681D01*
X3260Y681D02*
X3281Y681D01*
X3212Y680D02*
X3233Y680D01*
X3260Y680D02*
X3281Y680D01*
X3212Y679D02*
X3233Y679D01*
X3260Y679D02*
X3281Y679D01*
X3212Y678D02*
X3233Y678D01*
X3260Y678D02*
X3281Y678D01*
X3212Y677D02*
X3233Y677D01*
X3260Y677D02*
X3281Y677D01*
X3212Y676D02*
X3232Y676D01*
X3260Y676D02*
X3281Y676D01*
X3212Y675D02*
X3232Y675D01*
X3260Y675D02*
X3281Y675D01*
X3212Y674D02*
X3233Y674D01*
X3260Y674D02*
X3281Y674D01*
X3212Y673D02*
X3233Y673D01*
X3260Y673D02*
X3281Y673D01*
X3212Y672D02*
X3233Y672D01*
X3260Y672D02*
X3281Y672D01*
X3212Y671D02*
X3233Y671D01*
X3260Y671D02*
X3281Y671D01*
X3212Y670D02*
X3234Y670D01*
X3259Y670D02*
X3281Y670D01*
X3212Y669D02*
X3234Y669D01*
X3259Y669D02*
X3281Y669D01*
X3212Y668D02*
X3235Y668D01*
X3258Y668D02*
X3281Y668D01*
X3212Y667D02*
X3236Y667D01*
X3257Y667D02*
X3281Y667D01*
X3212Y666D02*
X3237Y666D01*
X3256Y666D02*
X3281Y666D01*
X3212Y665D02*
X3238Y665D01*
X3255Y665D02*
X3281Y665D01*
X3212Y664D02*
X3239Y664D01*
X3253Y664D02*
X3281Y664D01*
X3212Y663D02*
X3242Y663D01*
X3251Y663D02*
X3281Y663D01*
X3212Y662D02*
X3281Y662D01*
X3212Y661D02*
X3281Y661D01*
X3212Y660D02*
X3281Y660D01*
X3212Y659D02*
X3281Y659D01*
X3212Y658D02*
X3281Y658D01*
X3212Y657D02*
X3281Y657D01*
X3212Y656D02*
X3281Y656D01*
X3212Y655D02*
X3281Y655D01*
X3212Y654D02*
X3281Y654D01*
X3212Y653D02*
X3281Y653D01*
X3212Y652D02*
X3281Y652D01*
X3212Y651D02*
X3281Y651D01*
X3212Y650D02*
X3281Y650D01*
X3212Y649D02*
X3281Y649D01*
X3212Y648D02*
X3281Y648D01*
X3212Y647D02*
X3281Y647D01*
X3212Y646D02*
X3281Y646D01*
X3212Y645D02*
X3281Y645D01*
X3212Y644D02*
X3281Y644D01*
X3212Y643D02*
X3281Y643D01*
X3212Y642D02*
X3281Y642D01*
X2200Y607D02*
X2268Y607D01*
X2200Y606D02*
X2268Y606D01*
X2200Y605D02*
X2268Y605D01*
X2200Y604D02*
X2268Y604D01*
X2200Y603D02*
X2268Y603D01*
X2200Y602D02*
X2268Y602D01*
X2200Y601D02*
X2268Y601D01*
X2200Y600D02*
X2268Y600D01*
X2200Y599D02*
X2268Y599D01*
X2200Y598D02*
X2268Y598D01*
X2200Y597D02*
X2268Y597D01*
X2200Y596D02*
X2268Y596D01*
X2200Y595D02*
X2268Y595D01*
X2200Y594D02*
X2268Y594D01*
X2200Y593D02*
X2268Y593D01*
X2200Y592D02*
X2268Y592D01*
X2200Y591D02*
X2268Y591D01*
X2200Y590D02*
X2268Y590D01*
X2200Y589D02*
X2268Y589D01*
X2200Y588D02*
X2268Y588D01*
X2200Y587D02*
X2268Y587D01*
X2200Y586D02*
X2229Y586D01*
X2239Y586D02*
X2268Y586D01*
X2200Y585D02*
X2227Y585D01*
X2241Y585D02*
X2268Y585D01*
X2200Y584D02*
X2225Y584D01*
X2242Y584D02*
X2268Y584D01*
X2200Y583D02*
X2224Y583D01*
X2244Y583D02*
X2268Y583D01*
X2200Y582D02*
X2223Y582D01*
X2245Y582D02*
X2268Y582D01*
X2200Y581D02*
X2222Y581D01*
X2245Y581D02*
X2268Y581D01*
X2200Y580D02*
X2222Y580D01*
X2246Y580D02*
X2268Y580D01*
X2200Y579D02*
X2221Y579D01*
X2247Y579D02*
X2268Y579D01*
X2200Y578D02*
X2221Y578D01*
X2247Y578D02*
X2268Y578D01*
X2200Y577D02*
X2221Y577D01*
X2247Y577D02*
X2268Y577D01*
X2200Y576D02*
X2220Y576D01*
X2248Y576D02*
X2268Y576D01*
X2200Y575D02*
X2220Y575D01*
X2248Y575D02*
X2268Y575D01*
X2200Y574D02*
X2220Y574D01*
X2248Y574D02*
X2268Y574D01*
X2200Y573D02*
X2220Y573D01*
X2248Y573D02*
X2268Y573D01*
X2200Y572D02*
X2220Y572D01*
X2248Y572D02*
X2268Y572D01*
X2200Y571D02*
X2220Y571D01*
X2248Y571D02*
X2268Y571D01*
X2200Y570D02*
X2220Y570D01*
X2248Y570D02*
X2268Y570D01*
X2200Y569D02*
X2221Y569D01*
X2247Y569D02*
X2268Y569D01*
X2200Y568D02*
X2221Y568D01*
X2247Y568D02*
X2268Y568D01*
X2200Y567D02*
X2221Y567D01*
X2247Y567D02*
X2268Y567D01*
X2200Y566D02*
X2222Y566D01*
X2246Y566D02*
X2268Y566D01*
X2200Y565D02*
X2223Y565D01*
X2245Y565D02*
X2268Y565D01*
X2200Y564D02*
X2224Y564D01*
X2244Y564D02*
X2268Y564D01*
X2200Y563D02*
X2225Y563D01*
X2243Y563D02*
X2268Y563D01*
X2200Y562D02*
X2226Y562D01*
X2242Y562D02*
X2268Y562D01*
X2200Y561D02*
X2227Y561D01*
X2241Y561D02*
X2268Y561D01*
X2200Y560D02*
X2230Y560D01*
X2238Y560D02*
X2268Y560D01*
X2200Y559D02*
X2268Y559D01*
X2200Y558D02*
X2268Y558D01*
X2200Y557D02*
X2268Y557D01*
X2200Y556D02*
X2268Y556D01*
X2200Y555D02*
X2268Y555D01*
X2200Y554D02*
X2268Y554D01*
X2200Y553D02*
X2268Y553D01*
X2200Y552D02*
X2268Y552D01*
X2200Y551D02*
X2268Y551D01*
X2200Y550D02*
X2268Y550D01*
X2200Y549D02*
X2268Y549D01*
X2200Y548D02*
X2268Y548D01*
X2200Y547D02*
X2268Y547D01*
X2200Y546D02*
X2268Y546D01*
X2200Y545D02*
X2268Y545D01*
X2200Y544D02*
X2268Y544D01*
X2200Y543D02*
X2268Y543D01*
X2200Y542D02*
X2268Y542D01*
X2200Y541D02*
X2268Y541D01*
X2200Y540D02*
X2268Y540D01*
X2200Y539D02*
X2268Y539D01*
D02*
G04 End of Mask0*
M02*