G04 MADE WITH FRITZING*
G04 WWW.FRITZING.ORG*
G04 DOUBLE SIDED*
G04 HOLES PLATED*
G04 CONTOUR ON CENTER OF CONTOUR VECTOR*
%ASAXBY*%
%FSLAX23Y23*%
%MOIN*%
%OFA0B0*%
%SFA1.0B1.0*%
%ADD10R,3.740160X3.740160X3.724160X3.724160*%
%ADD11C,0.008000*%
%ADD12C,0.010000*%
%ADD13C,0.005000*%
%ADD14R,0.001000X0.001000*%
%LNSILK0*%
G90*
G70*
G54D11*
X4Y3736D02*
X3736Y3736D01*
X3736Y4D01*
X4Y4D01*
X4Y3736D01*
D02*
G54D12*
X3623Y1147D02*
X3623Y861D01*
D02*
X3623Y861D02*
X3407Y861D01*
D02*
X3407Y861D02*
X3407Y1147D01*
D02*
X3407Y1147D02*
X3623Y1147D01*
G54D13*
D02*
X3447Y861D02*
X3447Y1147D01*
G54D12*
D02*
X3623Y747D02*
X3623Y461D01*
D02*
X3623Y461D02*
X3407Y461D01*
D02*
X3407Y461D02*
X3407Y747D01*
D02*
X3407Y747D02*
X3623Y747D01*
G54D13*
D02*
X3447Y461D02*
X3447Y747D01*
G54D12*
D02*
X3623Y347D02*
X3623Y61D01*
D02*
X3623Y61D02*
X3407Y61D01*
D02*
X3407Y61D02*
X3407Y347D01*
D02*
X3407Y347D02*
X3623Y347D01*
G54D13*
D02*
X3447Y61D02*
X3447Y347D01*
G54D12*
D02*
X561Y561D02*
X846Y561D01*
D02*
X846Y561D02*
X846Y345D01*
D02*
X846Y345D02*
X561Y345D01*
D02*
X561Y345D02*
X561Y561D01*
G54D13*
D02*
X846Y385D02*
X561Y385D01*
G54D14*
X2280Y1573D02*
X2788Y1573D01*
X2270Y1572D02*
X2798Y1572D01*
X2264Y1571D02*
X2804Y1571D01*
X2260Y1570D02*
X2808Y1570D01*
X2256Y1569D02*
X2812Y1569D01*
X2253Y1568D02*
X2815Y1568D01*
X2250Y1567D02*
X2818Y1567D01*
X2248Y1566D02*
X2820Y1566D01*
X2245Y1565D02*
X2279Y1565D01*
X2789Y1565D02*
X2823Y1565D01*
X2243Y1564D02*
X2269Y1564D01*
X2799Y1564D02*
X2825Y1564D01*
X2241Y1563D02*
X2264Y1563D01*
X2804Y1563D02*
X2827Y1563D01*
X2239Y1562D02*
X2259Y1562D01*
X2808Y1562D02*
X2829Y1562D01*
X2237Y1561D02*
X2256Y1561D01*
X2812Y1561D02*
X2831Y1561D01*
X2235Y1560D02*
X2253Y1560D01*
X2815Y1560D02*
X2833Y1560D01*
X2234Y1559D02*
X2250Y1559D01*
X2818Y1559D02*
X2834Y1559D01*
X2232Y1558D02*
X2248Y1558D01*
X2820Y1558D02*
X2836Y1558D01*
X2230Y1557D02*
X2246Y1557D01*
X2822Y1557D02*
X2838Y1557D01*
X2229Y1556D02*
X2244Y1556D01*
X2824Y1556D02*
X2839Y1556D01*
X2227Y1555D02*
X2241Y1555D01*
X2827Y1555D02*
X2841Y1555D01*
X2226Y1554D02*
X2240Y1554D01*
X2828Y1554D02*
X2842Y1554D01*
X2225Y1553D02*
X2238Y1553D01*
X2830Y1553D02*
X2843Y1553D01*
X2223Y1552D02*
X2236Y1552D01*
X2832Y1552D02*
X2845Y1552D01*
X2222Y1551D02*
X2234Y1551D01*
X2833Y1551D02*
X2846Y1551D01*
X2221Y1550D02*
X2233Y1550D01*
X2835Y1550D02*
X2847Y1550D01*
X2219Y1549D02*
X2231Y1549D01*
X2836Y1549D02*
X2849Y1549D01*
X2218Y1548D02*
X2230Y1548D01*
X2838Y1548D02*
X2850Y1548D01*
X2217Y1547D02*
X2229Y1547D01*
X2839Y1547D02*
X2851Y1547D01*
X2216Y1546D02*
X2227Y1546D01*
X2841Y1546D02*
X2852Y1546D01*
X2215Y1545D02*
X2226Y1545D01*
X2842Y1545D02*
X2853Y1545D01*
X2214Y1544D02*
X2225Y1544D01*
X2843Y1544D02*
X2854Y1544D01*
X2213Y1543D02*
X2224Y1543D01*
X2844Y1543D02*
X2855Y1543D01*
X2212Y1542D02*
X2223Y1542D01*
X2845Y1542D02*
X2856Y1542D01*
X2211Y1541D02*
X2222Y1541D01*
X2846Y1541D02*
X2857Y1541D01*
X2210Y1540D02*
X2220Y1540D01*
X2848Y1540D02*
X2858Y1540D01*
X2209Y1539D02*
X2219Y1539D01*
X2849Y1539D02*
X2859Y1539D01*
X2208Y1538D02*
X2218Y1538D01*
X2850Y1538D02*
X2860Y1538D01*
X2208Y1537D02*
X2217Y1537D01*
X2851Y1537D02*
X2860Y1537D01*
X2207Y1536D02*
X2216Y1536D01*
X2852Y1536D02*
X2861Y1536D01*
X2206Y1535D02*
X2216Y1535D01*
X2852Y1535D02*
X2862Y1535D01*
X2205Y1534D02*
X2215Y1534D01*
X2853Y1534D02*
X2863Y1534D01*
X2205Y1533D02*
X2214Y1533D01*
X2854Y1533D02*
X2863Y1533D01*
X2204Y1532D02*
X2213Y1532D01*
X2855Y1532D02*
X2864Y1532D01*
X2203Y1531D02*
X2212Y1531D01*
X2856Y1531D02*
X2865Y1531D01*
X2202Y1530D02*
X2211Y1530D01*
X2857Y1530D02*
X2866Y1530D01*
X2202Y1529D02*
X2210Y1529D01*
X2858Y1529D02*
X2866Y1529D01*
X2201Y1528D02*
X2210Y1528D01*
X2858Y1528D02*
X2867Y1528D01*
X2200Y1527D02*
X2209Y1527D01*
X2859Y1527D02*
X2868Y1527D01*
X2200Y1526D02*
X2208Y1526D01*
X2860Y1526D02*
X2868Y1526D01*
X2199Y1525D02*
X2207Y1525D01*
X2860Y1525D02*
X2869Y1525D01*
X2199Y1524D02*
X2207Y1524D01*
X2861Y1524D02*
X2869Y1524D01*
X2198Y1523D02*
X2206Y1523D01*
X2862Y1523D02*
X2870Y1523D01*
X2197Y1522D02*
X2206Y1522D01*
X2862Y1522D02*
X2871Y1522D01*
X2197Y1521D02*
X2205Y1521D01*
X2863Y1521D02*
X2871Y1521D01*
X2196Y1520D02*
X2204Y1520D01*
X2864Y1520D02*
X2872Y1520D01*
X2196Y1519D02*
X2204Y1519D01*
X2864Y1519D02*
X2872Y1519D01*
X2195Y1518D02*
X2203Y1518D01*
X2865Y1518D02*
X2873Y1518D01*
X2195Y1517D02*
X2203Y1517D01*
X2865Y1517D02*
X2873Y1517D01*
X2194Y1516D02*
X2202Y1516D01*
X2866Y1516D02*
X2874Y1516D01*
X2194Y1515D02*
X2201Y1515D01*
X2866Y1515D02*
X2874Y1515D01*
X2193Y1514D02*
X2201Y1514D01*
X2867Y1514D02*
X2875Y1514D01*
X2193Y1513D02*
X2201Y1513D01*
X2867Y1513D02*
X2875Y1513D01*
X2192Y1512D02*
X2200Y1512D01*
X2868Y1512D02*
X2876Y1512D01*
X2192Y1511D02*
X2200Y1511D01*
X2868Y1511D02*
X2876Y1511D01*
X2192Y1510D02*
X2199Y1510D01*
X2869Y1510D02*
X2876Y1510D01*
X2191Y1509D02*
X2199Y1509D01*
X2869Y1509D02*
X2877Y1509D01*
X2191Y1508D02*
X2198Y1508D01*
X2870Y1508D02*
X2877Y1508D01*
X2190Y1507D02*
X2198Y1507D01*
X2870Y1507D02*
X2877Y1507D01*
X2190Y1506D02*
X2197Y1506D01*
X2870Y1506D02*
X2878Y1506D01*
X2190Y1505D02*
X2197Y1505D01*
X2871Y1505D02*
X2878Y1505D01*
X2189Y1504D02*
X2197Y1504D01*
X2871Y1504D02*
X2879Y1504D01*
X2189Y1503D02*
X2196Y1503D01*
X2872Y1503D02*
X2879Y1503D01*
X2189Y1502D02*
X2196Y1502D01*
X2872Y1502D02*
X2879Y1502D01*
X2188Y1501D02*
X2196Y1501D01*
X2872Y1501D02*
X2879Y1501D01*
X2188Y1500D02*
X2195Y1500D01*
X2873Y1500D02*
X2880Y1500D01*
X2188Y1499D02*
X2195Y1499D01*
X2873Y1499D02*
X2880Y1499D01*
X2188Y1498D02*
X2195Y1498D01*
X2873Y1498D02*
X2880Y1498D01*
X2187Y1497D02*
X2195Y1497D01*
X2873Y1497D02*
X2881Y1497D01*
X2187Y1496D02*
X2194Y1496D01*
X2874Y1496D02*
X2881Y1496D01*
X2187Y1495D02*
X2194Y1495D01*
X2874Y1495D02*
X2881Y1495D01*
X2187Y1494D02*
X2194Y1494D01*
X2874Y1494D02*
X2881Y1494D01*
X2187Y1493D02*
X2194Y1493D01*
X2874Y1493D02*
X2881Y1493D01*
X2186Y1492D02*
X2193Y1492D01*
X2875Y1492D02*
X2882Y1492D01*
X2186Y1491D02*
X2193Y1491D01*
X2875Y1491D02*
X2882Y1491D01*
X2186Y1490D02*
X2193Y1490D01*
X2875Y1490D02*
X2882Y1490D01*
X2186Y1489D02*
X2193Y1489D01*
X2875Y1489D02*
X2882Y1489D01*
X2186Y1488D02*
X2193Y1488D01*
X2875Y1488D02*
X2882Y1488D01*
X2185Y1487D02*
X2192Y1487D01*
X2875Y1487D02*
X2882Y1487D01*
X2185Y1486D02*
X2192Y1486D01*
X2876Y1486D02*
X2883Y1486D01*
X2185Y1485D02*
X2192Y1485D01*
X2876Y1485D02*
X2883Y1485D01*
X2185Y1484D02*
X2192Y1484D01*
X2876Y1484D02*
X2883Y1484D01*
X2185Y1483D02*
X2192Y1483D01*
X2876Y1483D02*
X2883Y1483D01*
X2185Y1482D02*
X2192Y1482D01*
X2876Y1482D02*
X2883Y1482D01*
X2185Y1481D02*
X2192Y1481D01*
X2876Y1481D02*
X2883Y1481D01*
X2185Y1480D02*
X2192Y1480D01*
X2876Y1480D02*
X2883Y1480D01*
X2185Y1479D02*
X2192Y1479D01*
X2876Y1479D02*
X2883Y1479D01*
X2185Y1478D02*
X2192Y1478D01*
X2876Y1478D02*
X2883Y1478D01*
X2185Y1477D02*
X2192Y1477D01*
X2876Y1477D02*
X2883Y1477D01*
X2184Y1476D02*
X2192Y1476D01*
X2876Y1476D02*
X2883Y1476D01*
X2184Y1475D02*
X2191Y1475D01*
X2876Y1475D02*
X2883Y1475D01*
X2184Y1474D02*
X2191Y1474D01*
X2876Y1474D02*
X2883Y1474D01*
X2184Y1473D02*
X2191Y1473D01*
X2876Y1473D02*
X2883Y1473D01*
X2184Y1472D02*
X2191Y1472D01*
X2876Y1472D02*
X2883Y1472D01*
X2184Y1471D02*
X2191Y1471D01*
X2876Y1471D02*
X2883Y1471D01*
X2184Y1470D02*
X2191Y1470D01*
X2876Y1470D02*
X2883Y1470D01*
X2184Y1469D02*
X2191Y1469D01*
X2876Y1469D02*
X2883Y1469D01*
X2184Y1468D02*
X2191Y1468D01*
X2876Y1468D02*
X2883Y1468D01*
X2184Y1467D02*
X2191Y1467D01*
X2876Y1467D02*
X2883Y1467D01*
X2184Y1466D02*
X2191Y1466D01*
X2876Y1466D02*
X2883Y1466D01*
X2184Y1465D02*
X2191Y1465D01*
X2876Y1465D02*
X2883Y1465D01*
X2184Y1464D02*
X2191Y1464D01*
X2876Y1464D02*
X2883Y1464D01*
X2184Y1463D02*
X2191Y1463D01*
X2876Y1463D02*
X2883Y1463D01*
X2184Y1462D02*
X2191Y1462D01*
X2876Y1462D02*
X2883Y1462D01*
X2184Y1461D02*
X2191Y1461D01*
X2876Y1461D02*
X2883Y1461D01*
X2184Y1460D02*
X2191Y1460D01*
X2876Y1460D02*
X2883Y1460D01*
X2184Y1459D02*
X2191Y1459D01*
X2876Y1459D02*
X2883Y1459D01*
X2184Y1458D02*
X2191Y1458D01*
X2876Y1458D02*
X2883Y1458D01*
X2184Y1457D02*
X2191Y1457D01*
X2876Y1457D02*
X2883Y1457D01*
X2184Y1456D02*
X2191Y1456D01*
X2876Y1456D02*
X2883Y1456D01*
X2184Y1455D02*
X2191Y1455D01*
X2876Y1455D02*
X2883Y1455D01*
X2184Y1454D02*
X2191Y1454D01*
X2876Y1454D02*
X2883Y1454D01*
X2184Y1453D02*
X2191Y1453D01*
X2876Y1453D02*
X2883Y1453D01*
X2184Y1452D02*
X2191Y1452D01*
X2876Y1452D02*
X2883Y1452D01*
X2184Y1451D02*
X2191Y1451D01*
X2876Y1451D02*
X2883Y1451D01*
X2184Y1450D02*
X2191Y1450D01*
X2876Y1450D02*
X2883Y1450D01*
X2184Y1449D02*
X2191Y1449D01*
X2876Y1449D02*
X2883Y1449D01*
X2184Y1448D02*
X2191Y1448D01*
X2876Y1448D02*
X2883Y1448D01*
X2184Y1447D02*
X2191Y1447D01*
X2876Y1447D02*
X2883Y1447D01*
X2184Y1446D02*
X2191Y1446D01*
X2876Y1446D02*
X2883Y1446D01*
X2184Y1445D02*
X2191Y1445D01*
X2876Y1445D02*
X2883Y1445D01*
X2184Y1444D02*
X2191Y1444D01*
X2876Y1444D02*
X2883Y1444D01*
X2184Y1443D02*
X2191Y1443D01*
X2876Y1443D02*
X2883Y1443D01*
X2184Y1442D02*
X2191Y1442D01*
X2876Y1442D02*
X2883Y1442D01*
X2184Y1441D02*
X2191Y1441D01*
X2876Y1441D02*
X2883Y1441D01*
X2184Y1440D02*
X2191Y1440D01*
X2876Y1440D02*
X2883Y1440D01*
X2184Y1439D02*
X2191Y1439D01*
X2876Y1439D02*
X2883Y1439D01*
X2184Y1438D02*
X2191Y1438D01*
X2876Y1438D02*
X2883Y1438D01*
X2184Y1437D02*
X2191Y1437D01*
X2876Y1437D02*
X2883Y1437D01*
X2184Y1436D02*
X2191Y1436D01*
X2876Y1436D02*
X2883Y1436D01*
X2184Y1435D02*
X2191Y1435D01*
X2876Y1435D02*
X2883Y1435D01*
X2184Y1434D02*
X2191Y1434D01*
X2876Y1434D02*
X2883Y1434D01*
X2184Y1433D02*
X2191Y1433D01*
X2876Y1433D02*
X2883Y1433D01*
X2184Y1432D02*
X2191Y1432D01*
X2876Y1432D02*
X2883Y1432D01*
X2184Y1431D02*
X2191Y1431D01*
X2876Y1431D02*
X2883Y1431D01*
X2184Y1430D02*
X2191Y1430D01*
X2876Y1430D02*
X2883Y1430D01*
X2184Y1429D02*
X2191Y1429D01*
X2876Y1429D02*
X2883Y1429D01*
X2184Y1428D02*
X2191Y1428D01*
X2876Y1428D02*
X2883Y1428D01*
X2184Y1427D02*
X2191Y1427D01*
X2876Y1427D02*
X2883Y1427D01*
X2184Y1426D02*
X2191Y1426D01*
X2876Y1426D02*
X2883Y1426D01*
X2184Y1425D02*
X2191Y1425D01*
X2876Y1425D02*
X2883Y1425D01*
X2184Y1424D02*
X2191Y1424D01*
X2876Y1424D02*
X2883Y1424D01*
X2184Y1423D02*
X2191Y1423D01*
X2876Y1423D02*
X2883Y1423D01*
X2184Y1422D02*
X2191Y1422D01*
X2876Y1422D02*
X2883Y1422D01*
X2184Y1421D02*
X2191Y1421D01*
X2876Y1421D02*
X2883Y1421D01*
X2184Y1420D02*
X2191Y1420D01*
X2876Y1420D02*
X2883Y1420D01*
X2184Y1419D02*
X2191Y1419D01*
X2876Y1419D02*
X2883Y1419D01*
X2184Y1418D02*
X2191Y1418D01*
X2876Y1418D02*
X2883Y1418D01*
X2184Y1417D02*
X2191Y1417D01*
X2876Y1417D02*
X2883Y1417D01*
X2184Y1416D02*
X2191Y1416D01*
X2876Y1416D02*
X2883Y1416D01*
X2184Y1415D02*
X2191Y1415D01*
X2876Y1415D02*
X2883Y1415D01*
X2184Y1414D02*
X2191Y1414D01*
X2876Y1414D02*
X2883Y1414D01*
X2184Y1413D02*
X2191Y1413D01*
X2876Y1413D02*
X2883Y1413D01*
X2184Y1412D02*
X2191Y1412D01*
X2876Y1412D02*
X2883Y1412D01*
X2184Y1411D02*
X2191Y1411D01*
X2876Y1411D02*
X2883Y1411D01*
X2184Y1410D02*
X2191Y1410D01*
X2876Y1410D02*
X2883Y1410D01*
X2184Y1409D02*
X2191Y1409D01*
X2876Y1409D02*
X2883Y1409D01*
X2184Y1408D02*
X2191Y1408D01*
X2876Y1408D02*
X2883Y1408D01*
X2184Y1407D02*
X2191Y1407D01*
X2876Y1407D02*
X2883Y1407D01*
X2184Y1406D02*
X2191Y1406D01*
X2876Y1406D02*
X2883Y1406D01*
X2184Y1405D02*
X2191Y1405D01*
X2876Y1405D02*
X2883Y1405D01*
X2184Y1404D02*
X2191Y1404D01*
X2876Y1404D02*
X2883Y1404D01*
X2184Y1403D02*
X2191Y1403D01*
X2876Y1403D02*
X2883Y1403D01*
X2184Y1402D02*
X2191Y1402D01*
X2876Y1402D02*
X2883Y1402D01*
X2184Y1401D02*
X2191Y1401D01*
X2876Y1401D02*
X2883Y1401D01*
X2184Y1400D02*
X2191Y1400D01*
X2876Y1400D02*
X2883Y1400D01*
X2184Y1399D02*
X2191Y1399D01*
X2876Y1399D02*
X2883Y1399D01*
X2184Y1398D02*
X2191Y1398D01*
X2876Y1398D02*
X2883Y1398D01*
X2184Y1397D02*
X2191Y1397D01*
X2876Y1397D02*
X2883Y1397D01*
X2184Y1396D02*
X2191Y1396D01*
X2876Y1396D02*
X2883Y1396D01*
X2184Y1395D02*
X2191Y1395D01*
X2876Y1395D02*
X2883Y1395D01*
X2184Y1394D02*
X2191Y1394D01*
X2876Y1394D02*
X2883Y1394D01*
X2184Y1393D02*
X2191Y1393D01*
X2876Y1393D02*
X2883Y1393D01*
X2184Y1392D02*
X2191Y1392D01*
X2876Y1392D02*
X2883Y1392D01*
X2184Y1391D02*
X2191Y1391D01*
X2876Y1391D02*
X2883Y1391D01*
X2184Y1390D02*
X2191Y1390D01*
X2876Y1390D02*
X2883Y1390D01*
X2184Y1389D02*
X2191Y1389D01*
X2876Y1389D02*
X2883Y1389D01*
X2184Y1388D02*
X2191Y1388D01*
X2876Y1388D02*
X2883Y1388D01*
X2184Y1387D02*
X2191Y1387D01*
X2876Y1387D02*
X2883Y1387D01*
X2184Y1386D02*
X2191Y1386D01*
X2876Y1386D02*
X2883Y1386D01*
X2184Y1385D02*
X2191Y1385D01*
X2876Y1385D02*
X2883Y1385D01*
X2184Y1384D02*
X2191Y1384D01*
X2876Y1384D02*
X2883Y1384D01*
X2184Y1383D02*
X2191Y1383D01*
X2876Y1383D02*
X2883Y1383D01*
X2184Y1382D02*
X2191Y1382D01*
X2876Y1382D02*
X2883Y1382D01*
X2184Y1381D02*
X2191Y1381D01*
X2876Y1381D02*
X2883Y1381D01*
X2184Y1380D02*
X2191Y1380D01*
X2876Y1380D02*
X2883Y1380D01*
X2184Y1379D02*
X2191Y1379D01*
X2876Y1379D02*
X2883Y1379D01*
X2184Y1378D02*
X2191Y1378D01*
X2876Y1378D02*
X2883Y1378D01*
X2184Y1377D02*
X2191Y1377D01*
X2876Y1377D02*
X2883Y1377D01*
X2184Y1376D02*
X2191Y1376D01*
X2876Y1376D02*
X2883Y1376D01*
X2184Y1375D02*
X2191Y1375D01*
X2876Y1375D02*
X2883Y1375D01*
X2184Y1374D02*
X2191Y1374D01*
X2876Y1374D02*
X2883Y1374D01*
X2184Y1373D02*
X2191Y1373D01*
X2876Y1373D02*
X2883Y1373D01*
X2184Y1372D02*
X2191Y1372D01*
X2876Y1372D02*
X2883Y1372D01*
X2184Y1371D02*
X2191Y1371D01*
X2876Y1371D02*
X2883Y1371D01*
X2184Y1370D02*
X2191Y1370D01*
X2876Y1370D02*
X2883Y1370D01*
X2184Y1369D02*
X2191Y1369D01*
X2876Y1369D02*
X2883Y1369D01*
X2184Y1368D02*
X2191Y1368D01*
X2876Y1368D02*
X2883Y1368D01*
X2184Y1367D02*
X2191Y1367D01*
X2876Y1367D02*
X2883Y1367D01*
X2184Y1366D02*
X2191Y1366D01*
X2876Y1366D02*
X2883Y1366D01*
X2184Y1365D02*
X2191Y1365D01*
X2876Y1365D02*
X2883Y1365D01*
X2184Y1364D02*
X2191Y1364D01*
X2876Y1364D02*
X2883Y1364D01*
X2184Y1363D02*
X2191Y1363D01*
X2876Y1363D02*
X2883Y1363D01*
X2184Y1362D02*
X2191Y1362D01*
X2876Y1362D02*
X2883Y1362D01*
X2184Y1361D02*
X2191Y1361D01*
X2876Y1361D02*
X2883Y1361D01*
X2184Y1360D02*
X2191Y1360D01*
X2876Y1360D02*
X2883Y1360D01*
X2184Y1359D02*
X2191Y1359D01*
X2876Y1359D02*
X2883Y1359D01*
X2184Y1358D02*
X2191Y1358D01*
X2876Y1358D02*
X2883Y1358D01*
X2184Y1357D02*
X2191Y1357D01*
X2876Y1357D02*
X2883Y1357D01*
X2184Y1356D02*
X2191Y1356D01*
X2876Y1356D02*
X2883Y1356D01*
X2184Y1355D02*
X2191Y1355D01*
X2876Y1355D02*
X2883Y1355D01*
X2184Y1354D02*
X2191Y1354D01*
X2876Y1354D02*
X2883Y1354D01*
X2184Y1353D02*
X2191Y1353D01*
X2876Y1353D02*
X2883Y1353D01*
X2184Y1352D02*
X2191Y1352D01*
X2876Y1352D02*
X2883Y1352D01*
X2184Y1351D02*
X2191Y1351D01*
X2876Y1351D02*
X2883Y1351D01*
X2184Y1350D02*
X2191Y1350D01*
X2876Y1350D02*
X2883Y1350D01*
X2184Y1349D02*
X2191Y1349D01*
X2876Y1349D02*
X2883Y1349D01*
X2184Y1348D02*
X2191Y1348D01*
X2876Y1348D02*
X2883Y1348D01*
X2184Y1347D02*
X2191Y1347D01*
X2876Y1347D02*
X2883Y1347D01*
X2184Y1346D02*
X2191Y1346D01*
X2876Y1346D02*
X2883Y1346D01*
X2184Y1345D02*
X2191Y1345D01*
X2876Y1345D02*
X2883Y1345D01*
X2184Y1344D02*
X2191Y1344D01*
X2876Y1344D02*
X2883Y1344D01*
X2184Y1343D02*
X2191Y1343D01*
X2876Y1343D02*
X2883Y1343D01*
X2184Y1342D02*
X2191Y1342D01*
X2876Y1342D02*
X2883Y1342D01*
X2184Y1341D02*
X2191Y1341D01*
X2876Y1341D02*
X2883Y1341D01*
X2184Y1340D02*
X2191Y1340D01*
X2876Y1340D02*
X2883Y1340D01*
X2184Y1339D02*
X2191Y1339D01*
X2876Y1339D02*
X2883Y1339D01*
X2184Y1338D02*
X2191Y1338D01*
X2876Y1338D02*
X2883Y1338D01*
X2184Y1337D02*
X2191Y1337D01*
X2876Y1337D02*
X2883Y1337D01*
X2184Y1336D02*
X2191Y1336D01*
X2876Y1336D02*
X2883Y1336D01*
X2184Y1335D02*
X2191Y1335D01*
X2876Y1335D02*
X2883Y1335D01*
X2184Y1334D02*
X2191Y1334D01*
X2876Y1334D02*
X2883Y1334D01*
X2184Y1333D02*
X2191Y1333D01*
X2876Y1333D02*
X2883Y1333D01*
X2184Y1332D02*
X2191Y1332D01*
X2876Y1332D02*
X2883Y1332D01*
X2184Y1331D02*
X2191Y1331D01*
X2876Y1331D02*
X2883Y1331D01*
X2184Y1330D02*
X2191Y1330D01*
X2876Y1330D02*
X2883Y1330D01*
X2184Y1329D02*
X2191Y1329D01*
X2876Y1329D02*
X2883Y1329D01*
X2184Y1328D02*
X2191Y1328D01*
X2876Y1328D02*
X2883Y1328D01*
X2184Y1327D02*
X2191Y1327D01*
X2876Y1327D02*
X2883Y1327D01*
X2184Y1326D02*
X2191Y1326D01*
X2876Y1326D02*
X2883Y1326D01*
X2184Y1325D02*
X2191Y1325D01*
X2876Y1325D02*
X2883Y1325D01*
X2184Y1324D02*
X2191Y1324D01*
X2876Y1324D02*
X2883Y1324D01*
X2184Y1323D02*
X2191Y1323D01*
X2876Y1323D02*
X2883Y1323D01*
X2184Y1322D02*
X2191Y1322D01*
X2876Y1322D02*
X2883Y1322D01*
X2184Y1321D02*
X2191Y1321D01*
X2876Y1321D02*
X2883Y1321D01*
X2184Y1320D02*
X2191Y1320D01*
X2876Y1320D02*
X2883Y1320D01*
X2184Y1319D02*
X2191Y1319D01*
X2876Y1319D02*
X2883Y1319D01*
X2184Y1318D02*
X2191Y1318D01*
X2876Y1318D02*
X2883Y1318D01*
X2184Y1317D02*
X2191Y1317D01*
X2876Y1317D02*
X2883Y1317D01*
X2184Y1316D02*
X2191Y1316D01*
X2876Y1316D02*
X2883Y1316D01*
X2184Y1315D02*
X2191Y1315D01*
X2876Y1315D02*
X2883Y1315D01*
X2184Y1314D02*
X2191Y1314D01*
X2876Y1314D02*
X2883Y1314D01*
X2184Y1313D02*
X2191Y1313D01*
X2876Y1313D02*
X2883Y1313D01*
X2184Y1312D02*
X2191Y1312D01*
X2876Y1312D02*
X2883Y1312D01*
X2184Y1311D02*
X2191Y1311D01*
X2876Y1311D02*
X2883Y1311D01*
X2184Y1310D02*
X2191Y1310D01*
X2876Y1310D02*
X2883Y1310D01*
X2184Y1309D02*
X2191Y1309D01*
X2876Y1309D02*
X2883Y1309D01*
X2184Y1308D02*
X2191Y1308D01*
X2876Y1308D02*
X2883Y1308D01*
X2184Y1307D02*
X2191Y1307D01*
X2876Y1307D02*
X2883Y1307D01*
X2184Y1306D02*
X2191Y1306D01*
X2876Y1306D02*
X2883Y1306D01*
X2184Y1305D02*
X2191Y1305D01*
X2876Y1305D02*
X2883Y1305D01*
X2184Y1304D02*
X2191Y1304D01*
X2876Y1304D02*
X2883Y1304D01*
X2184Y1303D02*
X2191Y1303D01*
X2876Y1303D02*
X2883Y1303D01*
X2184Y1302D02*
X2191Y1302D01*
X2876Y1302D02*
X2883Y1302D01*
X2184Y1301D02*
X2191Y1301D01*
X2876Y1301D02*
X2883Y1301D01*
X2184Y1300D02*
X2191Y1300D01*
X2876Y1300D02*
X2883Y1300D01*
X2184Y1299D02*
X2191Y1299D01*
X2876Y1299D02*
X2883Y1299D01*
X2184Y1298D02*
X2191Y1298D01*
X2876Y1298D02*
X2883Y1298D01*
X2184Y1297D02*
X2191Y1297D01*
X2876Y1297D02*
X2883Y1297D01*
X2184Y1296D02*
X2191Y1296D01*
X2876Y1296D02*
X2883Y1296D01*
X2184Y1295D02*
X2191Y1295D01*
X2876Y1295D02*
X2883Y1295D01*
X2184Y1294D02*
X2191Y1294D01*
X2876Y1294D02*
X2883Y1294D01*
X2184Y1293D02*
X2191Y1293D01*
X2876Y1293D02*
X2883Y1293D01*
X2184Y1292D02*
X2191Y1292D01*
X2876Y1292D02*
X2883Y1292D01*
X2184Y1291D02*
X2191Y1291D01*
X2876Y1291D02*
X2883Y1291D01*
X2184Y1290D02*
X2191Y1290D01*
X2876Y1290D02*
X2883Y1290D01*
X2184Y1289D02*
X2191Y1289D01*
X2876Y1289D02*
X2883Y1289D01*
X2184Y1288D02*
X2191Y1288D01*
X2876Y1288D02*
X2883Y1288D01*
X2184Y1287D02*
X2191Y1287D01*
X2876Y1287D02*
X2883Y1287D01*
X2184Y1286D02*
X2191Y1286D01*
X2876Y1286D02*
X2883Y1286D01*
X2184Y1285D02*
X2191Y1285D01*
X2876Y1285D02*
X2883Y1285D01*
X2184Y1284D02*
X2191Y1284D01*
X2876Y1284D02*
X2883Y1284D01*
X2184Y1283D02*
X2191Y1283D01*
X2876Y1283D02*
X2883Y1283D01*
X2184Y1282D02*
X2191Y1282D01*
X2876Y1282D02*
X2883Y1282D01*
X2184Y1281D02*
X2191Y1281D01*
X2876Y1281D02*
X2883Y1281D01*
X2184Y1280D02*
X2191Y1280D01*
X2876Y1280D02*
X2883Y1280D01*
X2184Y1279D02*
X2191Y1279D01*
X2876Y1279D02*
X2883Y1279D01*
X2184Y1278D02*
X2191Y1278D01*
X2876Y1278D02*
X2883Y1278D01*
X2184Y1277D02*
X2191Y1277D01*
X2876Y1277D02*
X2883Y1277D01*
X2184Y1276D02*
X2191Y1276D01*
X2876Y1276D02*
X2883Y1276D01*
X2184Y1275D02*
X2191Y1275D01*
X2876Y1275D02*
X2883Y1275D01*
X2184Y1274D02*
X2191Y1274D01*
X2876Y1274D02*
X2883Y1274D01*
X2184Y1273D02*
X2191Y1273D01*
X2876Y1273D02*
X2883Y1273D01*
X2184Y1272D02*
X2191Y1272D01*
X2876Y1272D02*
X2883Y1272D01*
X2184Y1271D02*
X2191Y1271D01*
X2876Y1271D02*
X2883Y1271D01*
X2184Y1270D02*
X2191Y1270D01*
X2876Y1270D02*
X2883Y1270D01*
X2184Y1269D02*
X2191Y1269D01*
X2876Y1269D02*
X2883Y1269D01*
X2184Y1268D02*
X2191Y1268D01*
X2876Y1268D02*
X2883Y1268D01*
X2184Y1267D02*
X2191Y1267D01*
X2876Y1267D02*
X2883Y1267D01*
X2184Y1266D02*
X2191Y1266D01*
X2876Y1266D02*
X2883Y1266D01*
X2184Y1265D02*
X2191Y1265D01*
X2876Y1265D02*
X2883Y1265D01*
X2184Y1264D02*
X2191Y1264D01*
X2876Y1264D02*
X2883Y1264D01*
X2184Y1263D02*
X2191Y1263D01*
X2876Y1263D02*
X2883Y1263D01*
X2184Y1262D02*
X2191Y1262D01*
X2876Y1262D02*
X2883Y1262D01*
X2184Y1261D02*
X2191Y1261D01*
X2876Y1261D02*
X2883Y1261D01*
X2184Y1260D02*
X2191Y1260D01*
X2876Y1260D02*
X2883Y1260D01*
X2184Y1259D02*
X2191Y1259D01*
X2876Y1259D02*
X2883Y1259D01*
X2184Y1258D02*
X2191Y1258D01*
X2876Y1258D02*
X2883Y1258D01*
X2184Y1257D02*
X2191Y1257D01*
X2876Y1257D02*
X2883Y1257D01*
X2184Y1256D02*
X2191Y1256D01*
X2876Y1256D02*
X2883Y1256D01*
X2184Y1255D02*
X2191Y1255D01*
X2876Y1255D02*
X2883Y1255D01*
X2184Y1254D02*
X2191Y1254D01*
X2876Y1254D02*
X2883Y1254D01*
X2184Y1253D02*
X2191Y1253D01*
X2876Y1253D02*
X2883Y1253D01*
X2184Y1252D02*
X2191Y1252D01*
X2876Y1252D02*
X2883Y1252D01*
X2184Y1251D02*
X2191Y1251D01*
X2876Y1251D02*
X2883Y1251D01*
X2184Y1250D02*
X2191Y1250D01*
X2876Y1250D02*
X2883Y1250D01*
X2184Y1249D02*
X2191Y1249D01*
X2876Y1249D02*
X2883Y1249D01*
X2184Y1248D02*
X2191Y1248D01*
X2876Y1248D02*
X2883Y1248D01*
X2184Y1247D02*
X2191Y1247D01*
X2876Y1247D02*
X2883Y1247D01*
X2184Y1246D02*
X2191Y1246D01*
X2876Y1246D02*
X2883Y1246D01*
X2184Y1245D02*
X2191Y1245D01*
X2876Y1245D02*
X2883Y1245D01*
X2184Y1244D02*
X2191Y1244D01*
X2876Y1244D02*
X2883Y1244D01*
X2184Y1243D02*
X2191Y1243D01*
X2876Y1243D02*
X2883Y1243D01*
X2184Y1242D02*
X2191Y1242D01*
X2876Y1242D02*
X2883Y1242D01*
X2184Y1241D02*
X2191Y1241D01*
X2876Y1241D02*
X2883Y1241D01*
X2184Y1240D02*
X2191Y1240D01*
X2876Y1240D02*
X2883Y1240D01*
X2184Y1239D02*
X2191Y1239D01*
X2876Y1239D02*
X2883Y1239D01*
X2184Y1238D02*
X2191Y1238D01*
X2876Y1238D02*
X2883Y1238D01*
X2184Y1237D02*
X2191Y1237D01*
X2876Y1237D02*
X2883Y1237D01*
X2184Y1236D02*
X2191Y1236D01*
X2876Y1236D02*
X2883Y1236D01*
X2184Y1235D02*
X2191Y1235D01*
X2876Y1235D02*
X2883Y1235D01*
X2184Y1234D02*
X2191Y1234D01*
X2876Y1234D02*
X2883Y1234D01*
X2184Y1233D02*
X2191Y1233D01*
X2876Y1233D02*
X2883Y1233D01*
X2184Y1232D02*
X2191Y1232D01*
X2876Y1232D02*
X2883Y1232D01*
X2184Y1231D02*
X2191Y1231D01*
X2876Y1231D02*
X2883Y1231D01*
X2184Y1230D02*
X2191Y1230D01*
X2876Y1230D02*
X2883Y1230D01*
X2184Y1229D02*
X2191Y1229D01*
X2876Y1229D02*
X2883Y1229D01*
X2184Y1228D02*
X2191Y1228D01*
X2876Y1228D02*
X2883Y1228D01*
X2184Y1227D02*
X2191Y1227D01*
X2876Y1227D02*
X2883Y1227D01*
X2184Y1226D02*
X2191Y1226D01*
X2876Y1226D02*
X2883Y1226D01*
X2184Y1225D02*
X2191Y1225D01*
X2876Y1225D02*
X2883Y1225D01*
X2184Y1224D02*
X2191Y1224D01*
X2876Y1224D02*
X2883Y1224D01*
X2184Y1223D02*
X2191Y1223D01*
X2876Y1223D02*
X2883Y1223D01*
X2184Y1222D02*
X2191Y1222D01*
X2876Y1222D02*
X2883Y1222D01*
X2184Y1221D02*
X2191Y1221D01*
X2876Y1221D02*
X2883Y1221D01*
X2184Y1220D02*
X2191Y1220D01*
X2876Y1220D02*
X2883Y1220D01*
X2184Y1219D02*
X2191Y1219D01*
X2876Y1219D02*
X2883Y1219D01*
X2184Y1218D02*
X2191Y1218D01*
X2876Y1218D02*
X2883Y1218D01*
X2184Y1217D02*
X2191Y1217D01*
X2876Y1217D02*
X2883Y1217D01*
X2184Y1216D02*
X2191Y1216D01*
X2876Y1216D02*
X2883Y1216D01*
X2184Y1215D02*
X2191Y1215D01*
X2876Y1215D02*
X2883Y1215D01*
X2184Y1214D02*
X2191Y1214D01*
X2876Y1214D02*
X2883Y1214D01*
X2184Y1213D02*
X2191Y1213D01*
X2876Y1213D02*
X2883Y1213D01*
X2184Y1212D02*
X2191Y1212D01*
X2876Y1212D02*
X2883Y1212D01*
X2184Y1211D02*
X2191Y1211D01*
X2876Y1211D02*
X2883Y1211D01*
X2184Y1210D02*
X2191Y1210D01*
X2876Y1210D02*
X2883Y1210D01*
X2184Y1209D02*
X2191Y1209D01*
X2876Y1209D02*
X2883Y1209D01*
X2184Y1208D02*
X2191Y1208D01*
X2876Y1208D02*
X2883Y1208D01*
X2184Y1207D02*
X2191Y1207D01*
X2876Y1207D02*
X2883Y1207D01*
X2184Y1206D02*
X2191Y1206D01*
X2876Y1206D02*
X2883Y1206D01*
X2184Y1205D02*
X2191Y1205D01*
X2876Y1205D02*
X2883Y1205D01*
X2184Y1204D02*
X2191Y1204D01*
X2876Y1204D02*
X2883Y1204D01*
X2184Y1203D02*
X2191Y1203D01*
X2876Y1203D02*
X2883Y1203D01*
X2184Y1202D02*
X2191Y1202D01*
X2876Y1202D02*
X2883Y1202D01*
X2184Y1201D02*
X2191Y1201D01*
X2876Y1201D02*
X2883Y1201D01*
X2184Y1200D02*
X2191Y1200D01*
X2876Y1200D02*
X2883Y1200D01*
X2184Y1199D02*
X2191Y1199D01*
X2876Y1199D02*
X2883Y1199D01*
X2184Y1198D02*
X2191Y1198D01*
X2876Y1198D02*
X2883Y1198D01*
X2184Y1197D02*
X2191Y1197D01*
X2876Y1197D02*
X2883Y1197D01*
X2184Y1196D02*
X2191Y1196D01*
X2876Y1196D02*
X2883Y1196D01*
X2184Y1195D02*
X2191Y1195D01*
X2876Y1195D02*
X2883Y1195D01*
X2184Y1194D02*
X2191Y1194D01*
X2876Y1194D02*
X2883Y1194D01*
X2184Y1193D02*
X2191Y1193D01*
X2876Y1193D02*
X2883Y1193D01*
X2184Y1192D02*
X2191Y1192D01*
X2876Y1192D02*
X2883Y1192D01*
X2184Y1191D02*
X2191Y1191D01*
X2876Y1191D02*
X2883Y1191D01*
X2184Y1190D02*
X2191Y1190D01*
X2876Y1190D02*
X2883Y1190D01*
X2184Y1189D02*
X2191Y1189D01*
X2876Y1189D02*
X2883Y1189D01*
X2184Y1188D02*
X2191Y1188D01*
X2876Y1188D02*
X2883Y1188D01*
X2184Y1187D02*
X2191Y1187D01*
X2876Y1187D02*
X2883Y1187D01*
X2184Y1186D02*
X2191Y1186D01*
X2876Y1186D02*
X2883Y1186D01*
X2184Y1185D02*
X2191Y1185D01*
X2876Y1185D02*
X2883Y1185D01*
X2184Y1184D02*
X2191Y1184D01*
X2876Y1184D02*
X2883Y1184D01*
X2184Y1183D02*
X2191Y1183D01*
X2876Y1183D02*
X2883Y1183D01*
X2184Y1182D02*
X2191Y1182D01*
X2876Y1182D02*
X2883Y1182D01*
X2184Y1181D02*
X2191Y1181D01*
X2876Y1181D02*
X2883Y1181D01*
X2184Y1180D02*
X2191Y1180D01*
X2876Y1180D02*
X2883Y1180D01*
X2184Y1179D02*
X2191Y1179D01*
X2876Y1179D02*
X2883Y1179D01*
X2184Y1178D02*
X2191Y1178D01*
X2876Y1178D02*
X2883Y1178D01*
X2184Y1177D02*
X2191Y1177D01*
X2876Y1177D02*
X2883Y1177D01*
X2184Y1176D02*
X2191Y1176D01*
X2876Y1176D02*
X2883Y1176D01*
X2184Y1175D02*
X2191Y1175D01*
X2876Y1175D02*
X2883Y1175D01*
X2184Y1174D02*
X2191Y1174D01*
X2876Y1174D02*
X2883Y1174D01*
X2184Y1173D02*
X2191Y1173D01*
X2876Y1173D02*
X2883Y1173D01*
X2184Y1172D02*
X2191Y1172D01*
X2876Y1172D02*
X2883Y1172D01*
X2184Y1171D02*
X2191Y1171D01*
X2876Y1171D02*
X2883Y1171D01*
X2184Y1170D02*
X2191Y1170D01*
X2876Y1170D02*
X2883Y1170D01*
X2184Y1169D02*
X2191Y1169D01*
X2876Y1169D02*
X2883Y1169D01*
X2184Y1168D02*
X2191Y1168D01*
X2876Y1168D02*
X2883Y1168D01*
X2184Y1167D02*
X2191Y1167D01*
X2876Y1167D02*
X2883Y1167D01*
X2184Y1166D02*
X2191Y1166D01*
X2876Y1166D02*
X2883Y1166D01*
X2184Y1165D02*
X2191Y1165D01*
X2876Y1165D02*
X2883Y1165D01*
X2184Y1164D02*
X2191Y1164D01*
X2876Y1164D02*
X2883Y1164D01*
X2184Y1163D02*
X2191Y1163D01*
X2876Y1163D02*
X2883Y1163D01*
X2184Y1162D02*
X2191Y1162D01*
X2876Y1162D02*
X2883Y1162D01*
X2184Y1161D02*
X2191Y1161D01*
X2876Y1161D02*
X2883Y1161D01*
X2184Y1160D02*
X2191Y1160D01*
X2876Y1160D02*
X2883Y1160D01*
X2184Y1159D02*
X2191Y1159D01*
X2876Y1159D02*
X2883Y1159D01*
X2184Y1158D02*
X2191Y1158D01*
X2876Y1158D02*
X2883Y1158D01*
X2184Y1157D02*
X2191Y1157D01*
X2876Y1157D02*
X2883Y1157D01*
X2184Y1156D02*
X2191Y1156D01*
X2876Y1156D02*
X2883Y1156D01*
X2184Y1155D02*
X2191Y1155D01*
X2876Y1155D02*
X2883Y1155D01*
X2184Y1154D02*
X2191Y1154D01*
X2876Y1154D02*
X2883Y1154D01*
X2184Y1153D02*
X2191Y1153D01*
X2876Y1153D02*
X2883Y1153D01*
X2184Y1152D02*
X2191Y1152D01*
X2876Y1152D02*
X2883Y1152D01*
X2184Y1151D02*
X2191Y1151D01*
X2876Y1151D02*
X2883Y1151D01*
X2184Y1150D02*
X2191Y1150D01*
X2876Y1150D02*
X2883Y1150D01*
X2184Y1149D02*
X2191Y1149D01*
X2876Y1149D02*
X2883Y1149D01*
X2184Y1148D02*
X2191Y1148D01*
X2876Y1148D02*
X2883Y1148D01*
X2184Y1147D02*
X2191Y1147D01*
X2876Y1147D02*
X2883Y1147D01*
X2184Y1146D02*
X2191Y1146D01*
X2876Y1146D02*
X2883Y1146D01*
X2184Y1145D02*
X2191Y1145D01*
X2876Y1145D02*
X2883Y1145D01*
X2184Y1144D02*
X2191Y1144D01*
X2876Y1144D02*
X2883Y1144D01*
X2184Y1143D02*
X2191Y1143D01*
X2876Y1143D02*
X2883Y1143D01*
X2184Y1142D02*
X2191Y1142D01*
X2876Y1142D02*
X2883Y1142D01*
X2184Y1141D02*
X2191Y1141D01*
X2876Y1141D02*
X2883Y1141D01*
X2184Y1140D02*
X2191Y1140D01*
X2876Y1140D02*
X2883Y1140D01*
X2184Y1139D02*
X2191Y1139D01*
X2876Y1139D02*
X2883Y1139D01*
X2184Y1138D02*
X2191Y1138D01*
X2876Y1138D02*
X2883Y1138D01*
X2184Y1137D02*
X2191Y1137D01*
X2876Y1137D02*
X2883Y1137D01*
X2184Y1136D02*
X2191Y1136D01*
X2876Y1136D02*
X2883Y1136D01*
X2184Y1135D02*
X2191Y1135D01*
X2876Y1135D02*
X2883Y1135D01*
X2184Y1134D02*
X2191Y1134D01*
X2876Y1134D02*
X2883Y1134D01*
X2184Y1133D02*
X2191Y1133D01*
X2876Y1133D02*
X2883Y1133D01*
X2184Y1132D02*
X2191Y1132D01*
X2876Y1132D02*
X2883Y1132D01*
X2184Y1131D02*
X2191Y1131D01*
X2876Y1131D02*
X2883Y1131D01*
X2184Y1130D02*
X2191Y1130D01*
X2876Y1130D02*
X2883Y1130D01*
X2184Y1129D02*
X2191Y1129D01*
X2876Y1129D02*
X2883Y1129D01*
X2184Y1128D02*
X2191Y1128D01*
X2876Y1128D02*
X2883Y1128D01*
X2184Y1127D02*
X2191Y1127D01*
X2876Y1127D02*
X2883Y1127D01*
X2184Y1126D02*
X2191Y1126D01*
X2876Y1126D02*
X2883Y1126D01*
X2184Y1125D02*
X2191Y1125D01*
X2876Y1125D02*
X2883Y1125D01*
X2184Y1124D02*
X2191Y1124D01*
X2876Y1124D02*
X2883Y1124D01*
X2184Y1123D02*
X2191Y1123D01*
X2876Y1123D02*
X2883Y1123D01*
X2184Y1122D02*
X2191Y1122D01*
X2876Y1122D02*
X2883Y1122D01*
X2184Y1121D02*
X2191Y1121D01*
X2876Y1121D02*
X2883Y1121D01*
X2184Y1120D02*
X2191Y1120D01*
X2876Y1120D02*
X2883Y1120D01*
X2184Y1119D02*
X2191Y1119D01*
X2876Y1119D02*
X2883Y1119D01*
X2184Y1118D02*
X2191Y1118D01*
X2876Y1118D02*
X2883Y1118D01*
X2184Y1117D02*
X2191Y1117D01*
X2876Y1117D02*
X2883Y1117D01*
X2184Y1116D02*
X2191Y1116D01*
X2876Y1116D02*
X2883Y1116D01*
X2184Y1115D02*
X2191Y1115D01*
X2876Y1115D02*
X2883Y1115D01*
X2184Y1114D02*
X2191Y1114D01*
X2876Y1114D02*
X2883Y1114D01*
X2184Y1113D02*
X2191Y1113D01*
X2876Y1113D02*
X2883Y1113D01*
X2184Y1112D02*
X2191Y1112D01*
X2876Y1112D02*
X2883Y1112D01*
X2184Y1111D02*
X2191Y1111D01*
X2876Y1111D02*
X2883Y1111D01*
X2184Y1110D02*
X2191Y1110D01*
X2876Y1110D02*
X2883Y1110D01*
X2184Y1109D02*
X2191Y1109D01*
X2876Y1109D02*
X2883Y1109D01*
X2184Y1108D02*
X2191Y1108D01*
X2876Y1108D02*
X2883Y1108D01*
X2184Y1107D02*
X2191Y1107D01*
X2876Y1107D02*
X2883Y1107D01*
X2184Y1106D02*
X2191Y1106D01*
X2876Y1106D02*
X2883Y1106D01*
X2184Y1105D02*
X2191Y1105D01*
X2876Y1105D02*
X2883Y1105D01*
X2184Y1104D02*
X2191Y1104D01*
X2876Y1104D02*
X2883Y1104D01*
X2184Y1103D02*
X2191Y1103D01*
X2876Y1103D02*
X2883Y1103D01*
X2184Y1102D02*
X2191Y1102D01*
X2876Y1102D02*
X2883Y1102D01*
X2184Y1101D02*
X2191Y1101D01*
X2876Y1101D02*
X2883Y1101D01*
X2184Y1100D02*
X2191Y1100D01*
X2876Y1100D02*
X2883Y1100D01*
X2184Y1099D02*
X2191Y1099D01*
X2876Y1099D02*
X2883Y1099D01*
X2184Y1098D02*
X2191Y1098D01*
X2876Y1098D02*
X2883Y1098D01*
X2184Y1097D02*
X2191Y1097D01*
X2876Y1097D02*
X2883Y1097D01*
X2184Y1096D02*
X2191Y1096D01*
X2876Y1096D02*
X2883Y1096D01*
X2184Y1095D02*
X2191Y1095D01*
X2876Y1095D02*
X2883Y1095D01*
X2184Y1094D02*
X2191Y1094D01*
X2876Y1094D02*
X2883Y1094D01*
X2184Y1093D02*
X2191Y1093D01*
X2876Y1093D02*
X2883Y1093D01*
X2184Y1092D02*
X2191Y1092D01*
X2876Y1092D02*
X2883Y1092D01*
X2184Y1091D02*
X2191Y1091D01*
X2876Y1091D02*
X2883Y1091D01*
X2184Y1090D02*
X2191Y1090D01*
X2876Y1090D02*
X2883Y1090D01*
X2184Y1089D02*
X2191Y1089D01*
X2876Y1089D02*
X2883Y1089D01*
X2184Y1088D02*
X2191Y1088D01*
X2876Y1088D02*
X2883Y1088D01*
X2184Y1087D02*
X2191Y1087D01*
X2876Y1087D02*
X2883Y1087D01*
X2184Y1086D02*
X2191Y1086D01*
X2876Y1086D02*
X2883Y1086D01*
X2184Y1085D02*
X2191Y1085D01*
X2876Y1085D02*
X2883Y1085D01*
X2184Y1084D02*
X2191Y1084D01*
X2876Y1084D02*
X2883Y1084D01*
X2184Y1083D02*
X2191Y1083D01*
X2876Y1083D02*
X2883Y1083D01*
X2184Y1082D02*
X2191Y1082D01*
X2876Y1082D02*
X2883Y1082D01*
X2184Y1081D02*
X2191Y1081D01*
X2876Y1081D02*
X2883Y1081D01*
X2184Y1080D02*
X2191Y1080D01*
X2876Y1080D02*
X2883Y1080D01*
X2184Y1079D02*
X2191Y1079D01*
X2876Y1079D02*
X2883Y1079D01*
X2184Y1078D02*
X2191Y1078D01*
X2876Y1078D02*
X2883Y1078D01*
X2184Y1077D02*
X2191Y1077D01*
X2876Y1077D02*
X2883Y1077D01*
X2184Y1076D02*
X2191Y1076D01*
X2876Y1076D02*
X2883Y1076D01*
X2184Y1075D02*
X2191Y1075D01*
X2876Y1075D02*
X2883Y1075D01*
X2184Y1074D02*
X2191Y1074D01*
X2876Y1074D02*
X2883Y1074D01*
X2184Y1073D02*
X2191Y1073D01*
X2876Y1073D02*
X2883Y1073D01*
X2184Y1072D02*
X2191Y1072D01*
X2876Y1072D02*
X2883Y1072D01*
X2184Y1071D02*
X2191Y1071D01*
X2876Y1071D02*
X2883Y1071D01*
X2184Y1070D02*
X2191Y1070D01*
X2876Y1070D02*
X2883Y1070D01*
X2184Y1069D02*
X2191Y1069D01*
X2876Y1069D02*
X2883Y1069D01*
X2184Y1068D02*
X2191Y1068D01*
X2876Y1068D02*
X2883Y1068D01*
X2184Y1067D02*
X2191Y1067D01*
X2876Y1067D02*
X2883Y1067D01*
X2184Y1066D02*
X2191Y1066D01*
X2876Y1066D02*
X2883Y1066D01*
X2184Y1065D02*
X2191Y1065D01*
X2876Y1065D02*
X2883Y1065D01*
X2184Y1064D02*
X2191Y1064D01*
X2876Y1064D02*
X2883Y1064D01*
X2184Y1063D02*
X2191Y1063D01*
X2876Y1063D02*
X2883Y1063D01*
X2184Y1062D02*
X2191Y1062D01*
X2876Y1062D02*
X2883Y1062D01*
X2184Y1061D02*
X2191Y1061D01*
X2876Y1061D02*
X2883Y1061D01*
X2184Y1060D02*
X2191Y1060D01*
X2876Y1060D02*
X2883Y1060D01*
X2184Y1059D02*
X2191Y1059D01*
X2876Y1059D02*
X2883Y1059D01*
X2184Y1058D02*
X2191Y1058D01*
X2876Y1058D02*
X2883Y1058D01*
X2184Y1057D02*
X2191Y1057D01*
X2876Y1057D02*
X2883Y1057D01*
X2184Y1056D02*
X2191Y1056D01*
X2876Y1056D02*
X2883Y1056D01*
X2184Y1055D02*
X2191Y1055D01*
X2876Y1055D02*
X2883Y1055D01*
X2184Y1054D02*
X2191Y1054D01*
X2876Y1054D02*
X2883Y1054D01*
X2184Y1053D02*
X2191Y1053D01*
X2876Y1053D02*
X2883Y1053D01*
X2184Y1052D02*
X2191Y1052D01*
X2876Y1052D02*
X2883Y1052D01*
X2184Y1051D02*
X2191Y1051D01*
X2876Y1051D02*
X2883Y1051D01*
X2184Y1050D02*
X2191Y1050D01*
X2876Y1050D02*
X2883Y1050D01*
X2184Y1049D02*
X2191Y1049D01*
X2876Y1049D02*
X2883Y1049D01*
X2184Y1048D02*
X2191Y1048D01*
X2876Y1048D02*
X2883Y1048D01*
X2184Y1047D02*
X2191Y1047D01*
X2876Y1047D02*
X2883Y1047D01*
X2184Y1046D02*
X2191Y1046D01*
X2876Y1046D02*
X2883Y1046D01*
X2184Y1045D02*
X2191Y1045D01*
X2876Y1045D02*
X2883Y1045D01*
X2184Y1044D02*
X2191Y1044D01*
X2876Y1044D02*
X2883Y1044D01*
X2184Y1043D02*
X2191Y1043D01*
X2876Y1043D02*
X2883Y1043D01*
X2184Y1042D02*
X2191Y1042D01*
X2876Y1042D02*
X2883Y1042D01*
X2184Y1041D02*
X2191Y1041D01*
X2876Y1041D02*
X2883Y1041D01*
X2184Y1040D02*
X2191Y1040D01*
X2876Y1040D02*
X2883Y1040D01*
X2184Y1039D02*
X2191Y1039D01*
X2876Y1039D02*
X2883Y1039D01*
X2184Y1038D02*
X2191Y1038D01*
X2876Y1038D02*
X2883Y1038D01*
X2184Y1037D02*
X2191Y1037D01*
X2876Y1037D02*
X2883Y1037D01*
X2184Y1036D02*
X2191Y1036D01*
X2876Y1036D02*
X2883Y1036D01*
X2184Y1035D02*
X2191Y1035D01*
X2876Y1035D02*
X2883Y1035D01*
X2184Y1034D02*
X2191Y1034D01*
X2876Y1034D02*
X2883Y1034D01*
X2184Y1033D02*
X2191Y1033D01*
X2876Y1033D02*
X2883Y1033D01*
X2184Y1032D02*
X2191Y1032D01*
X2876Y1032D02*
X2883Y1032D01*
X2184Y1031D02*
X2191Y1031D01*
X2876Y1031D02*
X2883Y1031D01*
X2184Y1030D02*
X2191Y1030D01*
X2876Y1030D02*
X2883Y1030D01*
X2184Y1029D02*
X2191Y1029D01*
X2876Y1029D02*
X2883Y1029D01*
X2184Y1028D02*
X2191Y1028D01*
X2876Y1028D02*
X2883Y1028D01*
X2184Y1027D02*
X2191Y1027D01*
X2876Y1027D02*
X2883Y1027D01*
X2184Y1026D02*
X2191Y1026D01*
X2876Y1026D02*
X2884Y1026D01*
X2184Y1025D02*
X2191Y1025D01*
X2876Y1025D02*
X2883Y1025D01*
X2184Y1024D02*
X2191Y1024D01*
X2876Y1024D02*
X2883Y1024D01*
X2184Y1023D02*
X2191Y1023D01*
X2876Y1023D02*
X2883Y1023D01*
X2184Y1022D02*
X2191Y1022D01*
X2876Y1022D02*
X2883Y1022D01*
X2184Y1021D02*
X2191Y1021D01*
X2876Y1021D02*
X2883Y1021D01*
X2185Y1020D02*
X2192Y1020D01*
X2876Y1020D02*
X2883Y1020D01*
X2185Y1019D02*
X2192Y1019D01*
X2876Y1019D02*
X2883Y1019D01*
X2185Y1018D02*
X2192Y1018D01*
X2876Y1018D02*
X2883Y1018D01*
X2185Y1017D02*
X2192Y1017D01*
X2876Y1017D02*
X2883Y1017D01*
X2185Y1016D02*
X2192Y1016D01*
X2876Y1016D02*
X2883Y1016D01*
X2185Y1015D02*
X2192Y1015D01*
X2876Y1015D02*
X2883Y1015D01*
X2185Y1014D02*
X2192Y1014D01*
X2876Y1014D02*
X2883Y1014D01*
X2185Y1013D02*
X2192Y1013D01*
X2876Y1013D02*
X2883Y1013D01*
X2185Y1012D02*
X2192Y1012D01*
X2876Y1012D02*
X2883Y1012D01*
X2185Y1011D02*
X2192Y1011D01*
X2876Y1011D02*
X2883Y1011D01*
X2185Y1010D02*
X2192Y1010D01*
X2876Y1010D02*
X2883Y1010D01*
X2185Y1009D02*
X2193Y1009D01*
X2875Y1009D02*
X2882Y1009D01*
X2186Y1008D02*
X2193Y1008D01*
X2875Y1008D02*
X2882Y1008D01*
X2186Y1007D02*
X2193Y1007D01*
X2875Y1007D02*
X2882Y1007D01*
X2186Y1006D02*
X2193Y1006D01*
X2875Y1006D02*
X2882Y1006D01*
X2186Y1005D02*
X2193Y1005D01*
X2875Y1005D02*
X2882Y1005D01*
X2186Y1004D02*
X2193Y1004D01*
X2875Y1004D02*
X2882Y1004D01*
X2187Y1003D02*
X2194Y1003D01*
X2874Y1003D02*
X2881Y1003D01*
X2187Y1002D02*
X2194Y1002D01*
X2874Y1002D02*
X2881Y1002D01*
X2187Y1001D02*
X2194Y1001D01*
X2874Y1001D02*
X2881Y1001D01*
X2187Y1000D02*
X2194Y1000D01*
X2874Y1000D02*
X2881Y1000D01*
X2187Y999D02*
X2195Y999D01*
X2873Y999D02*
X2880Y999D01*
X2188Y998D02*
X2195Y998D01*
X2873Y998D02*
X2880Y998D01*
X2188Y997D02*
X2195Y997D01*
X2873Y997D02*
X2880Y997D01*
X2188Y996D02*
X2195Y996D01*
X2872Y996D02*
X2880Y996D01*
X2189Y995D02*
X2196Y995D01*
X2872Y995D02*
X2879Y995D01*
X2189Y994D02*
X2196Y994D01*
X2872Y994D02*
X2879Y994D01*
X2189Y993D02*
X2196Y993D01*
X2872Y993D02*
X2879Y993D01*
X2189Y992D02*
X2197Y992D01*
X2871Y992D02*
X2878Y992D01*
X2190Y991D02*
X2197Y991D01*
X2871Y991D02*
X2878Y991D01*
X2190Y990D02*
X2198Y990D01*
X2870Y990D02*
X2878Y990D01*
X2191Y989D02*
X2198Y989D01*
X2870Y989D02*
X2877Y989D01*
X2191Y988D02*
X2198Y988D01*
X2870Y988D02*
X2877Y988D01*
X2191Y987D02*
X2199Y987D01*
X2869Y987D02*
X2877Y987D01*
X2192Y986D02*
X2199Y986D01*
X2869Y986D02*
X2876Y986D01*
X2192Y985D02*
X2200Y985D01*
X2868Y985D02*
X2876Y985D01*
X2193Y984D02*
X2200Y984D01*
X2868Y984D02*
X2875Y984D01*
X2193Y983D02*
X2201Y983D01*
X2867Y983D02*
X2875Y983D01*
X2193Y982D02*
X2201Y982D01*
X2867Y982D02*
X2875Y982D01*
X2194Y981D02*
X2202Y981D01*
X2866Y981D02*
X2874Y981D01*
X2194Y980D02*
X2202Y980D01*
X2866Y980D02*
X2874Y980D01*
X2195Y979D02*
X2203Y979D01*
X2865Y979D02*
X2873Y979D01*
X2195Y978D02*
X2203Y978D01*
X2865Y978D02*
X2873Y978D01*
X2196Y977D02*
X2204Y977D01*
X2864Y977D02*
X2872Y977D01*
X2196Y976D02*
X2204Y976D01*
X2863Y976D02*
X2872Y976D01*
X2197Y975D02*
X2205Y975D01*
X2863Y975D02*
X2871Y975D01*
X2198Y974D02*
X2206Y974D01*
X2862Y974D02*
X2870Y974D01*
X2198Y973D02*
X2206Y973D01*
X2862Y973D02*
X2870Y973D01*
X2199Y972D02*
X2207Y972D01*
X2861Y972D02*
X2869Y972D01*
X2199Y971D02*
X2208Y971D01*
X2860Y971D02*
X2869Y971D01*
X2200Y970D02*
X2208Y970D01*
X2860Y970D02*
X2868Y970D01*
X2200Y969D02*
X2209Y969D01*
X2859Y969D02*
X2868Y969D01*
X2201Y968D02*
X2210Y968D01*
X2858Y968D02*
X2867Y968D01*
X2202Y967D02*
X2211Y967D01*
X2857Y967D02*
X2866Y967D01*
X2202Y966D02*
X2211Y966D01*
X2857Y966D02*
X2865Y966D01*
X2203Y965D02*
X2212Y965D01*
X2856Y965D02*
X2865Y965D01*
X2204Y964D02*
X2213Y964D01*
X2855Y964D02*
X2864Y964D01*
X2205Y963D02*
X2214Y963D01*
X2854Y963D02*
X2863Y963D01*
X2205Y962D02*
X2215Y962D01*
X2853Y962D02*
X2863Y962D01*
X2206Y961D02*
X2216Y961D01*
X2852Y961D02*
X2862Y961D01*
X2207Y960D02*
X2217Y960D01*
X2851Y960D02*
X2861Y960D01*
X2208Y959D02*
X2218Y959D01*
X2850Y959D02*
X2860Y959D01*
X2209Y958D02*
X2218Y958D01*
X2850Y958D02*
X2859Y958D01*
X2209Y957D02*
X2220Y957D01*
X2848Y957D02*
X2859Y957D01*
X2210Y956D02*
X2221Y956D01*
X2847Y956D02*
X2858Y956D01*
X2211Y955D02*
X2222Y955D01*
X2846Y955D02*
X2857Y955D01*
X2212Y954D02*
X2223Y954D01*
X2845Y954D02*
X2856Y954D01*
X2213Y953D02*
X2224Y953D01*
X2844Y953D02*
X2855Y953D01*
X2214Y952D02*
X2225Y952D01*
X2843Y952D02*
X2854Y952D01*
X2215Y951D02*
X2226Y951D01*
X2842Y951D02*
X2853Y951D01*
X2216Y950D02*
X2228Y950D01*
X2840Y950D02*
X2852Y950D01*
X2217Y949D02*
X2229Y949D01*
X2839Y949D02*
X2851Y949D01*
X2218Y948D02*
X2230Y948D01*
X2838Y948D02*
X2850Y948D01*
X2220Y947D02*
X2232Y947D01*
X2836Y947D02*
X2848Y947D01*
X2221Y946D02*
X2233Y946D01*
X2835Y946D02*
X2847Y946D01*
X2222Y945D02*
X2235Y945D01*
X2833Y945D02*
X2846Y945D01*
X2223Y944D02*
X2237Y944D01*
X2831Y944D02*
X2845Y944D01*
X2225Y943D02*
X2238Y943D01*
X2830Y943D02*
X2843Y943D01*
X2226Y942D02*
X2240Y942D01*
X2828Y942D02*
X2842Y942D01*
X2228Y941D02*
X2242Y941D01*
X2826Y941D02*
X2840Y941D01*
X2229Y940D02*
X2244Y940D01*
X2824Y940D02*
X2839Y940D01*
X2230Y939D02*
X2246Y939D01*
X2822Y939D02*
X2837Y939D01*
X2232Y938D02*
X2248Y938D01*
X2820Y938D02*
X2836Y938D01*
X2234Y937D02*
X2251Y937D01*
X2817Y937D02*
X2834Y937D01*
X2236Y936D02*
X2254Y936D01*
X2814Y936D02*
X2832Y936D01*
X2237Y935D02*
X2257Y935D01*
X2811Y935D02*
X2831Y935D01*
X2239Y934D02*
X2260Y934D01*
X2808Y934D02*
X2829Y934D01*
X2241Y933D02*
X2265Y933D01*
X2803Y933D02*
X2827Y933D01*
X2243Y932D02*
X2270Y932D01*
X2798Y932D02*
X2825Y932D01*
X2246Y931D02*
X2822Y931D01*
X2248Y930D02*
X2820Y930D01*
X2251Y929D02*
X2817Y929D01*
X2254Y928D02*
X2814Y928D01*
X2257Y927D02*
X2811Y927D01*
X2261Y926D02*
X2807Y926D01*
X2265Y925D02*
X2803Y925D01*
X2271Y924D02*
X2797Y924D01*
D02*
G04 End of Silk0*
M02*